<svg xmlns:xlink="http://www.w3.org/1999/xlink" xmlns="http://www.w3.org/2000/svg" viewBox="0 0 225 48" width="225"  height="48" >
  <path fill="#ff2b7f" d="M24.66 6.48L42.87 19.7l-6.95 21.41H13.41L6.46 19.7zm0-6.48a6.14 6.14 0 00-3.58 1.16L2.51 14.65A6.11 6.11 0 00.3 21.47l7.09 21.82a6.1 6.1 0 005.8 4.22h23a6.1 6.1 0 005.8-4.21L49 21.47a6.11 6.11 0 00-2.22-6.82L28.25 1.16A6.14 6.14 0 0024.66 0zM62.03 39.36h19.84v-5.75H68.36v-5.76h11.71v-5.63H68.36v-5.38h13.51v-5.75H62.03v28.27zM118.92 34.19c-1.11 0-1.36-.66-1.36-2.18V26.8c0-5.34-2.59-8.59-7.27-8.59-2.87 0-5.46.7-6.82 3.29-.94-2.14-2.79-3.29-5.62-3.29a5.63 5.63 0 00-5.38 3v-2.55h-6.12v20.7h6.12V27.74c0-2.42 1.43-4.11 3.41-4.11S99 25.15 99 27.53v11.83h6.12V27.74c0-2.42 1.39-4.11 3.36-4.11s3 1.52 3 3.9v6.17c0 4.35 2.22 5.91 5.46 5.91h1.17a10.59 10.59 0 002.43-.38V34c-.08 0-.63.11-1 .15-.09 0-.38.04-.62.04zM138.78 35.51a9.53 9.53 0 01-9.78-9.67 9.57 9.57 0 019.76-9.73 10.48 10.48 0 017.53 3.18l4.71-3.44a16 16 0 00-12.15-5.58c-8.94 0-16.2 6.57-16.2 15.57s7.26 15.51 16.2 15.51a16 16 0 0012.19-5.61l-4.73-3.44a10.42 10.42 0 01-7.53 3.21zM171 39a6.63 6.63 0 003.36.74 10.16 10.16 0 002.76-.33v-5.1a8.93 8.93 0 01-1 .08c-1.07 0-1.52-.61-1.52-2.3V18.66h-6.12v2.71c-.65-1.58-3-3.08-6.16-3.08-5.93 0-10.32 4.77-10.32 10.71s4.4 10.76 10.27 10.76c3.61 0 5.67-1.23 6.86-3A4 4 0 00171 39zm-7.6-4.8a5.18 5.18 0 110-10.35 5.18 5.18 0 110 10.35zM192.47 27.08c-4-1.39-5.67-1.15-5.67-2.55 0-.69.66-1.3 2.06-1.3a7.58 7.58 0 012.41.37l.27.11a13 13 0 011.75.87c.37.22.7.43 1 .6l1.51-4.69a9.79 9.79 0 00-6.8-2.44 11.32 11.32 0 00-2.2.21c-3.25.66-5.85 2.8-5.85 6.44a5.16 5.16 0 002.28 4.53 9.56 9.56 0 002.48 1.22c3.17 1.07 6 1.19 6 2.59 0 1-.94 1.68-3.12 1.68a9 9 0 01-2.17-.26h-.12c-.24-.06-.48-.14-.72-.22a16.38 16.38 0 01-2.94-1.45c-.29-.17-.46-.29-.46-.29l-.38 1.2-1.23 3.75a11.85 11.85 0 007.84 2.49c6.32 0 9.12-3 9.12-7 .04-2.61-1.32-4.59-5.06-5.86zM224 34.39c-1.07 0-1.52-.61-1.52-2.3V18.66h-6.12v2.71c-.58-1.8-3-3.08-6.16-3.08-5.88 0-10.27 4.77-10.27 10.72s4.39 10.76 10.27 10.76c3.61 0 5.67-1.23 6.86-3a4 4 0 001.81 2.23 6.63 6.63 0 003.36.74 10.16 10.16 0 002.77-.34v-5.09a8.93 8.93 0 01-1 .08zm-12.69-.2a5.18 5.18 0 110-10.35 5.18 5.18 0 110 10.35z"/>
</svg>