<?xml version="1.0" encoding="utf-8"?>
<!-- Generator: Adobe Illustrator 27.0.1, SVG Export Plug-In . SVG Version: 6.00 Build 0)  -->
<svg version="1.1" id="Layer_1" xmlns="http://www.w3.org/2000/svg" xmlns:xlink="http://www.w3.org/1999/xlink" x="0px" y="0px"
	 viewBox="0 0 144 25" style="enable-background:new 0 0 144 25;" xml:space="preserve">
<style type="text/css">
	.st0{fill:#F20024;}
</style>
<path class="st0" d="M125.7,0.2c-6,0-11.9,0.6-17.6,1.8l0.8,4.9c4.7-1,9.5-1.5,14.5-1.7v18.6h4.7V5.2c4.9,0.1,9.7,0.7,14.5,1.6
	l0.8-4.9C137.6,0.8,131.7,0.2,125.7,0.2z"/>
<path class="st0" d="M46.9,1.1h-4.7v22.8h4.7V1.1z"/>
<path class="st0" d="M0,2l0.8,4.9c4.7-1,9.5-1.5,14.5-1.7v18.6H20V5.3c4.9,0.1,9.7,0.7,14.5,1.6L35.2,2c-5.7-1.1-11.6-1.7-17.6-1.7
	C11.6,0.2,5.7,0.8,0,2z"/>
<path class="st0" d="M101.1,1.1h-4.7v22.8h4.7V1.1z"/>
<path class="st0" d="M71.6,17.3C66.3,11.8,61.6,5.4,58.2,0.1l-3.7,3.1c3.9,6.5,11.2,15.4,17.1,21l0,0c5.9-5.6,13.1-14.5,17-21
	l-3.7-3.1C81.7,5.4,77,11.8,71.6,17.3z"/>
</svg>
