<svg xmlns="http://www.w3.org/2000/svg" xmlns:xlink="http://www.w3.org/1999/xlink" version="1.1" id="Layer_1" x="0px" y="0px" viewBox="0 0 70 70" style="enable-background:new 0 0 70 70;" xml:space="preserve" width="70"  height="70" >
<style type="text/css">
	.st0{fill-rule:evenodd;clip-rule:evenodd;fill:#FFFFFF;}
	.st1{fill:#FFFFFF;}
	.st2{fill:#00B338;}
	.st3{fill:#14AF4A;}
</style>
<g>
	<path d="M1,5c0-2.2,1.8-4,4-4H65c2.2,0,4,1.8,4,4V65c0,2.2-1.8,4-4,4H5c-2.2,0-4-1.8-4-4V5z"/>
	<g>
		<path class="st0" d="M65,1.1H5C2.8,1.1,1.1,2.8,1.1,5V65c0,2.1,1.7,3.9,3.9,3.9H65c2.1,0,3.9-1.7,3.9-3.9V5    C68.9,2.8,67.2,1.1,65,1.1z M5,1C2.8,1,1,2.8,1,5V65c0,2.2,1.8,4,4,4H65c2.2,0,4-1.8,4-4V5c0-2.2-1.8-4-4-4H5z"/>
	</g>
	<path class="st1" d="M20.9,34.4c0.9,0,1.8-0.2,2.5-0.6c0.8-0.4,1.5-1,2-1.7v2h4V17.1h-4.2v8.4c0,1.5-0.3,2.7-0.9,3.4   c-0.6,0.8-1.4,1.2-2.5,1.2c-2,0-3-1.4-3-4.1v-8.9h-4.2v9.6c0,2.5,0.6,4.4,1.7,5.7C17.4,33.7,18.9,34.4,20.9,34.4z"/>
	<path class="st0" d="M18.6,52.7v-8.4c0-1.5,0.3-2.6,0.8-3.3c0.5-0.7,1.3-1.1,2.2-1.1c1.7,0,2.6,1.3,2.6,4v8.9h4v-8.4   c0-1.5,0.3-2.6,0.8-3.3c0.5-0.7,1.3-1.1,2.2-1.1c0.8,0,1.5,0.3,1.9,1c0.5,0.7,0.7,1.7,0.7,3v8.9h4v-9.6c0-2.5-0.5-4.3-1.5-5.6   c-1-1.2-2.4-1.9-4.1-1.9c-1,0-2,0.2-2.8,0.7c-0.9,0.5-1.6,1.2-2.1,2c-0.5-0.9-1.1-1.6-1.9-2c-0.8-0.5-1.7-0.7-2.6-0.7   c-0.9,0-1.7,0.2-2.5,0.6c-0.7,0.4-1.4,0.9-1.9,1.6v-1.9h-3.8v16.8H18.6z M46.3,52.9c2.5,0,4.4-0.9,5.7-2.7l-2.1-2.8   c-0.5,0.6-1,1-1.6,1.2c-0.6,0.3-1.2,0.4-1.9,0.4c-1,0-1.9-0.3-2.6-0.9c-0.7-0.6-1.1-1.4-1.3-2.5h10.4c0.1-0.8,0.1-1.2,0.1-1.3   c0-1.7-0.3-3.3-0.9-4.6c-0.6-1.3-1.5-2.3-2.6-3c-1.1-0.7-2.3-1.1-3.7-1.1c-1.4,0-2.6,0.4-3.8,1.1c-1.1,0.7-2,1.8-2.6,3.1   c-0.6,1.3-1,2.8-1,4.5c0,1.7,0.3,3.2,1,4.5c0.7,1.3,1.6,2.3,2.8,3.1C43.3,52.6,44.7,52.9,46.3,52.9z M42.4,42.8h6.8   c-0.1-1.1-0.5-1.9-1.1-2.5c-0.6-0.6-1.4-1-2.3-1c-0.9,0-1.7,0.3-2.3,0.9C42.9,40.9,42.5,41.7,42.4,42.8z"/>
	<path class="st2" d="M53.5,52.9c0.5,0,1-0.2,1.3-0.7c0.4-0.5,0.5-1.1,0.5-1.8c0-0.7-0.2-1.3-0.5-1.8c-0.4-0.5-0.8-0.7-1.3-0.7   c-0.5,0-1,0.2-1.3,0.7c-0.4,0.5-0.5,1-0.5,1.8c0,0.7,0.2,1.3,0.5,1.8C52.6,52.7,53,52.9,53.5,52.9z"/>
	<path class="st3" d="M30.7,17.1h22.3v16.1H30.7V17.1z"/>
</g>
</svg>