<svg xmlns:xlink="http://www.w3.org/1999/xlink" xmlns="http://www.w3.org/2000/svg" viewBox="0 0 1390.94 1080" width="1390.94"  height="1080" ><defs><style>.cls-1{fill:#231f20;}</style></defs><title>Asset 3</title><g id="Layer_2" data-name="Layer 2"><g id="Layer_1-2" data-name="Layer 1"><path class="cls-1" d="M1203.33,0V40.75c0,206.33-167.86,374.19-374.23,374.19H788.39V602.55H829.1c140.44,0,272.13-51,374.23-142.77V1079.7h187.61V0Z"/><path class="cls-1" d="M703.73,1080H0V986.74A598.8,598.8,0,0,1,260.76,492.3l76.88-52.62A412.45,412.45,0,0,0,507.56,187.91H0V1.36H703.73V99.17A598.92,598.92,0,0,1,443,593.62l-76.84,52.61A412.3,412.3,0,0,0,197.2,893.49H703.73Z"/></g></g></svg>