<svg xmlns:xlink="http://www.w3.org/1999/xlink" xmlns="http://www.w3.org/2000/svg" width="68" height="51" viewBox="0 0 68 51" fill="none">
<path d="M61.4157 35.2464H48.2701C45.9941 35.2464 43.8743 34.36 42.3036 32.7536C40.4659 30.8725 39.6424 28.2791 40.0466 25.6316C40.4545 22.9454 42.1129 20.5881 44.4805 19.3301L62.7691 9.60701V8.56967C62.7691 6.77368 61.328 5.31057 59.559 5.31057H45.3536C43.9086 5.31057 42.7382 4.12227 42.7382 2.65528C42.7382 1.1883 43.9086 0 45.3536 0H59.5628C64.2141 0 67.9999 3.84358 67.9999 8.5658V11.1553C67.9999 11.1901 67.9999 11.225 67.9999 11.2637V28.5617C68.0037 32.2505 65.049 35.2464 61.4157 35.2464ZM62.773 15.5988L46.9091 24.0291C45.9941 24.5168 45.3764 25.3955 45.2163 26.4367C45.1286 27.0018 45.121 28.0934 46.017 29.0107C46.4287 29.4326 47.1531 29.9358 48.274 29.9358H61.4195C62.1668 29.9358 62.773 29.3204 62.773 28.5617V15.5988Z" fill="#00C3C5"/>
<path d="M28.552 35.2464H13.0465C11.6016 35.2464 10.4312 34.0581 10.4312 32.5911C10.4312 31.1241 11.6016 29.9358 13.0465 29.9358H28.552C29.6386 29.9358 30.4202 29.4675 30.8815 29.0727C31.6478 28.4224 32.0214 27.4547 31.9147 26.4213C31.8003 25.3259 31.1598 24.3737 30.2105 23.8666L15.2692 15.924C12.9017 14.666 11.2432 12.3088 10.8353 9.62253C10.4312 6.97499 11.2547 4.37777 13.0923 2.49662C14.663 0.890292 16.7828 0.00390625 19.0589 0.00390625H34.8808C36.3258 0.00390625 37.4962 1.1922 37.4962 2.65919C37.4962 4.12617 36.3258 5.31447 34.8808 5.31447H19.0589C17.9418 5.31447 17.2136 5.81766 16.8019 6.23956C15.9059 7.15691 15.9174 8.24458 16.0012 8.81356C16.1614 9.85865 16.7752 10.7373 17.694 11.225L32.6352 19.1676C35.1362 20.4991 36.8099 22.9996 37.1149 25.86C37.4085 28.6469 36.3334 31.3718 34.2365 33.1524C32.62 34.5226 30.6527 35.2464 28.552 35.2464Z" fill="#00C3C5"/>
<path d="M2.61538 35.2464C1.17044 35.2464 0 34.0581 0 32.5911V2.65528C0 1.1883 1.17044 0 2.61538 0C4.06032 0 5.23077 1.1883 5.23077 2.65528V32.5911C5.23077 34.0581 4.06032 35.2464 2.61538 35.2464Z" fill="#00C3C5"/>
<path d="M21.971 49.4632C22.1273 49.4632 22.2607 49.5213 22.3675 49.6374C22.478 49.7535 22.5314 49.889 22.5314 50.0477V50.427C22.5314 50.5857 22.478 50.7212 22.3675 50.8296C22.2569 50.938 22.1273 50.996 21.971 50.996H17.7963C17.64 50.996 17.5065 50.9418 17.3998 50.8296C17.2892 50.7173 17.2358 50.5857 17.2358 50.427V42.8715C17.2358 42.7128 17.2892 42.5773 17.3998 42.4689C17.5103 42.3567 17.64 42.3025 17.7963 42.3025H18.2805C18.3529 42.3025 18.4253 42.318 18.4978 42.3489C18.5702 42.3799 18.6312 42.4225 18.677 42.4767C18.7227 42.5309 18.7608 42.5889 18.7952 42.6586C18.8257 42.7283 18.8409 42.7979 18.8409 42.8715V49.4632H21.971Z" fill="#ED1E79"/>
<path d="M37.343 50.2064C37.4155 50.3961 37.3964 50.5741 37.282 50.7444C37.1676 50.9147 37.0113 50.996 36.8131 50.996H36.2374C35.9781 50.996 35.8028 50.876 35.7075 50.6322L35.147 49.2078H31.6128L31.0524 50.6322C30.9571 50.876 30.7893 50.996 30.5377 50.996H29.9467C29.7485 50.996 29.596 50.9109 29.4854 50.7444C29.3749 50.5741 29.3596 50.3961 29.4321 50.2064L32.4058 42.6663C32.5087 42.4225 32.6879 42.3025 32.9357 42.3025H33.8241C34.0719 42.3025 34.2434 42.4225 34.3388 42.6663L37.343 50.2064ZM32.1389 47.675H34.598L33.3818 44.5126L32.1389 47.675Z" fill="#ED1E79"/>
<path d="M50.7665 48.4995C50.7665 49.2814 50.5225 49.889 50.0345 50.3342C49.5465 50.7754 48.9174 50.9999 48.1511 50.9999H44.7885C44.6322 50.9999 44.4987 50.9457 44.392 50.8335C44.2814 50.7212 44.228 50.5896 44.228 50.4309V42.8754C44.228 42.7167 44.2814 42.5812 44.392 42.4728C44.5025 42.3606 44.6322 42.3064 44.7885 42.3064H48.0749C48.5514 42.3064 48.9822 42.3993 49.3597 42.5812C49.7371 42.767 50.0421 43.0379 50.2709 43.4018C50.4996 43.7656 50.614 44.1914 50.614 44.6752C50.614 44.8533 50.5949 45.0352 50.553 45.2133C50.5111 45.3913 50.4501 45.5578 50.3738 45.7126C50.2976 45.8674 50.1984 46.0106 50.084 46.1461C49.9697 46.2816 49.8439 46.4054 49.7104 46.5099C50.0307 46.719 50.2899 47.0093 50.4806 47.3731C50.6674 47.7292 50.7665 48.1085 50.7665 48.4995ZM48.071 45.7319C48.3837 45.7319 48.6353 45.6468 48.8335 45.4803C49.0318 45.31 49.1309 45.0701 49.1309 44.7527C49.1309 44.4353 49.0318 44.1914 48.8335 44.0172C48.6353 43.843 48.3837 43.7579 48.071 43.7579H45.673V45.7358H48.071V45.7319ZM48.071 49.5871C48.4027 49.5871 48.662 49.4904 48.8488 49.293C49.0356 49.0994 49.1309 48.8323 49.1309 48.4956C49.1309 48.1589 49.0356 47.8918 48.8412 47.6982C48.6505 47.5047 48.3913 47.4041 48.071 47.4041H45.673V49.5871H48.071Z" fill="#ED1E79"/>
</svg>