<svg xmlns:xlink="http://www.w3.org/1999/xlink" xmlns="http://www.w3.org/2000/svg" version="1.1" id="Layer_1" x="0px" y="0px" width="100" height="40" viewBox="0 0 200 62"><g><g><path fill="#00E88F" class="st0" d="M48.9,0.9L6.6,8.8C3,9.5,0,13.1,0,17.3v26.8c0,4.4,3,7.8,6.6,8.5L49,61.1c5.3,1.1,9.8-3,9.8-8.7V10 C58.7,3.7,54.3-0.1,48.9,0.9z"></path></g><g><path d="M17,37.6C15.8,39,14,40,11.9,40c-4.7,0-8.1-3.8-8.1-9.1s3.5-9.1,8.1-9.1c1.8,0,3.4,0.7,4.6,1.8v-8.3h4.5v24.3h-3.7 L17,37.6z M8.3,30.9C8.3,34,10,36,12.4,36c2.7,0,4.1-2,4.1-5.1s-1.5-5.1-4.1-5.1C10,25.8,8.3,27.8,8.3,30.9z"></path><path d="M33,40c-5.1,0-9-3.8-9-9.1c0-5.5,3.5-9.1,8.6-9.1c5.3,0,8.3,3.6,8.3,8.4c0,0.7,0,1.5-0.2,2.2H28.6 c0.4,2.2,1.9,3.7,4.4,3.6c1.5,0,3.1-0.8,4.2-2.6l3.6,1.8C39,38.4,36.7,40,33,40z M28.8,28.9h7.6c-0.2-2.2-1.5-3.6-3.8-3.6 S29.1,26.6,28.8,28.9z"></path><path d="M42.7,27c0-3,2.4-5.4,6.6-5.4c2.8,0,4.9,1.4,6.1,3l-2.8,2.5c-0.6-0.9-1.8-1.7-3.6-1.7c-1.4,0-2.3,0.6-2.3,1.6 c0,0.9,0.4,1.5,3,2.1c3.6,0.9,5.8,2.1,5.8,5.4S52.6,40,48.8,40c-2.8,0-4.9-1.3-6.7-3.8l2.8-2.3c1.6,1.9,2.7,2.4,4.4,2.4 c1.2,0,2-0.6,2-1.5c0-1.2-1.2-1.7-4.2-2.4C44.4,31.7,42.7,30.2,42.7,27z"></path></g><g class="logo-content" fill="black"><path d="M70.2,40c-5.2,0-8.9-3.8-8.9-9.1s3.7-9.1,8.9-9.1c3.6,0,6.4,1.4,8.1,4.6l-3.8,1.9c-1.2-1.9-2.4-2.6-4.3-2.6 c-2.7,0-4.4,2-4.4,5.1s1.6,5.1,4.4,5.1c1.8,0,3.1-0.7,4.3-2.6l3.8,1.9C76.7,38.6,73.9,40,70.2,40z"></path><path d="M97.5,30.9c0,5.3-3.7,9.1-9,9.1s-9-3.8-9-9.1s3.7-9.1,9-9.1S97.5,25.6,97.5,30.9z M92.8,30.9c0-3-1.6-5.1-4.5-5.1 c-2.7,0-4.5,2.1-4.5,5.1c0,3.1,1.6,5.1,4.5,5.1C91.2,35.9,92.8,33.9,92.8,30.9z"></path><path d="M104.9,27.4v12.2h-4.5V22.2h3.7l0.3,1.6c1.5-1.4,3.5-2.1,5.5-2.1c2.7,0,4.2,1,4.9,2.4c1.5-1.6,3.7-2.4,5.9-2.4 c5.1,0,5.8,3.6,5.8,7.2v10.6H122V28.8c0-2.4-0.7-3.1-2.4-3.1c-1.5,0-2.9,0.7-4,1.7c0,0.5,0,1,0,1.5v10.6H111V28.8 c0-2.4-0.7-3.1-2.4-3.1C107.5,25.7,106,26.4,104.9,27.4z"></path><path d="M135,38.2v7.5h-4.5V22.2h3.7l0.4,1.9c1.3-1.5,3-2.4,5.1-2.4c4.7,0,8.1,3.8,8.1,9.1s-3.5,9.1-8.1,9.1 C137.9,40,136.3,39.3,135,38.2z M143.3,30.9c0-3.1-1.6-5.1-4.1-5.1c-2.7,0-4.1,2-4.1,5.1c0,3.1,1.5,5.1,4.1,5.1 C141.6,35.9,143.3,34,143.3,30.9z"></path><path d="M156.3,39.6c-0.4,0-0.8,0.1-1.3,0.1c-3.1,0-4.9-1.6-4.9-5.3V15.2h4.5v18.2c0,1.5,0.5,1.9,1.7,1.9L156.3,39.6L156.3,39.6z"></path><path d="M161.4,14c1.6,0,2.8,1.3,2.8,2.9c0,1.5-1.3,2.8-2.8,2.8c-1.5,0-2.8-1.3-2.8-2.8C158.5,15.2,159.8,14,161.4,14z M159.1,39.5V22.1h4.5v17.4H159.1z"></path><path d="M175.5,40c-5.2,0-8.9-3.8-8.9-9.1s3.7-9.1,8.9-9.1c3.6,0,6.4,1.4,8.1,4.6l-3.8,1.9c-1.2-1.9-2.4-2.6-4.3-2.6 c-2.7,0-4.4,2-4.4,5.1s1.6,5.1,4.4,5.1c1.8,0,3.1-0.7,4.3-2.6l3.8,1.9C181.9,38.6,179.1,40,175.5,40z"></path><path d="M196.3,38.1c-1.3,1.3-3.1,2-5,2c-3.5,0-6.6-2.5-6.6-5.9c0-3.7,3.1-5.9,6.8-5.9c1.8,0,3.1,0.7,4,1.5v-1.8 c0-1.5-1.4-2.4-3.3-2.4c-1.3,0-2.9,0.3-4.7,1.3l-1.3-3.3c2.2-1.2,4.2-1.7,6.8-1.7c4.6,0,7.1,2.6,7.1,7v10.8h-3.6L196.3,38.1z M192.4,36.4c1.6,0,2.7-0.9,2.8-2.3c0-1.4-1.1-2.3-2.8-2.3c-1.6,0-3,1-3,2.3C189.4,35.5,190.7,36.4,192.4,36.4z"></path></g></g></svg>