<svg xmlns:xlink="http://www.w3.org/1999/xlink" class="fill-current text-brown" width="60" height="35.2" viewBox="0 0 75 44" fill="none" xmlns="http://www.w3.org/2000/svg"><path d="M8.11285 26.0105L8.19392 25.861C10.5064 21.5691 13.91 14.7391 15.446 11.6491C12.6077 12.1956 2.89166 14.1237 1.11784 14.4712C0.770113 15.7042 0.415989 16.9329 0.0639983 18.1272C1.1573 17.982 6.75182 17.2761 6.75182 17.2761L6.66436 17.4526C4.62281 21.5637 2.39674 25.6867 0 29.404C2.46927 29.6536 11.813 30.5714 14.2866 30.821C14.5735 29.5718 15.2348 26.6044 15.3297 26.1773C14.4455 26.1568 13.6348 26.1396 12.8477 26.1224C11.2818 26.0891 8.11285 26.0105 8.11285 26.0105Z" fill="#4C2C3A"></path><path d="M16.9766 11.3576V31.0772L23.1641 31.6872V10.1418C22.0943 10.3559 18.104 11.1306 16.9766 11.3576Z" fill="#4C2C3A"></path><path d="M41.5069 7.5455C40.837 6.9957 39.9027 6.83969 38.7294 7.08393C36.5001 7.53259 27.9649 9.18736 25.7676 9.62957V40.1654L31.9935 39.5478V32.5565L37.9209 33.1407C39.5304 33.3085 40.6898 33.046 41.4664 32.3391C42.2535 31.6226 42.6365 30.4412 42.6365 28.7273V10.699C42.6375 9.24331 42.2461 8.1534 41.5069 7.5455ZM36.2334 25.8416C36.2334 26.1396 36.2057 26.3516 36.0649 26.4893C35.9572 26.5948 35.794 26.6432 35.5401 26.6432C35.5177 26.6432 35.4943 26.6432 35.4708 26.6421C34.9097 26.6249 34.338 26.6131 33.7855 26.6023C33.2319 26.5915 32.6581 26.5797 32.0949 26.5625L31.9946 26.5593V14.0807L35.5071 13.6245C35.747 13.5922 35.9241 13.6288 36.0446 13.7364C36.1726 13.8493 36.2324 14.0344 36.2324 14.3174V25.8416H36.2334Z" fill="#4C2C3A"></path><path d="M63.9811 7.50137C63.9811 5.5335 63.5085 4.10467 62.6136 3.36873C61.9662 2.83723 61.1118 2.67691 60.074 2.8921C57.8436 3.34184 55.1461 3.84429 52.536 4.36289C49.9665 4.87395 47.3095 5.38717 45.1016 5.83153V44L52.1648 43.2974V34.5426C52.1648 34.5426 58.33 35.1505 59.2932 35.2452C60.7449 35.3969 61.8243 35.1301 62.5966 34.4275C63.5469 33.5624 64.0088 32.0282 64.0088 29.7343C64.0088 26.1041 64.0013 22.304 63.9949 18.6092C63.9885 14.9188 63.9811 11.1315 63.9811 7.50137ZM56.6746 26.9649C56.5647 27.0725 56.4069 27.122 56.1679 27.122C56.1477 27.122 56.1274 27.122 56.1071 27.1209L52.1659 27.0273V11.4909C52.1659 11.4909 55.5717 11.0541 56.1221 10.9831C56.3439 10.954 56.5103 10.9927 56.6309 11.1003C56.7813 11.2338 56.8485 11.4608 56.8485 11.8341C56.8485 14.3529 56.8538 16.7113 56.8591 18.9923C56.8645 21.2732 56.8698 23.6316 56.8698 26.1504C56.8698 26.5356 56.8367 26.8067 56.6746 26.9649Z" fill="#4C2C3A"></path><path d="M66.8838 1.55471V35.9962C68.0155 36.1081 73.6751 36.6643 74.7993 36.7762V0C73.6729 0.225944 68.0166 1.32769 66.8838 1.55471Z" fill="#4C2C3A"></path></svg>