<svg xmlns:xlink="http://www.w3.org/1999/xlink" xmlns="http://www.w3.org/2000/svg" width="120" height="42"><path d="M 89.277 33.544 C 89.976 35.666 91.403 38.273 94.594 38.595 C 97.538 38.892 99.757 37.045 101.237 35.095 C 102.758 33.09 103.959 30.411 104.887 27.693 C 106.742 22.256 107.755 15.899 107.755 12.476 L 102.847 12.476 C 102.847 15.279 101.953 21.102 100.24 26.12 C 99.383 28.63 98.385 30.747 97.322 32.148 C 96.218 33.603 95.469 33.77 95.09 33.732 C 95.088 33.732 95.085 33.732 95.083 33.731 C 94.943 33.718 94.485 33.673 93.941 32.021 C 93.479 30.619 93.213 28.821 92.896 26.675 C 92.841 26.298 92.784 25.911 92.723 25.512 C 92.347 23.022 91.855 20.148 90.767 17.773 C 89.635 15.3 87.703 13.056 84.394 12.453 L 83.51 17.261 C 84.723 17.482 85.582 18.229 86.302 19.8 C 87.066 21.47 87.485 23.694 87.87 26.24 C 87.922 26.586 87.974 26.94 88.027 27.299 C 88.335 29.408 88.672 31.706 89.277 33.544 Z" fill="rgb(41,37,44)"/><path d="M 59.765 38.65 C 59.487 38.65 59.206 38.641 58.925 38.627 C 52.856 38.301 48.038 34.503 46.654 28.945 C 45.032 22.439 48.921 15.212 55.32 12.833 C 58.242 11.749 61.693 11.702 64.56 12.715 C 68.333 14.047 71.715 17.73 70.551 21.932 C 69.419 26.018 65.4 26.725 62.745 27.195 C 62.313 27.27 61.908 27.342 61.54 27.42 C 57.399 28.305 55.054 29.669 53.713 31.979 C 55.312 33.306 57.344 33.92 59.177 34.018 C 62.244 34.182 66.367 32.899 67.893 28.741 L 72.245 30.327 C 70.36 35.449 65.519 38.65 59.765 38.65 Z M 60.144 16.602 C 59.047 16.602 57.935 16.79 56.936 17.159 C 52.784 18.702 50.143 23.515 51.119 27.714 C 53.846 24.671 57.703 23.521 60.561 22.909 C 61.01 22.814 61.479 22.73 61.931 22.65 C 64.606 22.18 65.773 21.805 66.08 20.703 C 66.5 19.186 64.566 17.614 63.008 17.064 C 62.133 16.758 61.143 16.602 60.144 16.602 Z" fill="rgb(41,37,44)"/><path d="M 10.041 38.16 L 5.335 38.16 L 5.335 22.574 C 5.335 19.932 4.408 17.33 2.725 15.256 C 2.57 15.063 2.467 14.949 2.449 14.928 L 6.032 12.109 C 6.064 12.144 6.235 12.329 6.493 12.652 C 8.779 15.477 10.038 18.999 10.038 22.577 L 10.038 38.16 Z" fill="rgb(41,37,44)"/><path d="M 40.78 38.65 C 40.748 38.612 40.595 38.425 40.337 38.088 C 38.084 35.113 37.42 32.348 37.42 28.583 L 37.42 22.194 C 37.42 19.091 34.863 16.569 31.722 16.569 C 28.582 16.569 26.025 19.094 26.025 22.194 L 26.025 38.118 L 21.386 38.118 L 21.386 22.194 C 21.386 16.566 26.022 11.989 31.722 11.989 C 37.423 11.989 42.059 16.566 42.059 22.194 L 42.059 28.583 C 42.059 31.366 42.392 33.158 44.051 35.342 C 44.205 35.546 44.306 35.666 44.327 35.689 Z" fill="rgb(41,37,44)"/><path d="M 26.028 38.16 L 21.389 38.16 L 21.389 22.191 C 21.389 19.088 18.831 16.566 15.691 16.566 C 12.551 16.566 9.993 19.091 9.993 22.191 L 9.993 38.116 L 5.354 38.116 L 5.354 22.191 C 5.354 16.564 9.991 11.986 15.691 11.986 C 21.391 11.986 26.028 16.564 26.028 22.191 Z" fill="rgb(41,37,44)"/><path d="M 79.592 2.446 L 75.184 2.446 L 75.184 38.16 L 79.592 38.16 Z" fill="rgb(41,37,44)"/><path d="M 116.571 12.476 L 112.163 12.476 L 112.163 38.16 L 116.571 38.16 Z" fill="rgb(41,37,44)"/><path d="M 114.389 8.317 C 113.348 8.317 112.556 8.059 112.007 7.546 C 111.458 7.03 111.184 6.303 111.184 5.361 C 111.184 4.418 111.458 3.697 112.007 3.198 C 112.556 2.699 113.35 2.446 114.389 2.446 C 115.398 2.446 116.176 2.696 116.728 3.198 C 117.277 3.7 117.551 4.421 117.551 5.361 C 117.551 6.303 117.277 7.032 116.728 7.546 C 116.179 8.059 115.398 8.317 114.389 8.317 Z" fill="rgb(41,37,44)"/></svg>