<?xml version="1.0" encoding="utf-8"?>
<!-- Generator: Adobe Illustrator 27.0.1, SVG Export Plug-In . SVG Version: 6.00 Build 0)  -->
<svg version="1.1" id="Layer_1" xmlns="http://www.w3.org/2000/svg" xmlns:xlink="http://www.w3.org/1999/xlink" x="0px" y="0px"
	 viewBox="0 0 82 26" style="enable-background:new 0 0 82 26;" xml:space="preserve">
<style type="text/css">
	.st0{fill-rule:evenodd;clip-rule:evenodd;fill:#3FE1B6;}
</style>
<path id="fácio" d="M3,14H0v-2.3h3V8.6c0-1.9,0.4-3.2,1.1-4.2s2-1.4,3.7-1.4c0.3,0,0.6,0,0.9,0c0.3,0,0.7,0.1,1,0.2L9.5,5.6
	C9.2,5.5,9,5.4,8.8,5.4C8.5,5.4,8.3,5.3,8,5.3c-0.5,0-0.9,0.1-1.2,0.2C6.5,5.7,6.3,5.9,6.1,6.2c-0.2,0.3-0.3,0.6-0.3,1
	c0,0.4-0.1,0.8-0.1,1.3v3.2h3.2V14H5.7v11.6H3V14z M12.6,13.4c0.7-0.7,1.6-1.2,2.6-1.5c1-0.3,2-0.5,3-0.5c1,0,1.9,0.1,2.6,0.4
	c0.7,0.3,1.3,0.6,1.8,1c0.5,0.4,0.8,0.9,1,1.5c0.2,0.6,0.3,1.1,0.3,1.7v7.1c0,0.5,0,0.9,0,1.4c0,0.4,0,0.8,0.1,1.2h-2.4
	c-0.1-0.7-0.1-1.4-0.1-2.1h-0.1c-0.6,0.9-1.3,1.5-2.1,1.9c-0.8,0.4-1.7,0.6-2.8,0.6c-0.7,0-1.3-0.1-1.9-0.3
	c-0.6-0.2-1.1-0.4-1.6-0.8s-0.8-0.8-1-1.3c-0.3-0.5-0.4-1.1-0.4-1.8c0-0.9,0.2-1.7,0.6-2.3c0.4-0.6,1-1.1,1.7-1.5
	c0.7-0.4,1.5-0.7,2.5-0.8c0.9-0.2,1.9-0.2,3-0.2h2v-0.6c0-0.4-0.1-0.7-0.2-1.1c-0.1-0.4-0.3-0.7-0.6-1c-0.3-0.3-0.6-0.5-1-0.7
	c-0.4-0.2-0.9-0.2-1.5-0.2c-0.5,0-1,0-1.3,0.1c-0.4,0.1-0.7,0.2-1,0.4c-0.3,0.1-0.6,0.3-0.9,0.5c-0.3,0.2-0.5,0.4-0.7,0.6L12.6,13.4
	z M20.1,18.9c-0.6,0-1.3,0-1.9,0.1c-0.7,0.1-1.3,0.2-1.8,0.4c-0.5,0.2-1,0.5-1.3,0.8c-0.3,0.4-0.5,0.8-0.5,1.4
	c0,0.8,0.3,1.4,0.8,1.7c0.5,0.4,1.3,0.5,2.2,0.5c0.7,0,1.4-0.1,1.9-0.4c0.5-0.2,0.9-0.6,1.2-1c0.3-0.4,0.5-0.8,0.7-1.3
	s0.2-1,0.2-1.4v-0.9H20.1z M38.7,15.4c-0.5-0.5-1-0.9-1.6-1.2c-0.5-0.3-1.2-0.4-1.9-0.4c-0.7,0-1.4,0.1-1.9,0.4
	c-0.5,0.3-1,0.6-1.4,1.1c-0.4,0.5-0.6,1-0.8,1.6c-0.2,0.6-0.3,1.2-0.3,1.9s0.1,1.3,0.3,1.8c0.2,0.6,0.5,1.1,0.9,1.5
	c0.4,0.4,0.9,0.8,1.4,1c0.6,0.2,1.2,0.4,1.9,0.4c0.7,0,1.4-0.1,1.9-0.4c0.5-0.3,1-0.7,1.5-1.2l1.9,1.9c-0.7,0.8-1.5,1.3-2.4,1.6
	c-0.9,0.3-1.9,0.5-2.9,0.5c-1.1,0-2.1-0.2-3-0.5c-0.9-0.4-1.7-0.8-2.3-1.5c-0.7-0.6-1.2-1.4-1.5-2.3c-0.4-0.9-0.5-1.9-0.5-3
	s0.2-2.1,0.5-3c0.4-0.9,0.9-1.7,1.5-2.3c0.6-0.6,1.4-1.2,2.3-1.5c0.9-0.4,1.9-0.5,3-0.5c1,0,2,0.2,2.9,0.5c0.9,0.4,1.7,0.9,2.4,1.7
	L38.7,15.4z M43.9,11.7h2.7v13.9h-2.7V11.7z M43.2,6.7c0-0.5,0.2-1,0.6-1.4c0.4-0.4,0.8-0.6,1.4-0.6c0.5,0,1,0.2,1.4,0.6
	c0.4,0.4,0.6,0.8,0.6,1.4c0,0.5-0.2,1-0.6,1.4c-0.4,0.4-0.8,0.6-1.4,0.6c-0.5,0-1-0.2-1.4-0.6C43.4,7.7,43.2,7.2,43.2,6.7z
	 M53.7,18.6c0,0.7,0.1,1.4,0.3,2c0.2,0.6,0.5,1.1,0.9,1.5c0.4,0.4,0.9,0.8,1.4,1c0.6,0.2,1.2,0.4,1.9,0.4c0.7,0,1.4-0.1,1.9-0.4
	c0.6-0.2,1.1-0.6,1.4-1c0.4-0.4,0.7-0.9,0.9-1.5c0.2-0.6,0.3-1.2,0.3-2c0-0.7-0.1-1.4-0.3-2c-0.2-0.6-0.5-1.1-0.9-1.5
	c-0.4-0.4-0.9-0.8-1.4-1c-0.6-0.2-1.2-0.4-1.9-0.4c-0.7,0-1.4,0.1-1.9,0.4c-0.6,0.2-1.1,0.6-1.4,1c-0.4,0.4-0.7,0.9-0.9,1.5
	C53.8,17.3,53.7,17.9,53.7,18.6z M50.8,18.6c0-1,0.2-2,0.6-2.8c0.4-0.9,0.9-1.7,1.6-2.3c0.7-0.7,1.5-1.2,2.4-1.6
	c0.9-0.4,1.9-0.6,2.9-0.6c1,0,2,0.2,2.9,0.6c0.9,0.4,1.7,0.9,2.4,1.6c0.7,0.7,1.2,1.4,1.6,2.3c0.4,0.9,0.6,1.8,0.6,2.8
	c0,1-0.2,2-0.6,2.9s-0.9,1.7-1.6,2.3c-0.7,0.7-1.5,1.2-2.4,1.6c-0.9,0.4-1.9,0.6-2.9,0.6c-1,0-2-0.2-2.9-0.6
	c-0.9-0.4-1.7-0.9-2.4-1.6c-0.7-0.7-1.2-1.4-1.6-2.3C51,20.6,50.8,19.7,50.8,18.6z"/>
<path id="Rectangle" class="st0" d="M74.2,0H79c1.3,0,2.4,1.1,2.4,2.4v4.8c0,1.3-1.1,2.4-2.4,2.4h-4.8c-1.3,0-2.4-1.1-2.4-2.4V2.4
	C71.8,1.1,72.9,0,74.2,0z"/>
</svg>
