<?xml version="1.0" encoding="UTF-8"?>
<svg id="Layer_2" data-name="Layer 2" xmlns="http://www.w3.org/2000/svg" viewBox="0 0 724.03 196.82">
  <defs>
    <style>
      .cls-1 {
        fill: #ec008c;
      }
    </style>
  </defs>
  <g id="Layer_1-2" data-name="Layer 1">
    <g>
      <path d="M673.28,56.39h-32.71c-28.76,0-51.88,20.87-51.88,47.94v44.55c0,25.38,21.99,46.24,50.19,47.94h33.84c27.07,0,49.06-24.82,49.06-40.04,0-2.25-1.69-3.95-3.95-3.95h-19.74c-2.82,0-3.95,3.95-3.95,3.95-5.64,10.15-13.54,11.84-20.87,11.84h-32.71c-13.54,0-24.81-9.02-24.81-19.74v-11.28h104.33c2.25,0,3.95-1.69,3.95-3.95v-29.32c0-27.07-22.56-47.94-50.75-47.94Zm23.69,57.52h-81.21v-9.59c0-10.72,11.28-19.74,24.81-19.74h32.71c13.54,0,23.69,9.02,23.69,19.74v9.59Z"/>
      <path d="M194.56,104.33c0-27.07-23.12-49.06-51.88-49.06h-5.64c-12.97,0-28.76,5.64-39.48,16.92-11.84-11.84-25.94-16.92-39.48-16.92h-6.2C23.12,55.27,0,77.26,0,104.33v88.54c0,2.25,1.69,3.95,3.95,3.95H25.38c2.26,0,3.95-1.69,3.95-3.95V104.89c0-10.72,10.15-21.43,22.56-21.43h6.2c15.23,0,25.38,7.9,25.38,21.43v87.98c.56,3.38,2.26,3.95,3.95,3.95h20.87c2.82,0,3.95-1.69,3.95-3.95V104.89c0-13.53,10.15-21.43,24.81-21.43h5.64c14.1,0,22.56,10.71,22.56,21.43v87.98c0,2.25,1.69,3.95,3.95,3.95h21.43c2.26,0,3.95-1.69,3.95-3.95V104.33Z"/>
      <path d="M427.47,196.82c4.51,0,5.08-2.82,5.64-3.95l49.06-132.53c1.13-2.26-.56-3.95-2.82-3.95h-23.12c-2.26,0-2.82,1.69-3.95,3.95l-34.96,98.12-34.4-98.12c-1.13-2.26-1.69-3.95-3.95-3.95h-23.69c-2.26,0-3.95,1.69-2.82,3.95l49.06,132.53c1.13,2.25,2.82,3.95,5.07,3.95h20.86Z"/>
      <path d="M546.79,0h20.3c2.18,0,3.95,1.77,3.95,3.95V192.87c0,2.18-1.77,3.95-3.95,3.95h-20.3c-2.18,0-3.95-1.77-3.95-3.95V3.95c0-2.18,1.77-3.95,3.95-3.95Z"/>
      <path d="M499.25,56.39h20.3c2.18,0,3.95,1.77,3.95,3.95V192.87c0,2.18-1.77,3.95-3.95,3.95h-20.3c-2.18,0-3.95-1.77-3.95-3.95V60.34c0-2.18,1.77-3.95,3.95-3.95Z"/>
      <path d="M499.25,0h20.3c2.18,0,3.95,1.77,3.95,3.95V24.25c0,2.18-1.77,3.95-3.95,3.95h-20.3c-2.18,0-3.95-1.77-3.95-3.95V3.95c0-2.18,1.77-3.95,3.95-3.95Z"/>
      <path class="cls-1" d="M298.89,56.39h-36.66c-28.2,0-51.32,20.87-51.32,47.94v44.55c0,25.38,23.68,47.94,51.32,47.94h36.66c28.76,0,52.45-22.56,52.45-47.94v-44.55c0-27.07-23.69-47.94-52.45-47.94Zm24.25,93.05c0,10.71-10.15,19.17-24.25,19.17h-36.66c-12.97,0-23.12-8.46-23.12-19.17v-45.11c0-10.72,10.15-19.74,23.12-19.74h36.66c14.1,0,24.25,9.02,24.25,19.74v45.11Z"/>
    </g>
  </g>
</svg>