<svg id="Wildlife_Studios" data-name="Wildlife Studios" xmlns="http://www.w3.org/2000/svg" width="36.271" height="16" viewBox="0 0 36.271 16">
  <path id="Path_40898" data-name="Path 40898" d="M30.9,0,36.27,8.275,31.645,16H6.028l3.33-6.842H7.009L0,0Z"/>
  <path id="Path_40899" data-name="Path 40899" d="M7.219,3h3.291l1.654,2.5L11.576,3h2.566L15.8,5.477,15.243,3h2.03L18.2,8.312h-2.96L13.709,6.251l.371,2.061H11.313ZM17.632,3h3l2.521,5.312H20.159Zm6.319,5.312L21.43,3h2.92l1.859,3.917H28.7l.662,1.4ZM35.317,7.73a2.625,2.625,0,0,1-2.03.589h-3.45L27.316,3.006h4.021c1.7,0,2.429.4,2.966,1a5.482,5.482,0,0,1,1.312,2.88A1.209,1.209,0,0,1,35.317,7.73ZM32.6,6.059l-.462-.973a1.05,1.05,0,0,0-1-.736H30.76L32,6.974h.376c.285,0,.456-.1.456-.282A1.86,1.86,0,0,0,32.6,6.059Z" transform="translate(-3.221 -1.339)" fill="#fff"/>
  <path id="Path_40900" data-name="Path 40900" d="M22.424,20.723H17.012l2.521-5.312h2.92l-1.859,3.917h2.492Zm3.479,0h-3l2.521-5.312h3Zm8.081-3.8H31.354l-.382.774H33.4l-.656,1.389H30.322l-.787,1.632H26.7l2.521-5.312H34.7Zm6.319-.173h-2.88L37.1,17.4h2.68l-.616,1.306H36.487l-.331.672h2.983L38.5,20.723H32.786l2.521-5.312h5.634Z" transform="translate(-7.59 -6.876)" fill="#fff"/>
</svg>
