<svg xmlns="http://www.w3.org/2000/svg" width="100" height="20" viewBox="0 0 100 20">
  <path id="logo-azos" d="M30.442,4.5h13.22L30.217,16.665v2.9H51.475V15.489h-13.3l13.3-12.028V.426H30.442ZM11.865.426,0,19.563H5.82l2.109-3.581h13.44l2.108,3.58H29.3L17.432.427H11.865Zm2.784,12.4a3.55,3.55,0,0,1-1.933-.57,3.405,3.405,0,0,1-1.281-1.518,3.3,3.3,0,0,1-.2-1.954,3.355,3.355,0,0,1,.952-1.731,3.51,3.51,0,0,1,1.78-.926,3.57,3.57,0,0,1,2.01.193,3.46,3.46,0,0,1,1.562,1.245,3.311,3.311,0,0,1-.433,4.27,3.53,3.53,0,0,1-2.46.991ZM64.413,0C56.868,0,52.175,3.974,52.175,10s4.693,10,12.238,10,12.239-3.974,12.239-10S71.958,0,64.413,0Zm0,15.9c-4.536,0-7.275-2.292-7.275-5.9s2.74-5.895,7.275-5.895S71.689,6.4,71.689,10,68.949,15.9,64.413,15.9Zm24.4-8.062c-3.027-.15-5.483-.338-5.483-1.912,0-1.257,2.11-1.816,5.624-1.816,3.57,0,5.538,1.023,5.538,2.609h5C99.493,2.75,95.388,0,88.95,0,82.736,0,78.322,2.23,78.322,6.14c0,5.432,5.737,5.67,10.487,5.829,3.353.112,6.213.184,6.213,2.017,0,1.34-2.136,1.913-6.213,1.913-3.824,0-5.764-1.038-5.764-2.624H77.816C77.788,17.212,82.006,20,88.838,20,95.867,20,100,17.95,100,13.82c0-5.608-6.33-5.747-11.191-5.987Z"/>
</svg>
