<?xml version="1.0" encoding="utf-8"?>
<!-- Generator: Adobe Illustrator 27.0.1, SVG Export Plug-In . SVG Version: 6.00 Build 0)  -->
<svg version="1.1" id="Layer_1" xmlns="http://www.w3.org/2000/svg" xmlns:xlink="http://www.w3.org/1999/xlink" x="0px" y="0px"
	 viewBox="0 0 240.6 50.8" style="enable-background:new 0 0 240.6 50.8;" xml:space="preserve">
<style type="text/css">
	.st0{fill:#00CFB4;}
</style>
<g id="Group_177" transform="translate(142.854 64.036)">
	<path id="Path_813" class="st0" d="M94.7-55.9h-5c-1.3,0-2.4,0.7-2.9,1.8l-6.3,16.7h-0.1l-6.6-16.8c-0.5-1.1-1.7-1.8-2.9-1.8h-5
		c-2.2,0-3.7,1.9-2.9,3.7l12,26.7l-4.1,8.6c-0.8,1.8,0.7,3.7,2.8,3.7h4.9c1.2,0,2.3-0.6,2.9-1.7l16.1-37.3
		C98.3-54,96.8-55.9,94.7-55.9z"/>
	<path id="Path_814" class="st0" d="M54.5-53.8c-7.6-4.4-17.4-1.9-21.8,5.7s-1.9,17.4,5.7,21.8c5,2.9,11.1,2.9,16.1,0v0.9
		c0,0.6,0.5,1.2,1.2,1.2h5.6c0.6,0,1.2-0.5,1.2-1.2c0,0,0,0,0,0v-14.7C62.4-45.7,59.4-51,54.5-53.8z M46.5-32.5
		c-4.2,0-7.5-3.3-7.5-7.5c0-4.2,3.3-7.5,7.5-7.5c4.2,0,7.5,3.3,7.5,7.5c0,0,0,0,0,0C54-35.9,50.6-32.5,46.5-32.5
		C46.5-32.5,46.5-32.5,46.5-32.5L46.5-32.5z"/>
	<path id="Path_815" class="st0" d="M-19.4-36.2v-18.5c0-0.8,0.6-1.4,1.4-1.4c0,0,0,0,0,0h6.1c0.8,0,1.4,0.6,1.4,1.4c0,0,0,0,0,0
		v16.8c0,2.7,2.2,4.8,4.8,4.8s4.8-2.2,4.8-4.8l0,0v-16.8c0-0.8,0.6-1.4,1.4-1.4c0,0,0,0,0,0h6.1C7.4-56,8-55.4,8-54.7c0,0,0,0,0,0
		v16.8c0,2.7,2.2,4.8,4.8,4.8s4.8-2.2,4.8-4.8l0,0v-16.8c0-0.8,0.6-1.4,1.4-1.4c0,0,0,0,0,0h6.1c0.8,0,1.4,0.6,1.4,1.4c0,0,0,0,0,0
		v18.9c0,0.7-0.1,1.4-0.2,2.1c-1.1,5.7-6.4,9.9-12.8,9.9c-3.7,0-7.3-1.5-9.9-4.2c-2.6,2.5-6.2,3.9-9.8,3.9c-6.2,0-11.3-3.8-12.9-8.9
		C-19.3-34-19.4-35.1-19.4-36.2z"/>
</g>
<g id="Group_178" transform="translate(19.446 56.035)">
	<path id="Path_816" d="M96.2-56h-5.6c-0.6,0-1.2,0.5-1.2,1.2v9.5c-0.4-0.2-0.7-0.4-1.1-0.6h0c-1.3-0.6-2.7-1.1-4.1-1.4
		c0,0-0.1,0-0.1,0c-0.1,0-0.3,0-0.4-0.1c-0.1,0-0.2,0-0.4-0.1c-0.1,0-0.1,0-0.2,0c-0.1,0-0.2,0-0.4,0c-0.1,0-0.3,0-0.4,0
		c-0.1,0-0.2,0-0.3,0c-0.1,0-0.1,0-0.2,0c-0.1,0-0.3,0-0.4,0c-0.2,0-0.4,0-0.6,0c-0.1,0-0.2,0-0.3,0c-0.1,0-0.2,0-0.3,0
		s-0.3,0-0.4,0c-0.1,0-0.2,0-0.3,0s-0.2,0-0.3,0h0c-0.1,0-0.3,0-0.4,0.1s-0.3,0-0.4,0.1s-0.3,0.1-0.4,0.1c-0.3,0.1-0.5,0.1-0.8,0.2
		c0,0,0,0-0.1,0c-0.2,0-0.3,0.1-0.5,0.1c-0.1,0-0.1,0-0.2,0.1c0,0-0.1,0-0.1,0c-0.1,0-0.3,0.1-0.4,0.1s-0.2,0.1-0.4,0.1l-0.1,0.1
		c-0.8,0.3-1.6,0.7-2.3,1.2l0,0c-0.9,0.5-1.8,1.2-2.5,2c0,0-0.1,0.1-0.1,0.1c-2.3,2.3-3.9,5.3-4.5,8.5c0,0.2-0.1,0.3-0.1,0.5
		c0,0.1,0,0.3-0.1,0.4c0,0,0,0.1,0,0.1s0,0.1,0,0.1c0,0.1,0,0.3,0,0.4c0,0,0,0,0,0c0,0.1,0,0.3,0,0.4c0,0.3,0,0.5,0,0.8
		c0,0.3,0,0.5,0,0.8c0,0.1,0,0.3,0,0.4c0,0,0,0,0,0c0,0.1,0,0.2,0,0.3c0,0.1,0,0.2,0,0.3c0,0,0,0.1,0,0.1c0,0.1,0,0.3,0.1,0.4
		c0,0.1,0,0.3,0.1,0.4c1.5,8.5,9.6,14.2,18.1,12.8c1.5-0.3,3-0.7,4.3-1.4c0.4-0.2,0.7-0.4,1-0.6v1.1c0,0.4,0.2,0.8,0.6,1
		c0.2,0.1,0.4,0.2,0.6,0.2h5.6c0.6,0,1.2-0.5,1.2-1.2c0,0,0,0,0,0v-37.6C97.4-55.5,96.8-56,96.2-56C96.2-56,96.2-56,96.2-56z
		 M74.9-46.1c0,0-0.1,0-0.1,0l0,0C74.9-46.1,74.9-46.1,74.9-46.1z M81.8-24.5c-4.2,0-7.5-3.3-7.5-7.5c0-4.2,3.3-7.5,7.5-7.5
		c4.2,0,7.5,3.3,7.5,7.5c0,0,0,0,0,0C89.3-27.8,86-24.5,81.8-24.5C81.8-24.5,81.8-24.5,81.8-24.5z"/>
	<path id="Path_817" d="M46-47.5c-8.7,0.1-15.7,7.3-15.5,16C30.6-22.9,37.6-16,46.2-16c5.8,0,10.9-3.3,13.9-9
		c0.2-0.4,0.1-0.9-0.4-1.1c-0.1-0.1-0.3-0.1-0.4-0.1H52c-0.3,0-0.5,0.1-0.7,0.3c-1.2,1.6-3.1,2.5-5.2,2.5c-3,0.2-5.7-1.7-6.7-4.5
		c-0.1-0.4,0.1-0.9,0.6-1.1c0.1,0,0.2,0,0.2,0h20.5c0.4,0,0.8-0.3,0.8-0.7c0.1-0.5,0.1-1.1,0.1-1.6C61.7-40.5,54.9-47.5,46-47.5z
		 M51.6-35H40.5c-0.5,0-0.8-0.4-0.8-0.8c0-0.1,0-0.2,0.1-0.3c1.8-3.5,6.1-4.9,9.6-3.1c1.3,0.7,2.4,1.8,3.1,3.1
		c0.2,0.4,0,0.9-0.4,1.1C51.8-35,51.7-35,51.6-35L51.6-35z"/>
	<path id="Path_818" d="M26.6-35.8v18.5c0,0.8-0.6,1.4-1.4,1.4h-6.1c-0.8,0-1.4-0.6-1.4-1.4v-16.8c0-2.7-2.2-4.8-4.8-4.8
		c-0.2,0-0.4,0-0.6,0C9.8-38.5,8.1-36.4,8-34v16.7c0,0.8-0.6,1.4-1.4,1.4H0.5c-0.8,0-1.4-0.6-1.4-1.4c0,0,0,0,0,0v-16.8
		c0-2.7-2.2-4.8-4.8-4.8c-0.2,0-0.4,0-0.6,0c-2.4,0.4-4.1,2.5-4.2,4.9v16.7c0,0.8-0.6,1.4-1.4,1.4h-6.1c-0.8,0-1.4-0.6-1.4-1.4
		v-18.8c0-0.7,0.1-1.4,0.2-2.1c1.1-5.7,6.4-10,12.8-10c3.7,0,7.3,1.5,9.9,4.2c2.6-2.5,6.2-3.9,9.8-3.9c6.2,0,11.3,3.8,12.9,8.9
		C26.4-37.9,26.6-36.9,26.6-35.8z"/>
</g>
</svg>
