<svg xmlns="http://www.w3.org/2000/svg" xmlns:xlink="http://www.w3.org/1999/xlink" style="width: 100%; height: 100%" viewBox="0 0 358 84" preserveAspectRatio="none" width="358" height="84"><defs><svg width="358" height="84" fill="none" xmlns="http://www.w3.org/2000/svg" id="svg-65387069_923"><path d="M200.819 39.332c5.478-4.084 8.277-9.569 8.277-16.687 0-6.42-2.335-11.792-7.003-16.11C197.539 2.217 191.818 0 185.163 0h-32.454v81.717h59.538V39.332h-11.428Zm-1.995 29.777h-32.688V12.608h19.027c5.953 0 10.507 4.67 10.507 10.738s-4.554 10.74-10.507 10.74h-5.604v12.14h19.262V69.11h.003ZM48.447 0h13.427v81.717H48.447v-35.37h-35.02V81.72H0V0h13.426v33.504h35.022V0Zm28.088 0H89.96v53.817c0 9.923 5.836 16.343 17.511 16.343 11.674 0 17.51-6.42 17.51-16.343V0h13.427v54.635c0 8.756-2.92 15.645-8.638 20.897-5.722 5.137-13.192 7.705-22.299 7.705-9.105 0-16.578-2.568-22.296-7.705-5.722-5.252-8.638-12.141-8.638-20.897V0h-.003Zm163.442 68.877h33.273V81.72h-46.699V0h13.426v68.877Zm103.133 12.84-5.721-16.46H302.6l-5.722 16.46h-14.591L311.942 0h16.111l29.534 81.717H343.11Zm-36.071-29.068h25.916l-12.956-36.89-12.96 36.89Z" fill="#3B4D00"></path></svg></defs><use href="#svg-65387069_923"></use></svg>