<svg width="120" height="20" viewBox="0 0 120 20" fill="none" xmlns="http://www.w3.org/2000/svg">
<path fill-rule="evenodd" clip-rule="evenodd" d="M26.1902 19.0486V17.0089C27.2233 17.7331 28.3358 18.0951 29.5279 18.0951C30.7548 18.0951 31.6403 17.7926 32.1832 17.1877C32.7263 16.5829 32.9977 15.5918 32.9977 14.2146V1.68567H34.9579V14.3734C34.9579 15.4772 34.8034 16.4196 34.4943 17.201C34.185 17.9825 33.7635 18.5629 33.2295 18.9425C32.6952 19.3223 32.1478 19.5914 31.5871 19.7505C31.0265 19.9093 30.4239 19.9888 29.7795 19.9888C28.4816 19.9888 27.285 19.6755 26.1902 19.0486Z" fill="#484445"/>
<path fill-rule="evenodd" clip-rule="evenodd" d="M38.8706 14.0819V6.2417H40.8308V14.1705C40.8308 15.5448 41.1302 16.5512 41.7297 17.19C42.3291 17.8288 43.2676 18.148 44.5457 18.148C45.806 18.148 46.7399 17.8288 47.3484 17.19C47.9564 16.5512 48.2606 15.5448 48.2606 14.1705V6.2417H50.2205V14.0819C50.2205 15.9625 49.7264 17.4175 48.7381 18.4458C47.7498 19.4745 46.3522 19.9888 44.5457 19.9888C42.7386 19.9888 41.3411 19.4745 40.3528 18.4458C39.3645 17.4175 38.8706 15.9625 38.8706 14.0819Z" fill="#484445"/>
<path fill-rule="evenodd" clip-rule="evenodd" d="M52.9373 9.91563C52.9373 8.83534 53.3321 7.91327 54.1225 7.1494C54.9124 6.38525 56.1201 6.00317 57.7446 6.00317C58.9013 6.00317 60.0577 6.27742 61.2147 6.82591V8.77365C60.1817 8.1544 59.0957 7.84421 57.9566 7.84421C55.9169 7.84421 54.8974 8.53478 54.8974 9.91563C54.8974 10.3849 55.1445 10.7636 55.639 11.0511C56.1334 11.3386 56.7382 11.5778 57.4534 11.7683C58.1686 11.9585 58.8838 12.1863 59.599 12.4518C60.3139 12.7175 60.9209 13.1667 61.4199 13.7995C61.9186 14.4326 62.1682 15.2403 62.1682 16.2227C62.1682 17.3986 61.7287 18.3202 60.8505 18.9878C59.9717 19.6554 58.7558 19.9888 57.2015 19.9888C55.7007 19.9888 54.3365 19.6492 53.1093 18.9691V16.9C54.4073 17.6967 55.7448 18.0952 57.1223 18.0952C59.1795 18.0952 60.208 17.4711 60.208 16.2227C60.208 15.55 59.9607 15.0236 59.4665 14.6426C58.9718 14.2622 58.367 13.9767 57.6521 13.7862C56.9369 13.596 56.2217 13.388 55.5065 13.1621C54.7913 12.9363 54.1842 12.5556 53.6853 12.0202C53.1866 11.4847 52.9373 10.7831 52.9373 9.91563Z" fill="#484445"/>
<path fill-rule="evenodd" clip-rule="evenodd" d="M66.4751 15.8231C66.4836 17.4083 67.6783 18.201 70.0579 18.201C70.5602 18.201 71.0139 18.1438 71.4198 18.0292C71.825 17.9146 72.2462 17.6902 72.6823 17.3556C73.1184 17.0211 73.4578 16.4706 73.7003 15.7042C73.9426 14.9381 74.0637 13.9869 74.0637 12.8508C74.0637 11.0984 73.7289 9.82591 73.059 9.03318C72.3891 8.24072 71.3049 7.84421 69.8066 7.84421C68.6872 7.84421 67.5767 8.06893 66.4751 8.51808V15.8231ZM64.515 15.7136V1.07129H66.4751V6.55421C67.5591 6.18714 68.6697 6.00318 69.8066 6.00318C70.4252 6.00318 71.0066 6.05638 71.5502 6.16252C72.0933 6.26865 72.6458 6.47667 73.207 6.78629C73.768 7.09591 74.2519 7.49412 74.6586 7.98063C75.0648 8.46714 75.3945 9.12827 75.6461 9.96459C75.898 10.8006 76.0239 11.7629 76.0239 12.8508C76.0239 14.0406 75.8847 15.0827 75.6065 15.9773C75.3277 16.8717 74.9852 17.5656 74.5791 18.0589C74.1721 18.5525 73.6839 18.9536 73.1139 19.262C72.5436 19.5703 72.0181 19.7686 71.5364 19.8567C71.0544 19.9447 70.5617 19.9888 70.0579 19.9888C69.0767 19.9888 68.2236 19.8674 67.4985 19.6249C66.7737 19.3823 66.2303 19.1021 65.8675 18.7846C65.505 18.467 65.2112 18.0872 64.9856 17.6463C64.76 17.2051 64.6256 16.8408 64.5815 16.5541C64.5367 16.2674 64.515 15.9872 64.515 15.7136Z" fill="#484445"/>
<path fill-rule="evenodd" clip-rule="evenodd" d="M79.0253 19.7769V7.30931C81.065 6.45629 83.2545 6.02979 85.5945 6.02979V7.87082C84.1151 7.90648 82.5786 8.14082 80.9852 8.57412V19.7769H79.0253Z" fill="#484445"/>
<path fill-rule="evenodd" clip-rule="evenodd" d="M88.6361 15.6185C88.6361 17.305 89.8613 18.1481 92.3114 18.1481H92.351C94.7479 18.1481 95.9468 17.3313 95.9468 15.6974V13.1019C95.3476 12.996 94.5455 12.9431 93.5408 12.9431C90.2708 12.9431 88.6361 13.8349 88.6361 15.6185ZM86.6762 15.6185C86.6762 15.01 86.7886 14.4646 87.0139 13.9823C87.2388 13.5003 87.5148 13.1089 87.8414 12.8092C88.168 12.5095 88.5832 12.2528 89.0864 12.0402C89.5899 11.8271 90.0354 11.6706 90.4239 11.5707C90.8125 11.4708 91.2738 11.3947 91.8082 11.3426C92.342 11.2902 92.7218 11.26 92.9471 11.2509C93.1721 11.2424 93.4389 11.2379 93.7483 11.2379L95.9205 11.3672C95.9205 10.1386 95.5876 9.26185 94.9222 8.73714C94.2569 8.2127 93.272 7.95006 91.9675 7.95006C90.5023 7.95006 89.1832 8.16657 88.0095 8.59902V6.70506C89.342 6.23751 90.6968 6.00317 92.0734 6.00317C93.9693 6.00317 95.4155 6.48232 96.4118 7.44034C97.4086 8.39836 97.907 9.79987 97.907 11.6452V15.711C97.907 16.5765 97.7063 17.316 97.305 17.9296C96.9037 18.5432 96.3877 18.9869 95.7574 19.2603C95.1263 19.5343 94.5356 19.7239 93.9843 19.8298C93.4333 19.9359 92.8888 19.9888 92.351 19.9888C91.9353 19.9888 91.5088 19.9622 91.0712 19.9093C90.6337 19.8561 90.1387 19.7344 89.5862 19.5439C89.0338 19.3535 88.5543 19.1101 88.1479 18.8132C87.7412 18.5166 87.3942 18.0915 87.1067 17.5379C86.8197 16.9846 86.6762 16.3447 86.6762 15.6185Z" fill="#484445"/>
<path fill-rule="evenodd" clip-rule="evenodd" d="M100.237 9.91563C100.237 8.83534 100.632 7.91327 101.422 7.1494C102.212 6.38525 103.42 6.00317 105.044 6.00317C106.201 6.00317 107.358 6.27742 108.515 6.82591V8.77365C107.481 8.1544 106.396 7.84421 105.256 7.84421C103.217 7.84421 102.197 8.53478 102.197 9.91563C102.197 10.3849 102.444 10.7636 102.939 11.0511C103.433 11.3386 104.038 11.5778 104.753 11.7683C105.468 11.9585 106.184 12.1863 106.899 12.4518C107.614 12.7175 108.221 13.1667 108.72 13.7995C109.218 14.4326 109.468 15.2403 109.468 16.2227C109.468 17.3986 109.028 18.3202 108.15 18.9878C107.271 19.6554 106.055 19.9888 104.501 19.9888C103 19.9888 101.636 19.6492 100.409 18.9691V16.9C101.707 17.6967 103.045 18.0952 104.422 18.0952C106.479 18.0952 107.508 17.4711 107.508 16.2227C107.508 15.55 107.26 15.0236 106.766 14.6426C106.272 14.2622 105.667 13.9767 104.952 13.7862C104.237 13.596 103.521 13.388 102.806 13.1621C102.091 12.9363 101.484 12.5556 100.985 12.0202C100.486 11.4847 100.237 10.7831 100.237 9.91563Z" fill="#484445"/>
<path fill-rule="evenodd" clip-rule="evenodd" d="M112.123 19.7768H114.083V6.24171H112.123V19.7768ZM112.017 3.85784H114.189V1.68567H112.017V3.85784Z" fill="#484445"/>
<path fill-rule="evenodd" clip-rule="evenodd" d="M118.003 19.7769H119.963V1.08997H118.003V19.7769Z" fill="#484445"/>
<path fill-rule="evenodd" clip-rule="evenodd" d="M1.90441 19.504V19.5037C0.330258 18.5983 -0.209177 16.5923 0.699597 15.0238L8.38016 1.76917C9.28922 0.200394 11.3023 -0.337059 12.8768 0.568602C14.4512 1.47426 14.9906 3.4803 14.0816 5.04879L6.40101 18.3034C5.49224 19.8719 3.47884 20.4094 1.90441 19.504Z" fill="#F8C824"/>
<path fill-rule="evenodd" clip-rule="evenodd" d="M20.5573 19.5037V19.504C18.9829 20.4094 16.9698 19.8719 16.0607 18.3034L8.38014 5.04879C7.47137 3.4803 8.0108 1.47426 9.58495 0.568602C11.1594 -0.337059 13.1725 0.200394 14.0816 1.76917L21.7621 15.0238C22.6712 16.5923 22.1317 18.5983 20.5573 19.5037Z" fill="#3D81B4"/>
<path fill-rule="evenodd" clip-rule="evenodd" d="M13.9469 1.55746C13.9251 1.52577 13.9047 1.4935 13.882 1.46265C13.8424 1.40916 13.8 1.35878 13.7581 1.30841C13.7295 1.27444 13.7026 1.23963 13.6729 1.2068C13.6355 1.16577 13.5956 1.12756 13.5566 1.08878C13.5178 1.05001 13.4799 1.01067 13.4388 0.973595C13.4054 0.943596 13.3703 0.916709 13.3361 0.888124C13.2857 0.84652 13.2356 0.80435 13.1821 0.765294C13.151 0.742369 13.1182 0.721992 13.0862 0.700199C13.0276 0.660294 12.9685 0.620954 12.9068 0.584445C12.8708 0.563501 12.8337 0.544539 12.7969 0.524728C12.7392 0.493312 12.6812 0.463029 12.6223 0.435577C12.5756 0.413784 12.5281 0.394539 12.4805 0.375011C12.4313 0.354633 12.3818 0.334822 12.3317 0.316992C12.2756 0.29718 12.219 0.279916 12.1621 0.262935C12.1186 0.250199 12.075 0.237746 12.0311 0.226709C11.9705 0.211426 11.9091 0.19869 11.8477 0.186803C11.8047 0.178879 11.7617 0.170954 11.7184 0.164445C11.6586 0.155388 11.5986 0.148879 11.5384 0.143218C11.4905 0.13869 11.4427 0.134728 11.3952 0.132463C11.3408 0.129633 11.2862 0.128784 11.2316 0.128784C11.1769 0.128784 11.1223 0.129633 11.068 0.132463C11.0202 0.134728 10.9726 0.13869 10.9248 0.143218C10.8645 0.148879 10.8045 0.155388 10.7448 0.164445C10.7015 0.170954 10.6585 0.178879 10.6154 0.186803C10.554 0.19869 10.4926 0.211426 10.4318 0.226709C10.3882 0.237746 10.3446 0.250199 10.301 0.262935C10.2441 0.279916 10.1872 0.29718 10.1315 0.316992C10.0814 0.334822 10.0319 0.354633 9.98233 0.375011C9.93478 0.394539 9.88752 0.413784 9.84082 0.435577C9.78195 0.463029 9.72393 0.493312 9.66591 0.524728C9.6294 0.544539 9.59233 0.563501 9.55638 0.584445C9.4944 0.620954 9.43525 0.660577 9.37667 0.700199C9.34469 0.721992 9.31214 0.742369 9.28101 0.765294C9.22752 0.80435 9.17714 0.84652 9.12676 0.888407C9.09252 0.916709 9.05742 0.943879 9.02431 0.973595C8.98327 1.01067 8.94535 1.05001 8.90629 1.08878C8.86723 1.12784 8.82733 1.16577 8.79025 1.2068C8.76053 1.23963 8.73336 1.27444 8.70506 1.30841C8.66289 1.35878 8.62044 1.40916 8.5811 1.46265C8.55846 1.4935 8.5378 1.52577 8.51629 1.55746C8.4761 1.61605 8.43648 1.6752 8.39969 1.7369C7.81582 2.72265 7.76544 3.98378 8.38101 5.04567L11.2316 9.96511L14.0821 5.04567C14.6974 3.98378 14.647 2.72265 14.0635 1.73718C14.0267 1.6752 13.9868 1.61605 13.9469 1.55746Z" fill="#72AC42"/>
</svg>
