<svg xmlns:xlink="http://www.w3.org/1999/xlink" xmlns="http://www.w3.org/2000/svg" width="115" height="32" viewBox="0 0 115 32" fill="none">
<path d="M109.05 4.14801C108.34 3.2272 107.421 2.48785 106.37 1.99058C105.319 1.49332 104.165 1.25231 103.002 1.28731C98.757 1.28731 95.6674 3.74751 94.4545 7.8097C93.6821 3.43284 91.1189 1.28731 86.6619 1.28731C84.1159 1.28731 82.0162 2.26567 80.8204 3.95348V2.41443L74.8873 3.03234V8.18159C74.3465 6.45944 73.378 4.90244 72.0724 3.65597L71.9065 3.52438L71.8378 3.45572C69.7724 1.68781 66.9918 0.961195 63.7993 1.35597C61.6628 1.58072 59.6394 2.42825 57.9806 3.79328L59.4167 0L53.1231 0.726617L47.8308 14.8127L43.0993 3.40995L38.7167 3.98209V2.35149L32.7893 3.03234V4.14801C32.0797 3.2265 31.1614 2.48665 30.1101 1.98931C29.0587 1.49198 27.9043 1.25138 26.7418 1.28731C21.3522 1.28731 17.8221 5.25224 17.6391 11.4313C17.6963 12.4211 17.7592 13.4396 17.9137 14.4522L15.053 14.0002L14.9729 14.2634C14.7355 15.2289 14.177 16.085 13.3889 16.6911C12.6008 17.2972 11.6301 17.6174 10.6361 17.599C7.83831 17.599 5.96169 15.3391 5.96169 11.9806C5.96169 8.62214 7.83831 6.33358 10.6361 6.33358C11.335 6.28871 12.0338 6.42277 12.6665 6.7231C13.2992 7.02343 13.8449 7.48011 14.252 8.05C15.3171 6.55077 16.4631 5.11066 17.6848 3.73607C15.9684 2.10547 13.5311 1.28159 10.3729 1.28159C4.3597 1.28159 0 5.77861 0 11.9692C0 18.1597 4.34826 22.6739 10.35 22.6739C14.4236 22.6739 17.4846 21.0776 19.1209 18.2055C19.2353 18.4057 19.344 18.606 19.4756 18.7776C20.2569 19.9972 21.3388 20.9952 22.6174 21.6756C23.896 22.3559 25.3282 22.6958 26.7761 22.6624C27.9318 22.6856 29.0769 22.4392 30.1207 21.9426C31.1645 21.446 32.0782 20.713 32.7893 19.8017V22.1532H38.7167V8.47338L44.7012 22.5995L41.3714 31.3818H47.5448L54.5134 12.9475C54.5134 13.0791 54.5134 13.2107 54.5535 13.3423C55.343 19.7388 60.807 23.555 67.2264 22.7711C69.1816 22.5359 71.0713 21.9176 72.7876 20.9517C71.8206 19.2353 71.2943 18.1483 70.499 16.7122C70.4189 16.7122 68.3649 18.0453 66.1908 18.0453C63.25 18.0453 61.3219 16.8667 60.9901 14.8813L68.3363 13.9774L74.9102 13.2221V22.2104H80.8318V11.7289C80.8318 8.05 82.0562 6.41368 84.7968 6.41368C87.5373 6.41368 88.8018 7.95846 88.8018 11.4199V22.2104H94.7291V16.7522C96.1022 20.4139 99.106 22.6624 103.059 22.6624C104.215 22.6856 105.36 22.4392 106.404 21.9426C107.448 21.446 108.362 20.713 109.073 19.8017V22.1532H115V2.41443L109.05 3.03234V4.14801ZM28.2751 17.6047C25.3572 17.6047 23.5493 15.4363 23.5493 11.9405C23.5493 8.44478 25.3858 6.3107 28.2408 6.3107C31.0958 6.3107 32.9552 8.51915 32.9552 11.9405C32.9552 15.3619 31.1244 17.6047 28.2751 17.6047ZM60.3149 10.001C60.4236 7.58085 61.9169 6.02463 64.4515 5.70995C66.9861 5.39527 68.8055 6.61393 69.4119 8.88532L60.3149 10.001ZM104.496 17.6047C101.583 17.6047 99.7697 15.4363 99.7697 11.9405C99.7697 8.44478 101.612 6.3107 104.461 6.3107C107.31 6.3107 109.187 8.51915 109.187 11.9405C109.187 15.3619 107.368 17.6047 104.518 17.6047H104.496Z" fill="#121F3B"/>
<path d="M66.877 31.3761C66.877 31.3246 68.1242 29.8428 66.877 28.9617L65.6869 29.6139L64.9946 28.71C64.8373 28.8901 64.665 29.0566 64.4797 29.2077L63.6272 28.0634C63.0551 28.2866 62.7175 28.5154 62.6717 29.0704C62.6145 29.7341 62.8949 30.2147 63.6158 31.399C63.0264 31.2201 62.5094 30.8579 62.1401 30.365C61.7707 29.8722 61.5681 29.2744 61.5618 28.6585C61.4931 27.2682 62.2655 26.4672 64.4625 25.0654C64.9374 25.7234 65.3493 26.3241 65.6983 26.7818C65.9215 26.656 66.5337 26.3184 66.9113 26.1411C67.4415 26.6784 67.8888 27.2916 68.2386 27.9605C68.3762 28.2738 68.4501 28.6113 68.456 28.9535C68.4619 29.2956 68.3996 29.6355 68.2729 29.9534C68.1462 30.2712 67.9575 30.5607 67.7179 30.805C67.4782 31.0492 67.1923 31.2434 66.877 31.3761Z" fill="#F04E63"/>
</svg>