<svg xmlns="http://www.w3.org/2000/svg" xmlns:xlink="http://www.w3.org/1999/xlink" version="1.1" id="Camada_1" x="0px" y="0px" viewBox="0 0 882 200" style="enable-background:new 0 0 882 200;" xml:space="preserve" width="882"  height="200" >
<style type="text/css">
	.st0{fill:#24A95D;}
</style>
<g>
	<path class="st0" d="M12,59.4l34.1-34.1c9.7-9.7,22.8-15.1,36.4-15.1h125.9v48.9l-66.1,0.1v131.1H93.4v-131L12,59.4z"/>
	<path class="st0" d="M550.9,52.3c26.4,0,47.9,21.5,47.9,47.9s-21.5,47.9-47.9,47.9S503,126.6,503,100.2S524.5,52.3,550.9,52.3    M550.9,2c-54.2,0-98.2,44-98.2,98.2s44,98.2,98.2,98.2s98.2-44,98.2-98.2S605.2,2,550.9,2L550.9,2z"/>
	<path class="st0" d="M796.9,10.2l19.3,19.3l-91.7,91.7v-111h-51.4v180.1h30c13.7,0,26.8-5.4,36.4-15.1L850.7,64L870,83.3V10.2   H796.9z"/>
	<path class="st0" d="M330.6,59.4l34.2-34.2c9.7-9.7,22.8-15.1,36.4-15.1h27.6v180.1h-48.9V80l-49.3,49.3L281.3,80v110.2h-48.9v-180   H260c13.7,0,26.8,5.4,36.4,15.1L330.6,59.4z"/>
</g>
</svg>