<svg xmlns:xlink="http://www.w3.org/1999/xlink" viewBox="0 0 114 32" fill="none" xmlns="http://www.w3.org/2000/svg" width="114"  height="32" ><path d="M16 32V16H32C32 24.8366 24.8366 32 16 32Z" fill="#060D0A"></path><path d="M16 16.0198L16 16H0L1.1268e-05 32C8.82996 32 15.9893 24.8473 16 16.0198Z" fill="#060D0A"></path><path d="M0 0H16L16 16C7.16346 16 0 8.83655 0 0Z" fill="#060D0A"></path><path d="M32 8C32 12.4183 28.4183 16 24 16C19.5817 16 16 12.4183 16 8C16 3.58172 19.5817 0 24 0C28.4183 0 32 3.58172 32 8Z" fill="#060D0A"></path><path d="M112.996 23.9698H111.146V17.5864C111.144 17.0338 111.053 16.485 110.875 15.9617C110.72 15.4673 110.459 15.0126 110.111 14.6296C109.752 14.2469 109.315 13.9447 108.831 13.7429C108.31 13.5181 107.747 13.4085 107.18 13.4219C106.637 13.4134 106.098 13.523 105.601 13.7429C105.117 13.9577 104.681 14.2674 104.319 14.6536C103.939 15.0512 103.642 15.5204 103.446 16.0337C103.217 16.5877 103.099 17.1814 103.101 17.7808V23.9414H101.277V11.9675H103.101V14.3828C103.279 14.0499 103.504 13.7434 103.767 13.4721C104.053 13.1362 104.385 12.8421 104.754 12.5986C105.151 12.3313 105.581 12.1156 106.033 11.9565C106.516 11.7852 107.026 11.7016 107.538 11.7098C108.289 11.7005 109.033 11.8493 109.722 12.1465C110.38 12.4145 110.97 12.8272 111.447 13.3542C111.947 13.9053 112.332 14.5504 112.581 15.2519C112.863 16.0339 113.005 16.8598 113 17.6913V23.9501L112.996 23.9698Z" fill="#060D0A"></path><path d="M87.29 17.903C87.2804 17.0785 87.4402 16.2609 87.7595 15.5007C88.0692 14.7751 88.5138 14.1148 89.0698 13.555C89.6248 12.984 90.2947 12.5374 91.0352 12.2447C91.7988 11.9204 92.6199 11.7532 93.4494 11.7532C94.279 11.7532 95.1001 11.9204 95.8637 12.2447C96.5963 12.5521 97.2635 12.9969 97.8291 13.555C98.4005 14.1019 98.8474 14.7656 99.1394 15.5007C99.4651 16.2643 99.633 17.0859 99.633 17.9161C99.633 18.7462 99.4651 19.5678 99.1394 20.3314C98.8323 21.0643 98.3875 21.7314 97.8291 22.2968C96.949 23.1579 95.8362 23.7426 94.6278 23.9789C93.4194 24.2153 92.1683 24.0928 91.0287 23.6268C89.5424 23.0036 88.3642 21.816 87.7529 20.3248C87.4447 19.5547 87.2875 18.7325 87.29 17.903ZM89.1397 17.903C89.1294 18.4858 89.2378 19.0646 89.4585 19.6041C89.6841 20.1174 90.0016 20.5852 90.3954 20.9843C90.7925 21.3806 91.2607 21.6984 91.7755 21.9212C92.3073 22.1373 92.8766 22.2456 93.4505 22.24C94.0258 22.253 94.5973 22.1443 95.1277 21.9212C95.641 21.6956 96.1088 21.3781 96.5079 20.9843C96.9041 20.5872 97.222 20.119 97.4448 19.6041C97.6816 19.0688 97.7993 18.4883 97.7898 17.903C97.7878 17.3341 97.6735 16.7712 97.4535 16.2465C97.2335 15.7219 96.9122 15.2458 96.5079 14.8456C96.1119 14.448 95.6434 14.1299 95.1277 13.9087C94.6016 13.6694 94.0284 13.5515 93.4505 13.5637C92.8745 13.5635 92.3046 13.6809 91.7755 13.9087C91.2566 14.124 90.787 14.4428 90.3954 14.8456C89.9986 15.2423 89.6807 15.7106 89.4585 16.2258C89.2397 16.7575 89.1313 17.3281 89.1397 17.903Z" fill="#060D0A"></path><path d="M85.5647 23.9693H83.6429V17.0444C83.6487 16.5753 83.5748 16.1087 83.4245 15.6642C83.2911 15.2394 83.0735 14.8458 82.7846 14.5068C82.501 14.1719 82.1477 13.9029 81.7495 13.7185C81.3255 13.5212 80.8607 13.4276 80.3934 13.4455C79.9394 13.4412 79.4908 13.5429 79.0831 13.7425C78.6802 13.9307 78.3198 14.1989 78.0239 14.5308C77.4189 15.2284 77.0862 16.121 77.087 17.0444V23.9693H75.1653V17.0444C75.1679 16.5959 75.0841 16.151 74.9185 15.7341C74.7843 15.3092 74.566 14.9155 74.2765 14.5767C73.9818 14.2219 73.6127 13.9362 73.1953 13.74C72.7778 13.5437 72.3224 13.4417 71.8612 13.4411C71.3738 13.4309 70.8915 13.5412 70.457 13.7621C70.0522 13.9694 69.6923 14.2543 69.3978 14.6007C68.7824 15.3995 68.4518 16.3812 68.4587 17.3895V23.941H66.6353V11.967H68.4587V14.0635C68.6124 13.7459 68.803 13.4476 69.0265 13.1747C69.2686 12.8755 69.55 12.6103 69.8629 12.3863C70.1998 12.1392 70.5745 11.9482 70.9723 11.8207C71.3833 11.6724 71.8174 11.5985 72.2542 11.6023C73.1139 11.5835 73.9565 11.8432 74.6564 12.3426C75.3281 12.8171 75.8702 13.4523 76.2332 14.1902C76.6478 13.435 77.2494 12.7988 77.9802 12.3426C78.7168 11.8511 79.5844 11.5931 80.4698 11.6023C81.1652 11.5983 81.8535 11.7412 82.4898 12.0216C83.0997 12.2793 83.6465 12.666 84.0928 13.155C84.5501 13.6631 84.9019 14.257 85.1279 14.9021C85.3782 15.5891 85.5032 16.3155 85.497 17.0466V23.9715L85.5647 23.9693Z" fill="#060D0A"></path><path d="M52.2308 23.9703H44V8H45.948V22.2953H52.2308V23.9703Z" fill="#060D0A"></path><path d="M64.9494 17.9321C64.9526 18.0563 64.9445 18.1806 64.9254 18.3033C64.9239 18.4201 64.907 18.5361 64.8752 18.6484H54.8951C54.892 19.1692 55.0101 19.6836 55.2401 20.1509C55.4796 20.5973 55.796 20.998 56.1748 21.3345C56.5718 21.6637 57.0224 21.9222 57.5069 22.0988C58.0023 22.2881 58.5295 22.38 59.0596 22.3696C59.6985 22.3866 60.3345 22.2775 60.9312 22.0486C61.4546 21.8243 61.9377 21.516 62.3616 21.1358L63.6544 22.2714C63.0717 22.8573 62.3754 23.3181 61.6082 23.6253C60.7856 23.9532 59.9057 24.1128 59.0203 24.0948C58.2632 24.0952 57.512 23.9614 56.8016 23.6996C56.0842 23.4311 55.4241 23.0295 54.8558 22.5159C54.2587 21.971 53.7807 21.3085 53.4516 20.5702C53.0913 19.7038 52.915 18.7719 52.934 17.8338C52.9298 17.0103 53.0718 16.1925 53.3533 15.4185C53.6179 14.6789 54.0286 14.0001 54.561 13.4225C55.09 12.8531 55.7369 12.4059 56.4565 12.1122C57.2275 11.7807 58.0588 11.6126 58.898 11.6186C59.7474 11.6063 60.5888 11.7831 61.3614 12.1362C62.0829 12.4488 62.7297 12.911 63.2591 13.4924C63.7995 14.0687 64.2191 14.7474 64.493 15.4884C64.807 16.2643 64.9622 17.0952 64.9494 17.9321ZM58.9614 13.3002C58.3863 13.2896 57.8153 13.3982 57.2842 13.619C56.8054 13.8105 56.3696 14.0956 56.0023 14.4576C55.6542 14.8116 55.3783 15.2299 55.1899 15.6893C54.999 16.1499 54.9067 16.6453 54.9191 17.1437H63.0517C63.0537 16.6601 62.9532 16.1815 62.7569 15.7395C62.5609 15.2759 62.2852 14.8501 61.9423 14.4817C61.5866 14.1092 61.1595 13.8121 60.6866 13.6081C60.1372 13.3935 59.5511 13.2889 58.9614 13.3002Z" fill="#060D0A"></path></svg>