<svg xmlns="http://www.w3.org/2000/svg" xmlns:xlink="http://www.w3.org/1999/xlink" version="1.1" id="Layer_1" x="0px" y="0px" viewBox="0 0 133 51" style="enable-background:new 0 0 133 51;" xml:space="preserve" width="133"  height="51" >
<style type="text/css">
	.st0{fill:#3333CC;}
</style>
<path class="st0" d="M41.4,14c-3.3,0-6.2,0.9-8.6,2.7l-1.5,1.1l0-17.2l-8,2.4v46.7l8.1,0l0-2.9l1.5,1.1c2.5,1.7,5.4,2.6,8.6,2.6  c9.2,0,16.7-8.2,16.7-18.3C58.2,22.1,50.6,14,41.4,14z M40.8,42.3c-5.4,0-9.5-4.3-9.5-10c0-5.7,4.1-10.1,9.5-10.1  c5.4,0,9.5,4.3,9.5,10C50.2,37.9,46.2,42.3,40.8,42.3z"/>
<path class="st0" d="M75,28.5l-0.9-0.3c-3.8-1.4-5.4-2.3-5.4-4.3c0-2.1,2.1-2.9,4.1-2.9c2,0,4.4,0.7,4.4,3.7v1.7h8v-1.7  c0-6.7-5.1-11.5-12.4-11.5c-7.9,0-12,5.3-12,10.6c0,7.5,6.2,9.7,11.2,11.5l0.5,0.2c3.8,1.4,5.7,2.4,5.7,4.1c0,2.3-2.5,3.1-4.7,3.1  c-2.5,0-5.6-0.7-5.6-4.2v-1.8h-8v1.8c0,7.2,5.4,12,13.6,12c7.3,0,12.7-4.5,12.7-10.8C86.1,32.6,79.9,30.3,75,28.5z"/>
<path class="st0" d="M104,45.1h8.6V42h-12.3l5.3-5.2c4.3-4.2,6.4-8,6.4-11.9c0-5.8-4.1-11.7-12-11.7c-5.9,0-12.2,3.7-12.2,11.7v1.4  h7.9V25c0-2.7,1.5-4.1,4.4-4.1c1.9,0,4,1.1,4,4c0,2.4-2.4,5-4.1,6.7l-7.8,7.8c-2.7,2.7-4.3,6.4-4.3,10.2h24.8v-3.1H104  c-0.4,0-0.8-0.3-0.8-0.8C103.2,45.5,103.5,45.1,104,45.1z M116,45.9c0,0.6-0.5,1.1-1.1,1.1s-1.1-0.5-1.1-1.1c0-0.6,0.5-1.1,1.1-1.1  S116,45.3,116,45.9z"/>
</svg>