<svg xmlns:xlink="http://www.w3.org/1999/xlink" role="img" alt="Rock Content Logo" width="171" height="26" viewBox="0 0 171 26" fill="none" xmlns="http://www.w3.org/2000/svg"><path d="M38.4827 10.202V20.1085H35.3887V6.89134H38.3381V7.97064C39.59 6.86765 41.2178 6.56315 42.8694 6.56315V9.4035C41.2672 9.4035 39.4965 9.73169 38.4827 10.202Z" fill="#25292C"></path><title>Rock Content</title>
<path fill-rule="evenodd" clip-rule="evenodd" d="M44.0991 14.3111C44.0991 18.4879 46.2236 20.4604 50.095 20.4604C53.9646 20.4604 56.0891 18.4879 56.0908 14.3111V12.6904C56.0908 8.53565 53.9663 6.56483 50.095 6.56483C46.2236 6.56483 44.0991 8.53565 44.0991 12.6904V14.3111ZM50.0949 9.21572C52.1242 9.21572 52.9984 10.1529 52.9984 12.6905V14.3111C52.9984 16.8453 52.1259 17.8078 50.0949 17.8078C48.064 17.8078 47.1914 16.8486 47.1914 14.3111V12.6905C47.1914 10.1546 48.0657 9.21572 50.0949 9.21572Z" fill="#25292C"></path>
<path d="M64.0905 20.4604C60.2668 20.4604 58.4961 18.3001 58.4961 14.3331V12.6668C58.4961 8.6287 60.2668 6.56315 64.0905 6.56315C66.1198 6.56315 67.5843 6.86765 68.1966 7.05543V9.4035C66.5212 9.26309 65.3645 9.19204 64.6246 9.19204C62.6889 9.19204 61.6037 9.80274 61.6037 12.6668V14.3331C61.6037 17.1734 62.6889 17.8315 64.6246 17.8315C65.356 17.8315 66.5127 17.7605 68.1966 17.62V19.9664C66.855 20.3061 65.4749 20.4722 64.0905 20.4604Z" fill="#25292C"></path>
<path d="M78.6524 20.1068L73.9561 13.8476V20.1068H70.8638V1.86871H73.9561V12.7835L78.6762 6.89134H82.2482L77.0944 13.2301L82.3809 20.1085L78.6524 20.1068Z" fill="#25292C"></path>
<path d="M88.7541 20.4604C84.9304 20.4604 83.1597 18.3001 83.1597 14.3331V12.6668C83.1597 8.6287 84.9304 6.56315 88.7541 6.56315C90.7833 6.56315 92.2479 6.86765 92.8602 7.05543V9.4035C91.1848 9.26309 90.0281 9.19204 89.2882 9.19204C87.3525 9.19204 86.2673 9.80274 86.2673 12.6668V14.3331C86.2673 17.1734 87.3525 17.8315 89.2882 17.8315C90.0196 17.8315 91.1763 17.7605 92.8602 17.62V19.9664C91.5186 20.3061 90.1385 20.4722 88.7541 20.4604Z" fill="#25292C"></path>
<path fill-rule="evenodd" clip-rule="evenodd" d="M94.6548 14.3111C94.6548 18.4879 96.7793 20.4604 100.649 20.4604C104.52 20.4604 106.643 18.4879 106.645 14.3111V12.6904C106.645 8.53565 104.519 6.56483 100.649 6.56483C96.7793 6.56483 94.6548 8.53565 94.6548 12.6904V14.3111ZM100.649 9.21572C102.68 9.21572 103.552 10.1529 103.552 12.6905V14.3111C103.552 16.8453 102.678 17.8078 100.649 17.8078C98.6196 17.8078 97.747 16.8486 97.747 14.3111V12.6905C97.747 10.1546 98.6179 9.21572 100.649 9.21572Z" fill="#25292C"></path>
<path d="M118.019 20.1068V11.7279C118.019 9.82643 117.689 9.17006 116.148 9.17006C115.252 9.17006 114.072 9.49825 112.655 10.0616V20.1085H109.571V6.89135H112.544V7.94697C113.983 7.1248 115.424 6.56147 116.91 6.56147C120.664 6.56147 121.163 8.72007 121.163 11.7245V20.1052L118.019 20.1068Z" fill="#25292C"></path>
<path d="M129.017 20.4604C126.398 20.4604 125.358 19.4268 125.358 16.6575V9.38318L122.882 9.17003V6.89132H125.36V3.535H128.476V6.89132H131.708V9.3798H128.476V16.6135C128.476 17.8349 128.57 18.0683 129.703 18.0683C130.383 18.0683 131.33 18.021 131.71 17.9753V20.0882C130.831 20.3198 129.927 20.4447 129.017 20.4604Z" fill="#25292C"></path>
<path fill-rule="evenodd" clip-rule="evenodd" d="M136.359 14.7087V14.4735L145.26 14.4718V13.4382C145.26 9.4255 143.7 6.56147 139.264 6.56147C135.299 6.56147 133.268 8.72176 133.268 13.1591V13.9795C133.268 18.6283 134.967 20.4587 139.759 20.4587C141.42 20.4627 143.075 20.2737 144.692 19.8954V17.5727C142.945 17.7368 141.291 17.8772 139.9 17.8772C136.643 17.8772 136.359 16.6338 136.359 14.7087ZM139.262 9.05163C141.834 9.05163 142.142 10.7213 142.142 12.2439L142.14 12.4553H136.383V12.2439C136.383 10.7433 136.76 9.05163 139.262 9.05163Z" fill="#25292C"></path>
<path d="M156.585 20.1068V11.7279C156.585 9.82643 156.255 9.17006 154.714 9.17006C153.818 9.17006 152.637 9.49825 151.22 10.0616V20.1085H148.135V6.89135H151.11V7.94697C152.549 7.1248 153.989 6.56147 155.476 6.56147C159.23 6.56147 159.728 8.72007 159.728 11.7245V20.1052L156.585 20.1068Z" fill="#25292C"></path>
<path d="M167.583 20.4604C164.964 20.4604 163.925 19.4268 163.925 16.6575V9.38318L161.446 9.17003V6.89132H163.925V3.535H167.042V6.89132H170.274V9.3798H167.042V16.6135C167.042 17.8349 167.136 18.0683 168.269 18.0683C168.949 18.0683 169.897 18.021 170.276 17.9753V20.0882C169.397 20.3198 168.493 20.4447 167.583 20.4604Z" fill="#25292C"></path>
<rect x="7.10425" y="11.7752" width="12.6835" height="2.68525" fill="#3576ED"></rect>
<path d="M19.7878 9.09167H7.10938V7.86955C7.10937 7.06121 7.75782 6.40566 8.55833 6.40471H18.3439C19.1444 6.40566 19.7928 7.06121 19.7928 7.86955L19.7878 9.09167Z" fill="#3576ED"></path>
<path d="M19.7878 17.1594H7.10938V18.3798C7.10937 19.1881 7.75782 19.8437 8.55833 19.8446H18.3439C19.1444 19.8437 19.7928 19.1881 19.7928 18.3798L19.7878 17.1594Z" fill="#3576ED"></path>
<path fill-rule="evenodd" clip-rule="evenodd" d="M10.1444 0.396685H16.9271C23.6979 0.396685 27.0715 4.56215 27.0715 13.117C27.0715 21.6718 23.6979 25.8065 16.9271 25.8065H10.1444C3.37018 25.8065 0 21.6787 0 13.117C0 4.55531 3.37018 0.396685 10.1444 0.396685ZM16.4191 23.1418C16.4191 23.1418 13.3621 23.1298 16.4191 23.1298V23.123C23.6826 23.123 23.6826 18.7689 23.6826 13.159V13.1238V13.0887C23.6826 7.47862 23.6826 3.09391 16.4191 3.09391H10.6335C3.36994 3.09391 3.36999 7.47055 3.37006 13.0732L3.37006 13.1238V13.159C3.37002 18.769 3.37 23.1298 10.6335 23.1298C13.6905 23.1298 10.6335 23.1418 10.6335 23.1418H16.4191Z" fill="#3576ED"></path>
</svg>