<svg xmlns:xlink="http://www.w3.org/1999/xlink" xmlns="http://www.w3.org/2000/svg" width="100" height="28" viewBox="0 0 100 28" fill="none">
<path fill-rule="evenodd" clip-rule="evenodd" d="M62.7673 1.68695L67.4086 0V26.9209H62.7673V24.79C61.6071 26.4544 59.8433 27.4832 57.4227 27.4832C52.5678 27.4832 48.6322 23.345 48.6322 18.2401C48.6322 13.1353 52.5678 8.99706 57.4227 8.99706C59.8433 8.99706 61.6071 10.0259 62.7673 11.6903V1.68695ZM58.0556 23.1956C60.6577 23.1956 62.7673 20.9769 62.7673 18.2401C62.7673 15.5033 60.6577 13.2847 58.0556 13.2847C55.4534 13.2847 53.3439 15.5033 53.3439 18.2401C53.3439 20.9769 55.4534 23.1956 58.0556 23.1956Z" fill="#2D3135"/>
<path d="M81.6043 14.8914L84.1337 11.5618C76.9777 6.43857 70.1976 9.95562 69.7744 14.1524C69.3513 18.3491 72.8777 19.6892 76.6863 20.2535C79.7331 20.7049 80.1382 21.5415 79.9659 22.1579C79.049 25.4377 73.4772 23.1454 71.7845 21.4173L69.4998 24.3837C71.3118 26.3153 73.9608 27.4832 77.321 27.4832C83.2736 27.4832 84.7853 23.4393 84.7971 21.4173C84.6714 17.0606 80.6771 16.4733 77.646 16.0275C75.5735 15.7228 73.9512 15.4842 74.3236 14.1524C75.2404 10.8726 81.2364 13.8797 81.6043 14.8914Z" fill="#2D3135"/>
<path fill-rule="evenodd" clip-rule="evenodd" d="M41.7516 24.7914C40.593 26.4549 38.8316 27.4832 36.4142 27.4832C31.5659 27.4832 27.6356 23.3471 27.6356 18.245C27.6356 13.1429 31.5659 9.00687 36.4142 9.00687C38.8316 9.00687 40.593 10.0351 41.7516 11.6987V9.35813L46.3868 7.67207V26.9212H41.7516V24.7914ZM41.7516 18.245C41.7516 20.9804 39.645 23.1978 37.0463 23.1978C34.4476 23.1978 32.3409 20.9804 32.3409 18.245C32.3409 15.5097 34.4476 13.2923 37.0463 13.2923C39.645 13.2923 41.7516 15.5097 41.7516 18.245Z" fill="#2D3135"/>
<path fill-rule="evenodd" clip-rule="evenodd" d="M17.1526 27.4834C20.4907 27.4834 23.8054 26.0451 25.3348 23.3743L21.4369 21.8652C19.7024 23.3743 18.8098 23.5927 17.1526 23.5927C15.0023 23.5927 12.9841 22.0961 12.5523 19.9676H25.9318C26.0723 19.2652 26.0723 18.3348 26.0723 18.2467C26.0723 13.1453 22.6308 9.00987 17.1526 9.00987C12.0713 9.00987 7.95204 13.1453 7.95204 18.2467C7.95204 23.348 12.0713 27.4834 17.1526 27.4834ZM21.4369 16.6355H12.5271C12.9704 14.1878 15.1862 13.2358 17.1526 13.2358C18.7734 13.2358 20.9935 14.1878 21.4369 16.6355Z" fill="#2D3135"/>
<path d="M0 1.61521H4.64002V22.9202H6.88973V26.928H3.69093C1.80304 26.928 0 25.2757 0 23.2717V1.61521Z" fill="#2D3135"/>
<path d="M89.3908 7.72218V7.69843L91.168 5.85146C91.4295 5.57827 91.6494 5.3229 91.8277 5.07941C92.0061 4.84186 92.1487 4.60431 92.2557 4.37269C92.3627 4.14702 92.434 3.92134 92.4815 3.70755C92.5291 3.49375 92.5529 3.26807 92.5529 3.03052C92.5529 2.66231 92.4815 2.31786 92.3389 2.00311C92.1963 1.68835 92.0001 1.42704 91.7624 1.21918C91.5187 1.01726 91.2393 0.856915 90.9302 0.744078C90.6152 0.631241 90.2883 0.571852 89.9436 0.571852C89.2957 0.571852 88.7489 0.714384 88.2972 0.999447C87.8455 1.28451 87.4889 1.67053 87.2333 2.15158L88.2496 2.87017C88.63 2.21096 89.159 1.87839 89.8426 1.87839C90.0862 1.87839 90.3062 1.93778 90.5023 2.05062C90.6984 2.16939 90.853 2.3238 90.96 2.51978C91.067 2.7217 91.1264 2.94144 91.1264 3.17899C91.1264 3.51156 91.0253 3.83226 90.8292 4.14702C90.6271 4.46771 90.3299 4.82998 89.9377 5.2457L87.2511 8.07257L87.2689 9.0109H92.648V7.72218H89.3908Z" fill="#00BFA5"/>
<path d="M97.1351 2.98895C96.3327 2.98895 95.7086 3.2562 95.2569 3.79069H95.2272V0.0551758H93.8661V9.0109H95.1678V8.2151H95.1915C95.6433 8.80898 96.2852 9.10593 97.1232 9.10593C97.5274 9.10593 97.9078 9.03466 98.2644 8.89213C98.621 8.7496 98.9242 8.54174 99.1797 8.28043C99.4294 8.01912 99.6315 7.69843 99.7801 7.31834C99.9227 6.93826 100 6.52254 100 6.07119C100 5.7208 99.9524 5.38823 99.8573 5.06753C99.7622 4.74684 99.6315 4.46177 99.4591 4.21234C99.2867 3.96291 99.0847 3.74318 98.8528 3.55907C98.6151 3.38091 98.3536 3.23838 98.0564 3.13742C97.7592 3.0424 97.4561 2.98895 97.1351 2.98895ZM96.9093 7.87065C96.4159 7.87065 96.0058 7.70437 95.673 7.37179C95.3401 7.03922 95.1737 6.61162 95.1737 6.07713C95.1737 5.86927 95.1975 5.67329 95.251 5.48325C95.3045 5.29321 95.3817 5.12692 95.4887 4.97251C95.5898 4.8181 95.7086 4.68745 95.8513 4.57461C95.988 4.46771 96.1485 4.37863 96.3268 4.31924C96.5051 4.25985 96.7012 4.22422 96.9033 4.22422C97.3907 4.22422 97.7949 4.39645 98.1218 4.73496C98.4487 5.07347 98.6151 5.51888 98.6151 6.07713C98.6151 6.60569 98.4546 7.03922 98.1396 7.37179C97.8186 7.70437 97.4085 7.87065 96.9093 7.87065Z" fill="#00BFA5"/>
</svg>