<svg xmlns:xlink="http://www.w3.org/1999/xlink" class="TrueSvgIcon-root TrueSvgIcon-fontSizeMedium css-4nr0ny" focusable="false" aria-hidden="true" viewBox="0 0 87 38" width="87" height="38" fill="none" xmlns="http://www.w3.org/2000/svg"><g clip-path="url(#DefaultBrandMarkPositive-clip0_34574_1971)" fill="none"><path d="M0.0869356 4.15724H6.93145V10.9644H15.2624V16.998H6.93145V27.3911C6.93145 29.639 7.75804 31.0925 10.6329 31.0925H15.2624V37.126H10.6329C2.09002 37.1252 0.0869356 32.3775 0.0869356 26.9856V4.15724Z" fill="#FF5D47"></path><path d="M18.1164 4.15724C18.1164 1.3432 20.5111 0.0503553 22.2736 0.0503553C24.5146 0.0503553 26.3797 1.84158 26.3797 4.15724C26.3797 6.13341 24.763 8.31448 22.2736 8.31448C19.4874 8.31448 18.1164 5.87032 18.1164 4.15724ZM18.8266 37.1252V10.9644H25.6712V37.1252H18.8266Z" fill="#FF5D47"></path><path d="M54.2041 15.7043C52.4658 12.4604 49.1595 10.4565 44.9771 10.4565C40.166 10.4565 37.6046 13.3669 36.8145 14.3784V10.9644H29.97V37.1252H36.8145V22.4732C36.8145 20.1341 38.0995 18.3203 39.7301 17.4286C40.6253 16.9389 41.6316 16.6932 42.7465 16.6932C43.9291 16.6932 44.9684 16.9389 45.8644 17.4286C47.5914 18.3724 48.6785 20.1324 48.6785 22.4732V37.1252H55.523V21.2559C55.523 19.1947 55.0836 17.3444 54.205 15.7043H54.2041Z" fill="#FF5D47"></path><path d="M66.4864 26.7824C65.9203 25.2117 65.6303 22.692 66.9387 20.293C68.13 18.1085 70.2781 16.7444 72.9211 16.7444C75.8723 16.7444 77.8754 18.408 78.9034 20.293C80.1528 22.5844 79.9531 25.1249 79.3558 26.7824H86.6561C86.848 25.7943 87.6112 21.4053 85.0629 17.1499C82.656 13.1307 78.2895 10.4573 72.9202 10.4573C67.2513 10.4573 63.0168 13.4068 60.7775 17.1499C58.2414 21.3888 58.9802 25.731 59.1843 26.7824H66.4855H66.4864Z" fill="#FF5D47"></path><path d="M61.0206 31.3451C63.1852 34.7409 67.2018 37.6322 72.9201 37.6322C77.9804 37.6322 82.3208 35.2636 84.8197 31.3451H61.0197H61.0206Z" fill="#FF5D47"></path></g><defs><clipPath id="clip0_34574_1971"><rect width="86.7341" height="37.5675" fill="white" transform="scale(1.00307)"></rect></clipPath></defs></svg>