<?xml version="1.0" encoding="utf-8"?>
<!-- Generator: Adobe Illustrator 27.0.1, SVG Export Plug-In . SVG Version: 6.00 Build 0)  -->
<svg version="1.1" id="Layer_1" xmlns="http://www.w3.org/2000/svg" xmlns:xlink="http://www.w3.org/1999/xlink" x="0px" y="0px"
	 viewBox="0 0 184 216" style="enable-background:new 0 0 184 216;" xml:space="preserve">
<style type="text/css">
	.st0{filter:url(#Adobe_OpacityMaskFilter);}
	.st1{fill-rule:evenodd;clip-rule:evenodd;fill:#FFFFFF;}
	.st2{mask:url(#mask-2_00000182517568027664156150000009973192657449088902_);}
	.st3{fill-rule:evenodd;clip-rule:evenodd;fill:#FF6400;}
	.st4{filter:url(#Adobe_OpacityMaskFilter_00000024702443794272187360000008168767567809349311_);}
	.st5{mask:url(#mask-4_00000163031866132168923610000008517227175367748771_);}
	.st6{fill-rule:evenodd;clip-rule:evenodd;fill:#FC4C02;}
</style>
<g id="logo_x2F_assinatura">
	<g id="Group_00000164502123728926241400000000304539550678927283_" transform="translate(0.000000, 0.999300)">
		<g id="cor_x2F_preto_00000038403170251788882140000009704971017203184285_" transform="translate(-0.000000, 0.000000)">
			<g id="Mask">
				<path id="path-1_00000061443525231043895380000013540978378955772823_" d="M32,145.3l41,46V146h13.3v68.7h-8.6l-40.1-45.1v45.3
					H24.3v-69.6H32z M130.5,146l30,68.9h-14.3l-5.5-13.3h-29.5l-5.5,13.3H91.4l30.2-68.9H130.5z M125.9,165.2l-10.5,24.9h20.9
					L125.9,165.2z M140,72.5c19.4,0,35.1,15.7,35.1,35.1c0,19.4-15.7,35.1-35.1,35.1c-19.4,0-35.1-15.7-35.1-35.1
					C104.9,88.2,120.6,72.5,140,72.5z M105.4,73v8.5l-37.9,48.4h38.7v12H50v-8.4L87.3,85H50.5V73H105.4z M140.5,87.3
					c-11.2,0-20.3,9.1-20.3,20.3s9.1,20.3,20.3,20.3s20.3-9.1,20.3-20.3S151.7,87.3,140.5,87.3z M96.6,0c16.8,0,28,9.5,28,24.9
					c0,10-5.3,17.6-14.1,21.6c6,3.9,8.2,12.2,15.8,12.2c0.9,0,1.8,0,2.6-0.1V69c-0.1,0.1-2.5,0.8-6.6,0.8
					c-16.5,0-19.9-20.3-27.4-20.6h-9v19.7H72.4V0H96.6z M39.1,0l30,68.9H54.8l-5.5-13.3H19.8l-5.5,13.3H0L30.2,0H39.1z M147,0v68.9
					h-13.5V0H147z M34.6,19.2L24.1,44.1H45L34.6,19.2z M95.9,11.9h-10v25.5h9.8c9.1,0,15.1-5.1,15.1-12.4
					C110.8,16.9,104.8,11.9,95.9,11.9z"/>
			</g>
			<defs>
				<filter id="Adobe_OpacityMaskFilter" filterUnits="userSpaceOnUse" x="0" y="0" width="176" height="215">
					<feColorMatrix  type="matrix" values="1 0 0 0 0  0 1 0 0 0  0 0 1 0 0  0 0 0 1 0"/>
				</filter>
			</defs>
			
				<mask maskUnits="userSpaceOnUse" x="0" y="0" width="176" height="215" id="mask-2_00000182517568027664156150000009973192657449088902_">
				<g class="st0">
					<path id="path-1_00000152954049642571704150000013976334984164913544_" class="st1" d="M32,145.3l41,46V146h13.3v68.7h-8.6
						l-40.1-45.1v45.3H24.3v-69.6H32z M130.5,146l30,68.9h-14.3l-5.5-13.3h-29.5l-5.5,13.3H91.4l30.2-68.9H130.5z M125.9,165.2
						l-10.5,24.9h20.9L125.9,165.2z M140,72.5c19.4,0,35.1,15.7,35.1,35.1c0,19.4-15.7,35.1-35.1,35.1c-19.4,0-35.1-15.7-35.1-35.1
						C104.9,88.2,120.6,72.5,140,72.5z M105.4,73v8.5l-37.9,48.4h38.7v12H50v-8.4L87.3,85H50.5V73H105.4z M140.5,87.3
						c-11.2,0-20.3,9.1-20.3,20.3s9.1,20.3,20.3,20.3s20.3-9.1,20.3-20.3S151.7,87.3,140.5,87.3z M96.6,0c16.8,0,28,9.5,28,24.9
						c0,10-5.3,17.6-14.1,21.6c6,3.9,8.2,12.2,15.8,12.2c0.9,0,1.8,0,2.6-0.1V69c-0.1,0.1-2.5,0.8-6.6,0.8
						c-16.5,0-19.9-20.3-27.4-20.6h-9v19.7H72.4V0H96.6z M39.1,0l30,68.9H54.8l-5.5-13.3H19.8l-5.5,13.3H0L30.2,0H39.1z M147,0v68.9
						h-13.5V0H147z M34.6,19.2L24.1,44.1H45L34.6,19.2z M95.9,11.9h-10v25.5h9.8c9.1,0,15.1-5.1,15.1-12.4
						C110.8,16.9,104.8,11.9,95.9,11.9z"/>
				</g>
			</mask>
			<g id="Group" class="st2">
				<g id="cor_x2F_preto" transform="translate(0.000000, 0.000000)">
					<g transform="translate(0.000000, 0.000000)">
						<rect id="Rectangle" y="0" width="176" height="215"/>
					</g>
				</g>
			</g>
		</g>
	</g>
	<g id="cor_x2F_preto_00000069395998146354414000000013421518203578849204_" transform="translate(135.950000, 65.200800)">
		<g id="Mask_00000021834502067759815290000005598598197738810250_">
			<path id="path-3_00000109727578642241121110000012262447408768428710_" class="st3" d="M4.5,38.8c2.5,0,4.5,2,4.5,4.5
				c0,2.5-2,4.5-4.5,4.5S0,45.8,0,43.4C0,40.9,2,38.8,4.5,38.8z M39,0c5,0,9,4,9,9c0,5-4,9-9,9s-9-4-9-9C29.9,4,34,0,39,0z M39,4.5
				c-2.5,0-4.5,2-4.5,4.5s2,4.5,4.5,4.5s4.5-2,4.5-4.5S41.4,4.5,39,4.5z"/>
		</g>
		<defs>
			
				<filter id="Adobe_OpacityMaskFilter_00000154404814021952953120000015273747748916191901_" filterUnits="userSpaceOnUse" x="0" y="0" width="48" height="48">
				<feColorMatrix  type="matrix" values="1 0 0 0 0  0 1 0 0 0  0 0 1 0 0  0 0 0 1 0"/>
			</filter>
		</defs>
		
			<mask maskUnits="userSpaceOnUse" x="0" y="0" width="48" height="48" id="mask-4_00000163031866132168923610000008517227175367748771_">
			<g style="filter:url(#Adobe_OpacityMaskFilter_00000154404814021952953120000015273747748916191901_);">
				<path id="path-3_00000065758464753393084580000000997246626367446198_" class="st1" d="M4.5,38.8c2.5,0,4.5,2,4.5,4.5
					c0,2.5-2,4.5-4.5,4.5S0,45.8,0,43.4C0,40.9,2,38.8,4.5,38.8z M39,0c5,0,9,4,9,9c0,5-4,9-9,9s-9-4-9-9C29.9,4,34,0,39,0z M39,4.5
					c-2.5,0-4.5,2-4.5,4.5s2,4.5,4.5,4.5s4.5-2,4.5-4.5S41.4,4.5,39,4.5z"/>
			</g>
		</mask>
		<g id="Group_00000030476276978185225340000013032827743192563130_" class="st5">
			<g id="cor_x2F_preto_00000108284034101441531320000006490125133180419234_">
				<rect id="Rectangle_00000080926306860687549880000002857939362888110725_" x="0" y="0" class="st6" width="48" height="48"/>
			</g>
		</g>
	</g>
</g>
</svg>
