<svg version="1.1" id="Inventa_Logo" xmlns="http://www.w3.org/2000/svg" xmlns:xlink="http://www.w3.org/1999/xlink" x="0px" y="0px" viewBox="0 0 2664.6 566.9" style="enable-background:new 0 0 2664.6 566.9;" xml:space="preserve" width="2664.6"  height="566.9" >
<style type="text/css">
	.st0{fill:#101820;}
</style>
<path class="st0" d="M2652,199.8c-27.3,0-54.7,0-82,0c-6.4,0-11.8,4.8-12.5,11.2c-1.2,10.3-2.4,20.7-3.6,31
c-0.1,1.2-1.7,1.5-2.3,0.5c-19.2-33.1-68.9-52.7-112.3-52.7c-87.1,0-182.8,74.1-182.8,188.6c0,113.7,95,187.9,182.8,187.9
c40.5,0,92.3-16.2,112.3-52c0.6-1.1,2.2-0.7,2.4,0.5c1.2,10.3,2.4,20.7,3.6,31c0.7,6.4,6.1,11.2,12.5,11.2c27.3,0,54.7,0,82,0
c7,0,12.6-5.6,12.6-12.6c0-110.6,0-221.2,0-331.9C2664.6,205.4,2658.9,199.8,2652,199.8z M2460.1,461.8c-46.1,0-83.5-37.4-83.5-83.5
c0-46.1,37.4-83.5,83.5-83.5s83.5,37.4,83.5,83.5C2543.6,424.4,2506.2,461.8,2460.1,461.8z M2220,212.4c0,23,0,46.1,0,69.1
c0,7-5.6,12.6-12.6,12.6c-32.1,0-64.2,0-96.3,0c-0.7,0-1.3,0.6-1.2,1.3c0,37.7,0,75.5,0,113.2c0,36.7,22.3,59,59,59
c9.4,0,19.2-1.7,35.1-6.1c8.1-2.3,16,3.8,16,12.1c0,23.7,0,47.5,0,71.3c0,5.1-3,9.6-7.6,11.6c-13.9,6-36.2,10.4-63,10.4
c-95.8,0-159.1-63.4-159.1-147.6c0-36,0-71.9,0-107.9c0-5.8,0-11.6,0-17.4c0-31.4,0-62.9,0-94.3c0-2.4,0-4.9,0-7.4
c0-22.6,0-45.2,0-67.8c0-7,5.6-12.6,12.6-12.6c31.4,0,62.9,0,94.3,0c7,0,12.6,5.6,12.6,12.6c0,24.7,0,49.3,0,74
c0,0.7,0.6,1.3,1.3,1.3c32.1,0,64.2,0,96.3,0C2214.4,199.8,2220,205.4,2220,212.4z M1918.3,358.3c0,62,0,124.1,0,186.1
c0,7-5.6,12.6-12.6,12.6c-31.4,0-62.9,0-94.3,0c-7,0-12.6-5.6-12.6-12.6c0-58.2,0-116.4,0-174.6c0-39.6-30.9-72.7-70.5-72.7
c-38.1,0-69.8,33.1-69.8,74.1c0,57.7,0,115.4,0,173.1c0,7-5.6,12.6-12.6,12.6c-31.4,0-62.9,0-94.3,0c-7,0-12.6-5.6-12.6-12.6
c0-110.7,0-221.3,0-331.9c0-7,5.6-12.6,12.6-12.6c27.3,0,54.5,0,81.8,0c6.1,0,11.4,4.5,12.4,10.6c1.8,10.9,3.5,21.7,5.3,32.6
c0.2,1.1,1.6,1.5,2.2,0.7c23.9-34.7,65.3-53.8,108.1-53.8C1857.8,189.9,1918.3,263.3,1918.3,358.3z M1281.2,189.8
c-115.2,0-203,84.9-203,190c0,108,93.6,187.2,204.4,187.2c64.9,0,123-27.2,158.3-67c5.6-6.3,3.5-16.2-4.1-19.8
c-24-11.2-48-22.4-72-33.6c-5-2.3-11-1.1-14.7,3c-14.9,16.7-40.7,23.7-66,23.7c-44,0-75.4-21.7-87.3-61c-0.2-0.8,0.4-1.6,1.2-1.6
c90.2,0,180.3,0,270.5,0c7,0,12.8-6,12.5-13.1C1475.7,280.1,1399.9,189.8,1281.2,189.8z M1360.8,340.2c-54.3,0-108.6,0-162.9,0
c-0.9,0-1.5-0.8-1.2-1.7c11.9-36.4,41.2-56.7,84.4-56.7c37.7,0,68.3,15.4,80.9,56.7C1362.2,339.4,1361.6,340.2,1360.8,340.2z
M1079.1,218.1C1022.2,328.8,965.4,439.4,908.5,550c-2.2,4.2-6.5,6.8-11.2,6.8c-11.9,0-23.8,0-35.7,0c-4.7,0-9-2.6-11.2-6.8
c-56.8-110.6-113.7-221.2-170.7-331.9c-2-3.9-1.8-8.6,0.5-12.3c2.3-3.7,6.4-6,10.8-6c33.6,0,67.2,0,100.8,0c5,0,9.5,2.9,11.5,7.4
c24.9,55,49.8,110,74.7,165c0.5,1,1.8,1,2.1,0c25.1-55,50.3-110,75.4-165c2.1-4.5,6.6-7.4,11.5-7.4c33.6,0,67.2,0,100.8,0
c4.4,0,8.5,2.3,10.8,6C1080.9,209.5,1081.1,214.2,1079.1,218.1z M662,358.1c0,62,0,124.1,0,186.1c0,7-5.6,12.6-12.6,12.6
c-31.4,0-62.9,0-94.3,0c-7,0-12.6-5.6-12.6-12.6c0-58.2,0-116.4,0-174.6c0-39.6-31-72.7-70.5-72.7c-38.2,0-69.8,33.1-69.8,74.1
c0,57.7,0,115.4,0,173.1c0,7-5.6,12.6-12.6,12.6c-31.4,0-62.9,0-94.3,0c-7,0-12.6-5.6-12.6-12.6c0-110.6,0-221.2,0-331.9
c0-7,5.6-12.6,12.6-12.6c27.3,0,54.5,0,81.8,0c6.1,0.2,11.3,4.7,12.3,10.8c1.8,10.9,3.5,21.7,5.3,32.6c0.2,1.1,1.6,1.4,2.3,0.5
c23.9-34.7,65.3-53.8,108.1-53.8C601.6,189.7,662,263.1,662,358.1z M199,212.4c0,110.7,0,221.3,0,331.9c0,6.9-5.7,12.6-12.6,12.6
c-31.4,0-62.9,0-94.3,0c-7,0-12.6-5.6-12.6-12.6c0-110.7,0-221.3,0-331.9c0-7,5.6-12.6,12.6-12.6c31.4,0,62.9,0,94.3,0
C193.4,199.8,199,205.4,199,212.4z M276,35c3,4.1,3.2,9.6,0.6,13.9c-29.1,48.1-81.3,77.3-137.4,77.3c-27.6,0-54.7-7.1-78.8-20.6
C36.3,92.1,16.1,72.5,1.8,48.9c-2.6-4.3-2.4-9.8,0.6-13.9c7.2-9.9,14.5-19.9,21.8-29.9c4.1-5.7,12.3-6.9,17.9-2.5
c27.7,21.7,61.8,33.6,97.1,33.6s69.4-11.9,97.2-33.6c5.6-4.4,13.7-3.3,17.9,2.5C261.5,15.1,268.8,25,276,35z" fill="#101820"></path>
</svg>