<svg xmlns:xlink="http://www.w3.org/1999/xlink" xmlns="http://www.w3.org/2000/svg" viewBox="0 0 50.89 98" width="50.89"  height="98" ><defs><style>.cls-1{fill:#000;}</style></defs><title>Ativo 3</title><g id="Camada_2" data-name="Camada 2"><g id="Layer_2" data-name="Layer 2"><polygon class="cls-1" points="19.69 34.44 12.24 57.19 4.82 34.44 0 34.44 10.36 63.56 14.15 63.56 24.53 34.44 19.69 34.44"/><path class="cls-1" d="M49.45,40.68a11,11,0,0,0-4.14-4.93,11.44,11.44,0,0,0-6.21-1.7,10.9,10.9,0,0,0-10.32,6.68,17.91,17.91,0,0,0-1.45,7.39v2.06a17.14,17.14,0,0,0,1.51,7.22A10.94,10.94,0,0,0,39.14,64a11.41,11.41,0,0,0,6.2-1.69,11,11,0,0,0,4.11-4.91,18,18,0,0,0,1.44-7.43v-1.8A18,18,0,0,0,49.45,40.68ZM39.14,60.08a6.28,6.28,0,0,1-5.4-2.66,12.51,12.51,0,0,1-2-7.5V47.83a12.19,12.19,0,0,1,2-7.31A6.25,6.25,0,0,1,39.1,38a6.34,6.34,0,0,1,5.41,2.56c1.3,1.74,2,4.28,2,7.56v2.11c0,3.2-.7,5.69-2,7.38A6.25,6.25,0,0,1,39.14,60.08Z"/><path class="cls-1" d="M17.49,85.52a8.85,8.85,0,0,0,3.79-2.92,8.06,8.06,0,0,0,1.5-4.83,8.22,8.22,0,0,0-2.71-6.63c-1.78-1.5-4.35-2.27-7.62-2.27H2.69V98H7.15V86.49h6.13L19.46,98h5Zm.83-7.76a4.55,4.55,0,0,1-1.53,3.62,6.22,6.22,0,0,1-4.22,1.36H7.15V72.63h5.4A6.33,6.33,0,0,1,16.86,74,4.83,4.83,0,0,1,18.32,77.76Z"/><polygon class="cls-1" points="33.7 94.25 33.7 85.31 46.03 85.31 46.03 81.56 33.7 81.56 33.7 72.63 47.83 72.63 47.83 68.87 29.27 68.87 29.27 98 48.02 98 48.02 94.25 33.7 94.25"/><path class="cls-1" d="M44,16.65a8.85,8.85,0,0,0,3.79-2.92,8.06,8.06,0,0,0,1.5-4.83,8.26,8.26,0,0,0-2.71-6.63C44.8.76,42.23,0,39,0H29.2V29.13h4.46V17.62h6.13L46,29.13h4.93Zm.83-7.76a4.55,4.55,0,0,1-1.53,3.62,6.22,6.22,0,0,1-4.22,1.36H33.66V3.75h5.4a6.44,6.44,0,0,1,4.31,1.34A4.86,4.86,0,0,1,44.83,8.89Z"/><polyline class="cls-1" points="4.61 29.13 12.26 5.98 19.94 29.13 24.53 29.13 14.22 0.22 14.13 0 10.38 0 0 29.13 3.86 29.13"/></g></g></svg>