<svg xmlns:xlink="http://www.w3.org/1999/xlink" xmlns="http://www.w3.org/2000/svg" width="78" height="31" viewBox="0 0 78 31" fill="none">
<path d="M37.8536 11.9724C37.7553 11.2349 38.2446 11.2888 38.5817 11.0501C39.0369 10.7281 39.0004 9.68365 40.1416 10.1071C41.2836 10.5306 40.9204 12.2524 40.0536 12.7901C39.186 13.3278 37.952 12.71 37.8536 11.9724Z" fill="black"/>
<path fill-rule="evenodd" clip-rule="evenodd" d="M22.0845 19.7689C21.956 18.0051 22.1416 15.8512 22.799 13.2341C25.2242 3.57464 32.736 -1.76739 36.7647 0.530093C36.7647 0.530093 39.0448 1.76012 35.8916 6.66043C33.5307 10.3299 29.6923 15.6458 25.6873 20.2859C25.6857 20.2978 25.6834 20.3097 25.6818 20.3216C26.6802 29.5671 29.5519 23.3035 31.3268 19.4017C31.9168 18.1042 32.3411 16.0066 33.541 16.3873C34.3562 16.6458 35.2603 16.9694 34.8313 18.274C34.4022 19.5785 33.8249 22.428 34.5521 23.5169C35.342 24.6977 37.4032 24.6216 38.3643 24.1331C39.3255 23.6446 39.3993 23.5756 39.592 23.7905C39.7847 24.0054 39.5222 24.7485 38.358 25.5082C37.1938 26.268 32.5298 27.6598 31.5163 22.0648C31.5163 22.0648 29.4083 27.7248 26.888 26.9825C25.6048 26.6042 23.9386 25.5511 22.933 23.3321C18.9979 27.4623 15.192 30.4331 12.7518 30.0533C9.8912 29.6076 11.283 23.4709 11.283 23.4709C11.283 23.4709 7.33676 27.4481 3.65221 26.9286C0.219066 26.4448 -1.19654 23.3131 1.17549 19.1907C3.54753 15.0684 5.58172 14.3269 7.32962 13.583C9.07752 12.8399 12.1673 13.1548 12.0087 14.7575C11.9738 15.1113 11.6684 15.3206 10.9745 14.8257C10.2806 14.3309 9.59618 14.4134 8.57393 15.1168C7.55247 15.821 4.10584 19.3121 2.85202 23.6089C1.59899 27.9056 6.7721 24.8738 8.81502 22.2821C10.8579 19.6904 12.8866 16.5673 13.529 15.0034C14.1721 13.4403 14.3061 13.3229 14.9977 13.2484C15.6892 13.1738 16.9042 13.2587 16.3197 14.6751C15.7344 16.0915 15.0833 17.7236 14.1872 21.4343C13.2918 25.145 12.4734 28.9866 13.8605 27.9286C14.6162 27.3537 18.1319 23.8959 22.0845 19.7689ZM55.9076 22.8555C55.8806 22.7397 55.8568 22.6215 55.8354 22.501C54.4912 14.8202 61.7944 8.73903 65.8002 12.2507C68.7353 15.8187 64.0396 19.8767 59.566 22.6961C60.6953 24.7477 63.176 25.536 65.7415 25.72C69.246 25.9714 75.9299 23.4431 76.1662 23.321C76.4034 23.1989 76.8998 22.9847 77.041 23.5034C77.1821 24.022 76.5104 24.3187 76.5104 24.3187C70.8512 27.3902 59.654 29.694 56.542 24.4606C55.316 25.1276 54.2913 25.6343 53.7068 25.9286C50.8066 27.3886 45.8032 28.6598 42.5937 26.5519C39.3842 24.4447 41.0306 19.7776 42.4494 17.6038C45.605 12.7678 50.9137 13.1143 51.7932 13.2856C52.6727 13.4569 52.6156 14.2135 52.2397 14.7298C51.8638 15.2461 50.9732 15.0978 50.9732 15.0978C47.7589 15.4713 45.4471 19.5111 44.593 22.8277C43.7389 26.1443 44.9784 26.609 47.6963 26.0245C49.3775 25.6653 52.8456 24.2711 55.9076 22.8555ZM59.0616 21.309C59.6556 20.9965 60.1774 20.7047 60.5953 20.4485C63.3869 18.7387 66.7931 14.9399 64.7097 13.5473C62.6264 12.1539 58.9696 15.7211 58.9307 19.9053C58.9268 20.4136 58.972 20.8807 59.0616 21.309ZM25.6754 15.9574C27.8333 13.6259 29.9167 11.2911 31.5639 9.29814C37.1819 2.50163 36.1565 1.91398 35.3142 2.0258C33.6012 2.25261 26.6794 7.45031 25.6683 15.9535C25.6707 15.9551 25.673 15.9559 25.6754 15.9574Z" fill="black"/>
</svg>