<svg xmlns:xlink="http://www.w3.org/1999/xlink" width="115" height="32" fill="none" xmlns="http://www.w3.org/2000/svg"><path fill-rule="evenodd" clip-rule="evenodd" d="M17.2992 1.3C17.2992 2.01797 16.7171 2.6 15.9991 2.6C15.2811 2.6 14.6991 2.01797 14.6991 1.3C14.6991 0.58203 15.2811 0 15.9991 0C16.7171 0 17.2992 0.58203 17.2992 1.3ZM21.4743 14.475C23.3244 14.55 25.1494 14.625 26.9745 14.8C27.6495 14.85 28.1246 15.425 28.0496 16.1C27.9995 16.675 27.5495 17.125 26.9745 17.175C25.1244 17.35 23.2994 17.45 21.4743 17.5C21.1868 17.5125 20.8993 17.5187 20.6118 17.525C20.3243 17.5312 20.0368 17.5375 19.7493 17.55C20.1238 17.9495 20.5232 18.3739 20.9227 18.7983L20.923 18.7987L20.9243 18.8C22.1743 20.125 23.3994 21.475 24.5744 22.9C24.9994 23.425 24.9244 24.175 24.4244 24.6C23.9744 24.975 23.3244 24.975 22.8994 24.6C21.4993 23.425 20.1243 22.2 18.7992 20.95C18.5141 20.6985 18.2403 20.4357 17.9626 20.1692L17.9625 20.1691L17.9623 20.1689L17.9621 20.1687L17.962 20.1686L17.9618 20.1684L17.961 20.1676C17.8252 20.0373 17.6885 19.9062 17.5492 19.775C17.5367 20.0624 17.5304 20.3498 17.5242 20.6372L17.5242 20.6375C17.5179 20.925 17.5117 21.2125 17.4992 21.5C17.4242 23.35 17.3492 25.175 17.1742 27C17.1242 27.65 16.5241 28.125 15.8741 28.075C15.2991 28.025 14.8491 27.575 14.7991 27C14.6241 25.15 14.5241 23.325 14.4741 21.5C14.4616 21.2126 14.4553 20.9252 14.4491 20.6378L14.4491 20.6375C14.4428 20.35 14.4366 20.0625 14.4241 19.775C14.2131 19.9735 14.0083 20.1659 13.8036 20.3582L13.799 20.3625C13.5928 20.5562 13.3865 20.75 13.174 20.95C11.849 22.2 10.4989 23.425 9.07386 24.6C8.54884 25.025 7.79881 24.95 7.3738 24.45C6.99879 24 7.02379 23.35 7.3738 22.925C8.54884 21.525 9.77389 20.15 11.0239 18.825C11.2756 18.5398 11.5385 18.2658 11.8052 17.988L11.8053 17.9879L11.8053 17.9879L11.8053 17.9879L11.8053 17.9879L11.8053 17.9879L11.8054 17.9878C11.936 17.8517 12.0675 17.7147 12.199 17.575C11.9115 17.5625 11.624 17.5562 11.3364 17.55C11.0489 17.5437 10.7614 17.5375 10.4739 17.525C8.62384 17.45 6.79878 17.375 4.97371 17.2C4.32369 17.15 3.84867 16.55 3.89867 15.9C3.94867 15.325 4.39869 14.875 4.97371 14.825C6.82378 14.65 8.64885 14.55 10.4739 14.5C10.7614 14.4875 11.0488 14.4812 11.3363 14.475L11.3364 14.475L11.3366 14.475C11.624 14.4687 11.9115 14.4625 12.199 14.45C11.9994 14.238 11.8061 14.0322 11.6128 13.8265L11.6115 13.825L11.6103 13.8237C11.4169 13.6179 11.2235 13.4121 11.0239 13.2C9.77389 11.875 8.54884 10.525 7.3738 9.1C6.94878 8.575 7.02379 7.825 7.5238 7.4C7.97382 7.025 8.62385 7.05 9.04886 7.4C10.4489 8.575 11.824 9.8 13.149 11.05C13.4342 11.3017 13.7082 11.5646 13.9861 11.8312L13.9862 11.8313L13.9862 11.8314L13.9862 11.8314L13.9864 11.8316C14.1224 11.9621 14.2594 12.0936 14.3991 12.225C14.4116 11.9376 14.4178 11.6501 14.4241 11.3627L14.4241 11.3625L14.4241 11.3621C14.4303 11.0747 14.4366 10.7874 14.4491 10.5C14.5241 8.65 14.5991 6.825 14.7741 5C14.8241 4.35 15.4241 3.875 16.0741 3.925C16.6491 3.975 17.0992 4.425 17.1492 5C17.3242 6.85 17.4242 8.675 17.4742 10.5C17.4867 10.7875 17.4929 11.075 17.4992 11.3625C17.5054 11.65 17.5117 11.9375 17.5242 12.225C17.9231 11.851 18.347 11.4521 18.7708 11.0532L18.7715 11.0526L18.7716 11.0525L18.7729 11.0513L18.773 11.0512L18.7742 11.05C20.0993 9.8 21.4493 8.575 22.8744 7.4C23.3994 6.975 24.1494 7.05 24.5744 7.55C24.9494 8 24.9494 8.65 24.5744 9.075C23.3994 10.475 22.1743 11.85 20.9243 13.175C20.6726 13.4603 20.4096 13.7343 20.1429 14.0122C20.0122 14.1483 19.8807 14.2853 19.7493 14.425C20.0368 14.4375 20.3243 14.4437 20.6118 14.45L20.6119 14.45C20.8994 14.4562 21.1868 14.4625 21.4743 14.475ZM16.3003 31.9617C16.999 31.7967 17.4317 31.0965 17.2667 30.3978C17.1017 29.699 16.4015 29.2663 15.7028 29.4313C15.004 29.5963 14.5713 30.2965 14.7363 30.9952C14.9013 31.694 15.6015 32.1266 16.3003 31.9617ZM2.5655 15.7001C2.73049 16.3988 2.2978 17.099 1.59904 17.264C0.90029 17.429 0.200083 16.9963 0.0350872 16.2976C-0.129908 15.5989 0.302788 14.8987 1.00154 14.7337C1.7003 14.5687 2.4005 15.0014 2.5655 15.7001ZM30.9985 17.2609C31.6972 17.0959 32.1299 16.3957 31.9649 15.697C31.7999 14.9982 31.0997 14.5656 30.401 14.7306C29.7022 14.8955 29.2695 15.5957 29.4345 16.2945C29.5995 16.9932 30.2997 17.4259 30.9985 17.2609ZM6.52378 4.7C7.0238 5.2 7.0238 6.025 6.52378 6.525C6.02377 7.025 5.19874 7.025 4.69872 6.525C4.1987 6.025 4.1987 5.2 4.69872 4.7C5.19874 4.2 6.02377 4.2 6.52378 4.7ZM25.4745 25.475C24.9744 25.975 24.9744 26.8 25.4745 27.3C25.9745 27.8 26.7995 27.8 27.2995 27.3C27.7996 26.8 27.7996 25.975 27.2995 25.475C26.7995 24.95 25.9745 24.95 25.4745 25.475ZM4.6737 27.3C4.17368 26.8 4.17368 25.975 4.6737 25.475C5.19872 24.95 6.02375 24.95 6.49877 25.475C6.99879 25.975 6.99879 26.8 6.49877 27.3C5.99875 27.8 5.17372 27.8 4.6737 27.3ZM27.2995 6.525C27.7996 6.025 27.7996 5.2 27.2995 4.7C26.7995 4.2 25.9745 4.2 25.4745 4.7C24.9744 5.2 24.9744 6.025 25.4745 6.525C25.9745 7.025 26.7995 7.025 27.2995 6.525ZM47.1231 31.05C47.7 30.4 48 29.65 48 28.75V3.25C48 2.35 47.7 1.575 47.1231 0.95C46.5462 0.325 45.8308 0 45 0C44.1692 0 43.4538 0.325 42.8769 0.95C42.3 1.575 42 2.35 42 3.25V28.75C42 29.65 42.3 30.425 42.8769 31.05C43.4769 31.675 44.1692 32 45 32C45.8308 32 46.5462 31.675 47.1231 31.05ZM83 16C83 11.5681 81.4476 7.81221 78.3177 4.68232C75.1878 1.55243 71.4069 0 67 0C62.5931 0 58.8122 1.55243 55.6823 4.68232C52.5524 7.81221 51 11.5681 51 16C51 20.4069 52.5524 24.1878 55.6823 27.3177C58.8122 30.4476 62.5931 32 67 32C71.4319 32 75.1878 30.4476 78.3177 27.3177C81.4476 24.1878 83 20.4069 83 16ZM60.2645 9.26448C62.1424 7.41158 64.3709 6.48513 67 6.48513C69.6291 6.48513 71.8826 7.41158 73.7606 9.26448C75.6135 11.1424 76.5399 13.3709 76.5399 16C76.5399 18.6291 75.6135 20.8826 73.7606 22.7355C71.8826 24.5884 69.6291 25.5149 67 25.5149C64.3709 25.5149 62.1174 24.5884 60.2645 22.7355C58.4116 20.8576 57.4851 18.6291 57.4851 16C57.4851 13.3709 58.4116 11.1174 60.2645 9.26448ZM103.917 0.0250391C107.268 0.0250391 109.907 1.00156 111.86 2.95462C113.601 4.73239 114.472 6.9108 114.472 9.48983C114.472 12.3944 113.285 14.5978 110.936 16.0751C113.628 17.7778 114.974 20.1315 115 23.1111C115 25.5149 114.076 27.543 112.229 29.2207C110.197 31.0736 107.427 32 103.917 32H100.295H96.6738H93.0521H89.4304C88.4804 32 87.6888 31.6745 87.0027 31.0485C86.343 30.4225 86 29.6463 86 28.7449V16V3.25509C86 2.35368 86.343 1.57746 87.0027 0.951487C87.6624 0.325509 88.4804 0 89.4304 0H93.0521H96.6738H100.295H103.917V0.0250391ZM92.8344 6.53521V13.2958H98.3758H103.917C105.078 13.2707 106.002 12.8951 106.714 12.169C107.348 11.518 107.664 10.7418 107.691 9.81534C107.691 8.91393 107.374 8.16275 106.767 7.53678C106.081 6.86072 105.131 6.53521 103.917 6.53521H98.3758H92.8344ZM92.8344 18.7793V25.5649H98.3758H103.917C105.263 25.5649 106.318 25.2394 107.084 24.6135C107.743 24.0376 108.086 23.3365 108.086 22.5102C108.06 21.6088 107.691 20.7825 106.978 20.0313C106.16 19.18 105.157 18.7793 103.944 18.7793H98.389H92.8344Z" fill="#FF005A"></path></svg>