<svg xmlns="http://www.w3.org/2000/svg" xmlns:xlink="http://www.w3.org/1999/xlink" width="125" height="28" version="1.1" id="Layer_1" x="0px" y="0px" viewBox="0 0 726 163" style="enable-background:new 0 0 726 163;" xml:space="preserve">
<style type="text/css">
        .st0 {
            clip-path: url(#SVGID_2_);
        }

        .st1 {
            fill: #ffd400;
        }
        </style>
<g>
<defs>
<rect id="SVGID_1_" y="0" width="726" height="163"/>
</defs>
<clipPath id="SVGID_2_">
<use xlink:href="#SVGID_1_" style="overflow:visible;"/>
</clipPath>
<g class="st0">
<path class="st1" d="M186.6,86.9v-0.3c0-31.3,24.3-57.6,58.5-57.6c34.3,0,58.2,25.9,58.2,57.2v0.3c0,31.3-24.3,57.6-58.5,57.6             S186.6,118.2,186.6,86.9z M282.8,86.9v-0.3c0-21.6-15.8-39.6-38-39.6s-37.6,17.7-37.6,39.3v0.3c0,21.6,15.8,39.4,38,39.4             C267.3,126,282.8,108.5,282.8,86.9z"/>
<path class="st1" d="M331.9,40.1c0-5.4,4.3-9.9,9.9-9.9h2.1c4.3,0,7.2,2.2,9.1,5.2l33.8,52.8l34-53c2.1-3.3,5-5.1,8.9-5.1h2.1             c5.6,0,9.9,4.4,9.9,9.9v93.2c0,5.4-4.3,9.7-9.9,9.7c-5.3,0-9.7-4.4-9.7-9.7V66.5l-27.3,40.9c-2.1,3.2-4.6,5.1-8.3,5.1             c-3.5,0-6-1.9-8.1-5.1l-27.1-40.6v66.6c0,5.4-4.3,9.5-9.7,9.5s-9.6-4.1-9.6-9.5L331.9,40.1L331.9,40.1z"/>
<path class="st1" d="M469.5,129.5L511,37.2c2.2-4.9,6.2-7.9,11.8-7.9h0.9c5.6,0,9.4,3,11.7,7.9l41.5,92.2c0.8,1.4,1.1,2.9,1.1,4.1             c0,5.2-4,9.4-9.2,9.4c-4.6,0-7.8-2.7-9.6-6.8l-9.1-20.8h-54.2l-9.4,21.5c-1.6,4-5,6.2-9.1,6.2c-5.1,0-9.1-4-9.1-9.1             C468.3,132.5,468.7,131.1,469.5,129.5z M542.6,98L523,53l-19.6,45H542.6z"/>
<path class="st1" d="M604.6,40.7c0-5.6,4.3-9.9,9.9-9.9h31.7c35.1,0,59.3,24,59.3,55.3v0.3c0,31.3-24.3,55.7-59.3,55.7h-31.7             c-5.6,0-9.9-4.3-9.9-9.9V40.7z M646.3,124.4c23.5,0,38.8-15.7,38.8-37.5v-0.3c0-21.8-15.3-37.9-38.8-37.9h-22v75.7H646.3z"/>
<path class="st1" d="M0,27.6c0-5.4,4.3-9.9,9.9-9.9H12c4.8,0,7.2,2.6,10.5,5.3l116.3,96.6V27.3c0-5.2,4.3-9.6,9.6-9.6             c5.4,0,9.7,4.3,9.7,9.6V139c0,5.4-4.2,9.7-9.6,9.7h-0.8c-4.6,0-7-2.5-10.5-5.2l-117.9-98v93.6c0,5.2-4.3,9.5-9.6,9.5             c-5.4,0-9.7-4.3-9.7-9.5V27.6z"/>
<path class="st1" d="M56,86.5c-5.4,0-9.7,4.3-9.7,9.5v57.4c0,5.2,4.3,9.5,9.7,9.5c5.3,0,9.6-4.3,9.6-9.5V96.1             C65.6,90.8,61.3,86.5,56,86.5z"/>
<path class="st1" d="M102.2,124.8c-5.4,0-9.7,4.3-9.7,9.5v19.1c0,5.2,4.3,9.5,9.7,9.5c5.3,0,9.6-4.3,9.6-9.5v-19.1             C111.8,129.1,107.5,124.8,102.2,124.8z"/>
<path class="st1" d="M102.2,5.4c-5.4,0-9.7,4.3-9.7,9.5v54.3c0,5.2,4.3,9.5,9.7,9.5c5.3,0,9.6-4.3,9.6-9.5V15             C111.8,9.7,107.5,5.4,102.2,5.4z"/>
<path class="st1" d="M56,5.4c-5.4,0-9.7,4.3-9.7,9.5v15.9c0,5.2,4.3,9.5,9.7,9.5c5.3,0,9.6-4.3,9.6-9.5V15             C65.6,9.7,61.3,5.4,56,5.4z"/>
</g>
</g>
</svg>