<svg xmlns:xlink="http://www.w3.org/1999/xlink" xmlns="http://www.w3.org/2000/svg" width="170" height="32" viewBox="0 0 170 32" fill="none">
<path d="M49.8074 11.0721C49.2147 10.4393 48.5047 9.93064 47.7179 9.5752C46.8866 9.20205 45.9856 9.01423 45.0763 9.02453C44.425 9.02095 43.7789 9.14158 43.1717 9.38007C42.5648 9.62041 41.9981 9.954 41.4916 10.3691V5.44256C41.4933 5.21959 41.4501 4.99862 41.3649 4.79302C41.2841 4.59484 41.1676 4.41357 41.0215 4.2584C40.8758 4.10889 40.7038 3.98828 40.5143 3.90285C40.3143 3.81816 40.0997 3.77455 39.8829 3.77455C39.6662 3.77455 39.4515 3.81816 39.2516 3.90285C39.0554 3.98745 38.8763 4.108 38.7233 4.2584C38.5738 4.41253 38.4546 4.59394 38.372 4.79302C38.2867 4.99862 38.2435 5.21959 38.2452 5.44256V21.6282C38.2445 21.8459 38.2876 22.0615 38.372 22.2617C38.4512 22.4607 38.5678 22.6423 38.7154 22.7964C38.864 22.9439 39.0387 23.0618 39.2305 23.1439C39.4337 23.2299 39.652 23.2735 39.8723 23.2722C40.091 23.2743 40.3078 23.2306 40.509 23.1439C40.6976 23.0604 40.8695 22.9426 41.0162 22.7964C41.1649 22.6432 41.2816 22.4614 41.3596 22.2617C41.4439 22.0615 41.487 21.8459 41.4864 21.6282V15.8864C41.4808 15.3911 41.5751 14.9 41.7637 14.4429C41.9364 14.0175 42.1929 13.6322 42.5177 13.3105C42.8424 12.9888 43.2285 12.7374 43.6525 12.5717C44.1041 12.3919 44.5856 12.3011 45.071 12.3044C45.5383 12.2981 46.0014 12.3938 46.4288 12.5851C46.8294 12.7622 47.1892 13.0216 47.4854 13.3469C47.7841 13.6781 48.0197 14.0624 48.1801 14.4803C48.3518 14.9289 48.4413 15.4054 48.4443 15.8864C48.4399 15.9192 48.4399 15.9525 48.4443 15.9853V21.6576C48.4429 21.8737 48.4861 22.0876 48.5711 22.2858C48.6523 22.4794 48.7718 22.6541 48.9224 22.799C49.2269 23.0956 49.633 23.2613 50.0556 23.2615C50.4846 23.2662 50.8983 23.1001 51.2074 22.799C51.3571 22.6534 51.4766 22.4789 51.5587 22.2858C51.6437 22.0876 51.6869 21.8737 51.6855 21.6576V15.9907C51.6922 15.0609 51.5208 14.1386 51.181 13.2748C50.8652 12.4591 50.399 11.7116 49.8074 11.0721Z" fill="#0047F6"/>
<path d="M66.3436 9.49767C66.0344 9.19212 65.6188 9.02213 65.1866 9.02453C64.9687 9.02207 64.7528 9.06577 64.5526 9.15283C64.1668 9.31554 63.8602 9.62589 63.6994 10.0163C63.6149 10.2146 63.5718 10.4285 63.5726 10.6444V16.3488C63.5821 16.8397 63.4922 17.3273 63.3084 17.7816C63.1354 18.2068 62.8787 18.5919 62.554 18.9135C62.2293 19.2352 61.8434 19.4867 61.4197 19.6528C60.9668 19.8317 60.4847 19.9224 59.9985 19.9201C59.5322 19.9304 59.0692 19.8392 58.6408 19.6528C58.2413 19.4761 57.8818 19.2186 57.5841 18.8963C57.2864 18.5674 57.0509 18.1859 56.8894 17.7709C56.7192 17.3256 56.6298 16.853 56.6252 16.3756C56.6307 16.3428 56.6307 16.3094 56.6252 16.2767V10.6418C56.6263 10.4275 56.5831 10.2153 56.4984 10.0189C56.4159 9.82688 56.2965 9.65336 56.1471 9.50838C55.8421 9.2133 55.4359 9.04942 55.0139 9.05125C54.7968 9.04878 54.5813 9.08968 54.3799 9.17156C54.1883 9.24919 54.0134 9.36356 53.8648 9.50838C53.7155 9.65336 53.596 9.82688 53.5134 10.0189C53.4287 10.2153 53.3856 10.4275 53.3867 10.6418V16.2553C53.3807 17.1749 53.5502 18.0871 53.8859 18.9417C54.2034 19.7576 54.6724 20.5044 55.2675 21.1417C55.8607 21.7713 56.5707 22.2763 57.357 22.628C58.1859 22.9922 59.0817 23.1744 59.9853 23.1626C60.6362 23.1666 61.2821 23.0479 61.8899 22.8124C62.4962 22.5731 63.0628 22.2413 63.57 21.8287V26.7205C63.5683 26.9417 63.6114 27.161 63.6967 27.3647C63.7776 27.5628 63.894 27.7441 64.0402 27.8993C64.1891 28.0531 64.3672 28.175 64.5637 28.2577C64.7602 28.3403 64.9711 28.3821 65.184 28.3805C65.6145 28.3786 66.0271 28.2058 66.333 27.8993C66.4855 27.746 66.6064 27.5636 66.6884 27.3626C66.7705 27.1615 66.8123 26.946 66.8112 26.7285V10.6551C66.812 10.4391 66.7688 10.2253 66.6843 10.0269C66.6066 9.8294 66.4907 9.64949 66.3436 9.49767Z" fill="#0047F6"/>
<path d="M81.0995 11.1363C80.452 10.4763 79.684 9.94978 78.8383 9.58587C77.9601 9.20622 77.0143 9.01333 76.0594 9.01918C75.1122 9.0138 74.1741 9.20674 73.3042 9.58587C72.8765 9.77315 72.467 10.0005 72.0811 10.2649C72.0811 10.2381 72.0811 10.2087 72.0574 10.182C71.9831 9.98859 71.8687 9.81355 71.7219 9.66875C71.5761 9.52722 71.4072 9.41235 71.2226 9.32927C71.0296 9.24307 70.8207 9.19934 70.6098 9.20096C70.3869 9.19962 70.166 9.24323 69.9599 9.32927C69.7653 9.40967 69.5863 9.52464 69.4316 9.66875C69.2799 9.81448 69.1579 9.98885 69.0724 10.182C68.9852 10.3825 68.9403 10.5992 68.9403 10.8182V26.6563C68.9387 26.8868 68.9836 27.1151 69.0724 27.3273C69.2436 27.7295 69.5587 28.0513 69.9547 28.2281C70.1507 28.3186 70.3632 28.367 70.5787 28.3702C70.7942 28.3734 71.0079 28.3313 71.2065 28.2467C71.4051 28.162 71.5842 28.0366 71.7325 27.8783C71.8807 27.7201 71.9949 27.5324 72.0679 27.3273C72.1434 27.1119 72.1809 26.8848 72.1789 26.6563V22.2564C72.747 22.6298 73.3629 22.923 74.0095 23.1278C75.6016 23.6111 77.3104 23.5166 78.8409 22.8605C80.5479 22.1277 81.9037 20.748 82.6184 19.0166C82.9846 18.1272 83.1731 17.1733 83.1731 16.2098C83.1731 15.2464 82.9846 14.2924 82.6184 13.4031C82.2587 12.5568 81.7432 11.7876 81.0995 11.1363ZM79.6281 17.7469C79.4364 18.2137 79.1585 18.6392 78.8092 19.0006C78.4565 19.3617 78.0375 19.6495 77.5756 19.8479C77.0966 20.0556 76.5805 20.1611 76.0594 20.158C75.5408 20.1614 75.0271 20.0558 74.551 19.8479C73.6215 19.4408 72.8814 18.689 72.4827 17.7469C72.2785 17.2674 72.1742 16.7506 72.1762 16.2286C72.1744 15.7115 72.2746 15.1992 72.4711 14.7218C72.6675 14.2444 72.9561 13.8115 73.32 13.4485C73.6774 13.0926 74.0976 12.8079 74.5589 12.6092C75.0327 12.4026 75.5435 12.297 76.0594 12.2991C76.5805 12.2959 77.0966 12.4015 77.5756 12.6092C78.036 12.8067 78.4548 13.0916 78.8092 13.4485C79.348 14.0043 79.713 14.7084 79.8587 15.4728C80.0043 16.2373 79.9241 17.0282 79.6281 17.7469Z" fill="#0047F6"/>
<path d="M96.4523 11.1015C95.7933 10.459 95.0233 9.94433 94.1806 9.5832C93.3047 9.21178 92.3645 9.02051 91.4148 9.02051C90.4652 9.02051 89.525 9.21178 88.6491 9.5832C86.9381 10.3143 85.5731 11.687 84.8399 13.4138C84.4656 14.301 84.2726 15.2558 84.2726 16.2205C84.2726 17.1853 84.4656 18.14 84.8399 19.0273C85.206 19.8809 85.7275 20.6571 86.3773 21.3155C87.0298 21.9737 87.801 22.4991 88.6491 22.8632C89.5259 23.2441 90.4712 23.4371 91.4254 23.4299C91.9388 23.434 92.4515 23.392 92.9575 23.3043C93.3747 23.2283 93.7841 23.1137 94.1806 22.9621C94.5185 22.8349 94.8418 22.6708 95.1447 22.4729C95.4076 22.2974 95.6575 22.1026 95.8923 21.8902C96.0676 21.7528 96.2125 21.5798 96.3176 21.3823C96.4093 21.2053 96.4701 21.0136 96.4972 20.8156C96.521 20.6263 96.5103 20.4342 96.4655 20.2489C96.3556 19.8047 96.0875 19.4173 95.7127 19.1609C95.4904 19.0146 95.2302 18.9383 94.9651 18.9417C94.7849 18.9459 94.6065 18.9793 94.4368 19.0406C94.2288 19.1157 94.0322 19.2201 93.853 19.3507C93.2666 19.896 92.46 20.1633 91.4333 20.1527C91.0385 20.1553 90.6456 20.0967 90.2684 19.9789C89.907 19.8668 89.5649 19.6991 89.254 19.4817C88.9438 19.2645 88.6693 18.9993 88.4404 18.6958C88.2047 18.3877 88.02 18.0428 87.8936 17.6747H97.0044C97.2159 17.6848 97.4272 17.6519 97.6259 17.578C97.8246 17.5041 98.0067 17.3906 98.1614 17.2443C98.3083 17.0982 98.4235 16.9226 98.4994 16.7288C98.5754 16.535 98.6105 16.3273 98.6026 16.119C98.5986 15.161 98.398 14.2143 98.0135 13.3389C97.6371 12.5002 97.1074 11.7411 96.4523 11.1015ZM87.7827 14.9775C87.8864 14.5856 88.0581 14.2154 88.2898 13.8842C88.518 13.5572 88.7983 13.2708 89.1193 13.0369C89.4509 12.8 89.8185 12.6194 90.2076 12.5022C90.627 12.3725 91.0635 12.3085 91.502 12.3125C91.9408 12.3089 92.3777 12.3702 92.799 12.4942C93.1945 12.6097 93.5684 12.7903 93.9058 13.0288C94.5749 13.4983 95.0564 14.1941 95.2636 14.9909L87.7827 14.9775Z" fill="#0047F6"/>
<path d="M107.774 9.2063H107.745C106.754 9.20067 105.773 9.40366 104.863 9.80239C104.388 10.0112 103.935 10.2673 103.511 10.5669C103.494 10.4368 103.461 10.3093 103.413 10.1873C103.339 9.99389 103.224 9.81889 103.077 9.67409C102.932 9.53256 102.763 9.41769 102.578 9.3346C102.385 9.24841 102.176 9.20468 101.965 9.2063C101.742 9.20495 101.522 9.24857 101.315 9.3346C101.121 9.41501 100.942 9.52998 100.787 9.67409C100.636 9.81975 100.515 9.99414 100.431 10.1873C100.341 10.3872 100.295 10.6041 100.296 10.8235V21.6443C100.295 21.8628 100.341 22.0789 100.431 22.2778C100.514 22.4716 100.635 22.6462 100.787 22.791C100.942 22.936 101.121 23.0519 101.315 23.1332C101.522 23.2192 101.742 23.2628 101.965 23.2615C102.176 23.2631 102.385 23.2194 102.578 23.1332C102.763 23.0491 102.932 22.9334 103.077 22.791C103.225 22.6472 103.34 22.4719 103.413 22.2778C103.493 22.0765 103.534 21.8614 103.534 21.6443V16.7177C103.53 16.1502 103.647 15.5885 103.878 15.0711C104.098 14.5726 104.407 14.1195 104.789 13.7345C105.168 13.3499 105.617 13.0423 106.11 12.8283C106.623 12.6072 107.175 12.4944 107.732 12.4969H107.761C107.984 12.4982 108.205 12.4546 108.411 12.3686C108.605 12.2842 108.784 12.1667 108.939 12.0211C109.094 11.8691 109.218 11.6874 109.304 11.4865C109.394 11.2821 109.44 11.0606 109.438 10.8369C109.446 10.6214 109.41 10.4066 109.335 10.2051C109.259 10.0036 109.144 9.81944 108.997 9.66339C108.835 9.50717 108.642 9.38607 108.432 9.30749C108.222 9.2289 107.998 9.19448 107.774 9.2063Z" fill="#0047F6"/>
<path d="M117.252 20.4922C117.111 20.3342 116.938 20.2084 116.745 20.1233C116.543 20.0316 116.324 19.9851 116.103 19.9869C115.662 20.0053 115.228 19.8662 114.877 19.594C114.714 19.4479 114.586 19.2654 114.503 19.0609C114.421 18.8564 114.386 18.6354 114.402 18.4151V5.43458C114.403 5.20994 114.357 4.98754 114.267 4.78232C114.182 4.58059 114.057 4.39863 113.9 4.2477C113.745 4.10213 113.566 3.98461 113.372 3.90022C113.168 3.81495 112.95 3.77132 112.73 3.77188C112.52 3.77128 112.312 3.815 112.12 3.90022C111.935 3.98425 111.768 4.10204 111.626 4.2477C111.482 4.40315 111.368 4.58448 111.29 4.78232C111.205 4.98886 111.162 5.21074 111.163 5.43458V18.5328C111.174 19.1987 111.316 19.8558 111.581 20.4654C111.827 21.0328 112.187 21.5424 112.637 21.9624C113.094 22.3794 113.624 22.7075 114.198 22.93C114.807 23.1635 115.452 23.2814 116.103 23.2775C116.315 23.2851 116.526 23.2486 116.724 23.1705C116.922 23.0923 117.101 22.9741 117.252 22.8231C117.401 22.6727 117.517 22.4931 117.594 22.2955C117.672 22.0978 117.708 21.8862 117.701 21.6737C117.702 21.4567 117.662 21.2416 117.582 21.0402C117.506 20.8389 117.394 20.6533 117.252 20.4922Z" fill="#0047F6"/>
<path d="M130.714 11.1363C130.066 10.4763 129.298 9.94978 128.452 9.58587C127.574 9.20622 126.628 9.01333 125.673 9.01918C124.726 9.0138 123.788 9.20674 122.918 9.58587C122.074 9.95179 121.306 10.4781 120.657 11.1363C120.006 11.7938 119.483 12.5702 119.117 13.4245C118.74 14.3111 118.546 15.2661 118.546 16.2312C118.546 17.1963 118.74 18.1513 119.117 19.038C119.482 19.8954 120.004 20.6747 120.657 21.3342C121.306 21.9916 122.074 22.5169 122.918 22.8819C123.789 23.2567 124.727 23.4442 125.673 23.4326C126.628 23.4397 127.575 23.2468 128.452 22.8659C130.159 22.133 131.515 20.7534 132.23 19.0219C132.596 18.1326 132.785 17.1786 132.785 16.2152C132.785 15.2517 132.596 14.2978 132.23 13.4084C131.872 12.5605 131.357 11.7894 130.714 11.1363ZM129.242 17.7469C129.051 18.2143 128.772 18.64 128.421 19.0006C128.069 19.3616 127.651 19.6495 127.19 19.8479C126.711 20.0556 126.195 20.1611 125.673 20.158C125.155 20.1614 124.641 20.0558 124.165 19.8479C123.236 19.4408 122.495 18.689 122.097 17.7469C121.893 17.2674 121.788 16.7506 121.79 16.2286C121.789 15.7115 121.889 15.1992 122.085 14.7218C122.282 14.2444 122.57 13.8115 122.934 13.4485C123.291 13.0919 123.711 12.8071 124.173 12.6092C124.647 12.4026 125.158 12.297 125.673 12.2991C126.195 12.2959 126.711 12.4015 127.19 12.6092C127.649 12.8067 128.067 13.0917 128.421 13.4485C128.773 13.8047 129.052 14.2281 129.242 14.6942C129.444 15.1799 129.545 15.7019 129.541 16.2286C129.545 16.7517 129.443 17.2702 129.242 17.7522V17.7469Z" fill="#0047F6"/>
<path d="M137.611 14.737C137.813 14.2721 138.096 13.8475 138.445 13.4833C138.796 13.1194 139.212 12.8272 139.671 12.6226C140.131 12.4115 140.63 12.303 141.135 12.3044C141.571 12.302 142.005 12.3733 142.418 12.5156C142.866 12.6778 143.284 12.9125 143.657 13.2106C143.872 13.3862 144.1 13.5452 144.339 13.6865C144.578 13.8314 144.852 13.9072 145.131 13.9056C145.313 13.9047 145.492 13.8684 145.66 13.7987C145.867 13.711 146.059 13.5891 146.228 13.4378C146.4 13.287 146.538 13.0988 146.629 12.8872C146.718 12.6819 146.762 12.4592 146.756 12.2349C146.751 12.0002 146.698 11.769 146.6 11.556C146.495 11.3213 146.348 11.1084 146.167 10.9278C145.546 10.2926 144.794 9.80503 143.964 9.50036C143.106 9.18137 142.199 9.02022 141.285 9.02455C140.322 9.01836 139.367 9.20834 138.477 9.58321C137.621 9.94312 136.841 10.4638 136.176 11.1176C135.515 11.7729 134.988 12.553 134.623 13.4138C134.242 14.3094 134.049 15.275 134.055 16.2499H134.071C134.07 16.2614 134.064 16.2719 134.055 16.2793C134.048 17.2483 134.241 18.2081 134.623 19.0968C134.989 19.9507 135.516 20.7236 136.176 21.3716C137.547 22.7094 139.381 23.4518 141.285 23.4406C142.201 23.4441 143.109 23.2755 143.964 22.9434C144.793 22.626 145.544 22.1308 146.167 21.4919C146.345 21.3083 146.489 21.0937 146.592 20.8584C146.685 20.6459 146.736 20.4171 146.743 20.1847C146.749 19.9622 146.708 19.7408 146.624 19.5352C146.539 19.3294 146.408 19.1464 146.241 19.0006C146.068 18.8462 145.872 18.7215 145.66 18.6317C145.492 18.562 145.313 18.524 145.131 18.5194C144.853 18.5182 144.579 18.593 144.339 18.7359C144.105 18.8762 143.882 19.0353 143.673 19.2117C143.308 19.536 142.885 19.7856 142.426 19.9468C141.964 20.09 141.483 20.1586 141 20.15C140.496 20.1431 140.001 20.0187 139.552 19.7865C139.101 19.5649 138.694 19.2603 138.353 18.8883C138.02 18.5222 137.752 18.1008 137.561 17.6426C137.369 17.199 137.27 16.7205 137.267 16.2366L137.283 16.2205C137.287 15.7081 137.398 15.2022 137.611 14.737Z" fill="#0047F6"/>
<path d="M161.287 9.70619C161.135 9.55283 160.956 9.42954 160.759 9.34266C160.554 9.25132 160.333 9.20485 160.109 9.20632C159.75 9.19571 159.399 9.3194 159.124 9.55381C158.905 9.74123 158.739 9.98375 158.643 10.2568C158.262 9.99688 157.858 9.77402 157.436 9.59124C156.647 9.24992 155.802 9.06047 154.945 9.03257C154.85 9.03257 154.755 9.03257 154.657 9.03257C153.71 9.02719 152.772 9.22013 151.902 9.59926C151.057 9.96483 150.289 10.4912 149.64 11.1497C148.991 11.8086 148.468 12.5847 148.1 13.4378C147.727 14.3252 147.534 15.2799 147.534 16.2446C147.534 17.2092 147.727 18.1639 148.1 19.0513C148.468 19.9045 148.991 20.6806 149.64 21.3395C150.29 21.9964 151.057 22.5217 151.902 22.8872C152.771 23.2676 153.71 23.4606 154.657 23.4539C154.755 23.4539 154.85 23.4539 154.945 23.4539C155.802 23.4251 156.647 23.2348 157.436 22.8926C157.858 22.7098 158.262 22.487 158.643 22.227C158.739 22.5009 158.905 22.7443 159.124 22.9327C159.399 23.166 159.75 23.2896 160.109 23.2802C160.333 23.2817 160.554 23.2352 160.759 23.1439C160.956 23.057 161.135 22.9337 161.287 22.7803C161.439 22.6251 161.559 22.4411 161.641 22.2388C161.722 22.0365 161.764 21.82 161.763 21.6015V10.9091C161.765 10.6905 161.723 10.4737 161.642 10.2714C161.56 10.069 161.44 9.88505 161.287 9.73024V9.70619ZM158.226 17.7522C158.032 18.2186 157.753 18.6439 157.404 19.0059C157.051 19.367 156.632 19.6549 156.17 19.8533C155.693 20.058 155.18 20.1634 154.662 20.1634C154.144 20.1634 153.631 20.058 153.154 19.8533C152.937 19.7574 152.728 19.643 152.53 19.5111C152.308 19.3654 152.102 19.196 151.915 19.0059C151.56 18.6454 151.276 18.22 151.077 17.7522C150.875 17.2722 150.771 16.7557 150.771 16.2339C150.771 15.7121 150.875 15.1956 151.077 14.7156C151.275 14.2467 151.559 13.8203 151.915 13.4592C152.102 13.2698 152.309 13.1006 152.53 12.954C152.728 12.8231 152.937 12.7095 153.154 12.6145C153.631 12.4098 154.144 12.3044 154.662 12.3044C155.18 12.3044 155.693 12.4098 156.17 12.6145C156.632 12.812 157.051 13.0989 157.404 13.4592C157.754 13.8217 158.033 14.248 158.226 14.7156C158.423 15.1969 158.524 15.7129 158.524 16.2339C158.524 16.7549 158.423 17.2709 158.226 17.7522Z" fill="#0047F6"/>
<path d="M169.883 21.0268C169.806 20.8304 169.695 20.6494 169.555 20.4922C169.413 20.3354 169.24 20.2098 169.048 20.1233C168.845 20.0319 168.626 19.9854 168.404 19.9869C167.963 20.0055 167.53 19.8664 167.181 19.594C167.016 19.4484 166.887 19.2661 166.804 19.0616C166.721 18.857 166.686 18.6357 166.702 18.4151V5.43458C166.704 5.20994 166.658 4.98754 166.568 4.78232C166.482 4.58142 166.359 4.39969 166.203 4.2477C166.047 4.10338 165.869 3.986 165.675 3.90022C165.471 3.81542 165.253 3.77181 165.033 3.77188C164.822 3.77129 164.613 3.81501 164.42 3.90022C164.236 3.98425 164.068 4.10204 163.926 4.2477C163.783 4.40386 163.67 4.58502 163.591 4.78232C163.505 4.98886 163.462 5.21074 163.464 5.43458V18.5328C163.476 19.1985 163.618 19.8554 163.881 20.4654C164.127 21.0332 164.487 21.543 164.938 21.9624C165.394 22.3806 165.924 22.7088 166.499 22.93C167.106 23.1637 167.751 23.2815 168.401 23.2775C168.613 23.2853 168.825 23.249 169.023 23.1708C169.221 23.0927 169.401 22.9743 169.553 22.8231C169.701 22.6725 169.817 22.4928 169.893 22.2951C169.97 22.0974 170.006 21.886 169.999 21.6737C170.003 21.4524 169.963 21.2326 169.883 21.0268Z" fill="#0047F6"/>
<path d="M3.85703 27.6534H16.1694C16.4237 27.6498 16.6758 27.7008 16.9091 27.8031C17.1325 27.8998 17.3345 28.0406 17.5034 28.2174C17.6722 28.3947 17.8081 28.6011 17.905 28.8269C18.0318 29.117 18.0849 29.4346 18.0595 29.7508C18.0341 30.067 17.9311 30.3717 17.7597 30.6373C17.5883 30.903 17.354 31.121 17.0781 31.2717C16.8022 31.4223 16.4935 31.5008 16.18 31.5H1.89963C1.72192 31.4917 1.54521 31.4684 1.37131 31.4305C0.978904 31.3226 0.632604 31.0867 0.386008 30.7595C0.128596 30.4276 -0.00764619 30.0159 0.000331458 29.5941L0.0188244 14.892C0.01679 14.6349 0.0671464 14.3801 0.166752 14.1435C0.260255 13.9214 0.396787 13.7206 0.568277 13.5528C0.741938 13.3834 0.945286 13.2484 1.1679 13.1545C1.42027 13.0541 1.68922 13.0033 1.96038 13.0048C2.20935 13.0027 2.45597 13.0537 2.68417 13.1545C2.90595 13.2514 3.10967 13.3862 3.28646 13.5528C3.46119 13.7195 3.6005 13.9205 3.6959 14.1435C3.7955 14.3801 3.84586 14.6349 3.84382 14.892L3.85703 27.6534Z" fill="#0047F6"/>
<path d="M15.5012 19.7838C17.6107 19.7838 19.3209 18.0532 19.3209 15.9185C19.3209 13.7837 17.6107 12.0532 15.5012 12.0532C13.3916 12.0532 11.6814 13.7837 11.6814 15.9185C11.6814 18.0532 13.3916 19.7838 15.5012 19.7838Z" fill="#0047F6"/>
<path d="M26.955 4.34661H14.6426C14.3877 4.34903 14.1349 4.29808 13.9004 4.19693C13.6787 4.09852 13.4778 3.95784 13.3087 3.78258C13.1399 3.60532 13.0039 3.3989 12.9071 3.17311C12.7803 2.88299 12.7272 2.5654 12.7526 2.24921C12.7779 1.93301 12.881 1.62828 13.0524 1.36266C13.2238 1.09705 13.4581 0.878979 13.734 0.728323C14.0099 0.577667 14.3186 0.499183 14.6321 0.500006H28.9098C29.0876 0.508766 29.2644 0.532917 29.4381 0.572185C29.8315 0.679584 30.1788 0.915452 30.4261 1.24314C30.6831 1.5751 30.8185 1.98698 30.8091 2.40861L30.7932 17.1107C30.7956 17.3687 30.7453 17.6245 30.6453 17.8618C30.5512 18.0836 30.4147 18.2843 30.2438 18.4526C30.0686 18.6206 29.8645 18.7546 29.6415 18.8482C29.3896 18.9502 29.1203 19.0011 28.849 18.9979C28.5999 19.0013 28.353 18.9502 28.1252 18.8482C27.9037 18.752 27.7 18.6182 27.523 18.4526C27.3479 18.2861 27.2086 18.085 27.1135 17.8618C27.0136 17.6245 26.9632 17.3687 26.9656 17.1107L26.955 4.34661Z" fill="#0047F6"/>
</svg>