<svg xmlns:xlink="http://www.w3.org/1999/xlink" class="logo-header" viewBox="0 0 141 39" fill="none" xmlns="http://www.w3.org/2000/svg" width="141"  height="39" >
                            <path d="M88.9614 39V33.9793C88.9614 33.2969 88.4319 32.7607 87.7579 32.7607H83.4735C82.7996 32.7607 82.2701 33.2969 82.2701 33.9793V39H88.9614Z" fill="#006A39"></path>
                            <path d="M69.6094 22.2807C67.2506 22.2807 65.0843 23.3531 63.592 25.1566C62.7736 26.1315 61.522 26.7165 60.1741 26.6677C57.8153 26.619 55.986 24.5717 55.986 22.1833V2.10064C55.986 1.46697 55.5046 0.979528 54.8788 0.979528H50.4981C49.8723 0.979528 49.3909 1.46697 49.3909 2.10064V22.1833C49.3909 28.325 54.253 33.4432 60.3667 33.4432C63.592 33.4432 66.5285 32.0296 68.5504 29.7386C68.9836 29.2512 69.7057 29.5436 69.7057 30.1773V32.6145H76.3489V2.10064C76.3489 1.46697 75.8675 0.979528 75.2417 0.979528H70.861C70.2352 0.979528 69.7538 1.46697 69.7538 2.10064V22.2807H69.6094Z" fill="#006A39"></path>
                            <path d="M104.559 24.0843L91.3684 17.1626C89.6354 16.2852 88.5763 14.4817 88.5763 12.6294C88.5763 12.5319 88.5763 12.4832 88.5763 12.3857C88.6726 9.46102 91.0314 7.07255 93.9679 6.97506C95.5084 6.92632 96.9525 7.46251 98.0597 8.53488C98.9744 9.41227 99.5521 10.5821 99.7446 11.8495C99.7928 12.2882 100.178 12.5806 100.611 12.5806H105.521C106.003 12.5806 106.436 12.1419 106.388 11.6545C106.147 8.63237 104.847 5.8052 102.681 3.66046C100.274 1.32074 97.097 0.053388 93.7272 0.199621C87.421 0.443342 82.2219 5.65897 81.9812 12.0445C81.9812 12.1907 81.9812 12.3857 81.9812 12.5319C81.9812 16.9189 84.4363 20.9646 88.3838 23.0119L101.574 29.9336C103.211 30.7622 104.077 31.9321 104.077 32.4683H110.72C110.72 30.5673 109.998 28.715 108.602 27.1064C107.206 25.6441 105.618 24.6692 104.559 24.0843Z" fill="#006A39"></path>
                            <path d="M31.1943 0.248365C28.691 0.248365 26.3322 1.1745 24.5029 2.63683C23.9734 3.07553 23.2513 3.02678 22.7217 2.63683C20.8443 1.1745 18.4855 0.248365 15.9341 0.248365C12.8051 0.248365 10.013 1.56446 7.99112 3.7092C7.50973 4.24539 6.59508 3.90418 6.59508 3.12427V2.14939C6.59508 1.56446 6.11369 1.02827 5.48788 1.02827H1.1072C0.481393 1.02827 0 1.51571 0 2.14939V32.7607H6.64322V11.362H6.78764C9.05019 11.362 11.1683 10.2897 12.6606 8.53488C13.5271 7.51125 14.8269 6.87758 16.2711 6.97506C18.3892 7.1213 20.1222 8.87609 20.3148 11.0696C20.5073 13.653 18.4855 15.7978 15.9822 15.7978V22.5245C21.9997 22.4757 26.958 17.5038 26.958 11.362C26.958 8.87609 28.9799 6.87758 31.435 6.97506C33.7938 7.02381 35.6231 9.07106 35.6231 11.4595V32.6633H42.2663V11.5083C42.2663 5.36651 37.2598 0.199621 31.1943 0.248365Z" fill="#006A39"></path>
                            <path d="M135.753 4.48911C132.816 1.80818 129.254 0.199621 125.884 0.00464381C125.451 -0.0441004 125.114 0.297109 125.114 0.735807V4.97655C125.114 5.65897 124.585 6.2439 123.911 6.34139C117.123 6.97506 111.828 12.7269 111.828 19.746C111.828 26.8627 117.315 32.712 124.199 33.1994C124.488 33.1994 124.729 33.2482 125.018 33.2482H125.114C125.258 33.2482 125.403 33.2482 125.547 33.2482C128.58 33.102 131.276 31.7371 133.201 29.5924C133.635 29.1049 134.357 29.3974 134.357 30.0311L134.405 30.1286V32.6145H141V15.0666C141 11.3133 139.074 7.51125 135.753 4.48911ZM133.587 22.1345C131.565 22.3295 129.687 23.3531 128.339 24.9617C127.521 25.8878 126.366 26.8627 125.018 26.8627C124.199 26.8627 123.381 26.7652 122.515 26.5215C121.552 26.2778 120.3 25.4004 119.722 24.5717C115.679 18.8199 119.722 12.5319 125.162 12.5319V7.41376C125.162 7.31627 125.162 7.26753 125.21 7.17004C125.307 6.82883 125.692 6.63385 126.029 6.6826C127.81 6.92632 129.784 7.94995 131.42 9.41227C133.298 11.1183 134.453 13.2143 134.453 14.9691V22.0858C134.405 22.1345 134.02 22.0858 133.587 22.1345Z" fill="#006A39"></path>
                        </svg>