<svg xmlns:xlink="http://www.w3.org/1999/xlink" xmlns="http://www.w3.org/2000/svg" width="42" height="16" viewBox="0 0 197 73" fill="#F32A30"><path d="M138.665039,58.367432 C135.933984,61.9073467 136.583789,66.9961574 140.116992,69.7328537 C141.588281,70.8742692 143.329102,71.4267754 145.056445,71.4256011 C147.473437,71.4256011 149.866406,70.3440746 151.458984,68.2790755 L166.359961,48.9654329 L181.262109,68.2855342 C182.855859,70.3511204 185.247656,71.433234 187.66582,71.433234 C189.392578,71.433234 191.132812,70.881315 192.605273,69.7410738 C196.138477,67.0043775 196.788281,61.9155667 194.057812,58.3756521 L176.286328,35.3365562 L192.958594,13.2139981 C195.775195,9.74160546 195.250195,4.63870317 191.784961,1.81510898 C188.319141,-1.00672377 183.227344,-0.480639261 180.40957,2.9911662 L166.042969,22.0546838 L151.458984,3.14793468 C148.728516,-0.393154225 143.647852,-1.04488838 140.116992,1.69356937 C136.583789,4.43026567 135.933984,9.51907641 138.665039,13.058991 C143.486133,19.308006 151.247461,29.3681979 155.942578,35.4569215 L138.665039,58.367432 Z" fill="#F32A30"></path><path d="M106.459102,4.8440875 C105.168867,1.90130229 102.264375,0.000704577465 99.0557812,0.000704577465 C95.8483594,0.000704577465 92.9432812,1.90130229 91.6530469,4.8440875 L67.4403516,60.0712178 C65.6438672,64.1683357 67.501875,68.9483067 71.5905469,70.7485021 C75.676875,72.5486975 80.4493359,70.6862644 82.2458203,66.5897336 L99.0557812,28.2483894 L115.865156,66.5897336 C117.196406,69.6258754 120.161836,71.4354651 123.271406,71.4354651 C124.35832,71.4354651 125.462812,71.2146975 126.52043,70.7485021 C130.608516,68.949481 132.467695,64.1683357 130.670625,60.0712178 L106.459102,4.8440875 Z" fill="#F32A30"></path><path d="M52.8117773,55.2276 L25.0617773,55.2276 L28.9986914,50.177541 C31.8129492,46.7027998 31.2826758,41.6004847 27.8150977,38.7810005 C24.3475195,35.9609292 19.2557227,36.4911238 16.4414648,39.9676264 L1.80767578,58.2244028 C-0.157558594,60.651085 -0.555410156,63.993718 0.785800781,66.8149636 C2.12701172,69.6362092 4.96763672,71.4334688 8.08599609,71.4334688 L52.8117773,71.4334688 C57.277793,71.4334688 60.8983008,67.8048949 60.8983008,63.3302408 C60.8983008,58.8555868 57.277793,55.2276 52.8117773,55.2276" fill="#F32A30"></path><path d="M8.08623047,16.206045 L35.8362305,16.206045 L31.8993164,21.256104 C29.0850586,24.730258 29.615332,29.8331603 33.0829102,32.6526445 C36.5504883,35.4727158 41.6422852,34.9425212 44.4571289,31.4666057 L59.090332,13.2092422 C61.0555664,10.7825599 61.453418,7.44051417 60.112207,4.61868143 C58.7709961,1.79743583 55.9303711,0.000763292254 52.8120117,0.000763292254 L8.08623047,0.000763292254 C3.62021484,0.000763292254 0.00029296875,3.62875009 0.00029296875,8.10340414 C0.00029296875,12.5780582 3.62021484,16.206045 8.08623047,16.206045" fill="#F32A30"></path></svg>