<svg xmlns:xlink="http://www.w3.org/1999/xlink" xmlns="http://www.w3.org/2000/svg" width="127" height="32" viewBox="0 0 127 32" fill="none">
<g clip-path="url(#clip0_2574_7427)">
<path fill-rule="evenodd" clip-rule="evenodd" d="M13.5113 31.3819C13.3406 31.7037 13.2613 31.9272 12.703 31.9272H4.57126C4.57126 31.9272 3.6295 31.9272 4.47769 30.4108C5.40872 28.7462 8.41549 23.3191 9.8266 20.7778C9.981 20.4995 10.3685 19.7841 10.8456 20.4744C11.3926 21.2667 14.473 26.1347 15.3294 27.628C15.4455 27.8304 15.3846 27.895 15.0124 28.5669C14.5006 29.4904 13.8794 30.6885 13.5118 31.3819H13.5113Z" fill="#1D1E22"/>
<path fill-rule="evenodd" clip-rule="evenodd" d="M15.5705 9.89998C11.3535 16.8471 15.6262 9.80825 11.4093 16.7554C11.3566 16.842 11.3019 17.0372 11.4047 17.1966C11.8081 17.8244 18.5307 28.2804 20.5252 31.5879C20.673 31.8329 20.8166 31.9272 21.2446 31.9272H29.8763C30.2613 31.9272 30.5221 31.732 30.3948 31.2548C29.0793 26.3299 21.3192 14.5533 17.2561 9.65194C16.567 8.82071 15.8343 9.46643 15.571 9.90049L15.5705 9.89998Z" fill="#1D1E22"/>
<path fill-rule="evenodd" clip-rule="evenodd" d="M29.5966 7.85826C29.6825 7.07878 29.5404 6.06562 28.911 5.68587C28.2816 5.30613 24.8444 3.46224 23.354 2.754C22.8719 2.52492 22.1336 1.88279 21.4552 2.69712C21.4552 2.69712 18.8881 6.03077 18.2081 6.99474C18.0153 7.26789 18.388 7.59382 18.8666 8.15908C19.3451 8.72434 22.4997 12.6022 25.4446 17.1177C25.7094 17.5241 25.9037 17.5651 26.3255 17.3954C27.597 16.885 29.955 15.4603 31.1478 14.5763C31.4873 14.3247 31.5052 14.2253 31.5093 13.8522C31.5164 13.1429 31.5619 12.3593 31.567 11.8366C31.5696 11.5942 31.5527 11.502 31.2035 10.9367C30.5072 9.80925 29.4729 8.9775 29.5961 7.85877L29.5966 7.85826Z" fill="#1D1E22"/>
<path fill-rule="evenodd" clip-rule="evenodd" d="M32.9068 30.7373C32.7447 30.3719 31.8347 28.2795 30.7206 25.9897C30.0135 24.5359 27.9792 20.8676 27.5932 20.2387C27.2956 19.7545 27.4096 19.3122 27.8263 19.0806C28.358 18.7849 30.2937 17.7092 30.6127 17.5318C31.2027 17.2039 31.3428 17.4099 31.6383 17.8568C33.4273 20.5575 36.726 26.3792 37.6008 29.8922C37.9172 31.1637 37.6018 31.9273 36.797 31.9273H34.0439C33.5934 31.9273 33.436 31.9329 32.9058 30.7373H32.9068Z" fill="#1D1E22"/>
<path fill-rule="evenodd" clip-rule="evenodd" d="M14.8702 7.05116C14.8702 7.05116 14.1641 8.21499 13.9345 8.58859C13.7924 8.82074 13.5542 8.84688 13.4279 8.68852C13.2198 8.42767 9.67208 3.81283 8.2937 2.09552C7.21901 0.755912 9.15877 -0.82405 10.1338 0.498649C11.4002 2.21596 13.5802 4.84547 14.8518 6.47053C14.9975 6.65656 15.0046 6.82977 14.8702 7.05167V7.05116Z" fill="#1D1E22"/>
<path d="M6.93343 3.80664L10.6723 8.61674C10.6933 8.63877 10.7864 8.76843 10.725 8.90065C10.6156 9.13588 10.226 9.76366 9.68611 10.2674C9.67895 10.2746 9.6723 10.2818 9.66514 10.2889C9.59152 10.375 8.94835 11.2217 6.73352 11.5425C6.72637 11.543 6.71921 11.544 6.71205 11.5445C6.24884 11.5783 6.04024 11.7152 5.65679 12.2112C4.89755 13.1281 3.15515 14.0597 2.32536 14.4713C2.11165 14.5773 1.86163 14.42 1.86573 14.1812C1.86675 14.1238 1.86828 14.0644 1.87033 14.0034C1.8826 12.9784 1.95008 12.201 1.77421 11.193C1.61214 10.2495 0.413208 9.90971 0.0261767 9.01186C-0.0397771 8.85811 0.0200414 8.67977 0.167798 8.60188C0.527732 8.41175 1.19698 8.06019 1.27828 8.02995C1.90509 7.7691 2.4363 7.35554 2.53958 6.90199C2.5406 6.86868 2.54162 6.83486 2.54265 6.80155C2.45829 6.19632 1.92759 6.17582 3.35352 5.62439C4.23137 5.29641 4.58159 5.16778 4.84285 4.94178C4.8541 4.93204 4.86432 4.92128 4.87352 4.91L6.41194 3.81792C6.43341 3.80254 6.64865 3.65187 6.84038 3.74053C6.86748 3.75334 6.9002 3.77333 6.93292 3.80664H6.93343Z" fill="#3366FF"/>
<path d="M43.4974 16.5499C41.1533 27.4051 48.2834 31.9795 52.9207 31.9795H62.3965C62.3965 31.9795 63.0172 32.0015 63.0172 31.1903V19.6063C63.0172 19.6063 63.0443 19.1286 62.5566 19.1286C62.031 19.1286 56.5266 19.1384 54.4719 19.1384C54.1283 19.1384 54.0219 19.1517 54.0219 19.5806C54.0219 20.0429 54.0347 21.8243 54.0347 22.8072C54.0347 23.1951 54.1247 23.1987 54.4719 23.1987C55.0639 23.1987 58.5078 23.189 58.5078 23.189L58.5129 27.936C58.5129 27.936 54.7801 27.9919 53.0168 27.7157C51.87 27.5358 48.2308 26.5498 48.1004 20.1848C47.9547 13.0676 54.1436 11.587 59.8586 13.1029L60.9864 13.3853C61.2426 13.4463 61.3495 13.4719 61.5069 13.0363C61.7171 12.4557 62.1849 10.8768 62.3996 9.99222C62.4344 9.84975 62.5688 9.6135 62.1107 9.47462C61.8755 9.40338 55.6759 7.55847 50.4221 9.12767C47.2359 10.0788 44.3492 12.6074 43.498 16.5504L43.4974 16.5499Z" fill="#1D1E22"/>
<path d="M88.6226 16.0251C88.6354 16.0092 88.6487 15.9928 88.6615 15.977C88.9764 15.5952 89.3604 15.2759 89.7883 15.0273C92.359 13.533 95.13 14.563 95.4976 14.7019C95.8653 14.8408 95.8647 14.9259 95.8054 15.1836C95.6035 16.0538 95.1709 17.8424 95.0748 18.1314C94.9787 18.4204 94.9194 18.6193 94.6904 18.5747C94.4542 18.5286 93.3094 18.3123 92.8426 18.2893C90.6181 18.1786 89.503 19.2266 89.1436 19.9507C89.003 20.2341 88.9345 20.5477 88.9345 20.8639L88.9294 31.5526C88.9294 31.5526 88.9304 32 88.5413 32H84.397C83.9859 32 83.9583 31.5526 83.9583 31.5526L83.8867 15.0294C83.8867 15.0294 83.8867 14.5671 84.3903 14.5671H88.1384C88.6155 14.5671 88.6226 15.0294 88.6226 15.0294V16.0246V16.0251Z" fill="#1D1E22"/>
<path d="M102.223 8.59058H97.8444C97.6801 8.59058 97.5469 8.72411 97.5469 8.88884V12.509C97.5469 12.6737 97.6801 12.8072 97.8444 12.8072H102.223C102.387 12.8072 102.521 12.6737 102.521 12.509V8.88884C102.521 8.72411 102.387 8.59058 102.223 8.59058Z" fill="#1D1E22"/>
<path d="M109.74 8.57117H105.361C105.197 8.57117 105.063 8.7047 105.063 8.86943V31.6854C105.063 31.8501 105.197 31.9836 105.361 31.9836H109.74C109.904 31.9836 110.037 31.8501 110.037 31.6854V8.86943C110.037 8.7047 109.904 8.57117 109.74 8.57117Z" fill="#1D1E22"/>
<path d="M102.224 14.5912H97.8454C97.6811 14.5912 97.5479 14.7247 97.5479 14.8894V31.6858C97.5479 31.8506 97.6811 31.9841 97.8454 31.9841H102.224C102.388 31.9841 102.521 31.8506 102.521 31.6858V14.8894C102.521 14.7247 102.388 14.5912 102.224 14.5912Z" fill="#1D1E22"/>
<path d="M118.432 14.2068C116.382 14.2345 113.935 15.2215 113.935 15.2215C113.935 15.2215 113.607 15.3501 113.646 15.6069C113.699 15.9543 114.107 18.651 114.107 18.651C114.107 18.651 114.146 19.1132 114.569 18.94C114.991 18.7668 117.957 17.3016 120.431 18.4004C122.296 19.229 121.799 20.6732 121.799 20.6732C118.8 20.5384 118.001 20.6604 116.76 20.9054C111.048 22.0323 111.782 27.1863 111.782 27.1863C111.782 27.1863 111.933 31.9835 117.683 31.9835C119.151 31.9835 121.073 31.9374 122.366 30.6414L122.475 31.7519C122.475 31.7519 122.481 31.9835 122.751 31.9835H126.576C126.576 31.9835 126.8 32.0097 126.8 31.6812V20.8731C126.8 20.8731 126.98 14.091 118.433 14.2068H118.432ZM118.855 28.1108C116.183 28.1492 116.173 26.4575 116.529 25.4905C116.729 24.9478 117.441 24.6813 118.009 24.6234C119.1 24.5127 121.824 24.6039 121.824 24.6039V26.2833C121.824 26.2833 121.527 28.0718 118.855 28.1103V28.1108Z" fill="#1D1E22"/>
<path d="M73.473 13.9491C67.0315 13.9491 64.7227 17.6164 64.7227 23.2874C64.7227 27.6399 66.6123 32 73.4546 32C79.6093 32 82.2137 28.0811 82.2137 23.2874C82.2137 17.5728 80.1773 13.9491 73.473 13.9491ZM73.4178 27.933C71.3917 27.933 69.6728 26.5657 69.6728 23.312C69.6728 18.8268 71.3937 18.0064 73.4178 18.0064C75.4419 18.0064 77.2186 18.7577 77.2186 23.312C77.2186 26.6734 75.4404 27.933 73.4178 27.933Z" fill="#1D1E22"/>
</g>
<defs>
<clipPath id="clip0_2574_7427">
<rect width="126.8" height="32" fill="white"/>
</clipPath>
</defs>
</svg>