<?xml version="1.0" encoding="utf-8"?>
<!-- Generator: Adobe Illustrator 27.0.1, SVG Export Plug-In . SVG Version: 6.00 Build 0)  -->
<svg version="1.1" id="_x39_568307f-3b37-43e2-8586-65c95348fbda"
	 xmlns="http://www.w3.org/2000/svg" xmlns:xlink="http://www.w3.org/1999/xlink" x="0px" y="0px" viewBox="0 0 589.8 167.1"
	 style="enable-background:new 0 0 589.8 167.1;" xml:space="preserve">
<path d="M67,33.1c14.9,0,29.4,4.9,41.1,14.1c-16.5,12-25.9,25-34.7,37.1C60.2,102.5,49,118,7.8,120.3l-4.5,0.3
	c-11.3-35.2,8.1-73,43.3-84.3C53.1,34.2,60,33.1,67,33.1L67,33.1z M130,77.5c-8.7,10-14.9,20-20.5,29.2c-19.1,31-32.9,53.3-89,41.6
	c26.7,25.7,69.1,24.9,94.7-1.8C132.9,128.2,138.6,101.4,130,77.5L130,77.5z"/>
<polygon points="151.2,164.5 159.4,68 171.2,68 184.3,134.8 197.7,68 209.1,68 217.5,164.5 205.4,164.5 201.6,96.8 188.7,164.5 
	179.9,164.5 167,96.8 163.1,164.5 "/>
<path d="M238.9,132c0,8.3,0.7,14.1,2.1,17.5c1.4,3.4,3.7,5.1,6.8,5.1c3.2,0,5.5-1.7,6.8-5.1s2.1-9.2,2.1-17.5s-0.7-14.1-2-17.4
	s-3.7-5-6.9-5s-5.5,1.7-6.9,5S239,123.7,238.9,132L238.9,132z M256.4,164.5v-6.3c-1.4,2.3-3.3,4.3-5.6,5.7c-2.2,1.2-4.7,1.9-7.2,1.8
	c-5.5,0-9.6-2.8-12.4-8.5c-2.8-5.7-4.2-14.1-4.3-25.2c0-11,1.4-19.4,4.2-25c2.8-5.6,7-8.5,12.5-8.5c2.6-0.1,5.1,0.6,7.3,1.8
	c2.3,1.4,4.2,3.3,5.5,5.6v-6.2h11.9v64.9L256.4,164.5z"/>
<polygon points="290.9,130.1 278.2,99.6 290.7,99.6 297.1,118.3 303.8,99.6 316.1,99.6 303.5,130.1 318.4,164.5 305.8,164.5 
	297.1,141.9 288.6,164.5 276,164.5 "/>
<polygon points="324.1,164.5 332.4,68 344.2,68 357.2,134.8 370.7,68 382,68 390.4,164.5 378.4,164.5 374.5,96.8 361.6,164.5 
	352.8,164.5 339.9,96.8 336,164.5 "/>
<path d="M402.7,164.5V99.6h11.9v64.9H402.7z M401,80.3c0-2.1,0.7-4,2.2-5.5c3-3,7.8-3,10.7,0c0,0,0,0,0,0c1.4,1.5,2.2,3.4,2.2,5.5
	c0,2-0.8,4-2.2,5.4c-1.4,1.4-3.3,2.2-5.3,2.2c-4.1,0.1-7.5-3.2-7.6-7.3C401,80.5,401,80.4,401,80.3L401,80.3z"/>
<rect x="429.8" y="62" width="11.9" height="102.5"/>
<path d="M456.8,164.5V62h11.9v44.1c1.3-2.3,3.2-4.1,5.5-5.3c2.5-1.3,5.3-1.9,8.1-1.8c4.8,0,8.3,1.3,10.6,4c2.3,2.7,3.5,6.7,3.5,12.1
	v49.5h-12v-43.6c0-4.4-0.6-7.4-1.7-9c-1.2-1.6-3.1-2.4-5.9-2.4c-2.3-0.2-4.5,0.8-6,2.5c-1.3,1.7-2,4.1-2,7.4v45.1H456.8z"/>
<path d="M520.1,132c0,8.3,0.7,14.1,2.1,17.5c1.4,3.4,3.7,5.1,6.8,5.1c3.2,0,5.4-1.7,6.8-5.1c1.4-3.4,2.1-9.2,2.1-17.5
	c0-8.3-0.7-14.1-2-17.4c-1.4-3.3-3.7-5-6.9-5s-5.5,1.7-6.9,5S520.1,123.7,520.1,132L520.1,132z M537.5,164.5v-6.3
	c-1.4,2.3-3.3,4.3-5.6,5.7c-2.2,1.2-4.7,1.9-7.2,1.8c-5.5,0-9.6-2.8-12.4-8.5c-2.8-5.7-4.2-14.1-4.2-25.2c0-11,1.4-19.4,4.2-25
	s7-8.5,12.5-8.5c2.5-0.1,5.1,0.6,7.3,1.8c2.3,1.4,4.2,3.3,5.5,5.6v-6.2h11.9v64.9L537.5,164.5z"/>
<path d="M560,150.8c1.5,1.3,3.2,2.4,5,3.3c1.6,0.7,3.3,1.1,5.1,1.1c2.3,0.1,4.5-0.7,6.2-2.2c1.6-1.5,2.4-3.6,2.4-5.7
	c0-2.8-2.2-6.2-6.5-10.4c-0.6-0.6-1-1-1.3-1.2c-4.2-4-7.1-7.3-8.5-10c-1.5-2.7-2.2-5.7-2.2-8.7c0-5.5,1.7-9.9,5-13.3
	c3.4-3.5,8.1-5.3,13-5.2c1.8,0,3.5,0.2,5.2,0.7c1.8,0.5,3.5,1.1,5.1,2v12.2c-1.1-1.4-2.6-2.5-4.2-3.3c-1.7-0.7-3.5-1.1-5.3-1.1
	c-2-0.1-4,0.7-5.4,2.1c-1.4,1.4-2.2,3.3-2.2,5.3c0,2.9,2.1,6.2,6.3,10c0.8,0.7,1.4,1.3,1.8,1.7c3.9,3.6,6.7,6.9,8.2,9.8
	c1.5,3,2.3,6.3,2.3,9.7c0,5.5-1.7,9.9-5,13.2c-3.3,3.3-7.8,4.9-13.4,4.9c-1.9,0-3.7-0.2-5.6-0.6c-2-0.4-3.9-1-5.8-1.8L560,150.8z"/>
<path d="M168.6,33.3C60.4,62.9,101.9,127.3,8.4,132.6C113,161.8,73.7,79.2,168.6,33.3z"/>
<path d="M206.1,34.2l-0.2,0.5c-0.2,0.4-0.3,0.8-0.5,1.2c-0.4,1.2-1,2.3-1.4,3.4c-0.2,0.7-0.6,1.3-0.8,2c-0.8,2.2-1.8,4.3-2.6,6.5
	c-0.3,0.8-0.7,1.6-1,2.4c-0.5,1.2-1,2.5-1.5,3.7c-0.1,0.3-0.3,0.7-0.4,1c0,0.1-0.1,0.3-0.1,0.4l-3.9,1.1c0-0.2-0.1-0.3-0.1-0.4
	c0.1-0.1,0.3-0.2,0.4-0.3c0.2-1.3,0.4-2.6,0.6-3.8c0.5-3,0.9-5.9,1.4-8.9c0.2-1.3,0.4-2.7,0.6-4c0.1-0.4,0.1-0.8,0.2-1.2
	c0.1-0.2,0.1-0.5,0.1-0.7h-0.1l0,0c0.1,0,0.1,0,0.1-0.1s-0.1-0.4-0.1-0.6c0-0.4-0.2-0.9-0.2-1.3l-0.1-0.3c0-0.6-0.2-1.2-0.2-1.8
	c0-0.1,0-0.2-0.1-0.3c0-0.4-0.2-0.9-0.2-1.3c0-0.2-0.1-0.5-0.1-0.7c0-0.4-0.1-0.7-0.2-1.1l-4.8,1.4c-0.5,0.2-1,0.3-1.6,0.4
	c-0.1,0-0.3,0.1-0.4,0.1l-0.9,0.2l-2.3,0.5c-0.5,0-0.9,0.2-1.4,0.2l-1.5,0.2c0,0.2-0.2,0.5-0.3,0.7c-0.2,0.5-0.4,0.9-0.6,1.4
	c0,0.1-0.2,0.3-0.2,0.4c-0.7,1.7-1.6,3.2-2.3,4.9c-0.2,0.4-0.4,0.8-0.6,1.2c-0.3,0.7-0.7,1.3-0.9,2c0,0.1-0.1,0.2-0.1,0.3
	c0,0,0,0.1,0,0.1c-0.1,0.1-0.1,0.1-0.2,0.2c0,0.1-0.1,0.2-0.1,0.3c-1.1,0.3-2.2,0.6-3.2,0.9c0-0.1-0.2-0.2-0.2-0.3s0-0.2,0-0.3
	c0-0.3,0-0.5,0-0.8c0.1-0.6,0.1-1.2,0.1-1.9s0-0.9,0.1-1.4c0.1-1.5,0.1-3,0.3-4.5c0.1-0.7,0-1.4,0.1-2.1c-0.6,0.1-1.2,0.2-1.7,0.3
	c0,0.1,0,0.1,0.1,0.3c-0.4,0-0.9,0.2-1.3,0.4c-0.1-0.2,0-0.4,0-0.6c-0.3,0-0.6,0-0.9,0c-0.2,0-0.5,0.2-0.7,0.2l-0.1-0.1
	c-0.1-0.2,0-0.2,0-0.4c-0.4,0.1-1.2,0.5-1.4,0.2c0-0.1-0.1-0.2-0.1-0.4s0.1-0.2,0.2-0.3l1.1-0.3c0-0.2-0.2-0.2-0.2-0.4
	c0.2-0.2,0.5-0.1,0.7-0.3c0.2-0.2,0.5-0.4,0.8-0.5c-0.1-0.2-0.3-0.3-0.3-0.5c0.4-0.1,1.1-0.2,1.4-0.3c0,0.1-0.1,0.1,0,0.2l0,0
	c0.1-0.1,0.3-0.1,0.4-0.2c0.4-0.2,0.8-0.4,1.3-0.5c-0.1-0.2-0.3-0.4-0.5-0.6c-0.3-0.4-0.6-0.9-0.9-1.3s-0.4-0.7-0.7-1
	c-0.7-0.9-1.3-1.9-2-2.8c-0.2-0.3-0.4-0.6-0.6-0.9c-0.4-0.5-0.7-1-1.1-1.5c-0.3-0.3-0.5-0.7-0.7-1.1l3.4-1c0.2,0.2,0.4,0.2,0.6,0.4
	c0.4,0.3,0.9,0.6,1.3,0.9c0.1,0.1,0.3,0.1,0.4,0.2c1.5,1,3,1.9,4.5,2.9c0.3,0.2,0.7,0.4,1.1,0.6c0.5,0.4,1.1,0.7,1.6,1
	c0.1,0.1,0.3,0.1,0.4,0.2c0.3,0.2,0.5,0.4,0.8,0.5c0.1-0.1,0.5-0.2,0.7-0.3c0.5-0.3,1.2-0.5,1.7-0.8l0.4-0.1
	c0.5-0.3,1.1-0.4,1.6-0.7l0.5-0.2c0.2-0.1,0.4-0.1,0.6-0.2c0.7-0.3,1.4-0.5,2.1-0.7l4.6-1.3c-0.1-0.3-0.2-0.6-0.4-0.8
	c-0.2-0.3-0.2-0.6-0.4-0.8l-0.2-0.4c-0.3-0.5-0.5-1.1-0.7-1.6l-0.1-0.3c-0.2-0.4-0.3-0.8-0.5-1.2s-0.2-0.5-0.4-0.8
	c-0.2-0.3-0.3-0.6-0.4-0.9c0,0-0.1,0-0.1,0l0,0l0,0l0,0c-0.7-0.9-1.5-1.7-2.2-2.5c-2.3-2.6-4.6-5.2-6.9-7.8l-2.4-2.7L178.5,2
	c-0.1-0.1-0.2-0.3-0.3-0.3c-0.4-0.1-0.5,0.2-0.6-0.5l3.9-1.1c0.1,0.1,0.2,0.2,0.4,0.2c0.3,0.2,0.7,0.5,1,0.7c1,0.7,2,1.4,3,2.1
	c2.8,2.1,5.8,4.1,8.7,6.2c0.4,0.3,0.8,0.5,1.2,0.8c1.1,0.8,2.2,1.5,3.2,2.3l0.7,0.5l0.4,0.2l2.1,1.6c0,0,0.6,0.4,0.7,0.5
	c0.5,0.4,1,0.7,1.5,1s0.8,0.5,1.1,0.8s0.6,0.5,1,0.7c0.2,0.1,0.4,0.2,0.7,0.2c0.2,0.1,0.5,0.2,0.7,0.3c0.1,0,0.3,0.1,0.4,0.1
	c0,0,0,0,0,0.1l14.3-4.1c0.2,0,0.6-0.2,0.9-0.2c0.7-0.2,1.4-0.3,2.1-0.5s1.2-0.2,1.8-0.3c1.6-0.2,3.2-0.1,4.8,0.1l0.8,0.2h0.1
	c0.4,0.1,0.8,0.4,1.1,0.7c0.3,0.5-0.1,1.1-0.3,1.3c-0.2,0.3-0.4,0.5-0.6,0.7c-0.8,0.7-1.6,1.4-2.5,1.9c-2.4,1.6-5.8,2.6-9.3,3.6
	l-11.1,3.2c0,0.2-0.2,0.3-0.3,0.4s-0.3,0.5-0.5,0.7s-0.3,0.3-0.3,0.4c-0.4,1-0.9,2.1-1.3,3.2l-0.7,1.6L206.1,34.2z"/>
</svg>
