<svg id="Loft" xmlns="http://www.w3.org/2000/svg" width="18.831" height="16" viewBox="0 0 18.831 16">
  <path id="Path_40893" data-name="Path 40893" d="M121.324,30.722h-1.189v-2.2h-1.7v9.43h1.7V32.406h1.189Z" transform="translate(-102.493 -24.814)" fill="#ff774a" fill-rule="evenodd"/>
  <path id="Path_40894" data-name="Path 40894" d="M79.717,16.991h-1.7V4.583A3.611,3.611,0,0,1,81.641.991V2.675a1.918,1.918,0,0,0-1.924,1.908Z" transform="translate(-67.516 -0.991)" fill="#ff774a" fill-rule="evenodd"/>
  <path id="Path_40895" data-name="Path 40895" d="M27.581,28.1h5.441l-.481,1.684H27.581a3.452,3.452,0,1,1,0-1.684Zm-5.329.842A1.953,1.953,0,1,0,24.2,27,1.947,1.947,0,0,0,22.252,28.94Z" transform="translate(-17.934 -22.19)" fill="#ff774a" fill-rule="evenodd"/>
  <path id="Path_40896" data-name="Path 40896" d="M4.7,37.837A4.686,4.686,0,0,1,0,33.176V28.52H1.7v4.657a2.993,2.993,0,0,0,3,2.977Z" transform="translate(0 -24.814)" fill="#ff774a" fill-rule="evenodd"/>
</svg>
