<svg xmlns:xlink="http://www.w3.org/1999/xlink" xmlns="http://www.w3.org/2000/svg" width="144" height="37" viewBox="0 0 144 37" fill="none">
<g clip-path="url(#clip0_1909_16)">
<path d="M24.8117 10.1976L10.0041 25.3041C9.747 25.5671 9.32914 25.5671 9.072 25.3041L0.192857 16.2471C-0.0642857 15.9841 -0.0642857 15.5586 0.192857 15.2969L14.9953 0.196979C15.2524 -0.0659852 15.6703 -0.0659852 15.9274 0.196979L24.813 9.26066C25.0663 9.51966 25.0663 9.93855 24.813 10.1976H24.8117Z" fill="#2DCD69"/>
<path d="M25.0184 20.4584L9.04597 25.2763L0.179688 16.2338L16.2447 11.5044L25.0184 20.4584Z" fill="url(#paint0_linear_1909_16)"/>
<path d="M25.5239 21.6979L10.7151 36.8031C10.4579 37.0661 10.0401 37.0661 9.78294 36.8031L0.903795 27.7461C0.646652 27.4831 0.646652 27.0576 0.903795 26.796L15.7062 11.696C15.9634 11.433 16.3812 11.433 16.6384 11.696L25.5239 20.7597C25.7772 21.0187 25.7772 21.4389 25.5239 21.6979Z" fill="#2DCD69"/>
<path d="M79.3965 20.2283H81.6915C81.6915 21.2934 82.4192 21.9224 83.6509 21.9224C84.8826 21.9224 85.5358 21.4652 85.5358 20.667C85.5358 19.6588 84.4352 19.4685 83.2035 19.2584C81.5796 18.9915 79.6395 18.669 79.6395 16.4807C79.6395 14.673 81.1322 13.5881 83.6509 13.5881C86.1696 13.5881 87.6443 14.7483 87.6443 16.7278H85.3493C85.3493 15.7196 84.7335 15.1487 83.6509 15.1487C82.6249 15.1487 82.009 15.5676 82.009 16.272C82.009 17.1282 83.0351 17.3 84.2295 17.5088C85.8906 17.7942 87.9053 18.1365 87.9053 20.3816C87.9053 22.3413 86.3188 23.5213 83.6509 23.5213C80.9638 23.5213 79.3965 22.303 79.3965 20.2283Z" fill="#2DCD69"/>
<path d="M89.3057 9.57227H91.7691V11.9508H89.3057V9.57227ZM89.3057 13.7771H91.7691V23.3297H89.3057V13.7771Z" fill="#2DCD69"/>
<path d="M121.496 8.67773H123.96V23.3297H121.496V8.67773Z" fill="#2DCD69"/>
<path d="M134.652 18.8395H127.822C127.916 20.5904 128.736 21.6171 130.062 21.6171C131.219 21.6171 132.021 20.9696 132.264 19.9231H134.653C134.317 22.188 132.6 23.52 130.063 23.52C127.152 23.52 125.436 21.674 125.436 18.5541C125.436 15.4342 127.152 13.5881 130.063 13.5881C132.974 13.5881 134.653 15.4143 134.653 18.5541V18.8395H134.652ZM127.84 17.9832H132.243C132.094 16.3843 131.292 15.4712 130.06 15.4712C128.811 15.4712 128.008 16.3843 127.84 17.9832Z" fill="#2DCD69"/>
<path d="M135.491 20.2283H137.786C137.786 21.2934 138.514 21.9224 139.746 21.9224C140.977 21.9224 141.63 21.4652 141.63 20.667C141.63 19.6588 140.53 19.4685 139.298 19.2584C137.674 18.9915 135.734 18.669 135.734 16.4807C135.734 14.673 137.227 13.5881 139.746 13.5881C142.264 13.5881 143.739 14.7483 143.739 16.7278H141.444C141.444 15.7196 140.828 15.1487 139.746 15.1487C138.72 15.1487 138.104 15.5676 138.104 16.272C138.104 17.1282 139.13 17.3 140.324 17.5088C141.985 17.7942 144 18.1365 144 20.3816C144 22.3413 142.414 23.5213 139.746 23.5213C137.059 23.5213 135.491 22.303 135.491 20.2283Z" fill="#2DCD69"/>
<path d="M116.269 13.5869C114.561 13.5869 113.414 14.4525 113.051 15.9536H112.891V13.7772H110.43V27.7064H112.893V20.0381H112.93C112.93 22.2264 114.18 23.5201 116.271 23.5201C118.622 23.5201 120.021 21.6741 120.021 18.5542C120.021 15.433 118.621 13.5869 116.269 13.5869ZM115.132 21.5221C113.639 21.5221 112.762 20.3037 112.762 18.5542C112.762 16.8046 113.639 15.5862 115.132 15.5862C116.624 15.5862 117.501 16.6896 117.501 18.5542C117.501 20.4187 116.624 21.5221 115.132 21.5221Z" fill="#2DCD69"/>
<path d="M105.354 13.5869C103.735 13.5869 102.704 14.5806 102.474 16.3117H102.333C102.082 14.6176 100.983 13.5869 99.2715 13.5869C97.7376 13.5869 96.6975 14.4445 96.3645 15.9536H96.2115V13.7772H93.748V23.3298H96.2115V18.0586C96.2115 16.498 96.9392 15.5664 98.1902 15.5664C99.2908 15.5664 99.9259 16.2892 99.9259 17.5261V23.3298H102.389V18.0586C102.389 16.498 103.117 15.5664 104.349 15.5664C105.449 15.5664 106.102 16.2892 106.102 17.5261V23.3298H108.566V17.4125C108.563 14.9956 107.369 13.5869 105.354 13.5869Z" fill="#2DCD69"/>
<path d="M112.927 19.9983H112.634V21.0528H113.156L112.927 19.9983Z" fill="#2DCD69"/>
<path d="M32.9141 18.4973C32.9141 15.4342 34.5932 13.6067 37.3922 13.6067C39.6499 13.6067 41.1799 14.8052 41.6286 16.9182H40.0986C39.6885 15.6245 38.7551 14.8819 37.3922 14.8819C35.5639 14.8819 34.4813 16.2324 34.4813 18.4973C34.4813 20.7622 35.5639 22.1127 37.3922 22.1127C38.8296 22.1127 39.7991 21.2948 40.1539 19.8861H41.6839C41.2738 22.1127 39.7438 23.4064 37.3922 23.4064C34.5932 23.4064 32.9141 21.5789 32.9141 18.4973Z" fill="#153D3B"/>
<path d="M42.3379 18.4973C42.3379 15.4342 44.0363 13.6067 46.8726 13.6067C49.7089 13.6067 51.388 15.4329 51.388 18.4973C51.388 21.5617 49.7089 23.4064 46.8726 23.4064C44.0363 23.4064 42.3379 21.5789 42.3379 18.4973ZM49.8388 18.4973C49.8388 16.2324 48.7382 14.8819 46.8713 14.8819C45.0045 14.8819 43.9039 16.2324 43.9039 18.4973C43.9039 20.7622 45.0045 22.1127 46.8713 22.1127C48.7382 22.1127 49.8388 20.7807 49.8388 18.4973Z" fill="#153D3B"/>
<path d="M64.6383 14.9571V20.4569C64.6383 21.5034 65.2541 22.1126 66.3174 22.1126C66.7841 22.1126 67.2688 21.999 67.6417 21.8087V23.027C67.157 23.2556 66.4845 23.4076 65.8314 23.4076C64.115 23.4076 63.107 22.361 63.107 20.5533V14.9584H61.6143V13.7982H63.2188V10.5237H64.6357L64.6395 13.7969H67.7908V14.9571H64.6383Z" fill="#153D3B"/>
<path d="M57.5274 13.6067C55.9279 13.6067 54.8505 14.4577 54.5085 15.939H54.3542V13.797H52.8242V23.2161H54.3542V18.0599C54.3542 16.0619 55.3249 14.8819 56.9848 14.8819C58.4775 14.8819 59.3364 15.8148 59.3364 17.3939V23.2161H60.8664V17.3556C60.8677 14.9955 59.6359 13.6067 57.5274 13.6067Z" fill="#153D3B"/>
<path d="M75.4433 13.797V15.939H75.3044C74.9624 14.4577 73.7705 13.6067 71.9911 13.6067C69.5277 13.6067 68.0723 15.4329 68.0723 18.4973C68.0723 21.5617 69.5277 23.4064 71.9911 23.4064C73.7654 23.4064 74.9547 22.5462 75.3005 21.0688H75.4433V23.2161H76.9733V13.797H75.4433ZM75.4098 16.8799H75.406V16.8667L75.4098 16.8799ZM72.5877 22.1127C70.7221 22.1127 69.6396 20.7807 69.6396 18.4973C69.6396 16.2139 70.7221 14.8819 72.5877 14.8819C74.4533 14.8819 75.5551 16.2707 75.5551 18.4973C75.5551 20.7239 74.4726 22.1127 72.5877 22.1127Z" fill="#153D3B"/>
</g>
<defs>
<linearGradient id="paint0_linear_1909_16" x1="-0.999312" y1="18.6546" x2="23.1996" y2="18.2105" gradientUnits="userSpaceOnUse">
<stop offset="0.08" stop-color="#2DCD69"/>
<stop offset="1"/>
</linearGradient>
<clipPath id="clip0_1909_16">
<rect width="144" height="37" fill="white"/>
</clipPath>
</defs>
</svg>