<?xml version="1.0" encoding="utf-8"?>
<!-- Generator: Adobe Illustrator 27.0.1, SVG Export Plug-In . SVG Version: 6.00 Build 0)  -->
<svg version="1.1" id="Layer_1" xmlns="http://www.w3.org/2000/svg" xmlns:xlink="http://www.w3.org/1999/xlink" x="0px" y="0px"
	 viewBox="0 0 174 24" style="enable-background:new 0 0 174 24;" xml:space="preserve">
<style type="text/css">
	.st0{fill-rule:evenodd;clip-rule:evenodd;fill:#FF6D04;}
</style>
<g>
	<path class="st0" d="M16.7,13.5L13.2,17l-3.5-3.5H16.7z"/>
	<path class="st0" d="M30.2,13.5L26.7,17L23,13.5H30.2z"/>
	<path d="M33.5,10.3l-3.2,3.2L26.7,17l-3.5-3.5L36.7,0.1H3.2l13.5,13.4L13.2,17l-3.5-3.5l-3.2-3.2H0l10,9.9l3.2,3.2l6.7-6.7l3.5,3.5
		l3.2,3.2l13.2-13.1L33.5,10.3L33.5,10.3z M13.2,3.8h13.5L20,10.3L13.2,3.8z"/>
	<path class="st0" d="M26.7,3.8L20,10.3l-6.7-6.5H26.7z"/>
</g>
<path d="M111.5,15.7h7.3c-0.2,0.4-0.5,0.9-0.9,1.3l-0.1,0.1c-0.7,0.7-1.5,1.3-2.6,1.7c-1,0.4-2.3,0.6-3.7,0.6
	c-1.8,0-3.3-0.3-4.5-0.9c-1.1-0.6-2-1.4-2.6-2.5c-0.6-1.1-0.9-2.4-0.9-3.9s0.3-2.8,1-3.9c0.6-1.1,1.6-2,2.8-2.6c1.2-0.6,2.8-1,4.5-1
	c1.3,0,2.5,0.2,3.5,0.5c0.9,0.4,1.7,0.8,2.3,1.5c0.6,0.6,1,1.4,1.3,2.3l0.1,0.4h4.8l-0.1-0.6c-0.1-1.8-0.7-3.3-1.8-4.6
	c-1-1.3-2.4-2.3-4.2-3c-1.7-0.7-3.7-1.1-6-1.1c-2,0-3.8,0.3-5.5,0.8c-1.6,0.6-3.1,1.4-4.3,2.4c-1.2,1.1-2.1,2.4-2.8,3.9
	c-0.6,1.5-1,3.2-1,5.1c0,1.8,0.3,3.5,0.9,5c0.6,1.5,1.5,2.7,2.7,3.7c1.1,1,2.6,1.8,4.2,2.3c1.6,0.5,3.4,0.8,5.3,0.8
	c3,0,5.4-0.8,7.3-2.5c0.5-0.4,0.9-0.9,1.4-1.5c0,0.2,0,0.4,0,0.5c-0.1,0.9-0.1,1.8-0.1,2.5v0.6h4.7V11.8h-13.2L111.5,15.7
	L111.5,15.7z"/>
<path d="M78.3,14.3h12.9V9.9H78.3V5H94V0.4H73.3v23.2h20.8v-4.5H78.3V14.3z"/>
<path d="M54.3,0.4h-5.1v23.2h19v-4.5H54.3V0.4z"/>
<path d="M173.1,0.4H168v23.2h5.2V0.4z"/>
<path d="M136.1,0.4h-5.2v23.2h5.2V0.4z"/>
<path d="M140.7,5h8.8v18.6h5.1V5h8.7V0.4h-22.6V5z"/>
</svg>
