<svg xmlns:xlink="http://www.w3.org/1999/xlink" _ngcontent-jyu-c7="" viewBox="0 0 122 48" fill="none" xmlns="http://www.w3.org/2000/svg" width="122"  height="48" ><path _ngcontent-jyu-c7="" fill-rule="evenodd" clip-rule="evenodd" d="M113.409 20.3678H110.465L110.222 21.4372H113.409C116.325 21.4372 117.309 22.2234 117.309 24.5529V25.6806C116.586 24.9472 115.307 24.5754 113.501 24.5754C110.618 24.5754 109.217 25.8134 109.217 28.3592V28.5445C109.217 30.9314 110.597 32.1421 113.318 32.1421H114.05C116.933 32.1421 118.395 30.9314 118.395 28.5445V24.5529C118.395 21.5803 116.95 20.3678 113.409 20.3678ZM117.309 28.6988C117.309 30.4071 116.387 31.0727 114.02 31.0727H113.562C111.278 31.0727 110.303 30.3163 110.303 28.5445V28.3592C110.303 26.4346 111.232 25.6141 113.409 25.6141H113.592C116.198 25.6141 117.309 26.407 117.309 28.2662V28.6988ZM37.8237 22.4658L38.4027 19.6092H33.4185V15.7069L29.9197 16.2422V27.898C29.9197 31.9276 31.48 33.1267 35.734 33.1267H37.5965L38.1759 30.2953H35.9857C34.0478 30.2953 33.4182 29.8113 33.4182 27.6684V22.4658H37.8237ZM13.7848 14.3547V26.8782C13.7848 31.5202 15.8989 33.4584 20.5055 33.4584C25.288 33.4584 27.4025 31.5712 27.4025 26.9034V25.7049C27.4025 21.3181 25.4388 19.1754 21.1599 19.1754C19.8005 19.1754 18.3153 19.4558 17.3084 20.2463V13.7936L13.7848 14.3544V14.3547ZM20.6312 21.9807C23.0476 21.9807 23.9037 22.9501 23.9037 25.8319V26.9034C23.9037 29.7087 23.0476 30.6784 20.5809 30.6784C18.1142 30.6784 17.2578 29.7087 17.2578 26.8779V25.4242C17.2578 22.848 18.1139 21.9807 20.6309 21.9807H20.6312ZM46.2812 19.1754C41.6746 19.1754 39.5602 21.1391 39.5602 25.628V26.3168C39.5602 30.576 41.3979 32.6418 45.727 32.6418C47.1116 32.6418 48.4962 32.3872 49.4777 31.5961V32.1068C49.4777 34.5044 48.4459 35.2943 46.0292 35.2943H44.5824C43.7554 35.3092 43.3796 35.458 42.8812 36.2859L42.8784 36.2847C38.728 42.9403 31.5223 47.0063 23.6695 47.0063C11.14 47.0063 0.946879 36.6784 0.946879 23.9827C0.946879 11.2873 11.14 0.959392 23.6695 0.959392C32.4704 0.959392 40.4767 6.12365 44.2225 14.1603H45.2666C41.449 5.55463 32.986 0 23.6695 0C10.6183 0 0 10.7587 0 23.9827C0 37.207 10.6183 47.9657 23.6695 47.9657C31.3451 47.9657 38.4285 44.2369 42.8444 38.0488H46.2306C50.6861 38.0488 52.9768 36.3403 52.9768 31.9789V25.3987C52.9768 21.0626 50.7869 19.1754 46.2812 19.1754ZM49.5032 26.7503C49.5032 29.1478 48.6725 29.8873 46.2815 29.8873C43.5877 29.8873 43.0593 28.9437 43.0593 26.1639V25.7304C43.0593 22.9753 43.5374 21.9807 46.2812 21.9807C48.9744 21.9807 49.5032 22.9501 49.5032 25.7556V26.7503ZM120.637 32.1421H121.724V15.9436H120.637V32.1421H120.637ZM96.1691 21.4375L96.4128 20.3678H91.5552V17.3098L90.4388 17.5118V27.9876C90.4388 30.9709 91.542 32.0804 94.5086 32.0804H96.1127L96.3156 31.011H94.5086C92.2728 31.011 91.5552 30.2916 91.5552 28.049V21.4378H96.1694L96.1691 21.4375ZM106.225 27.4928C106.225 30.2497 105.374 31.1344 102.722 31.1344C100.149 31.1344 99.2801 30.2157 99.2801 27.4928V20.3678H98.1637V27.4928C98.1637 30.8831 99.442 32.2037 102.722 32.2037C105.982 32.2037 107.311 30.8394 107.311 27.4928V20.3678H106.225V27.4928ZM81.6618 26.7193V25.7289C81.6618 22.5603 82.7301 21.4375 85.7449 21.4375H88.2921L88.5349 20.3678H85.7452C82.1495 20.3678 80.5451 22.0211 80.5451 25.7286V26.7193C80.5451 30.4268 82.1492 32.0804 85.7452 32.0804H88.3219L88.5656 31.011H85.7452C82.8064 31.011 81.6621 29.8077 81.6621 26.7193H81.6618ZM73.623 20.3678H70.6791L70.436 21.4372H73.623C76.5161 21.4372 77.4921 22.2234 77.4921 24.5529V25.6806C76.7696 24.9472 75.491 24.5754 73.6837 24.5754C70.8017 24.5754 69.4005 25.8134 69.4005 28.3592V28.5445C69.4005 30.9314 70.79 32.1421 73.5311 32.1421H74.264C77.127 32.1421 78.5784 30.9314 78.5784 28.5445V24.5529C78.5784 21.5803 77.1426 20.3678 73.623 20.3678ZM77.4921 28.6988C77.4921 30.4296 76.6089 31.0727 74.2336 31.0727H73.7757C71.4705 31.0727 70.4866 30.3163 70.4866 28.5445V28.3592C70.4866 26.4346 71.4154 25.6141 73.5924 25.6141H73.7757C76.3806 25.6141 77.4921 26.407 77.4921 28.2662V28.6988ZM62.6914 20.1822C59.2485 20.1822 57.6447 21.9056 57.6447 25.605V35.6692H58.7307V30.5013C59.5167 31.5363 60.9819 32.1421 62.7524 32.1421C66.1798 32.1421 67.7082 30.4694 67.7082 26.7193V25.5743C67.7082 21.8452 66.1608 20.1819 62.6914 20.1819V20.1822ZM66.5912 26.719C66.5912 29.8928 65.5511 31.0724 62.7524 31.0724C60.104 31.0724 58.7611 29.7639 58.7611 27.1829V25.605C58.7611 22.5123 59.8999 21.2512 62.6914 21.2512C65.4977 21.2512 66.5912 22.4631 66.5912 25.5743V26.719Z" fill="#001E62"></path></svg>