<svg xmlns:xlink="http://www.w3.org/1999/xlink" width="70" height="28" viewBox="0 0 389.94 158.31" version="2.0" xmlns="http://www.w3.org/2000/svg">
                        <title>olist</title>
                        <desc>Home site olist</desc>
                        <g id="logotype">
                          <rect x="129.81" y="0.02" width="29.46" height="155.8" style="" fill="#0C29D0"></rect>
                          <path d="M55.88,46.55a55.88,55.88,0,1,0,55.88,55.88A55.88,55.88,0,0,0,55.88,46.55Zm0,83.31a27.44,27.44,0,1,1,27.44-27.43A27.44,27.44,0,0,1,55.88,129.86Z" style="" fill="#0C29D0"></path>
                          <path d="M274.57,89.55c-9.13-3.74-17.22-7.27-17.22-14.13,0-5.19,5-8.31,10.58-8.31,8.3,0,16,4.16,21.57,9.14l12.2-22c-12.33-7.39-19.25-10.2-33.77-10.2-19.92,0-39,11.21-39,33.44,0,19.11,14.31,26.59,27.38,32.2,10.79,4.78,20.75,8.1,20.75,15.79,0,6.64-7.89,9.55-13.9,9.55-10.58,0-17.43-4.78-25.73-12.88L225.69,143c12.33,9.86,21.91,15.28,38.92,15.28,21.16,0,41.91-11,41.91-35.11C306.52,102.43,288.67,95.37,274.57,89.55Z" style="" fill="#0C29D0"></path>
                          <rect x="180.99" y="46.55" width="29.46" height="109.27" style="" fill="#0C29D0"></rect>
                          <path d="M380.81,130.06A25.06,25.06,0,0,1,369,133.17c-6.22,0-8.71-3.94-9.54-10.38a68.2,68.2,0,0,1-.42-9.35V71.06h27.8V46.55H359V22.45H334.13l-4.57,24.1H316.49V71.06h13.07v45.49c0,6.44.42,12.88,2.08,18.28C335.58,149,347,158.31,364,158.31c8.51,0,18.88-2.29,25.94-6.44Z" style="" fill="#0C29D0"></path>
                          <rect x="180.99" width="29.46" height="25.14" style="" fill="#0C29D0"></rect>
                        </g>
                        </svg>