<?xml version="1.0" encoding="utf-8"?>
<!-- Generator: Adobe Illustrator 27.5.0, SVG Export Plug-In . SVG Version: 6.00 Build 0)  -->
<svg version="1.1" id="Layer_1" xmlns="http://www.w3.org/2000/svg" xmlns:xlink="http://www.w3.org/1999/xlink" x="0px" y="0px"
	 viewBox="0 0 145 58" style="enable-background:new 0 0 145 58;" xml:space="preserve">
<style type="text/css">
	.st0{fill:#16A5D6;}
</style>
<g>
	<path class="st0" d="M19.5,30.4h9.9L13,45.5h11L34.5,36v9.5h7.9V22.9h-23V30.4z"/>
	<path class="st0" d="M7.7,23.3C7.7,12.2,15.3,7,22.5,7c7.3,0,11.4,4.1,13,9.1l7.2-2.5C40.3,6.2,33.4,0,22.5,0C10.9,0,0,8.6,0,23.3
		c0,1.7,0.1,3.3,0.4,4.8l7.4-2.5C7.7,24.9,7.7,24.1,7.7,23.3z"/>
	<path class="st0" d="M75.1,14.7h-7.4v18.2c0,4-2.2,6.9-6.5,6.9c-4.3,0-6.2-3.2-6.2-7V14.7h-7.4v19.4c0,6.8,4.3,12.3,11.7,12.3
		c3.6,0,7.3-1.5,8.8-4.3c0,1.3,0.1,2.7,0.3,3.4h7.1c-0.1-1.1-0.3-3.1-0.3-5.6L75.1,14.7L75.1,14.7z"/>
	<path class="st0" d="M97.4,14c-4.8,0-8.3,2.2-9.9,4.9v-4.2h-7.1v42.8h7.3V42.1c1.6,2.3,5,4.2,9.4,4.2c8.9,0,14.6-7,14.6-16.2
		S106.5,14,97.4,14L97.4,14z M96,39.8c-4.8,0-8.3-3.8-8.3-9.7s3.5-9.6,8.3-9.6s8.3,3.8,8.3,9.6S100.9,39.8,96,39.8z"/>
	<path class="st0" d="M137.2,14.7l-8.3,19.5l-8.9-19.5h-8.3l13.2,27.1L117.4,58h7.9L145,14.7H137.2z"/>
</g>
</svg>
