<?xml version="1.0" encoding="UTF-8" standalone="no"?>
<svg width="213px" height="40px" viewBox="0 0 213 40" version="1.1" xmlns="http://www.w3.org/2000/svg" xmlns:xlink="http://www.w3.org/1999/xlink">
    <!-- Generator: Sketch 41.2 (35397) - http://www.bohemiancoding.com/sketch -->
    <title>Artboard 3 Copy 15</title>
    <desc>Created with Sketch.</desc>
    <defs></defs>
    <g id="Chat" stroke="none" stroke-width="1" fill="none" fill-rule="evenodd">
        <g id="Artboard-3-Copy-15" fill="#0052CC">
            <path d="M34.8584342,16.64619 C34.2778732,16.5173602 34.410847,15.8678233 34.3662939,15.4045042 C34.2340054,14.0365651 34.1254787,12.6665179 33.996846,11.2985788 C33.9628028,10.9425398 33.8510774,10.6333481 33.3966358,10.6963577 C33.4665498,12.6690945 33.5732488,14.6052905 33.5972389,16.5421892 C33.6801762,23.2774153 33.7347824,30.0131101 33.7978421,36.7483363 C33.7992129,36.908788 33.7729381,37.0701767 33.7507758,37.2299258 C33.6954842,37.6253164 33.5133878,37.825354 33.0801945,37.8005251 C32.4507392,37.7642183 31.8178569,37.7913897 31.1865737,37.7913897 C30.1741902,37.7909212 30.1074748,37.7258037 30.0958226,36.6476146 C30.0875973,35.9062572 30.0939947,35.1648998 30.0939947,34.4195604 C20.9135436,35.1885577 20.762977,35.1885577 9.77229917,34.4244795 C9.77229917,34.6256883 9.77298461,34.8229152 9.77207069,35.0201419 C9.76864352,35.6874807 9.78029587,36.3559907 9.75539184,37.0223925 C9.73665668,37.5180361 9.57238142,37.8553362 8.9655454,37.809426 C8.25909322,37.7557859 7.5439589,37.7660923 6.83590738,37.807552 C6.34925047,37.8361289 6.14704797,37.6154784 6.09998161,37.1683216 C6.07644844,36.9479054 6.06456761,36.7246784 6.06479609,36.5033252 C6.06845173,34.1567475 6.04880267,31.8099355 6.08764384,29.4640606 C6.182005,23.741203 6.30264109,18.0185796 6.41642284,12.2957221 C6.4269328,11.7618979 6.46257529,11.2283079 6.48816476,10.660051 C5.94278915,10.6912045 5.88726914,11.0331892 5.85482534,11.416868 C5.73099058,12.8869341 5.61423863,14.3581713 5.45270509,15.8240212 C5.42094672,16.1107262 5.26558209,16.4627831 5.05241266,16.6311989 C4.67428252,16.92985 3.36739169,16.7246591 3,16.3969628 L3,15.547154 C3.03175836,15.4316756 3.08248035,15.3178369 3.09299031,15.2000161 C3.21933832,13.7917883 3.32101077,12.3805156 3.4695211,10.974396 C3.53326629,10.3726433 3.36510691,9.60903345 4.25548342,9.42234725 C4.32494055,9.40735613 4.40285135,9.27969743 4.42181498,9.1920931 C4.53742455,8.6587374 4.91966727,8.69317012 5.30305238,8.75149492 C5.76594763,8.82176577 6.22587268,8.9121809 6.66729105,8.99018155 C6.91953011,8.08509307 7.12264654,7.22380676 7.40070356,6.38852066 C7.81653246,5.13863657 8.62785577,4.28859359 9.92515055,4.00118584 C10.674785,3.83487818 11.4209922,3.6399937 12.1781664,3.51936209 C15.5041122,2.98834874 18.8577037,2.94267269 22.2108383,3.04222305 C24.7917192,3.11905251 27.3632325,3.31698206 29.8853948,3.97659105 C31.2197029,4.32536867 32.0618707,5.14847449 32.4836399,6.44684546 C32.7493593,7.26526656 32.9485916,8.1066428 33.1923769,8.99065003 C33.636994,8.91194667 34.0962336,8.7974052 34.5611852,8.76133284 C34.8113679,8.74212547 35.2399916,8.78733305 35.2945978,8.92529814 C35.4476776,9.31202202 35.716824,9.45303218 36.0337222,9.62894352 C36.1826893,9.71116041 36.2793354,9.98943296 36.3051534,10.1913445 C36.3995145,10.9324677 36.4486372,11.6792125 36.5254056,12.4226781 C36.6332468,13.4645604 36.7504559,14.5057401 36.8635521,15.547154 L36.8635521,16.3969628 C36.2603718,16.9987154 35.5178201,16.7923534 34.8584342,16.64619 Z M20.7090563,21.589744 C22.1438944,21.5302479 24.3375061,21.5122118 26.5174091,21.3259941 C28.3386027,21.1699927 30.1433457,20.8162962 31.9563142,20.5518435 C32.4160107,20.4850863 32.5969648,20.2721656 32.570233,19.7467739 C32.4310901,17.0411122 32.4098418,14.3270179 32.1987287,11.6281491 C32.0771787,10.0695417 31.7191546,8.52381738 31.3828359,6.99191298 C31.1571001,5.96572442 30.4789791,5.29698021 29.4291255,5.13723117 C27.658197,4.86785958 25.8897818,4.52704599 24.1072009,4.39212597 C20.1456309,4.09136676 16.1758358,4.10987141 12.2453387,4.77346242 C9.09166493,5.30541272 8.71010764,5.25552042 8.04249663,8.67091768 C7.31068345,12.4142456 7.40687246,16.2369795 7.31799473,20.0355871 C7.31456757,20.1831559 7.51882639,20.4255903 7.66984995,20.4710321 C8.23533157,20.6401506 8.8147503,20.7720255 9.39668228,20.8704047 C12.8926153,21.4623194 16.4232768,21.5274371 20.7090563,21.589744 L20.7090563,21.589744 L20.7090563,21.589744 Z M7.63283662,26.9996619 C7.63832008,28.1610048 8.58216029,29.1216072 9.70307051,29.107553 C10.8310635,29.0927963 11.7527414,28.1268063 11.7463441,26.9656977 C11.7399467,25.802481 10.8089012,24.8645996 9.66971281,24.8737348 C8.52549789,24.8824014 7.62758164,25.820283 7.63283662,26.9996619 L7.63283662,26.9996619 L7.63283662,26.9996619 Z M30.2011506,24.8737348 C29.058992,24.8608518 28.1270325,25.7926431 28.1174366,26.957031 C28.1073836,28.1202477 29.0208363,29.0860034 30.1508856,29.1070845 C31.269511,29.1276973 32.2218049,28.1663922 32.230487,27.008563 C32.2393976,25.8294181 31.3430808,24.8863835 30.2011506,24.8737348 L30.2011506,24.8737348 L30.2011506,24.8737348 Z" id="Logo"></path>
            <g id="Group-3" transform="translate(46.000000, 6.000000)">
                <path d="M1.66070213,6.35833875 L1.66070213,15.8878389 L12.0602446,15.8878389 L12.0602446,17.2491961 L1.66070213,17.2491961 L1.66070213,27.6595744 L1.42108547e-14,27.6595744 L1.42108547e-14,4.99698159 L13.6725768,4.99698159 L13.6725768,6.35833875 L1.66070213,6.35833875 Z M23.8141461,16.1921423 C24.824546,16.1921423 25.7301302,16.0720237 26.5309258,15.831783 C27.3317215,15.5915423 28.0088942,15.2472025 28.5624643,14.7987532 C29.1160345,14.3503039 29.5379238,13.811105 29.8281451,13.1811405 C30.1183663,12.551176 30.2634748,11.841142 30.2634748,11.051017 C30.2634748,9.43873494 29.7340977,8.24288806 28.6753276,7.46344045 C27.6165575,6.68399285 26.0714213,6.29427489 24.0398726,6.29427489 L19.8639323,6.29427489 L19.8639323,16.1921423 L23.8141461,16.1921423 Z M33.9395921,27.6595744 L32.5207398,27.6595744 C32.3380079,27.6595744 32.1848379,27.6302121 32.0612251,27.5714866 C31.9376124,27.5127611 31.8220631,27.4033197 31.7145737,27.2431592 L24.3945857,18.0499944 C24.3085942,17.9325434 24.2199168,17.8311099 24.1285509,17.745691 C24.0371849,17.6602721 23.9350716,17.5935396 23.8222078,17.5454915 C23.7093439,17.4974433 23.5749843,17.4627424 23.4191247,17.4413877 C23.2632652,17.4200329 23.0724744,17.4093557 22.8467468,17.4093557 L19.8639323,17.4093557 L19.8639323,27.6595744 L18.2032302,27.6595744 L18.2032302,4.99698159 L24.0398726,4.99698159 C26.6626127,4.99698159 28.6269511,5.50147949 29.9329467,6.51049044 C31.2389423,7.51950138 31.8919303,9.00096348 31.8919303,10.9549212 C31.8919303,11.8197877 31.7414474,12.6099008 31.4404773,13.3252842 C31.1395071,14.0406677 30.7068689,14.6679534 30.1425499,15.2071603 C29.5782308,15.7463672 28.8956837,16.1868019 28.094888,16.5284776 C27.2940924,16.8701532 26.3938826,17.0997131 25.3942316,17.2171641 C25.6522061,17.3773246 25.8833047,17.5908687 26.0875345,17.8578028 L33.9395921,27.6595744 Z M51.4817661,26.2982172 L51.4495194,27.6595744 L37.7769427,27.6595744 L37.7769427,4.99698159 L51.4495194,4.99698159 L51.4495194,6.35833875 L39.4376448,6.35833875 L39.4376448,15.5194717 L49.4341042,15.5194717 L49.4341042,16.8487969 L39.4376448,16.8487969 L39.4376448,26.2982172 L51.4817661,26.2982172 Z M71.3134517,6.39037069 L63.3001609,6.39037069 L63.3001609,27.6595744 L61.6394587,27.6595744 L61.6394587,6.39037069 L53.5777979,6.39037069 L53.5777979,4.99698159 L71.3134517,4.99698159 L71.3134517,6.39037069 Z M85.211755,19.4273675 L80.5682384,7.97595139 C80.4070044,7.60224363 80.2511471,7.15380105 80.1006621,6.63061019 C80.0361684,6.88686694 79.9663014,7.12977333 79.8910589,7.35933667 C79.8158163,7.58890001 79.7352005,7.79977479 79.649209,7.99196735 L75.0056924,19.4273675 L85.211755,19.4273675 Z M90.2583547,27.6595744 L88.9846123,27.6595744 C88.8341272,27.6595744 88.7105163,27.6195349 88.6137759,27.5394546 C88.5170355,27.4593744 88.4417941,27.3552717 88.3880494,27.2271433 L85.711578,20.644581 L74.5058694,20.644581 L71.829398,27.2271433 C71.7864023,27.3445943 71.7111609,27.4460277 71.6036715,27.5314466 C71.4961822,27.6168656 71.3671969,27.6595744 71.2167118,27.6595744 L69.9590927,27.6595744 L79.294496,4.99698159 L80.9229515,4.99698159 L90.2583547,27.6595744 Z M113.266335,16.32027 C113.266335,18.0713578 113.00299,19.6462454 112.476292,21.0449802 C111.949594,22.4437149 111.207929,23.6342232 110.251274,24.6165407 C109.294618,25.5988583 108.147187,26.3516012 106.808944,26.874792 C105.470702,27.3979829 103.995433,27.6595744 102.383093,27.6595744 L94.0473353,27.6595744 L94.0473353,4.99698159 L102.383093,4.99698159 C103.995433,4.99698159 105.470702,5.2585731 106.808944,5.78176396 C108.147187,6.30495482 109.294618,7.05769772 110.251274,8.04001525 C111.207929,9.02233278 111.949594,10.2128411 112.476292,11.6115758 C113.00299,13.0103106 113.266335,14.5798596 113.266335,16.32027 L113.266335,16.32027 Z M111.557263,16.32027 C111.557263,14.7400201 111.336913,13.3306291 110.896206,12.0920548 C110.4555,10.8534805 109.832071,9.80711451 109.025901,8.95292535 C108.219731,8.09873619 107.252341,7.44742673 106.123703,6.99897742 C104.995065,6.55052811 103.748207,6.32630682 102.383093,6.32630682 L95.7080374,6.32630682 L95.7080374,26.3302492 L102.383093,26.3302492 C103.748207,26.3302492 104.995065,26.1060279 106.123703,25.6575786 C107.252341,25.2091292 108.219731,24.5578198 109.025901,23.7036306 C109.832071,22.8494415 110.4555,21.8030754 110.896206,20.5645012 C111.336913,19.3259269 111.557263,17.9111973 111.557263,16.32027 L111.557263,16.32027 Z M130.340932,19.4273675 L125.697416,7.97595139 C125.536182,7.60224363 125.380324,7.15380105 125.229839,6.63061019 C125.165346,6.88686694 125.095479,7.12977333 125.020236,7.35933667 C124.944994,7.58890001 124.864378,7.79977479 124.778386,7.99196735 L120.13487,19.4273675 L130.340932,19.4273675 Z M135.387532,27.6595744 L134.11379,27.6595744 C133.963305,27.6595744 133.839694,27.6195349 133.742953,27.5394546 C133.646213,27.4593744 133.570971,27.3552717 133.517227,27.2271433 L130.840755,20.644581 L119.635047,20.644581 L116.958575,27.2271433 C116.91558,27.3445943 116.840338,27.4460277 116.732849,27.5314466 C116.62536,27.6168656 116.496374,27.6595744 116.345889,27.6595744 L115.08827,27.6595744 L124.423673,4.99698159 L126.052129,4.99698159 L135.387532,27.6595744 Z M127.277501,1.7777723 C127.535476,1.7777723 127.766574,1.72972488 127.970804,1.6336286 C128.175034,1.53753232 128.347014,1.40940586 128.48675,1.2492454 C128.626487,1.08908493 128.733974,0.904903156 128.809217,0.696694549 C128.884459,0.488485941 128.92208,0.272272554 128.92208,0.0480478999 L129.873356,0.0480478999 C129.873356,0.421755657 129.819612,0.7767727 129.712123,1.11310968 C129.604633,1.44944666 129.446089,1.74573908 129.236485,2.00199583 C129.026881,2.25825258 128.771597,2.46111946 128.470627,2.61060256 C128.169657,2.76008566 127.820322,2.83482609 127.422611,2.83482609 C127.014152,2.83482609 126.63257,2.74140056 126.277855,2.55454668 C125.92314,2.3676928 125.581867,2.16482592 125.254024,1.94593995 C124.926182,1.72705397 124.606406,1.52418709 124.294687,1.33733321 C123.982968,1.15047934 123.676628,1.0570538 123.375657,1.0570538 C123.128432,1.0570538 122.905395,1.10510122 122.70654,1.2011975 C122.507684,1.29729378 122.335704,1.42542023 122.190593,1.5855807 C122.045483,1.74574116 121.935308,1.92992294 121.860065,2.13813155 C121.784823,2.34634015 121.741828,2.56255354 121.731079,2.78677819 L120.747556,2.78677819 C120.747556,2.4237478 120.803987,2.07406936 120.916851,1.73773238 C121.029715,1.4013954 121.193633,1.10510298 121.408612,0.848846232 C121.623591,0.592589484 121.884249,0.387053301 122.190593,0.232231516 C122.496938,0.0774097313 122.843586,0 123.230548,0 C123.649756,0 124.036712,0.0934255378 124.391427,0.280279416 C124.746142,0.467133295 125.087415,0.670000177 125.415258,0.888886148 C125.7431,1.10777212 126.057502,1.310639 126.358472,1.49749288 C126.659442,1.68434676 126.965782,1.7777723 127.277501,1.7777723 L127.277501,1.7777723 Z M158.943705,16.32027 C158.943705,18.0713578 158.68036,19.6595919 158.153662,21.0850201 C157.626964,22.5104482 156.885299,23.7276495 155.928644,24.7366605 C154.971989,25.7456714 153.824557,26.5251073 152.486315,27.0749916 C151.148072,27.6248759 149.672803,27.8998139 148.060463,27.8998139 C146.448123,27.8998139 144.975541,27.6248759 143.642673,27.0749916 C142.309805,26.5251073 141.16506,25.7456714 140.208405,24.7366605 C139.25175,23.7276495 138.510085,22.5104482 137.983387,21.0850201 C137.456689,19.6595919 137.193344,18.0713578 137.193344,16.32027 C137.193344,14.5798596 137.456689,12.9969641 137.983387,11.5715359 C138.510085,10.1461077 139.25175,8.92890645 140.208405,7.9198955 C141.16506,6.91088456 142.309805,6.12877934 143.642673,5.57355639 C144.975541,5.01833344 146.448123,4.74072612 148.060463,4.74072612 C149.672803,4.74072612 151.148072,5.01566414 152.486315,5.56554841 C153.824557,6.11543268 154.971989,6.89753789 155.928644,7.91188752 C156.885299,8.92623714 157.626964,10.1461077 158.153662,11.5715359 C158.68036,12.9969641 158.943705,14.5798596 158.943705,16.32027 L158.943705,16.32027 Z M157.234633,16.32027 C157.234633,14.7400201 157.014283,13.3199519 156.573577,12.0600229 C156.13287,10.8000939 155.509442,9.73237344 154.703271,8.85682955 C153.897101,7.98128566 152.929712,7.31129109 151.801074,6.84682574 C150.672435,6.38236038 149.425578,6.15013119 148.060463,6.15013119 C146.706097,6.15013119 145.464614,6.38236038 144.335976,6.84682574 C143.207337,7.31129109 142.237261,7.98128566 141.425716,8.85682955 C140.614171,9.73237344 139.985368,10.8000939 139.539287,12.0600229 C139.093207,13.3199519 138.87017,14.7400201 138.87017,16.32027 C138.87017,17.9111973 139.093207,19.3339348 139.539287,20.5885251 C139.985368,21.8431154 140.614171,22.9081666 141.425716,23.7837105 C142.237261,24.6592543 143.207337,25.3265796 144.335976,25.7857063 C145.464614,26.244833 146.706097,26.4743929 148.060463,26.4743929 C149.425578,26.4743929 150.672435,26.244833 151.801074,25.7857063 C152.929712,25.3265796 153.897101,24.6592543 154.703271,23.7837105 C155.509442,22.9081666 156.13287,21.8431154 156.573577,20.5885251 C157.014283,19.3339348 157.234633,17.9111973 157.234633,16.32027 L157.234633,16.32027 Z" id="FRETADÃO"></path>
            </g>
        </g>
    </g>
</svg>
