<svg xmlns:xlink="http://www.w3.org/1999/xlink" xmlns="http://www.w3.org/2000/svg" width="63" height="40" viewBox="0 0 63 40" fill="none">
<path d="M55.6545 5.8814C55.1217 5.56104 54.5667 5.25535 53.9943 4.96434C53.0279 4.47524 52.012 4.02038 50.9762 3.60709C50.441 3.39678 49.9008 3.19462 49.3557 3.00061C48.8105 2.80742 48.2604 2.62645 47.7104 2.45282C46.0031 1.91726 44.2909 1.47463 42.6703 1.12003C41.6792 0.90483 40.7277 0.721419 39.8307 0.569798C38.6537 0.374159 37.5907 0.229876 36.6714 0.134502C35.8732 0.0471325 35.0709 0.00223363 34.2678 0C34.0317 0.00103343 33.7958 0.0165514 33.5616 0.0464642C33.469 0.0568757 33.3777 0.0765404 33.289 0.105156C33.127 0.162326 32.9941 0.279768 32.9186 0.43239C32.8431 0.585012 32.8311 0.760711 32.8851 0.921949C32.8978 0.955116 32.9136 0.987045 32.9322 1.01732C32.945 1.04274 32.9608 1.06655 32.9793 1.08824L33.0016 1.12003L33.0189 1.14204C33.3336 1.51376 34.0844 1.92704 35.1177 2.41859L35.4572 2.57754L36.2204 2.93458C38.2027 3.82719 40.7871 4.95456 43.3195 6.46831C45.0253 7.46537 46.6099 8.65182 48.0424 10.0045C49.396 11.2863 50.4974 12.8045 51.2909 14.4822C51.452 14.8343 51.6006 15.1938 51.7295 15.5655C52.5695 17.9694 52.5893 20.4565 52.1656 22.8677C51.9621 23.9913 51.679 25.0994 51.3182 26.1838C52.6857 24.7747 53.8854 23.2158 54.8938 21.5374C56.4276 19.0381 57.5699 16.4826 58.4718 14.536C58.5982 14.267 58.7196 14.0126 58.8336 13.7681C58.8955 13.636 58.9575 13.5089 59.0194 13.3841C59.5026 12.406 59.9115 11.6723 60.2832 11.3715L60.3129 11.3471L60.3327 11.3324L60.4071 11.2859C60.4373 11.2673 60.4697 11.2525 60.5037 11.2419C60.6358 11.195 60.7798 11.1919 60.9139 11.2329C61.048 11.2739 61.165 11.3569 61.2471 11.4693C60.2237 9.24639 58.1844 7.40004 55.6545 5.8814Z" fill="#0F204D"/>
<path d="M60.2888 11.3617L60.3186 11.3373L60.3384 11.3226L60.4127 11.2761C60.4429 11.2575 60.4754 11.2427 60.5094 11.2321C60.6415 11.1852 60.7855 11.1821 60.9196 11.2231C61.0537 11.2641 61.1706 11.3471 61.2527 11.4595C60.8955 10.7089 60.4416 10.007 59.9023 9.37109H59.875C59.7315 9.41897 59.5929 9.48039 59.4612 9.55451C59.3689 9.60353 59.2803 9.65911 59.1961 9.7208H59.1788L59.0846 9.79416L58.9904 9.86997C58.3388 10.4178 57.8357 11.2884 57.2386 12.5111C57.1741 12.6407 57.1097 12.7752 57.0428 12.9146C56.9264 13.1592 56.795 13.4233 56.6761 13.6996L56.406 14.2816C55.4626 16.4144 54.3936 18.4909 53.2046 20.5005C52.9097 20.9896 52.6148 21.4298 52.3175 21.8602C52.2778 22.1928 52.2283 22.5254 52.1713 22.8555C51.9678 23.9791 51.6847 25.0872 51.3239 26.1716C52.6914 24.7625 53.8911 23.2035 54.8994 21.5252C56.4333 19.0259 57.5756 16.4703 58.4775 14.5237C58.6039 14.2547 58.7253 14.0004 58.8393 13.7559C58.9012 13.6238 58.9632 13.4966 59.0251 13.3719C59.5083 12.3864 59.9172 11.6674 60.2888 11.3617Z" fill="#6690F8"/>
<path d="M61.3735 11.7167C61.3339 11.6286 61.2942 11.5406 61.2521 11.4525C61.17 11.3401 61.0531 11.2572 60.919 11.2161C60.7849 11.1751 60.6409 11.1782 60.5087 11.2251C60.4748 11.2357 60.4423 11.2505 60.4121 11.2691L60.3378 11.3156L60.3179 11.3303L60.2882 11.3547C59.9165 11.6604 59.5077 12.3794 59.0245 13.3674C58.9625 13.4921 58.9006 13.6119 58.8386 13.7513C58.7222 13.9958 58.5909 14.2404 58.4769 14.5192C57.5749 16.4756 56.4326 19.0213 54.8988 21.5206C53.8905 23.199 52.6908 24.7579 51.3232 26.167C50.8478 27.587 50.2927 28.9799 49.6605 30.339C48.5628 32.7429 47.4032 34.8632 46.7267 36.4894C46.6425 36.6924 46.5657 36.888 46.4988 37.0763C46.4319 37.2647 46.3476 37.5092 46.2931 37.7097C46.1737 38.0816 46.1266 38.4724 46.1543 38.8616V38.9178C46.1698 39.0487 46.212 39.1751 46.2782 39.2895C46.4185 39.5671 46.6559 39.7852 46.9466 39.9035C47.2372 40.0217 47.5613 40.0321 47.8591 39.9327C47.9771 39.8883 48.0901 39.8317 48.1961 39.7639C48.3679 39.6603 48.5334 39.5468 48.6917 39.424C49.1332 39.0719 49.5543 38.6955 49.9529 38.2966C51.0204 37.2283 52.0271 36.1025 52.9685 34.9243C53.2989 34.5265 53.6293 34.1092 53.9597 33.6722C55.2292 32.0126 56.4063 30.2859 57.4857 28.5C57.6617 28.209 57.8351 27.9131 58.0061 27.6172C58.3406 27.0327 58.6652 26.4409 58.9725 25.8442C59.5497 24.7365 60.069 23.6003 60.5286 22.4401C60.8701 21.5787 61.1662 20.7004 61.4157 19.8088C61.9459 17.8842 62.1863 16.0085 62.0103 14.2869C61.9675 13.8511 61.8938 13.4188 61.7898 12.9932C61.7273 12.726 61.6504 12.4624 61.5594 12.2033C61.5024 12.037 61.4503 11.8781 61.3735 11.7167Z" fill="#0F204D"/>
<path d="M35.3162 16.9598C36.7655 16.9598 37.9403 15.8003 37.9403 14.37C37.9403 12.9398 36.7655 11.7803 35.3162 11.7803C33.867 11.7803 32.6921 12.9398 32.6921 14.37C32.6921 15.8003 33.867 16.9598 35.3162 16.9598Z" fill="#0F204D"/>
<path d="M29.4613 13.624C29.4027 13.6246 29.3443 13.6328 29.2879 13.6485L25.348 14.9641C25.2204 15.0074 25.1095 15.0887 25.0309 15.197C24.9523 15.3053 24.9099 15.435 24.9094 15.5682V38.6731C24.9094 38.7573 24.9262 38.8406 24.9588 38.9183C24.9915 38.9961 25.0393 39.0667 25.0996 39.1262C25.1599 39.1857 25.2314 39.2329 25.3102 39.2651C25.389 39.2973 25.4734 39.3139 25.5586 39.3139H29.4613C29.6335 39.3139 29.7986 39.2464 29.9204 39.1262C30.0421 39.006 30.1105 38.8431 30.1105 38.6731V14.2647C30.1105 14.0948 30.0421 13.9318 29.9204 13.8117C29.7986 13.6915 29.6335 13.624 29.4613 13.624Z" fill="#0F204D"/>
<path d="M37.2665 20.0654C37.2105 20.0662 37.1547 20.0736 37.1005 20.0874L33.1681 21.3835C33.039 21.4255 32.9266 21.5064 32.8466 21.6147C32.7666 21.7231 32.723 21.8535 32.722 21.9876V38.6731C32.7227 38.8433 32.7916 39.0063 32.9138 39.1263C33.0359 39.2464 33.2013 39.3139 33.3737 39.3139H37.2665C37.4385 39.3132 37.6032 39.2455 37.7248 39.1255C37.8464 39.0055 37.915 38.8429 37.9157 38.6731V20.7061C37.9157 20.5362 37.8473 20.3732 37.7256 20.2531C37.6038 20.1329 37.4387 20.0654 37.2665 20.0654Z" fill="#0F204D"/>
<path d="M23.2615 38.2402C21.1471 33.8383 19.0318 29.4429 16.9157 25.0541L14.7748 20.6058C14.3362 19.7474 14.0314 18.7472 13.1542 18.219C12.9363 18.0824 12.7003 17.9763 12.453 17.9035C12.2002 17.8431 11.9422 17.807 11.6824 17.7959C11.413 17.8095 11.1457 17.8496 10.8845 17.9157C10.4831 18.0461 10.1152 18.2611 9.8063 18.5457C9.4974 18.8303 9.25485 19.1777 9.09545 19.564L7.79703 22.254C6.49366 24.9604 5.19112 27.6659 3.8894 30.3706C2.88833 32.459 1.88561 34.5426 0.881244 36.6213L0.189912 38.0592C0.00654869 38.3698 -0.124779 38.7928 0.189912 39.0643C0.301945 39.1504 0.431186 39.2122 0.569132 39.2455C0.707078 39.2788 0.850605 39.2829 0.990271 39.2575H4.61047C5.03914 39.2575 5.44552 39.2575 5.62145 38.7684C6.10711 37.7511 6.59113 36.7329 7.07349 35.714L7.33367 35.176H16.0311L16.2788 35.714C16.8389 36.8169 17.2898 37.9883 17.9093 39.0545C17.9963 39.1338 18.1003 39.1927 18.2135 39.227C18.3268 39.2613 18.4464 39.2701 18.5635 39.2526H22.6768C22.7738 39.2563 22.8706 39.2397 22.9607 39.2039C23.0508 39.168 23.1322 39.1138 23.1996 39.0447C23.2974 38.9357 23.3565 38.798 23.3677 38.6527C23.3788 38.5075 23.3416 38.3626 23.2615 38.2402ZM9.19456 31.3243L11.6725 26.1399L14.1503 31.3243H9.19456Z" fill="#0F204D"/>
</svg>