<svg xmlns:xlink="http://www.w3.org/1999/xlink" xmlns="http://www.w3.org/2000/svg" width="40" height="40" viewBox="0 0 40 40" fill="none">
<rect width="40" height="40" rx="4" fill="#EC7000"/>
<path fill-rule="evenodd" clip-rule="evenodd" d="M10.668 6H29.332C31.9089 6 34 8.09057 34 10.6667V29.3333C34 31.9094 31.9089 34 29.332 34H10.668C8.0829 34 6 31.9094 6 29.3333V10.6667C6 8.09057 8.0829 6 10.668 6Z" fill="#003399"/>
<path fill-rule="evenodd" clip-rule="evenodd" d="M8.31934 29.3157H10.4826V20.0234H8.31934V29.3157Z" fill="#FFFF00"/>
<path fill-rule="evenodd" clip-rule="evenodd" d="M21.4376 26.7513C21.4376 26.866 21.4293 26.9889 21.4048 27.1036C21.4048 27.12 21.3884 27.1692 21.3802 27.1773C21.372 27.1856 21.372 27.202 21.3638 27.2101C21.1754 27.6608 20.6591 28.0951 19.979 28.0951C19.3808 28.0951 18.9711 27.7837 18.9711 27.202C18.9711 26.5464 19.5283 26.2105 20.3641 26.0794C20.5608 26.0466 20.7738 26.0302 21.0032 26.0219C21.1426 26.0138 21.2818 26.0138 21.4294 26.0138V26.7513H21.4376ZM20.2002 22.1543C18.8728 22.1543 17.8813 22.4984 17.3405 22.8098L17.7502 24.1783C18.2418 23.8833 19.0776 23.6211 19.8397 23.6211C21.1098 23.6211 21.372 24.2602 21.372 24.588V24.6617C18.5614 24.6535 16.8242 25.5631 16.8242 27.3659C16.8242 28.4229 17.6682 29.4963 19.217 29.4963C20.1429 29.4963 20.9213 29.1604 21.3966 28.6032H21.4212L21.6589 29.3243H23.4206V25.2026C23.4206 23.5227 22.593 22.1543 20.2002 22.1543Z" fill="#FFFF00"/>
<path fill-rule="evenodd" clip-rule="evenodd" d="M29.4024 22.3598V26.4405C29.4024 26.6044 29.3861 26.7519 29.3287 26.883C29.1566 27.3009 28.7305 27.7762 28.0259 27.7762C27.1408 27.7762 26.7557 27.1288 26.7557 26.039V22.3516H24.6416V26.4241C24.6416 26.9732 24.7072 27.432 24.8383 27.8172C24.9694 28.2023 25.1496 28.5136 25.3791 28.7594C25.6085 29.0054 25.8789 29.1938 26.1986 29.3085C26.5181 29.4232 26.8705 29.4806 27.2474 29.4806C27.5833 29.4806 27.8784 29.4396 28.1323 29.3576C28.3864 29.2757 28.6158 29.1774 28.7961 29.0627C28.9845 28.9479 29.1402 28.8251 29.2631 28.6939C29.3861 28.5628 29.4844 28.4399 29.5582 28.3334L29.8285 29.3249H31.5411V22.3598H29.4024Z" fill="#FFFF00"/>
<path fill-rule="evenodd" clip-rule="evenodd" d="M12.5228 20.0234V22.3506H11.5312V23.9403H12.5228V26.7755C12.5228 27.7096 12.7113 28.4144 13.1127 28.8404C13.4651 29.2174 14.0715 29.4877 14.8172 29.4877C15.4563 29.4877 15.7021 29.3894 15.989 29.2829V27.6687C15.9316 27.6932 15.7595 27.726 15.5464 27.726C14.7925 27.726 14.6205 27.259 14.6205 26.4067V23.9403H15.9643V22.3506H14.6205V20.0234H12.5228Z" fill="#FFFF00"/>
<path fill-rule="evenodd" clip-rule="evenodd" d="M28.5998 20.0234L27.2969 21.8999H28.8047L30.6484 20.0234H28.5998Z" fill="#FFFF00"/>
</svg>