<svg xmlns:xlink="http://www.w3.org/1999/xlink" class="logo_will" xmlns="http://www.w3.org/2000/svg" width="83.882" height="36.347" viewBox="0 0 83.882 36.347"><g id="Group_10768" data-name="Group 10768" transform="translate(0 0)"><ellipse id="Ellipse_841" data-name="Ellipse 841" cx="13.269" cy="13.269" rx="13.269" ry="13.269" transform="translate(57.344 26.538) rotate(-90)" fill="#FFD900"></ellipse><g id="Group_10767" data-name="Group 10767" transform="translate(0 0.78)"><path id="Path_5167" data-name="Path 5167" d="M132.148,144.868c0,7.014-3.653,11.119-8.081,11.119a4.592,4.592,0,0,1-4.461-2.747,6.075,6.075,0,0,1-5.3,2.747c-2.553,0-5.463-1.39-5.463-6.562V143.8c0-1.422-1.26-1.745-1.26-2.456v-.1a.721.721,0,0,1,.646-.679l4.137-.614c.808-.1,1.293.032,1.293.808l-.064,10.57c-.032,1.713.581,2.811,1.745,2.811,2.36,0,3.555-3.523,3.555-6.465V143.8c0-1.422-1.261-1.745-1.261-2.456v-.1a.726.726,0,0,1,.68-.679l3.781-.68c.809-.129,1.326.1,1.326.873l-.1,10.473c-.032,1.811.485,2.909,1.778,2.909,2.263,0,4.558-3.523,4.558-6.884,0-2.78-2.941-2.942-2.941-5.431a1.927,1.927,0,0,1,2.1-2C130.887,139.825,132.148,141.668,132.148,144.868Z" transform="translate(-107.582 -131.256)"></path><path id="Path_5168" data-name="Path 5168" d="M133.915,155.379v-.13c0-.809,1.228-1.067,1.228-2.457v-7.305c0-1.422-1.228-1.778-1.228-2.489v-.1c0-.291.258-.453.679-.68l4.04-2c.809-.388,1.326.064,1.326.646v11.927c0,1.39,1.357,1.648,1.357,2.457v.13c0,.323-.291.549-.743.549h-5.948C134.205,155.928,133.915,155.7,133.915,155.379Zm.453-20.107a2.9,2.9,0,0,1,3.2-2.811,2.843,2.843,0,1,1,0,5.657A2.908,2.908,0,0,1,134.368,135.272Z" transform="translate(-106.637 -131.52)"></path><path id="Path_5169" data-name="Path 5169" d="M143.306,155.412v-.13c0-.809,1.261-1.067,1.261-2.425v-15.9c0-1.455-1.261-1.779-1.261-2.457v-.128c0-.323.258-.486.646-.647l4.072-2c.841-.421,1.326.032,1.326.582v20.557c0,1.358,1.39,1.616,1.39,2.425v.13c0,.323-.323.549-.744.549h-5.948C143.6,155.961,143.306,155.735,143.306,155.412Z" transform="translate(-106.3 -131.553)"></path><path id="Path_5170" data-name="Path 5170" d="M152.666,155.412v-.13c0-.809,1.26-1.067,1.26-2.425v-15.9c0-1.455-1.26-1.779-1.26-2.457v-.128c0-.323.258-.486.646-.647l4.072-2c.84-.421,1.326.032,1.326.582v20.557c0,1.358,1.389,1.616,1.389,2.425v.13c0,.323-.323.549-.743.549h-5.948C152.956,155.961,152.666,155.735,152.666,155.412Z" transform="translate(-105.964 -131.553)"></path></g></g><g id="Group_10769" data-name="Group 10769" transform="translate(28.337 30.669)"><path id="Path_5171" data-name="Path 5171" d="M134.937,160.406h1.924a2.286,2.286,0,0,1,.766.115,1.539,1.539,0,0,1,.537.311,1.264,1.264,0,0,1,.32.46,1.5,1.5,0,0,1,.106.561,1.226,1.226,0,0,1-.1.494,1.356,1.356,0,0,1-.239.374,1.225,1.225,0,0,1-.307.248.844.844,0,0,1-.3.111,1.9,1.9,0,0,1,.4.106,1.3,1.3,0,0,1,.72.664,1.455,1.455,0,0,1,.127.643,1.563,1.563,0,0,1-.167.761,1.356,1.356,0,0,1-.451.49,1.9,1.9,0,0,1-.676.264,4.37,4.37,0,0,1-.835.076h-1.821Zm1.8,2.367a1.609,1.609,0,0,0,.375-.047,1.09,1.09,0,0,0,.34-.149.8.8,0,0,0,.248-.264.771.771,0,0,0,.093-.392.809.809,0,0,0-.093-.413.7.7,0,0,0-.248-.247.975.975,0,0,0-.34-.119,2.418,2.418,0,0,0-.375-.03h-1.013v1.661Zm-.026,2.6a4.432,4.432,0,0,0,.46-.025,1.4,1.4,0,0,0,.438-.119.817.817,0,0,0,.328-.277,1.057,1.057,0,0,0,0-1,.93.93,0,0,0-.314-.3,1.238,1.238,0,0,0-.422-.148,2.666,2.666,0,0,0-.443-.039h-1.038v1.907Z" transform="translate(-134.937 -160.406)"></path><path id="Path_5172" data-name="Path 5172" d="M143.108,160.406h.834l2.222,5.678h-.911l-.587-1.583h-2.333l-.587,1.583h-.86Zm1.311,3.4-.92-2.494-.928,2.494Z" transform="translate(-134.723 -160.406)"></path><path id="Path_5173" data-name="Path 5173" d="M148.339,160.406h.827l3.1,4.436v-4.436h.8v5.678h-.818l-3.107-4.443v4.443h-.8Z" transform="translate(-134.456 -160.406)"></path><path id="Path_5174" data-name="Path 5174" d="M155.793,160.406h.809v2.579l2.374-2.579h.937l-2.111,2.315,2.366,3.362h-.979l-1.941-2.783-.646.7v2.085h-.809Z" transform="translate(-134.189 -160.406)"></path></g></svg>