<?xml version="1.0" encoding="UTF-8"?>
<svg id="Layer_1" data-name="Layer 1" xmlns="http://www.w3.org/2000/svg" viewBox="0 0 1802.34 413.2">
  <defs>
    <style>
      .cls-1 {
        fill: #0669f7;
      }
    </style>
  </defs>
  <path class="cls-1" d="M201.21,293.02H0v60.09C0,369.04,6.29,384.33,17.49,395.6s26.38,17.6,42.22,17.6h201.31v-60.09c0-7.9-1.55-15.72-4.55-23.02-3.01-7.3-7.41-13.93-12.97-19.51-5.55-5.58-12.15-10-19.4-13.02-7.25-3.01-15.03-4.56-22.88-4.55Z"/>
  <path class="cls-1" d="M345.54,146.05H0v60.99c0,16.18,6.29,31.69,17.49,43.13,11.2,11.44,26.39,17.86,42.22,17.86H405.36v-60.99c0-8.02-1.55-15.96-4.55-23.36-3.01-7.41-7.41-14.13-12.97-19.8-5.56-5.66-12.15-10.16-19.41-13.21-7.26-3.06-15.03-4.63-22.88-4.61Z"/>
  <path class="cls-1" d="M345.65,0H144.34V60.54c0,16.06,6.29,31.45,17.49,42.81,11.2,11.35,26.38,17.73,42.22,17.73h201.31V60.54c0-7.95-1.54-15.82-4.55-23.17-3-7.35-7.4-14.02-12.94-19.64-5.54-5.62-12.13-10.08-19.37-13.12-7.24-3.04-15.01-4.61-22.85-4.61Z"/>
  <path d="M659.98,154.62c6.78,0,14.01-.77,21.71-2.33,7.69-1.56,14.6-3.63,20.71-6.23v27.76c-9.1,3.8-17.24,6.45-24.43,7.9-7.19,1.47-14.68,2.22-22.46,2.22-24.64,0-41.84-6.45-51.59-19.32-9.76-12.88-14.63-34.46-14.63-64.71s5.78-50.01,17.36-63.41c11.57-13.4,30.19-20.11,55.82-20.11,7.61,0,14.39,.18,20.34,.52,5.96,.35,11.33,.96,16.12,1.82v27.23c-6.29-.52-12.36-.9-18.23-1.17-5.88-.25-11.94-.39-18.23-.39-16.7,0-27.99,4.06-33.86,12.2-5.89,8.13-8.82,22.57-8.82,43.31s2.69,35.05,8.07,42.92c5.38,7.88,16.09,11.8,32.12,11.8Z"/>
  <path d="M752.25,181.59h-29.76V18.98l29.71,.06,.05,162.56Z"/>
  <path d="M751.39,126.22l.39-107.67,25.35,.05c23.6,0,40.47,4.08,50.57,12.25,10.1,8.17,15.16,21.79,15.16,40.9,0,13.73-2.94,24.8-8.79,33.22-5.86,8.44-16.66,14.01-26.62,17.6-10.23,3.69-32.36,3.65-32.36,3.65h-23.7Zm60.39-54.47c0-9.03-2.59-15.46-7.76-19.28-5.19-3.82-14.15-5.74-26.88-5.74h-25.74v53.42h25.74c12.74,0,21.7-2.18,26.88-6.51,5.18-4.35,7.76-11.64,7.76-21.9Z"/>
  <path d="M806.84,122.46l39.2,59.13h-35.72l-34.98-55.49s43.09-6.91,31.51-3.63Z"/>
  <path d="M1016.96,18.98V181.59h-28.04V68.77l-35.47,80.92h-24.57l-35.23-81.17v113.07h-28.03V18.98h36.72l39.44,92.6,39.69-92.6h35.48Z"/>
  <path d="M595.25,275.38l-.02-28.03h102.95v28.01l-102.93,.02Z"/>
  <path d="M619.62,313.71l69.38,.04v26.72l-69.38-.04v-26.72Z"/>
  <path d="M700.41,380.66v29.3l-87.49,.11,.07-29.81,87.42,.4Z"/>
  <path d="M624.59,410.07l-29.36-.11V247.35l29.98-.02-.61,162.74Z"/>
  <path d="M798.65,398.04c-4.63,4.85-10.13,8.43-16.5,10.76-6.37,2.33-13.69,3.51-21.95,3.51-16.38,0-28.08-5.19-35.1-15.56-7.04-10.37-10.55-27.4-10.55-51.1s4.35-40.23,13.03-50.71c8.67-10.46,23.03-15.69,43.04-15.69,5.29,0,10.3,.39,15.01,1.17,4.71,.78,8.89,1.86,12.53,3.24l.5,114.38Zm-24.07-91.81c-12.73,0-21.13,2.69-25.17,8.04-4.06,5.36-6.08,15.82-6.08,31.38s1.78,25.25,5.33,30.61c3.56,5.36,10.88,8.04,21.96,8.04,5.29,0,10.25-.56,14.89-1.68,4.63-1.13,8.84-2.81,12.65-5.07v-66.92c-3.48-1.54-7.11-2.67-10.91-3.37-3.8-.68-8.02-1.04-12.66-1.04Z"/>
  <path d="M798.15,237.5h28.78v172.47h-25.3l-1.74-11.93h-1.24c-4.63,4.85-10.13,8.43-16.5,10.76-6.37,2.33-13.69,3.51-21.95,3.51-16.38,0-28.08-5.19-35.1-15.56-7.04-10.37-10.55-27.4-10.55-51.1s4.35-40.23,13.03-50.71c8.67-10.46,23.03-15.69,43.04-15.69,5.29,0,10.3,.39,15.01,1.17,4.71,.78,8.89,1.86,12.53,3.24v-46.16Zm-23.57,68.73c-12.73,0-21.13,2.69-25.17,8.04-4.06,5.36-6.08,15.82-6.08,31.38s1.78,25.25,5.33,30.61c3.56,5.36,10.88,8.04,21.96,8.04,5.29,0,10.25-.56,14.89-1.68,4.63-1.13,8.84-2.81,12.65-5.07v-66.92c-3.48-1.54-7.11-2.67-10.91-3.37-3.8-.68-8.02-1.04-12.66-1.04Z"/>
  <path d="M930.63,281.85h28.77v128.12h-26.54l-1.55-8.79-.68-119.33Z"/>
  <path d="M894.16,412.31c-13.72,0-23.98-3.6-30.76-10.76-6.78-7.18-10.17-17.94-10.17-32.29v-87.41h28.78v83.52c0,6.57,1.65,11.32,4.95,14.26,3.31,2.94,8.68,4.41,16.12,4.41,4.64,0,9.35-.52,14.15-1.56,4.8-1.04,10.76-2.67,14.9-4.39l-.26,23.07h-.74c-6.78,3.63-13.28,6.4-19.48,8.29-6.2,1.9-12.03,2.86-17.49,2.86Z"/>
  <path d="M1075,377.55v25.16c-4.3,2.6-10.71,4.84-19.22,6.74-8.52,1.9-17.32,2.86-26.42,2.86-17.53,0-29.86-4.94-36.97-14.79-7.11-9.85-10.66-27.14-10.66-51.87s4.59-41.54,13.76-51.48c9.18-9.94,25.01-14.92,47.51-14.92,5.46,0,10.38,.14,14.77,.39,4.38,.27,9.05,.73,14.01,1.43v26.71c-6.44-.52-12.08-.91-16.87-1.17-4.8-.27-8.76-.39-11.91-.39-13.55,0-22.36,2.51-26.42,7.52-4.05,5.01-6.08,15.65-6.08,31.9s1.62,26.11,4.85,31.13c3.22,5.02,9.96,7.52,20.22,7.52,6.78,0,13.77-.65,20.97-1.95,7.18-1.29,13.35-2.89,18.47-4.8Z"/>
  <path d="M1123.12,412.31c-12.57,0-21.79-3.24-27.65-9.73-5.88-6.48-8.81-16.64-8.81-30.48s3.5-24.2,10.54-30.09c7.03-5.88,19.14-8.81,36.34-8.81,4.8,0,9.68,.27,14.64,.79,4.95,.52,9.97,1.2,13.61,2.07l.72,62.51c-5.29,4.15-12.31,7.48-19.18,9.98-6.87,2.49-13.6,3.76-20.22,3.76Zm13.89-57.58c-8.93,0-15.06,1.08-18.36,3.24-3.31,2.17-4.95,6.27-4.95,12.32s1.36,10.07,4.09,12.57c2.73,2.51,7.4,3.76,14.02,3.76,4.8,0,9.88-.73,15.25-2.2,5.38-1.47,10.84-3.29,14.82-5.54l.32-22.05c-3.97-.7-9.02-1.25-12.89-1.59-3.89-.34-7.98-.52-12.28-.52Z"/>
  <path d="M1161.08,336.05v-10.89c0-6.74-1.99-11.66-5.96-14.78-3.97-3.12-10.26-4.67-18.85-4.67-7.78,0-14.68,.27-20.73,.78-6.03,.52-11.77,1.38-17.24,2.6v-25.16c6.29-1.56,13.11-2.72,20.47-3.51,7.35-.77,16.07-1.16,26.16-1.16,15.06,0,26.3,3.6,33.75,10.76,7.44,7.18,11.16,17.94,11.16,32.29v87.66h-26.54l-1.25-11.41-.98-62.51Z"/>
  <path d="M1304.34,377.55v25.16c-4.3,2.6-10.71,4.84-19.22,6.74-8.52,1.9-17.32,2.86-26.42,2.86-17.53,0-29.86-4.94-36.97-14.79-7.11-9.85-10.66-27.14-10.66-51.87s4.59-41.54,13.76-51.48c9.18-9.94,25.01-14.92,47.51-14.92,5.46,0,10.38,.14,14.77,.39,4.38,.27,9.05,.73,14.01,1.43v26.71c-6.44-.52-12.08-.91-16.87-1.17-4.8-.27-8.76-.39-11.91-.39-13.55,0-22.36,2.51-26.42,7.52-4.05,5.01-6.08,15.65-6.08,31.9s1.62,26.11,4.85,31.13c3.22,5.02,9.96,7.52,20.22,7.52,6.78,0,13.77-.65,20.97-1.95,7.18-1.29,13.35-2.89,18.47-4.8Z"/>
  <path d="M1353.51,263.7h-30.52v-26.2h30.52v26.2Zm-.75,146.27h-28.78v-128.12h28.78v128.12Z"/>
  <path d="M1354.1,237.23v26.42h-31.59v-26.42h31.59Z"/>
  <path d="M1492,345.65c0,24.21-4.42,41.37-13.26,51.48-8.85,10.12-23.95,15.18-45.28,15.18s-36.88-4.98-45.64-14.92c-8.77-9.94-13.16-27.19-13.16-51.74s4.47-41.11,13.4-51.22c8.94-10.11,24.07-15.17,45.4-15.17s36.63,4.98,45.4,14.92c8.76,9.94,13.14,27.1,13.14,51.48Zm-88.56-.25c0,15.91,1.9,26.37,5.7,31.38s11.91,7.52,24.31,7.52,20.05-2.56,23.94-7.65c3.89-5.1,5.84-15.53,5.84-31.25s-1.87-26.63-5.58-31.65c-3.72-5.01-11.79-7.52-24.19-7.52s-20.3,2.6-24.19,7.79c-3.89,5.18-5.83,15.64-5.83,31.38Z"/>
  <path d="M1543.13,314.11v96.48h-28.77v-128.12h26.54l.99,8.81h.74l.5,22.82Z"/>
  <path d="M1579.6,280.13c13.72,0,23.98,3.6,30.76,10.76,6.78,7.18,10.17,17.94,10.17,32.29v87.41h-28.78v-83.52c0-6.57-1.65-11.32-4.95-14.26-3.31-2.94-8.68-4.41-16.12-4.41-4.64,0-9.35,.52-14.15,1.56-4.8,1.04-9.73,2.42-13.87,4.14l-.76-22.82h.74c6.78-3.63,13.28-6.4,19.48-8.29,6.2-1.9,12.03-2.86,17.49-2.86Z"/>
  <path d="M1680.68,412.31c-12.57,0-21.79-3.24-27.65-9.73-5.88-6.48-8.81-16.64-8.81-30.48s3.5-24.2,10.54-30.09c7.03-5.88,19.14-8.81,36.34-8.81,4.8,0,9.68,.27,14.64,.79,4.95,.52,9.97,1.2,13.61,2.07l.72,62.51c-5.29,4.15-12.31,7.48-19.18,9.98-6.87,2.49-13.6,3.76-20.22,3.76Zm13.89-57.58c-8.93,0-15.06,1.08-18.36,3.24-3.31,2.17-4.95,6.27-4.95,12.32s1.36,10.07,4.09,12.57c2.73,2.51,7.4,3.76,14.02,3.76,4.8,0,9.88-.73,15.25-2.2,5.38-1.47,10.84-3.29,14.82-5.54l.32-22.05c-3.97-.7-9.02-1.25-12.89-1.59-3.89-.34-7.98-.52-12.28-.52Z"/>
  <path d="M1718.65,336.05v-10.89c0-6.74-1.99-11.66-5.96-14.78-3.97-3.12-10.26-4.67-18.85-4.67-7.78,0-14.68,.27-20.73,.78-6.03,.52-11.77,1.38-17.24,2.6v-25.16c6.29-1.56,13.11-2.72,20.47-3.51,7.35-.77,16.07-1.16,26.16-1.16,15.06,0,26.3,3.6,33.75,10.76,7.44,7.18,11.16,17.94,11.16,32.29v87.66h-26.54l-1.25-11.41-.98-62.51Z"/>
  <path d="M1773.56,409.97h28.78V237.5h-28.78v172.47Z"/>
</svg>