<?xml version="1.0" encoding="utf-8"?>
<!-- Generator: Adobe Illustrator 27.0.1, SVG Export Plug-In . SVG Version: 6.00 Build 0)  -->
<svg version="1.1" id="Layer_1" xmlns="http://www.w3.org/2000/svg" xmlns:xlink="http://www.w3.org/1999/xlink" x="0px" y="0px"
	 viewBox="0 0 123 32" style="enable-background:new 0 0 123 32;" xml:space="preserve">
<style type="text/css">
	.st0{fill:#FF355A;}
	.st1{fill:#1A2129;}
</style>
<path class="st0" d="M40.2,14.2l-0.5-0.7c0.6-0.8,1.1-1.6,1.5-2.5c0.5-1-0.5-2.1-1.9-2.1h-2.9l-2.2-3.1C32.4,3.4,29.7,2,26.9,2H14.4
	c-2.9,0-5.5,1.4-7.2,3.7L4.9,8.8H2c-1.4,0-2.3,1.1-1.9,2.1c0.4,0.9,0.9,1.7,1.5,2.5l-0.5,0.7c-0.7,1-1.1,2.1-1.1,3.3v10.7
	c0,1.4,1.1,2.5,2.4,2.5h1.7c1.3,0,2.4-1.1,2.4-2.5V27c7.7,0,20.3,0,28,0v1.2c0,1.4,1.1,2.5,2.4,2.5h1.7c1.3,0,2.4-1.1,2.4-2.5V17.5
	C41.2,16.3,40.8,15.2,40.2,14.2L40.2,14.2z M32.7,19.1c-3.6,2.2-7.8,3.4-12.1,3.4s-8.4-1.2-12.1-3.4c-1-0.6-1.4-2-0.8-3.1
	c0.6-1.1,2-1.4,3-0.8c3,1.8,6.3,2.7,9.8,2.7s6.9-1,9.8-2.8c1-0.6,2.4-0.3,3,0.8C34.1,17.1,33.7,18.5,32.7,19.1L32.7,19.1z"/>
<path class="st1" d="M68,10h-6c-0.3,0-0.5,0.1-0.7,0.4l-3.3,5.4c-0.2,0.3-0.5,0.5-0.9,0.5H57c-0.6,0-1-0.5-1-1V2.8
	C56,2.4,55.6,2,55.2,2h-5.6c-0.5,0-0.8,0.4-0.8,0.8v27c0,0.5,0.4,0.8,0.8,0.8h5.6c0.5,0,0.8-0.4,0.8-0.8v-6c0-0.6,0.5-1,1-1
	c0.4,0,0.7,0.2,0.9,0.6l3.3,6.8c0.1,0.3,0.4,0.5,0.7,0.5h6.4c0.6,0,1-0.7,0.7-1.2l-5.1-9.5c-0.1-0.3-0.1-0.6,0-0.8l4.8-7.8
	C69,10.7,68.6,10,68,10z"/>
<path class="st1" d="M99.4,24.8l-2.5-14.2c-0.1-0.4-0.4-0.6-0.7-0.6h-6c-0.5,0-0.8,0.4-0.7,0.9l4.1,18.8c0.1,0.5,0.6,0.9,1.1,0.9
	H105c0.6,0,1-0.4,1.1-0.9l4.1-18.8c0.1-0.5-0.3-0.9-0.7-0.9h-5.8c-0.4,0-0.7,0.3-0.7,0.6l-2.5,14.2C100.3,25.4,99.4,25.4,99.4,24.8
	L99.4,24.8z"/>
<path class="st1" d="M112.2,16h2.2c0.5,0,0.8,0.4,0.8,0.8l0,12.9c0,0.5,0.4,0.8,0.8,0.8h5.7c0.5,0,0.8-0.4,0.8-0.8v-19
	c0-0.5-0.4-0.8-0.8-0.8h-9.5c-0.5,0-0.8,0.4-0.8,0.8v4.4C111.4,15.7,111.7,16,112.2,16z"/>
<path class="st1" d="M118.7,7.9c2.6,0,4.3-1.6,4.3-4c0-2.4-1.7-4-4.3-4s-4.3,1.6-4.3,4C114.4,6.3,116.1,7.9,118.7,7.9z"/>
<path class="st1" d="M78.7,9.6c6.3,0,10.7,4.7,10.7,10.7c0,6-4.4,10.7-10.7,10.7C72.4,31,68,26.3,68,20.3C68,14.3,72.4,9.6,78.7,9.6
	z M78.7,25.5c2.7,0,4.4-2.1,4.4-5.2c0-3.1-1.7-5.2-4.4-5.2c-2.7,0-4.4,2.1-4.4,5.2C74.3,23.4,76,25.5,78.7,25.5z"/>
</svg>
