<svg xmlns="http://www.w3.org/2000/svg" xmlns:xlink="http://www.w3.org/1999/xlink" version="1.1" id="Camada_1" x="0px" y="0px" viewBox="0 0 276 46" style="enable-background:new 0 0 276 46;" xml:space="preserve" width="276"  height="46" >
<style type="text/css">
	.st0{fill:#F0573D;}
</style>
<path class="st0" d="M0.3,45.1V0.9h13.4V9h0.5c0.9-2.7,2.5-4.8,4.7-6.4s4.8-2.3,7.8-2.3c3.1,0,5.7,0.8,7.9,2.4s3.6,3.7,4.2,6.3h0.5  c0.8-2.6,2.4-4.7,4.8-6.3s5.2-2.4,8.5-2.4c4.2,0,7.6,1.3,10.2,4c2.6,2.7,3.9,6.3,3.9,11v29.8H52.6V18.6c0-2.2-0.6-3.9-1.7-5  c-1.1-1.2-2.6-1.7-4.4-1.7c-1.9,0-3.5,0.6-4.6,1.9s-1.7,2.9-1.7,5.1v26.4H26.7V18.4c0-2.1-0.6-3.7-1.7-4.9s-2.6-1.8-4.4-1.8  s-3.3,0.7-4.5,1.9c-1.2,1.3-1.7,3-1.7,5.2V45L0.3,45.1"/>
<path class="st0" d="M84.9,45.8c-4.2,0-7.7-1.1-10.4-3.2c-2.7-2.1-4.1-5.4-4.1-9.8c0-3.3,0.8-5.8,2.2-7.8c1.5-1.9,3.5-3.4,6-4.3  s5.2-1.5,8.2-1.8c3.8-0.3,6.5-0.7,8.1-1.2s2.4-1.4,2.4-2.7v-0.1c0-1.5-0.5-2.6-1.5-3.4s-2.4-1.2-4.1-1.2c-1.9,0-3.4,0.4-4.5,1.2  s-1.9,1.9-2.2,3.3l-13-0.5c0.6-4,2.5-7.4,5.8-10c3.3-2.7,8-4,13.9-4c3.8,0,7.1,0.6,10.1,1.7c2.9,1.2,5.3,2.8,7,5s2.5,4.8,2.5,8v30  H98.1v-6.2h-0.3C95.3,43.5,91,45.8,84.9,45.8z M89.2,36.6c2.2,0,4.2-0.7,5.7-2c1.6-1.3,2.4-3.1,2.4-5.2v-4.2  c-0.8,0.4-1.9,0.8-3.3,1.1c-1.4,0.3-2.8,0.5-4.1,0.7c-4.2,0.6-6.3,2.4-6.3,5.2c0,1.5,0.5,2.6,1.6,3.3C86.3,36.2,87.6,36.6,89.2,36.6  z"/>
<path class="st0" d="M175.6,0.9l-8.2,30.4H167l-8.1-30.4h-12.6H144h-3.5c-2.4,0-5.2,0.6-7,2.1c-1.8,1.4-2.5,3.1-3.3,6h-0.5V0.9H116  v44.2h14.1v-24c0-2.6,0.8-4.8,2.5-6.4s4.4-3.7,9.6-3.8c2.7-0.1,4.6,0.5,5.4,0.7l11.5,33.5h16.1l15.2-44.2L175.6,0.9"/>
<path class="st0" d="M207.3,0.9h-14.1v44.2h14.1V0.9z"/>
<path class="st0" d="M226.1,19.8V45H212V0.8h13.4v8.1h0.5c1-2.7,2.7-4.8,5-6.4c2.4-1.6,5.2-2.3,8.4-2.3c3.1,0,5.8,0.7,8.1,2.1  s4.1,3.3,5.4,5.8c1.3,2.5,1.9,5.4,1.9,8.7V45h-14.1V19.6c0-2.5-0.6-4.4-1.9-5.8s-3-2.1-5.2-2.1s-4,0.7-5.4,2.1  C226.8,15.3,226.1,17.3,226.1,19.8z"/>
<path class="st0" d="M268.4,45c-2,0-3.7-0.7-5.1-2s-2.1-2.9-2.1-4.8c0-1.9,0.7-3.4,2.1-4.8c1.4-1.3,3.1-2,5.1-2s3.7,0.7,5.1,2  s2.1,2.9,2.1,4.8c0,1.9-0.7,3.4-2.1,4.8C272.1,44.3,270.4,45,268.4,45z"/>
</svg>