<svg xmlns="http://www.w3.org/2000/svg" xmlns:xlink="http://www.w3.org/1999/xlink" version="1.1" id="Camada_1" x="0px" y="0px" viewBox="0 0 163 44" style="enable-background:new 0 0 163 44;" xml:space="preserve" width="163"  height="44" >
<style type="text/css">
	.st0{fill:#030140;}
	.st1{fill:#F24B78;}
</style>
<path class="st0" d="M10.2,12.5v1.7h7.3v8.1h-7.3v21.5H1.8V22.3v-8.1l-0.1-2.1c0-3.8,1.1-6.7,3.3-8.9C7.1,1.1,10,0,13.5,0  c1.6,0,3.1,0.3,4.4,0.9l-0.4,7.5c-1-0.3-1.9-0.4-2.6-0.4c-1.3,0-2.4,0.4-3.2,1.3C10.6,10.1,10.2,11.1,10.2,12.5"/>
<path class="st0" d="M95.1,35.6l0.4,7.6c-1.1,0.6-2.6,0.8-4.4,0.8c-3.6,0-6.4-1.1-8.6-3.2c-2.2-2.1-3.1-5.1-3.1-8.9v-10v-8.2V5.9  h8.4v7.8h7.3v8.2h-7.3v9.6c0,1.4,0.4,2.5,1.3,3.3c0.9,0.8,2,1.3,3.3,1.3C93.4,36,94.3,35.9,95.1,35.6"/>
<path class="st0" d="M40.2,14.1h8.1v29.5h-8.1v-3.9c-0.7,1.2-1.8,2.1-3.4,2.8c-1.5,0.7-3.2,1.1-5,1.1c-2.4,0-4.6-0.7-6.7-2  c-2-1.3-3.6-3.1-4.8-5.4c-1.2-2.3-1.7-4.7-1.7-7.4c0-4.1,1.3-7.6,3.8-10.4c2.6-2.9,5.7-4.3,9.4-4.3c1.8,0,3.4,0.4,5,1.1  c1.6,0.7,2.7,1.7,3.4,2.8V14.1z M33.6,35.8c1.4,0,2.7-0.3,3.8-1c1.2-0.7,2.1-1.5,2.7-2.5v-6.9c-0.6-1.1-1.5-1.9-2.7-2.6  c-1.2-0.7-2.5-1-3.8-1c-2,0-3.7,0.7-5,2c-1.4,1.3-2,3-2,5c0,2,0.7,3.7,2,5C29.9,35.1,31.6,35.8,33.6,35.8"/>
<path class="st0" d="M64.6,43.5c-5.1,0-9.4-1.2-12.7-3.5l2.4-5.7c2.7,2,5.9,3,9.6,3c1.3,0,2.3-0.2,3-0.6c0.8-0.4,1.1-1,1.1-1.7  c0-0.6-0.3-1.1-0.9-1.5c-0.6-0.4-1.3-0.7-2.2-0.9c-0.9-0.2-1.9-0.5-3-0.7c-1.1-0.2-2.2-0.5-3.3-0.9c-1.1-0.4-2.1-0.9-3-1.4  c-0.9-0.6-1.6-1.4-2.2-2.4c-0.6-1-0.9-2.3-0.9-3.7c0-2.7,1-4.9,3.2-6.7c2.1-1.8,4.9-2.7,8.2-2.7c4.5,0,8.1,1.1,10.8,3.2l-2.3,5.9  c-1.1-0.8-2.5-1.5-4.1-2.1c-1.6-0.6-3.2-0.8-4.7-0.8c-1,0-1.9,0.2-2.5,0.6c-0.6,0.4-1,1-1,1.6c0,0.5,0.2,0.9,0.7,1.3  c0.5,0.4,1,0.7,1.8,0.9c0.7,0.2,1.5,0.5,2.5,0.7c0.9,0.3,1.9,0.5,2.8,0.8c1,0.3,1.9,0.6,2.8,1.1c0.9,0.5,1.8,1,2.5,1.6  c0.7,0.6,1.3,1.4,1.8,2.3c0.5,1,0.7,2,0.7,3.3c0,2.6-1,4.8-3.1,6.5C70.6,42.7,67.9,43.5,64.6,43.5"/>
<path class="st0" d="M125.6,27.6c0,1.1-0.1,2.2-0.2,3.2H105c0.4,1.9,1.2,3.4,2.5,4.4c1.3,1,2.9,1.5,4.8,1.5c1.3,0,2.5-0.3,3.7-0.8  c1.2-0.5,2-1.2,2.5-2.1l6.3,3.9c-1,1.9-2.7,3.3-4.9,4.4c-2.2,1-4.8,1.5-7.8,1.5c-4.2,0-7.7-1.4-10.6-4.3c-2.9-2.9-4.3-6.4-4.3-10.6  c0-4.1,1.4-7.6,4.3-10.4c2.8-2.8,6.3-4.2,10.5-4.2c3.8,0,7.1,1.3,9.7,3.9C124.3,20.6,125.6,23.8,125.6,27.6 M105.1,25.6h12.3  c-0.2-1.4-0.8-2.6-2-3.5c-1.1-0.9-2.5-1.4-4-1.4c-1.7,0-3.1,0.4-4.2,1.3C106.2,22.8,105.5,24,105.1,25.6"/>
<path class="st0" d="M143.8,14.1c1.5,0,2.7,0.2,3.5,0.5l-0.5,7.8c-1.2-0.4-2.5-0.7-3.7-0.7c-1,0-2.2,0.4-3.4,1.2  c-1.3,0.8-2.2,1.9-2.9,3.2v17.5h-8.3V14.1h8.3v4c0.7-1.2,1.7-2.1,3-2.9C141.2,14.4,142.5,14.1,143.8,14.1"/>
<path class="st1" d="M160.1,43.5h-7c-0.2,0-0.4-0.1-0.5-0.2l-2.1-2.1c-0.1-0.1-0.2-0.3-0.2-0.5v-4c0-0.4,0.3-0.7,0.7-0.7h9.1  c0.4,0,0.7,0.3,0.7,0.7v6.1C160.8,43.2,160.5,43.5,160.1,43.5"/>
</svg>