<svg xmlns:xlink="http://www.w3.org/1999/xlink" xmlns="http://www.w3.org/2000/svg" width="87" height="38" viewBox="0 0 87 38" fill="none"><g clip-path="url(#clip0_460_6919)"><path d="M23.8304 13.026C24.2041 12.6592 24.8624 12.2394 25.4014 12.4902C25.7416 12.6486 25.985 13.0926 26.0124 13.4566C26.0416 13.8478 25.8629 15.1115 22.8737 16.6903C22.6982 16.7832 22.4846 16.6503 22.4941 16.4519C22.5599 15.0967 23.0604 13.7818 23.8304 13.026ZM19.9467 29.1703C18.5125 32.5665 15.3641 34.9071 11.5251 35.4322C11.4729 35.4395 11.4223 35.4509 11.3728 35.4643C10.7921 35.539 10.202 35.5571 9.61282 35.5175C5.80186 35.2605 2.91058 31.9511 3.16731 28.1403C3.22276 27.3203 3.46588 26.5583 3.84732 25.8876C4.22755 25.1261 4.90167 24.4402 5.63571 23.9196C5.67512 23.8918 5.73016 23.9002 5.76692 23.9426C5.80653 23.9887 5.80876 24.0559 5.7718 24.0935C5.48541 24.384 5.19862 24.716 4.94189 25.0837C4.8511 25.2139 4.85313 25.3867 4.94128 25.5185C5.08671 25.7351 5.23477 25.9532 5.38751 26.1738C8.22375 30.2746 11.1152 33.5044 11.2369 33.6399C11.4802 33.9109 11.8176 34.0474 12.1552 34.0439C12.4436 34.0415 12.732 33.9371 12.9625 33.7281C13.4577 33.279 13.4599 32.4686 13.0139 31.9706C11.5493 30.3359 9.06503 27.3029 6.87185 24.0245C6.70692 23.7779 6.83732 23.4421 7.12452 23.3674C7.66032 23.2281 8.2272 23.171 8.80993 23.2108C9.87443 23.2825 10.8473 23.7647 11.5495 24.568C12.2429 25.3617 12.59 26.3757 12.5291 27.4262C12.4913 28.0796 12.9503 28.682 13.6001 28.7573C14.2972 28.8382 14.912 28.3205 14.9585 27.6289C15.0741 25.9148 14.5151 24.2584 13.385 22.9644C12.2545 21.6706 10.6879 20.8943 8.97384 20.7789C7.82586 20.702 6.71911 20.8817 5.70843 21.2674C5.07797 21.5538 4.49098 21.9279 3.98097 22.3088C3.93182 22.3455 3.86256 22.3358 3.8258 22.2866C3.79167 22.2413 3.79695 22.1776 3.83839 22.1388C4.13534 21.8615 4.45747 21.5833 4.79463 21.3261C4.94839 21.2089 4.98759 20.9944 4.89253 20.8261C3.30238 18.0069 2.22508 15.2781 2.46861 13.3475C2.57301 12.5201 2.91708 11.9375 3.5516 11.5145C4.36952 10.9693 5.98161 10.3523 7.58801 12.3462C8.01922 12.8814 8.35902 13.5427 8.56173 14.2205C8.61677 14.4049 8.8079 14.5073 8.99435 14.4594C9.45724 14.3407 9.93313 14.2548 10.3875 14.1933C10.4435 14.1858 10.4962 14.2219 10.51 14.277C10.5246 14.3365 10.4884 14.3964 10.4289 14.4112C9.8135 14.5648 9.15583 14.7845 8.53715 15.09C7.26101 15.7733 6.53143 16.7143 6.23428 17.4644C5.84471 18.4476 6.05575 19.3925 6.77171 19.8717C7.25958 20.1987 8.30459 20.5271 9.82142 19.061C10.2551 18.642 10.5914 18.1412 10.8248 17.5783C10.9129 17.3655 10.7074 17.1516 10.4907 17.23C9.83767 17.4658 9.20092 17.7932 8.68014 18.2476C8.55929 18.3528 8.3706 18.3384 8.26376 18.209C8.16201 18.0855 8.19227 17.9041 8.31129 17.7973C9.06524 17.1207 10.3558 16.8175 11.533 16.6877C12.2289 16.5941 13.0785 16.5815 14.1085 16.7188C17.0069 17.2408 19.5013 19.3363 20.3584 22.3319C21.0033 24.5865 20.8572 27.0151 19.9467 29.1703V29.1703ZM31.5602 16.5368C31.5116 15.8657 30.9266 15.3618 30.2568 15.4091C29.5851 15.4574 29.0806 16.0412 29.1291 16.7125C29.2203 17.9738 28.9266 19.1752 28.3027 20.0953C27.7394 20.9258 26.9723 21.4163 26.1424 21.4762C25.3131 21.5349 24.4834 21.1612 23.8064 20.4201C23.5255 20.1127 23.2862 19.7585 23.0904 19.3708C22.8177 18.8945 22.6223 18.3871 22.5424 17.9362C22.5339 17.8879 22.5556 17.8387 22.6078 17.8182C22.6647 17.7961 22.7332 17.816 22.7519 17.8657C22.8617 18.1594 23.0234 18.4718 23.2251 18.7816C23.3561 18.9824 23.6218 19.0452 23.8346 18.9349C27.9882 16.7834 28.5716 14.5713 28.4115 13.0012C28.2466 11.381 26.9902 10.1333 25.5117 9.99844C24.2827 9.88571 23.0831 10.3439 22.1232 11.2866C20.8564 12.5296 20.0974 14.4913 20.0533 16.5457C20.048 16.787 19.769 16.9109 19.5874 16.7519C18.3464 15.6644 16.8568 14.8818 15.2491 14.4748C15.1514 14.4295 15.0466 14.3954 14.9351 14.3769C14.7822 14.3513 14.6329 14.3302 14.4844 14.3097C13.517 14.1405 12.5161 14.1078 11.5081 14.2231C11.2743 14.25 11.0576 14.0962 11.0005 13.8679C10.7265 12.7744 10.1984 11.7013 9.48588 10.817C7.5155 8.37152 4.6555 7.84892 2.19969 9.4866C0.985089 10.2962 0.241704 11.526 0.0505766 13.0427C-0.245965 15.3931 0.762481 18.5697 3.05032 22.5137C3.147 22.6803 3.12588 22.8939 2.98959 23.0298C1.70898 24.3074 0.866675 26.0338 0.735669 27.976C0.38835 33.1281 4.29701 37.602 9.44891 37.9495C9.74282 37.9692 10.0369 37.9778 10.3302 37.9751C11.0259 37.9686 11.7179 37.8992 12.3967 37.7673C12.4283 37.7612 12.459 37.7527 12.4897 37.7444C16.9015 36.9378 20.5002 34.1245 22.1923 30.1188C22.981 28.2514 23.3025 26.2187 23.1514 24.2105C23.1256 23.8691 22.9676 23.5545 22.72 23.318C22.2319 22.8523 21.8106 22.3137 21.5442 21.8079C21.5178 21.7577 21.52 21.698 21.5626 21.6609C21.6089 21.6204 21.6823 21.6225 21.719 21.6716C22.0672 22.1355 22.5589 22.6161 23.1221 23.0254C24.0018 23.617 24.9873 23.9294 26.0065 23.9199C26.1101 23.9188 26.2141 23.9148 26.3181 23.9073C27.9078 23.7923 29.329 22.9246 30.32 21.4632C31.2502 20.0914 31.6903 18.342 31.5602 16.5368" fill="#39AE6E"/><path d="M38.7765 34.5225C37.7282 35.0745 36.7019 35.2445 35.8017 35.039C35.5294 34.9766 35.4662 34.6165 35.7053 34.4721C37.5227 33.3749 39.1628 32.0023 40.557 30.3835C40.9774 29.8952 40.9987 29.1522 40.5482 28.6914C40.0402 28.1716 39.2097 28.2094 38.7483 28.7487C37.3537 30.3792 35.6738 31.7289 33.7985 32.7589C33.6228 32.8553 33.3975 32.7595 33.3512 32.5645C33.1909 31.8904 33.2301 31.1586 33.4918 30.4548C34.4701 27.8231 38.1249 26.1403 43.3857 25.848C43.5851 25.8371 43.7444 26.0184 43.707 26.2146C42.7219 31.3925 40.5425 33.5924 38.7765 34.5225ZM32.178 9.70621C32.1526 9.66437 32.1549 9.61075 32.1963 9.57256C32.2412 9.53133 32.3121 9.52503 32.3476 9.56484C32.6527 9.90627 33.0725 10.2465 33.5549 10.5329C33.7586 10.6537 34.0211 10.5184 34.0343 10.282C34.1907 7.48722 35.1711 4.94225 36.6863 3.49346C37.5639 2.654 38.8291 2.2821 40.0705 2.4974C40.5783 2.58535 41.0322 2.75251 41.4194 2.9938C43.2321 4.1233 44.0328 6.4085 43.3229 8.42763C42.6573 10.3212 41.1271 11.753 39.1175 12.2922C37.9476 12.606 36.7184 12.5339 35.5765 12.1293C35.0451 11.9408 34.5426 11.6989 34.0729 11.4107C33.2947 11.0102 32.5658 10.3444 32.178 9.70621V9.70621ZM46.4283 15.6984C46.4894 15.1323 46.1455 14.5835 45.5819 14.4064C45.4489 14.3646 45.3142 14.3479 45.1826 14.3516C45.1292 14.3516 45.0758 14.3542 45.0213 14.3615C44.4544 14.4381 44.033 14.8933 43.9741 15.4376C43.0459 18.1806 41.2721 19.9523 39.4061 19.9696C37.1762 19.9903 35.1922 17.5891 34.3887 14.2862C34.5199 14.3384 34.6525 14.3881 34.7866 14.435C36.9276 15.188 39.2343 15.0618 41.281 14.0798C43.3278 13.0978 44.8696 11.3774 45.6223 9.23601C46.7076 6.14892 45.482 2.65359 42.7083 0.925325C42.0533 0.516869 41.3058 0.237996 40.4873 0.0960218C38.4885 -0.252719 36.436 0.360067 35.0015 1.73208C33.3413 3.32 32.202 5.75367 31.768 8.52492C31.7355 8.73229 31.4611 8.77962 31.3575 8.59702C31.2675 8.43839 31.1826 8.2759 31.103 8.10976C30.1995 6.22692 30.0773 4.10705 30.7569 2.13444C30.9582 1.55029 30.7364 0.884903 30.1871 0.60197C29.5151 0.255666 28.7164 0.589582 28.4741 1.27853C27.5599 3.87876 27.7131 6.67925 28.9053 9.16411C29.566 10.541 30.5018 11.7296 31.6473 12.6714C31.6475 12.6735 31.6477 12.6755 31.6479 12.6773C32.1945 13.0931 32.7872 13.4177 33.3155 13.6173C33.3654 13.6362 33.3906 13.6998 33.3721 13.7579C33.3551 13.8115 33.3073 13.8361 33.2588 13.8308C32.9417 13.7956 32.5938 13.7057 32.2453 13.5728C32.0135 13.4845 31.7736 13.6801 31.8159 13.9244C32.6753 18.8807 35.7262 22.441 39.4287 22.4069C41.1045 22.3913 42.6654 21.6314 43.9379 20.2889C44.0417 20.1792 44.2255 20.2537 44.2247 20.4047C44.2209 21.1371 44.1967 21.9231 44.1415 22.7384C44.1171 23.0975 43.8279 23.3853 43.4683 23.4022C40.2588 23.5525 37.5759 24.1606 35.4806 25.2147C32.7955 26.5654 31.6747 28.3481 31.2072 29.6056C30.7449 30.849 30.7008 32.1504 31.0305 33.34C31.1247 33.6802 30.9311 34.0342 30.5956 34.1435C28.7331 34.7506 26.7505 35.0788 24.7127 35.0977C24.6881 35.0979 24.6627 35.0969 24.639 35.0981C23.8182 35.1056 23.1936 35.9233 23.5198 36.7868C23.6955 37.2519 24.1604 37.5399 24.6577 37.5354C24.6837 37.535 24.7093 37.535 24.735 37.5348C27.4967 37.5094 30.1713 36.9769 32.6306 35.9979C32.6338 36.0009 32.6369 36.0038 32.6401 36.0068C33.2415 35.7505 33.758 35.4633 34.371 35.0896C34.4232 35.0577 34.4972 35.068 34.5431 35.1217C34.5853 35.1712 34.5851 35.2358 34.5461 35.276C34.2313 35.6008 33.8813 35.9105 33.509 36.1827C33.3333 36.3113 33.3368 36.5771 33.5206 36.6937C34.4466 37.2807 35.5009 37.5738 36.6091 37.5635C37.6838 37.5535 38.8082 37.2606 39.9119 36.6793C48.0164 32.4118 46.6962 18.0082 46.4283 15.6984Z" fill="#39AE6E"/><path d="M58.4655 15.3445C59.1386 14.283 60.1271 13.4507 61.0874 13.1767C61.4607 13.0703 61.9234 13.0288 62.2911 13.1769C62.781 13.3743 62.8839 14.0489 62.6802 14.4918C62.3782 15.1487 61.166 15.7517 58.6909 15.7483C58.485 15.7481 58.355 15.5188 58.4655 15.3445ZM66.7894 18.7243C67.5945 17.8125 68.6385 17.2245 69.6333 17.1479C69.9286 17.1248 70.2985 17.142 70.6566 17.2834C71.2131 17.503 71.519 18.1395 71.2659 18.6816C71.2355 18.7478 71.1969 18.8124 71.1491 18.8736C70.7021 19.4473 69.3721 19.7575 66.9348 19.1729C66.7345 19.1248 66.6531 18.8784 66.7894 18.7243V18.7243ZM49.4996 14.1527C49.5209 14.1084 49.8759 13.3648 50.2578 12.3458C50.3217 12.175 50.5013 12.0765 50.6794 12.1169C50.8076 12.1461 50.9396 12.1735 51.0757 12.1987C51.6621 12.3076 52.039 12.4945 52.1956 12.7536C52.5824 13.3928 52.1081 14.9285 51.7271 16.1628C51.2039 17.8576 50.7095 19.4583 51.4295 20.7399C51.6773 21.1815 52.1867 21.762 53.2043 22.0195C53.4769 22.0886 53.7464 22.1217 54.0098 22.1193C54.3836 22.1158 54.7449 22.0403 55.0865 21.895C55.3325 21.7906 55.4633 21.5231 55.3993 21.2638C55.2793 20.7791 55.2167 20.2941 55.2232 19.8682C55.224 19.8133 55.2537 19.7636 55.3071 19.752C55.3652 19.7392 55.4265 19.7748 55.4349 19.8337C55.5074 20.3327 55.6725 20.8971 55.9142 21.4482C56.4386 22.3799 57.2031 23.0987 58.1541 23.5301C58.7961 23.8215 59.4761 23.9562 60.1619 23.9499C60.7945 23.944 61.4313 23.815 62.0477 23.5804C62.235 23.5092 62.3648 23.3365 62.3743 23.1364C62.4022 22.5484 62.5066 21.9704 62.6743 21.5002C62.6926 21.4486 62.7367 21.411 62.7911 21.4171C62.85 21.4236 62.8967 21.4772 62.886 21.5355C62.7899 22.0518 62.7659 22.6673 62.8267 23.2924C62.9904 24.6407 63.6084 25.8256 64.6803 26.6405C65.5307 27.2872 66.6634 27.6173 67.9467 27.6053C68.1346 27.6037 68.3263 27.5943 68.5209 27.5775C68.7878 27.5541 69.04 27.4371 69.2293 27.2476C69.7515 26.7256 70.2506 26.1809 70.725 25.6142L71.1418 25.1164C71.2781 25.0091 71.4239 25.1271 71.3275 25.2713L69.4479 27.8498C69.3784 27.9455 69.3226 28.0521 69.2949 28.1671C69.1753 28.6641 69.378 29.2042 69.8415 29.4895C70.3897 29.8263 71.112 29.6461 71.4936 29.1282C71.7122 28.8315 71.9218 28.5406 72.1279 28.2554L73.528 25.9891C73.8444 25.4773 74.2122 24.9971 74.6351 24.5688C75.3759 23.8185 76.195 23.2289 76.9939 22.884C77.9511 22.4711 78.7857 22.4444 79.2849 22.8105C80.5863 23.7647 79.7905 26.8895 78.2093 29.0457C77.5603 29.9311 76.7907 30.6936 75.9832 31.2515C75.4614 31.6123 75.2798 32.3278 75.5979 32.8768C75.8294 33.277 76.245 33.4918 76.6666 33.488C76.9006 33.4858 77.1366 33.4163 77.344 33.2737C78.3819 32.5614 79.3605 31.5976 80.175 30.487C82.8611 26.8235 83.1034 22.588 80.7264 20.8449C79.7663 20.1412 78.5422 19.9427 77.1988 20.2555C77.1212 20.2736 77.053 20.2047 77.0741 20.1278C77.212 19.6253 77.046 19.0675 76.5968 18.7688C76.0236 18.3879 75.253 18.5561 74.8896 19.1354L72.6806 22.653C72.3587 23.1657 71.9551 23.6272 71.465 23.9826C70.7066 24.5328 69.7617 24.9301 68.7675 25.0926C67.6877 25.2693 66.7112 25.1227 66.1554 24.7004C65.3544 24.0913 65.0757 22.9851 65.3034 21.7407C65.4202 21.0643 65.6911 20.3902 66.0303 19.9275C66.0567 19.8913 66.1026 19.8747 66.1492 19.8962C66.1995 19.9196 66.2296 19.9773 66.2085 20.0209C66.085 20.2775 65.9798 20.5787 65.9024 20.9051C65.8376 21.1772 66.0051 21.4545 66.2769 21.5213C70.54 22.569 72.4182 21.4011 73.243 20.131C74.1655 18.7107 73.8777 16.9107 73.0817 16.0574C72.1728 15.0833 70.8843 14.608 69.4463 14.7177C67.5076 14.8668 65.5955 16.0649 64.3323 17.9224C63.8122 18.6869 63.4195 19.5599 62.7724 20.2297C62.2183 20.8031 61.515 21.2709 60.7287 21.4449C60.2061 21.5605 59.6522 21.5337 59.1611 21.3105C58.4441 20.9853 57.923 20.2966 57.6945 19.3712C57.6177 19.0606 57.5781 18.7367 57.5714 18.406C57.5746 18.3946 57.5775 18.3834 57.5809 18.3721C57.5726 17.806 57.6616 17.2414 57.8316 16.8024C57.8476 16.7608 57.8876 16.7326 57.9382 16.7415C57.9928 16.751 58.0369 16.7986 58.0282 16.8463C57.9729 17.138 57.952 17.4715 57.9658 17.8223C57.9737 18.0176 58.1326 18.1763 58.3282 18.1805C62.8821 18.2805 64.4863 16.6842 65.0065 15.2365C65.579 13.6424 64.8868 11.9562 63.9166 11.3081C62.9205 10.6425 61.6779 10.4737 60.4188 10.833C58.5437 11.368 56.7949 12.9876 55.8547 15.0599C55.4954 15.8515 55.2695 16.6779 55.1791 17.5001C55.1231 18.0103 54.9886 18.5124 54.7441 18.9635C54.5938 19.2408 54.4262 19.4622 54.244 19.5907C54.0811 19.7059 53.7951 19.7246 53.6357 19.5893C53.3357 19.335 53.5697 18.6615 53.6351 18.3668C53.684 18.1464 53.7348 17.9262 53.8012 17.7103L54.0559 16.8816C54.608 15.0939 55.2338 13.067 54.2814 11.4925C53.7492 10.6122 52.8202 10.0435 51.5205 9.80243C51.5185 9.80202 51.5166 9.80161 51.5146 9.80121C49.4482 9.41814 48.9587 8.3906 48.8496 7.82392C48.8187 7.66387 48.8929 7.49509 49.0419 7.42948C49.2507 7.33747 49.4709 7.45873 49.5215 7.66103C49.726 8.47997 50.211 9.00298 50.7081 9.33486C50.8829 9.45165 51.1226 9.34319 51.1529 9.13521C51.3397 7.84809 51.2691 6.28881 50.0347 5.49201C49.2314 4.97306 48.3071 4.96961 47.5625 5.48307C46.6716 6.09768 46.2498 7.3395 46.513 8.5732C46.6286 9.11469 46.9899 10.1302 48.1036 10.9797C48.3778 11.1446 48.653 11.2786 48.9087 11.3751C48.9477 11.3899 48.9674 11.4395 48.953 11.4846C48.9398 11.5264 48.9026 11.5455 48.8644 11.5413C48.694 11.5224 48.5116 11.483 48.3256 11.4263C48.1619 11.3765 47.987 11.4596 47.9261 11.6193C47.5999 12.4727 47.306 13.0904 47.3019 13.0991C47.0108 13.7058 47.2672 14.4333 47.8741 14.7244C48.4809 15.0163 49.2087 14.7595 49.4996 14.1527Z" fill="#39AE6E"/><path d="M86.8172 27.3215C86.7284 26.6544 86.1136 26.1853 85.449 26.2736C84.7818 26.362 84.3124 26.9745 84.401 27.6418C84.8084 30.7158 83.0237 33.7962 80.1567 34.9661C79.7262 35.1416 79.2669 35.2795 78.7914 35.375C74.6652 36.2053 70.7287 34.0536 66.724 31.5776C66.3139 31.3242 65.887 31.0569 65.445 30.7802C61.317 28.1948 55.6628 24.6536 50.543 24.3142C49.866 24.2681 49.2906 24.7783 49.2461 25.4494C49.2016 26.1213 49.71 26.7018 50.3813 26.746C54.8896 27.045 60.2427 30.3978 64.1514 32.8457C64.5974 33.1249 65.0286 33.3949 65.4424 33.6508C69.1693 35.9549 72.8677 38.0016 76.9188 38C77.6898 37.9998 78.4738 37.9253 79.273 37.7642C79.8982 37.6385 80.5051 37.4563 81.0774 37.2227C84.954 35.6407 87.3682 31.4765 86.8172 27.3215Z" fill="#39AE6E"/></g><defs><clipPath id="clip0_460_6919"><rect width="86.8952" height="38" fill="white"/></clipPath></defs></svg>