<svg xmlns:xlink="http://www.w3.org/1999/xlink" xmlns="http://www.w3.org/2000/svg" width="754" height="147" viewBox="0 0 754 147" fill="none">
<g clip-path="url(#clip0_321_683)">
<path d="M71.2539 34.2283C68.3237 31.3781 64.772 29.1879 60.8547 27.8154C56.4817 26.313 51.8638 25.5758 47.2201 25.6386H-1.54668e-05V51.1596C-0.00137395 51.4199 0.070658 51.6757 0.208425 51.8998C0.348108 52.1218 0.542665 52.3072 0.774831 52.4396C1.00678 52.5754 1.27355 52.6462 1.54514 52.6442H4.21858V118.693C4.20375 118.892 4.23356 119.091 4.30597 119.278C4.37837 119.464 4.4917 119.634 4.63824 119.775C4.78479 119.916 4.96114 120.024 5.15533 120.094C5.34952 120.164 5.55701 120.192 5.76374 120.178H47.2201C51.8638 120.241 56.4817 119.504 60.8547 118.001C64.7731 116.629 68.3251 114.437 71.2539 111.584C74.2419 108.62 76.4995 105.049 77.8604 101.135C79.3709 96.9962 80.1261 92.2696 80.1261 86.9553V58.8743C80.1261 53.5629 79.3709 48.8362 77.8604 44.6945C76.5003 40.7751 74.2427 37.1986 71.2539 34.2283V34.2283ZM47.7865 85.6013C47.8497 87.1482 47.5862 88.6914 47.0117 90.1378C46.7839 90.6682 46.4493 91.1501 46.0271 91.5558C45.6048 91.9615 45.1033 92.283 44.5512 92.5018C43.0654 93.011 41.4921 93.243 39.9158 93.1853H35.8376V52.6617H39.9158C40.7606 52.6582 41.6049 52.7033 42.4442 52.7966C43.1413 52.8754 43.8259 53.0348 44.4833 53.2712C45.0599 53.4742 45.5687 53.8232 45.9559 54.2812C46.4219 54.6372 46.7854 55.1018 47.0117 55.6308C47.2705 56.263 47.4589 56.9197 47.5736 57.59C47.7235 58.4604 47.7947 59.3417 47.7865 60.2239V85.6013Z" fill="black"/>
<path d="M162.187 25.656H87.8384V52.5267C87.8449 52.903 87.9948 53.2639 88.2598 53.5411C88.398 53.696 88.5709 53.8187 88.7655 53.9002C88.9601 53.9816 89.1714 54.0196 89.3836 54.0113H110.042V91.8227H87.8384V118.693C87.8384 118.875 87.8612 119.057 87.9064 119.233C87.9534 119.412 88.0506 119.574 88.1873 119.703C88.3313 119.842 88.4982 119.957 88.6812 120.043C88.901 120.14 89.1417 120.187 89.3836 120.178H163.732V93.3073C163.753 93.0224 163.679 92.7386 163.519 92.4975C163.38 92.3184 163.215 92.1587 163.03 92.0229C162.778 91.8726 162.483 91.8025 162.187 91.8227H141.525V54.0026H163.728V27.1406C163.742 26.9422 163.712 26.7431 163.639 26.5569C163.566 26.3706 163.453 26.2015 163.306 26.0608C163.16 25.9202 162.984 25.8113 162.79 25.7415C162.596 25.6716 162.389 25.6425 162.183 25.656H162.187Z" fill="black"/>
<path d="M247.352 25.8563C247.1 25.706 246.805 25.6359 246.509 25.656H232.186L242.037 0.0174063H220.876C220.552 0.0162053 220.235 0.110838 219.97 0.288433C219.704 0.466027 219.501 0.717971 219.389 1.01004L209.919 25.6734H168.648V52.5441C168.648 52.8057 168.72 53.0627 168.857 53.2886C168.997 53.5106 169.191 53.696 169.423 53.8284C169.656 53.9629 169.922 54.0322 170.194 54.0287H199.031L194.391 66.1666H168.648V93.0373C168.647 93.2976 168.719 93.5533 168.857 93.7774C168.995 94.0004 169.19 94.186 169.423 94.3173C169.655 94.453 169.922 94.5239 170.194 94.5219H183.479L173.628 120.178H194.794C195.118 120.178 195.434 120.082 195.7 119.904C195.966 119.725 196.168 119.473 196.28 119.181L205.746 94.5219H248.054V67.6512C248.057 67.3894 247.985 67.1318 247.846 66.9068C247.718 66.6986 247.55 66.5155 247.352 66.3669C247.1 66.2166 246.805 66.1465 246.509 66.1666H216.634L221.302 54.0026H248.036V27.1406C248.039 26.8787 247.967 26.6211 247.828 26.3961C247.705 26.1895 247.544 26.0064 247.352 25.8563Z" fill="black"/>
<path d="M331.688 25.8563C331.436 25.7049 331.141 25.6347 330.845 25.656H252.971V49.8274C252.969 50.0884 253.042 50.3447 253.184 50.5676C253.32 50.7903 253.514 50.976 253.746 51.1074C253.979 51.2431 254.247 51.3139 254.52 51.312H258.599V118.693C258.593 118.92 258.617 119.147 258.671 119.368C258.719 119.546 258.816 119.708 258.952 119.839C259.087 119.969 259.256 120.062 259.441 120.108C259.671 120.16 259.907 120.183 260.144 120.178H332.381V96.0065C332.395 95.8077 332.365 95.6083 332.292 95.4217C332.219 95.2351 332.105 95.0657 331.958 94.925C331.811 94.7843 331.634 94.6755 331.44 94.606C331.246 94.5364 331.038 94.5078 330.831 94.5219H290.218V84.3954H323.948V62.9232C323.95 62.6623 323.877 62.4059 323.735 62.1831C323.61 61.9731 323.442 61.7895 323.241 61.6432C322.99 61.4903 322.695 61.4186 322.398 61.4386H290.227V51.312H332.367V27.1406C332.369 26.8784 332.295 26.6208 332.154 26.3961C332.036 26.1894 331.877 26.0061 331.688 25.8563V25.8563Z" fill="black"/>
<path d="M410.169 33.0137C407.405 30.5408 403.892 28.6949 399.629 27.4759C395.367 26.2568 390.33 25.6502 384.517 25.656H337.297V51.1771C337.283 51.3755 337.314 51.5746 337.386 51.7608C337.459 51.9471 337.572 52.1162 337.719 52.2569C337.865 52.3975 338.041 52.5064 338.235 52.5762C338.429 52.6461 338.636 52.6752 338.842 52.6617H341.516V118.693C341.52 119.069 341.67 119.429 341.937 119.703C342.075 119.86 342.247 119.984 342.442 120.066C342.637 120.148 342.848 120.186 343.061 120.178H373.275V92.4975H376.221C377.269 94.4189 378.302 96.3534 379.32 98.3009C381.096 101.729 382.876 105.151 384.658 108.567C386.721 112.166 388.667 114.888 390.494 116.734C392.286 118.561 394.572 119.871 397.096 120.518C399.673 121.194 403.07 121.53 407.287 121.528H416.141C416.348 121.541 416.555 121.512 416.749 121.442C416.942 121.372 417.118 121.263 417.265 121.123C417.411 120.982 417.525 120.813 417.597 120.627C417.67 120.44 417.7 120.241 417.686 120.043V93.1854H411.506C410.664 93.2171 409.839 92.9524 409.186 92.4409C408.463 91.8245 407.825 91.1223 407.287 90.3512C406.689 89.376 406.068 88.3833 405.474 87.4037C406.907 86.4807 408.248 85.4328 409.48 84.2735C412.381 81.4932 414.629 78.1487 416.073 74.4647C417.62 70.6393 418.391 66.2509 418.388 61.2993V55.9008C418.388 50.6764 417.71 46.1777 416.354 42.4045C415.134 38.8302 413.008 35.6032 410.169 33.0137V33.0137ZM380.938 52.862C381.8 52.9899 382.607 53.3497 383.265 53.8998C383.924 54.4499 384.406 55.1678 384.658 55.9704C384.981 57.1369 385.123 58.3428 385.079 59.5491V61.2906C385.079 63.3629 384.871 64.9346 384.449 66.0187C384.261 66.5326 383.954 66.9992 383.552 67.3843C383.151 67.7693 382.665 68.0629 382.129 68.2434C381.006 68.6468 379.367 68.85 377.213 68.8529H373.275V52.6617H377.775C378.833 52.659 379.889 52.7259 380.938 52.862Z" fill="black"/>
<path d="M500.323 25.8563C500.071 25.7049 499.776 25.6347 499.48 25.656H421.619V49.8274C421.617 50.0884 421.691 50.3447 421.832 50.5676C421.969 50.7903 422.162 50.976 422.394 51.1074C422.626 51.2425 422.893 51.3134 423.164 51.312H427.243V118.693C427.237 118.92 427.261 119.147 427.315 119.368C427.36 119.547 427.458 119.71 427.596 119.838C427.728 119.973 427.898 120.067 428.085 120.108C428.315 120.16 428.552 120.183 428.788 120.178H501.029V96.0065C501.043 95.8077 501.013 95.6083 500.94 95.4217C500.867 95.2351 500.753 95.0657 500.607 94.925C500.46 94.7843 500.283 94.6755 500.089 94.606C499.894 94.5364 499.687 94.5078 499.48 94.5219H458.866V84.3954H492.597V62.9232C492.599 62.6623 492.525 62.4059 492.384 62.1831C492.259 61.9731 492.091 61.7895 491.89 61.6432C491.639 61.4903 491.343 61.4186 491.047 61.4386H458.875V51.312H501.016V27.1406C501.017 26.8784 500.944 26.6208 500.803 26.3961C500.68 26.1882 500.517 26.0049 500.323 25.8563V25.8563Z" fill="black"/>
<path d="M583.104 25.656H554.711V35.3777C554.711 37.72 554.711 39.5616 554.784 40.9156C554.83 42.2758 554.994 43.6301 555.273 44.9644C555.557 46.3141 556.049 48.2268 556.75 50.7025C557.451 53.1783 558.508 56.7352 559.922 61.3733C561.185 65.5441 562.792 71.0123 564.743 77.7778H561.571C560.407 75.3006 559.247 72.8582 558.087 70.4855C556.577 67.4263 555.124 64.4107 553.728 61.4386C552.332 58.4665 550.928 55.5641 549.514 52.7313C548.109 49.8928 546.774 47.1238 545.508 44.4246C544.242 41.7253 542.977 39.1131 541.711 36.588C540.448 34.0687 539.254 31.6379 538.127 29.2957C537.738 28.4238 537.268 27.5874 536.722 26.7967C536.42 26.3572 535.976 26.0252 535.458 25.8519C534.715 25.6892 533.953 25.6218 533.192 25.6517H510.142V118.689C510.121 118.974 510.196 119.258 510.355 119.499C510.508 119.691 510.699 119.852 510.917 119.973C511.15 120.106 511.416 120.175 511.687 120.174H540.08V110.051C540.08 107.709 540.056 105.931 540.007 104.718C539.952 103.425 539.789 102.138 539.518 100.87C539.237 99.5199 538.745 97.6522 538.041 95.2664C537.337 92.8806 536.307 89.4819 534.95 85.0702C533.654 80.8733 531.996 75.1874 529.966 68.0562H533.328C535.561 72.6101 537.656 76.9536 539.613 81.0866C541.728 85.5418 543.742 89.7954 545.658 93.8471C547.573 97.8989 549.446 101.793 551.276 105.528C553.107 109.263 554.865 112.891 556.551 116.412C557.394 118.21 558.069 119.294 558.585 119.651C559.102 120.008 559.945 120.191 561.186 120.191H584.658V27.1406C584.672 26.9422 584.642 26.7431 584.569 26.5569C584.497 26.3706 584.383 26.2015 584.237 26.0609C584.09 25.9202 583.914 25.8113 583.721 25.7415C583.527 25.6717 583.32 25.6425 583.113 25.656H583.104Z" fill="black"/>
<path d="M669.538 25.656H592.379V52.5267C592.376 52.7885 592.448 53.0462 592.588 53.2712C592.726 53.493 592.919 53.6785 593.15 53.811C593.384 53.945 593.652 54.0143 593.925 54.0113H615.847V118.693C615.833 118.892 615.863 119.092 615.936 119.278C616.009 119.465 616.123 119.634 616.27 119.775C616.416 119.916 616.593 120.024 616.787 120.094C616.982 120.163 617.19 120.192 617.396 120.178H647.611V54.0026H671.078V27.1406C671.092 26.9422 671.062 26.7431 670.989 26.5569C670.917 26.3706 670.803 26.2015 670.657 26.0608C670.51 25.9202 670.334 25.8113 670.141 25.7415C669.947 25.6716 669.74 25.6425 669.533 25.656H669.538Z" fill="black"/>
<path d="M753.787 26.3961C753.661 26.1882 753.495 26.005 753.298 25.8563C753.046 25.706 752.751 25.6359 752.455 25.656H674.595V49.8274C674.591 50.088 674.663 50.3443 674.803 50.5675C674.941 50.7893 675.134 50.9748 675.365 51.1074C675.599 51.2427 675.867 51.3135 676.14 51.312H680.218V118.693C680.212 118.92 680.236 119.147 680.29 119.368C680.336 119.547 680.433 119.71 680.571 119.838C680.704 119.972 680.874 120.066 681.061 120.108C681.292 120.16 681.53 120.183 681.767 120.178H754V96.0065C754.014 95.808 753.984 95.609 753.911 95.4228C753.838 95.2365 753.725 95.0674 753.579 94.9267C753.432 94.7861 753.256 94.6772 753.062 94.6074C752.869 94.5375 752.661 94.5084 752.455 94.5219H711.859V84.3953H745.59V62.9232C745.592 62.6622 745.518 62.4059 745.377 62.183C745.252 61.9743 745.086 61.7909 744.888 61.6432C744.636 61.4914 744.341 61.4198 744.045 61.4386H711.873V51.312H754.014V27.1406C754.011 26.8771 753.933 26.6194 753.787 26.3961V26.3961Z" fill="black"/>
</g>
<defs>
<clipPath id="clip0_321_683">
<rect width="754" height="147" fill="white"/>
</clipPath>
</defs>
</svg>