<svg xmlns:xlink="http://www.w3.org/1999/xlink" xmlns="http://www.w3.org/2000/svg" width="75" height="60" viewBox="0 0 75 60" fill="none">
<path d="M59.0247 26.1688L56.5677 26.6531C56.209 25.0928 55.5275 24.1422 53.8417 24.1422C51.1874 24.1422 50.0754 26.8862 50.0754 30.0247C50.4849 29.3083 51.0864 28.7205 51.8121 28.3276C52.5377 27.9347 53.3587 27.7522 54.1824 27.8009C54.8779 27.7825 55.5694 27.912 56.2111 28.1808C56.8528 28.4496 57.4301 28.8516 57.9048 29.3602C58.3795 29.8689 58.7408 30.4725 58.9648 31.1312C59.1888 31.7899 59.2703 32.4886 59.2041 33.1812C59.2504 33.9219 59.1399 34.6641 58.8797 35.3592C58.6195 36.0543 58.2154 36.6866 57.694 37.2148C57.1726 37.7429 56.5456 38.1551 55.8539 38.4243C55.1622 38.6934 54.4216 38.8135 53.6803 38.7768C49.8602 38.7768 47.6543 36.1404 47.6543 30.8139C47.6543 24.8058 50.3086 22.1336 53.8596 22.1336C55.0757 22.0055 56.294 22.3546 57.2576 23.1075C58.2212 23.8603 58.8548 24.9579 59.0247 26.1688ZM56.7471 33.3426C56.8179 32.895 56.7898 32.4373 56.6647 32.0018C56.5397 31.5662 56.3207 31.1633 56.0233 30.8214C55.7258 30.4795 55.3571 30.2069 54.943 30.0228C54.529 29.8387 54.0796 29.7475 53.6265 29.7557C52.7879 29.7694 51.9806 30.0765 51.3449 30.6237C50.7093 31.1709 50.2855 31.9235 50.1472 32.7508C50.3803 35.1002 51.7434 36.8757 53.7341 36.8757C55.7248 36.8757 56.7471 35.4768 56.7471 33.2529V33.3426Z" fill="black"/>
<path d="M44.2836 36.5349V38.6512H33.2539V36.7143C35.2241 35.3557 37.0941 33.8573 38.8495 32.2307C39.6286 31.6246 40.2676 30.8572 40.7226 29.9812C41.1776 29.1052 41.438 28.1412 41.4858 27.1552C41.5435 26.7766 41.5151 26.3899 41.4027 26.0238C41.2902 25.6577 41.0967 25.3217 40.8364 25.0408C40.5762 24.7598 40.2559 24.5412 39.8995 24.4011C39.543 24.2611 39.1596 24.2033 38.7777 24.2319C38.397 24.1946 38.0127 24.2407 37.6516 24.3668C37.2904 24.4929 36.9611 24.6962 36.6863 24.9624C36.4116 25.2286 36.1981 25.5514 36.0606 25.9083C35.9232 26.2653 35.865 26.648 35.8903 27.0297C35.8968 27.5002 35.9508 27.9689 36.0517 28.4286L33.5409 28.1954C33.4375 27.7726 33.3833 27.3393 33.3794 26.9041C33.3794 24.3754 35.1729 22.1694 38.7598 22.1694C41.7907 22.1694 44.0146 23.7118 44.0146 27.0655C43.8967 28.3174 43.5279 29.5327 42.9301 30.6388C42.3324 31.745 41.5179 32.7195 40.5353 33.504C39.3415 34.6033 38.0709 35.6162 36.7332 36.5349H44.2836Z" fill="black"/>
<path d="M29.397 42.8837H16V45H29.397V42.8837Z" fill="black"/>
<path d="M29.397 16H16V18.1163H29.397V16Z" fill="black"/>
<path d="M29.2527 22.3308V38.6512H26.2038L19.4784 27.3166C19.1011 26.681 18.7771 26.0151 18.5099 25.3259C18.5099 25.6128 18.5099 25.9177 18.5099 26.2585C18.5099 26.5992 18.5099 26.9938 18.5099 27.496V38.6512H16.1426V22.3308H19.2094L25.9707 33.6654C26.348 34.3011 26.6719 34.9669 26.9391 35.6561C26.9391 35.0822 26.9391 34.4904 26.9391 33.504V22.3308H29.2527Z" fill="black"/>
</svg>