<?xml version="1.0" encoding="utf-8"?>
<!-- Generator: Adobe Illustrator 27.0.1, SVG Export Plug-In . SVG Version: 6.00 Build 0)  -->
<svg version="1.1" id="ff9bdafa-ff9a-4cb0-bbd8-b34da612ef09"
	 xmlns="http://www.w3.org/2000/svg" xmlns:xlink="http://www.w3.org/1999/xlink" x="0px" y="0px" viewBox="0 0 96 62.7"
	 style="enable-background:new 0 0 96 62.7;" xml:space="preserve">
<path d="M23.8,3.6l-2.6,7.3c-1.4,3.9-2.9,8.5-5.1,15.3L21,5l-4-1.5L5.2,36.3L8,37.4l2.6-7.3c1.4-3.8,2.8-8.2,5.1-15.2l-5,21l4,1.5
	l12-32.7L23.8,3.6z"/>
<path d="M31,18.4l-5.5,15.1c-0.7,0.3-1.4,0.6-2.2,0.7c0-0.3,0.1-0.5,0.2-0.8l8.9-24.7c0.8-2.2,1.2-2.2,1.5-2.2s0.6,0.1,0.6,0.8
	c-0.1,1.1-0.4,2.2-0.8,3.2l-0.3,0.8l3,1.1l0.2-0.7c0.6-1.5,0.9-3,1-4.6c0-1-0.3-2-1-2.7c-0.7-0.7-1.6-1-2.6-1C33,3.6,32,4,31.2,4.8
	c-1,1.2-1.7,2.5-2.2,4l-8.6,23.7c-0.6,1.8-0.7,3.2-0.1,4c0.4,0.6,1.1,0.9,1.8,0.8c1.4,0,2.2-0.9,3.8-2.8l2.2,0.8L34,19.5L31,18.4z"
	/>
<polygon points="32,36.2 35.2,37.4 37.7,30.7 34.4,29.5 "/>
<path d="M45.9,32.1c-0.8,2.2-1.2,2.2-1.5,2.2s-0.6-0.1-0.6-0.8c0.1-1.1,0.4-2.2,0.9-3.2l7.7-21.4c0.8-2.2,1.2-2.2,1.5-2.2
	s0.6,0.1,0.6,0.8c-0.1,1.1-0.4,2.2-0.8,3.2l-0.3,0.8l3,1.1l0.2-0.7c0.6-1.5,0.9-3,1-4.6c0-1-0.3-2-1-2.7c-0.7-0.7-1.6-1-2.6-1
	c-1.1,0-2.2,0.4-2.9,1.2c-1,1.2-1.7,2.5-2.2,4l-6.6,18.3c-1.5,4.1-1.6,5.1-1.6,6.6c0,1,0.3,2,1,2.7c0.7,0.7,1.6,1,2.6,1
	c1.1,0,2.2-0.4,2.9-1.2c1-1.2,1.7-2.5,2.2-4l1-2.9l-3-1L45.9,32.1z"/>
<path d="M76.8,8.9c0.8-2.2,1.2-2.2,1.5-2.2S79,6.8,79,7.5c-0.1,1.1-0.4,2.2-0.9,3.2l-0.3,0.8l3,1.1l0.2-0.7c0.6-1.5,0.9-3,1-4.6
	c0-1-0.3-2-1-2.7l-0.2-0.2l1.2-3.3l-3-1.1l-1.3,3.7c-0.8,0.1-1.5,0.5-2.1,1c-0.9,0.9-1.5,2-1.9,3.1c-1.1,3.2-1.5,8-1.8,12.8
	c-0.3,4.6-0.7,8.9-1.6,11.5c-0.8,2.2-1.2,2.2-1.6,2.2s-0.6-0.1-0.6-0.8c0.1-1.1,0.4-2.2,0.8-3.2l0.3-0.8l-3-1.1l-0.2,0.7
	c-0.6,1.5-0.9,3-1,4.6c0,0.9,0.3,1.9,0.9,2.6l-1.2,3.3l3,1.1l1.2-3.3c0.9,0,1.8-0.4,2.5-1c0.9-0.9,1.5-2,1.9-3.1
	c1.2-3.2,1.5-8.1,1.9-12.8h-0.2h0.2C75.6,15.8,75.9,11.5,76.8,8.9z"/>
<polygon points="93,3.6 87.4,19 85.4,19 90.6,4.7 87.6,3.6 75.7,36.3 78.7,37.4 84.3,22 86.3,22 81.1,36.3 84.1,37.4 96,4.7 "/>
<path d="M65.4,3.6L51,36.3l3,1.1L60.5,22h1.1l-4.2,14.2l3,1.1l9.3-32.2L65.4,3.6z M62.8,19h-1.3l4.7-11.6l0.2,0.1L62.8,19L62.8,19z"
	/>
<polygon points="10.9,57.2 22,56.5 89.8,49.4 89.6,46.5 0.2,46.5 0.2,49.4 40.7,49.4 79.9,48.6 50.2,50.6 0,55.8 0.1,58.8 
	71.3,62.7 71.5,59.8 22,57.1 "/>
</svg>
