<svg xmlns:xlink="http://www.w3.org/1999/xlink" xmlns="http://www.w3.org/2000/svg" width="98" height="29" viewBox="0 0 98 29" fill="none">
<g clip-path="url(#clip0_3089_2279)">
<path d="M0.592041 8.63942V7.80984L4.02265 7.80987L7.72537 25.64C7.76394 25.8331 7.84322 25.9498 8.15393 25.9498C8.46464 25.9498 8.54392 25.8331 8.58249 25.64L12.4416 7.80987H19.1079L22.967 25.64C23.0056 25.8331 23.0849 25.9498 23.3956 25.9498C23.7063 25.9498 23.7856 25.8331 23.8241 25.64L27.5269 7.80987H30.9574V8.58214L26.8455 27.8806H19.9842L16.1251 10.0503C16.0865 9.85724 16.0072 9.74055 15.7737 9.74055C15.5401 9.74055 15.4608 9.85724 15.4223 10.0503L11.5631 27.8806H4.70404L0.592041 8.63942Z" fill="#3C2110"/>
<path d="M52.2005 17.8452C52.2005 24.7914 47.5227 28.4598 41.6364 28.4598C35.7502 28.4598 31.0725 24.7936 31.0725 17.8452C31.0725 10.8968 35.7502 7.23065 41.6364 7.23065C47.5227 7.23065 52.2005 10.8968 52.2005 17.8452ZM34.621 17.8452C34.621 22.6698 37.5437 25.3707 41.6364 25.3707C45.7291 25.3707 48.652 22.6698 48.652 17.8452C48.652 13.0206 45.7291 10.3198 41.6364 10.3198C37.5437 10.3198 34.621 13.0206 34.621 17.8452Z" fill="#3C2110"/>
<path d="M54.1486 27.8806V0.0914001H57.6563V11.2448C57.6563 11.3997 57.7335 11.4761 57.8899 11.4761C58.0848 11.4761 58.162 11.3997 58.2799 11.1663C59.6063 8.58005 61.944 7.22857 65.2954 7.22857C70.168 7.22857 75.0408 10.7017 75.0408 17.8431C75.0408 24.9845 70.168 28.4577 65.2954 28.4577C61.944 28.4577 59.527 27.1061 58.0848 24.2504C57.967 24.0192 57.8513 23.9406 57.6563 23.9406C57.4613 23.9406 57.3842 24.0574 57.3434 24.2101L56.4864 27.8763H54.1465L54.1486 27.8806ZM64.479 25.3728C68.5717 25.3728 71.4966 22.6719 71.4966 17.8474C71.4966 13.0228 68.5738 10.3219 64.479 10.3219C60.384 10.3219 57.4634 13.0228 57.4634 17.8474C57.4634 22.6719 60.3862 25.3728 64.479 25.3728Z" fill="#3C2110"/>
<path d="M97.4933 7.80987V27.8806H93.9855V24.4456C93.9855 24.2907 93.9085 24.2144 93.752 24.2144C93.557 24.2144 93.4798 24.2907 93.362 24.5241C92.0357 27.1104 89.6978 28.4618 86.3465 28.4618C81.4739 28.4618 76.6012 24.9888 76.6012 17.8473C76.6012 10.7059 81.4739 7.23279 86.3465 7.23279C89.6978 7.23279 92.115 8.58427 93.557 11.44C93.6748 11.6713 93.7906 11.7498 93.9855 11.7498C94.1805 11.7498 94.2577 11.633 94.2984 11.4803L95.1556 7.81411H97.4955L97.4933 7.80987ZM87.1629 10.3176C83.0702 10.3176 80.1475 13.0185 80.1475 17.843C80.1475 22.6677 83.0702 25.3685 87.1629 25.3685C91.2556 25.3685 94.1784 22.6677 94.1784 17.843C94.1784 13.0185 91.2556 10.3176 87.1629 10.3176Z" fill="#3C2110"/>
</g>
<defs>
<clipPath id="clip0_3089_2279">
<rect width="97" height="28.5294" fill="white" transform="translate(0.5)"/>
</clipPath>
</defs>
</svg>