<svg width="173" height="79" viewBox="0 0 173 79" fill="none" xmlns="http://www.w3.org/2000/svg">
<g clip-path="url(#clip0_1675_1101)">
<path d="M24.0666 78.9945C31.8787 79.1377 38.3862 76.6456 42.0954 70.5585C44.7774 66.1596 43.7195 61.0393 45.0968 53.6005C46.505 45.9845 49.913 38.6226 47.5775 33.3913C46.5685 31.1301 45.2329 29.6191 43.6015 28.364C39.1084 24.9105 32.6445 25.2632 28.1242 27.1126C22.8036 29.2879 20.018 26.7169 17.1291 26.1852C14.6575 25.7323 12.6777 25.1898 8.76888 26.1637C7.12841 26.5719 3.41196 28.2405 1.25069 32.3833C-1.72719 38.0891 1.27246 42.6294 3.41559 52.5066C5.40266 61.6677 4.75119 67.6868 8.06841 72.0982C11.3856 76.5077 16.2544 78.8513 24.0666 78.9945Z" fill="#FF6338"/>
<path d="M30.8017 18.8557C30.809 16.1541 28.488 13.9914 25.6299 14.0344C25.0347 14.0433 24.4758 13.8338 24.0602 13.4471C23.6446 13.0586 23.416 12.5341 23.4178 11.9719C23.4196 11.4079 23.6501 10.878 24.0675 10.4788C24.4866 10.0777 25.0456 9.85394 25.6408 9.84499C28.4989 9.80202 30.8307 7.55158 30.838 4.82491C30.8453 2.12331 28.5243 -0.0394089 25.6662 0.00355901C22.3326 0.0518979 19.166 1.35168 16.7543 3.6612C14.3717 5.93671 13.056 8.94446 13.0469 12.1241C13.0397 15.3037 14.3408 18.2721 16.7108 20.4813C19.1116 22.721 22.2709 23.9277 25.6045 23.8776C28.4644 23.8346 30.7963 21.5824 30.8017 18.8557Z" fill="#00E984"/>
<path d="M69.9457 58.6529C67.3725 56.1787 66.0859 52.7054 66.0859 48.2332C66.0859 45.3901 66.6757 42.8908 67.8588 40.7353C69.0402 38.5797 70.7151 36.9183 72.8855 35.7528C75.054 34.5873 77.58 34.0037 80.4617 34.0037C88.3283 34.0037 92.845 37.758 94.0101 45.263H86.726C86.4665 43.5067 85.835 42.189 84.8315 41.31C83.8279 40.4309 82.4034 39.9923 80.5579 39.9923C78.3567 39.9923 76.6001 40.7281 75.2899 42.1962C73.9779 43.6661 73.3228 45.6784 73.3228 48.2332C73.3228 50.7558 73.9707 52.7448 75.2645 54.1986C76.5584 55.6523 78.3549 56.3792 80.6541 56.3792C82.5305 56.3792 84.013 55.9155 85.0982 54.9899C86.1816 54.0643 86.8385 52.7233 87.0653 50.9652H94.3494C94.1879 53.1691 93.5727 55.1331 92.5039 56.859C91.435 58.5831 89.8889 59.933 87.8656 60.9069C85.8422 61.8809 83.4215 62.3678 80.6051 62.3678C76.072 62.366 72.5207 61.1289 69.9457 58.6529Z" fill="#E80537"/>
<path d="M127.523 34.7234V61.6481H120.483V53.1673C120.223 56.329 119.276 58.6529 117.643 60.1389C116.008 61.6248 113.797 62.3678 111.014 62.3678C108.455 62.3678 106.223 61.8092 104.312 60.6903C102.401 59.5731 100.92 57.9529 99.8679 55.8278C98.8153 53.7044 98.2891 51.1568 98.2891 48.1866C98.2891 45.2487 98.848 42.71 99.964 40.5688C101.082 38.4294 102.603 36.8002 104.528 35.6812C106.453 34.564 108.615 34.0037 111.01 34.0037C113.73 34.0037 115.915 34.7466 117.566 36.2308C119.218 37.7168 120.189 40.0245 120.481 43.154V34.7216H127.523V34.7234ZM118.806 54.2218C120.085 52.7538 120.724 50.7558 120.724 48.2332C120.724 45.6462 120.085 43.6177 118.806 42.1479C117.526 40.6798 115.753 39.944 113.489 39.944C111.093 39.944 109.159 40.6708 107.685 42.1246C106.212 43.5783 105.475 45.5978 105.475 48.1848C105.475 50.7396 106.219 52.752 107.709 54.2218C109.197 55.6917 111.124 56.4257 113.487 56.4257C115.755 56.4257 117.526 55.6917 118.806 54.2218Z" fill="#E80537"/>
<path d="M125.773 74.2001V67.2536C127.165 67.669 128.557 67.8767 129.949 67.8767C131.696 67.8767 132.943 67.4935 133.689 66.7273C134.433 65.961 134.805 64.6022 134.805 62.6543V34.7234H141.846V62.9891C141.846 65.927 141.448 68.2598 140.655 69.9839C139.862 71.708 138.632 72.9469 136.964 73.697C135.296 74.4472 133.072 74.8232 130.286 74.8232C128.477 74.8232 126.972 74.6137 125.773 74.2001Z" fill="#E80537"/>
<path d="M173.004 34.7234V61.6481H165.963V52.4978H165.914C165.914 54.7661 165.526 56.6352 164.749 58.1033C163.972 59.5731 162.96 60.6509 161.713 61.3366C160.466 62.0223 159.115 62.3678 157.659 62.3678C154.712 62.3678 152.504 61.5622 151.03 59.9491C149.557 58.336 148.82 55.8206 148.82 52.4029V34.7234H155.861V50.6287C155.861 52.5443 156.256 53.9426 157.051 54.8198C157.844 55.6989 159.049 56.1375 160.67 56.1375C162.094 56.1375 163.332 55.6111 164.384 54.5566C165.437 53.5021 165.963 52.0645 165.963 50.2455V34.7234H173.004Z" fill="#E80537"/>
<path d="M135.409 29.1179C134.584 28.3194 134.172 27.3615 134.172 26.2426C134.172 25.0932 134.584 24.1193 135.409 23.3208C136.235 22.5223 137.213 22.123 138.347 22.123C139.48 22.123 140.451 22.5223 141.262 23.3208C142.071 24.1193 142.476 25.0932 142.476 26.2426C142.476 27.3598 142.071 28.3194 141.262 29.1179C140.452 29.9163 139.482 30.3156 138.347 30.3156C137.215 30.3156 136.235 29.9163 135.409 29.1179Z" fill="#00E984"/>
</g>
<defs>
<clipPath id="clip0_1675_1101">
<rect width="173" height="79" fill="white"/>
</clipPath>
</defs>
</svg>
