<svg viewBox="0 0 115 38" fill="none" xmlns="http://www.w3.org/2000/svg">
<rect width="115" height="38" fill="white"/>
<path d="M109.05 11.0975C108.34 10.1879 107.421 9.45758 106.37 8.96636C105.319 8.47515 104.165 8.23707 103.002 8.27165C98.757 8.27165 95.6674 10.7019 94.4545 14.7147C93.6821 10.3911 91.1189 8.27165 86.6619 8.27165C84.1159 8.27165 82.0162 9.23811 80.8204 10.9054V9.38506L74.8873 9.99545V15.0821C74.3465 13.3809 73.378 11.8428 72.0724 10.6115L71.9065 10.4815L71.8378 10.4137C69.7724 8.66728 66.9918 7.9495 63.7993 8.33947C61.6628 8.56149 59.6394 9.39871 57.9806 10.7471L59.4167 7L53.1231 7.71778L47.8308 21.6325L43.0993 10.3685L38.7167 10.9336V9.32288L32.7893 9.99545V11.0975C32.0797 10.1872 31.1614 9.4564 30.1101 8.96511C29.0587 8.47383 27.9043 8.23616 26.7418 8.27165C21.3522 8.27165 17.8221 12.1883 17.6391 18.2922C17.6963 19.27 17.7592 20.2761 17.9137 21.2764L15.053 20.8299L14.9729 21.0899C14.7355 22.0436 14.177 22.8893 13.3889 23.488C12.6008 24.0868 11.6301 24.4031 10.6361 24.3849C7.83831 24.3849 5.96169 22.1525 5.96169 18.8348C5.96169 15.5172 7.83831 13.2565 10.6361 13.2565C11.335 13.2122 12.0338 13.3446 12.6665 13.6413C13.2992 13.938 13.8449 14.3891 14.252 14.9521C15.3171 13.4711 16.4631 12.0485 17.6848 10.6906C15.9684 9.07985 13.5311 8.266 10.3729 8.266C4.3597 8.266 0 12.7083 0 18.8236C0 24.9388 4.34826 29.398 10.35 29.398C14.4236 29.398 17.4846 27.8212 19.1209 24.984C19.2353 25.1818 19.344 25.3796 19.4756 25.5491C20.2569 26.7539 21.3388 27.7398 22.6174 28.4119C23.896 29.0839 25.3282 29.4197 26.7761 29.3867C27.9318 29.4096 29.0769 29.1662 30.1207 28.6756C31.1645 28.1851 32.0782 27.461 32.7893 26.5608V28.8837H38.7167V15.3703L44.7012 29.3245L41.3714 38H47.5448L54.5134 19.79C54.5134 19.92 54.5134 20.05 54.5535 20.18C55.343 26.4987 60.807 30.2684 67.2264 29.4941C69.1816 29.2617 71.0713 28.6509 72.7876 27.6968C71.8206 26.0013 71.2943 24.9275 70.499 23.5089C70.4189 23.5089 68.3649 24.8258 66.1908 24.8258C63.25 24.8258 61.3219 23.6615 60.9901 21.7003L68.3363 20.8073L74.9102 20.0612V28.9402H80.8318V18.5862C80.8318 14.9521 82.0562 13.3356 84.7968 13.3356C87.5373 13.3356 88.8018 14.8616 88.8018 18.281V28.9402H94.7291V23.5484C96.1022 27.1655 99.106 29.3867 103.059 29.3867C104.215 29.4096 105.36 29.1662 106.404 28.6756C107.448 28.1851 108.362 27.461 109.073 26.5608V28.8837H115V9.38506L109.05 9.99545V11.0975ZM28.2751 24.3905C25.3572 24.3905 23.5493 22.2485 23.5493 18.7952C23.5493 15.342 25.3858 13.2339 28.2408 13.2339C31.0958 13.2339 32.9552 15.4155 32.9552 18.7952C32.9552 22.175 31.1244 24.3905 28.2751 24.3905ZM60.3149 16.8793C60.4236 14.4886 61.9169 12.9513 64.4515 12.6405C66.9861 12.3296 68.8055 13.5335 69.4119 15.7772L60.3149 16.8793ZM104.496 24.3905C101.583 24.3905 99.7697 22.2485 99.7697 18.7952C99.7697 15.342 101.612 13.2339 104.461 13.2339C107.31 13.2339 109.187 15.4155 109.187 18.7952C109.187 22.175 107.368 24.3905 104.518 24.3905H104.496Z" fill="#121F3B"/>
<path d="M67.3194 37.3107C67.3194 37.2592 68.5666 35.7774 67.3194 34.8963L66.1293 35.5485L65.437 34.6446C65.2797 34.8247 65.1074 34.9912 64.9221 35.1423L64.0696 33.998C63.4975 34.2212 63.1599 34.45 63.1141 35.005C63.0569 35.6687 63.3373 36.1493 64.0582 37.3336C63.4688 37.1547 62.9518 36.7925 62.5825 36.2996C62.2131 35.8068 62.0105 35.209 62.0042 34.5931C61.9355 33.2028 62.7079 32.4018 64.9049 31C65.3798 31.658 65.7917 32.2587 66.1407 32.7164C66.3639 32.5906 66.9761 32.253 67.3537 32.0757C67.8839 32.613 68.3312 33.2262 68.681 33.8951C68.8186 34.2084 68.8925 34.5459 68.8984 34.8881C68.9043 35.2302 68.842 35.5701 68.7153 35.888C68.5886 36.2058 68.3999 36.4953 68.1603 36.7396C67.9206 36.9838 67.6347 37.178 67.3194 37.3107Z" fill="#F04E63"/>
</svg>
