<svg fill="none" xmlns="http://www.w3.org/2000/svg" viewBox="0 0 120 19.62">
  <path
    d="M0 .303h4.072v7.755L10.239.303h4.836l-6.55 8.123 7.183 10.863h-4.672l-5.109-7.755-1.855 2.361v5.394H0V.303zM38.206 19.289h-4.202l-1.529-3.737h-7.4l-1.507 3.737h-4.203L26.854.292h3.875l7.477 18.997zm-11.8-7.31h4.749l-2.38-6.206-2.369 6.205zM48.495 11.426c-3.58-.596-6.036-2.437-6.036-5.686 0-3.682 3.438-5.74 7.073-5.74 3.362 0 5.84 1.44 7.38 3.032l-2.73 2.849c-1.233-1.246-2.816-2.199-4.857-2.199-1.725 0-2.817.758-2.817 1.874 0 .92.71 1.657 2.73 2.003l1.888.304c4.203.682 6.44 2.577 6.44 5.935 0 3.465-3.002 5.794-7.62 5.794-3.547 0-6.363-1.657-7.946-3.628l2.784-2.795c1.178 1.517 2.98 2.74 5.403 2.74 2.129 0 3.33-.898 3.33-2.057 0-.953-.71-1.657-2.675-2.004l-2.347-.422zM77.285.303v3.553l-9.671 11.729h9.966v3.714H62.483v-3.552l9.672-11.74h-9.584V.303h14.715zM83.573.303H97.7v3.704H87.645v3.77h9.584v3.66h-9.584v4.148h10.054v3.714H83.573V.303zM104.303.303h4.072v7.755l6.167-7.755h4.836l-6.561 8.134L120 19.299h-4.672l-5.109-7.754-1.855 2.361v5.393h-4.072V.303h.011z"
    fill="#005046"></path>
  <path d="M4.072.303H0V19.3h4.072V.303zM15.708 19.289h-4.672L4.771 9.8h4.65l6.287 9.488z"
    fill="#005046"></path>
</svg>
