<svg width="19" height="25" viewBox="0 0 19 25" fill="none" xmlns="http://www.w3.org/2000/svg">
<path d="M0 11.6629H1.31845V7.81658C1.31815 6.79007 1.52591 5.77356 1.92986 4.82513C2.33381 3.87669 2.92605 3.01491 3.67273 2.28903C4.4194 1.56314 5.3059 0.987373 6.28155 0.594614C7.25721 0.201855 8.30292 -0.000197145 9.35893 1.31508e-06C10.4151 -0.000594366 11.461 0.201181 12.4369 0.59379C13.4128 0.986399 14.2995 1.56214 15.0463 2.2881C15.7931 3.01405 16.3854 3.87598 16.7893 4.8246C17.1932 5.77322 17.4008 6.78993 17.4002 7.81658V11.6282C17.3839 11.6365 17.3629 11.6554 17.3435 11.6637L17.3225 11.6841H17.3155L17.2945 11.703H17.2666L17.2456 11.7234H17.2262L17.2052 11.7302H17.1966L17.1881 11.7422L17.1764 11.7505H17.1679L17.1555 11.7589L17.1469 11.7709L17.1399 11.7777L17.1275 11.786L17.0995 11.8064L17.0785 11.8178L17.0506 11.8382L17.0102 11.854L16.9814 11.8729L16.9659 11.885L16.9535 11.8933L16.9255 11.9122L16.9045 11.9205L16.8556 11.9477L16.8361 11.9597L16.8198 11.9681L16.8004 11.9801H16.7918L16.7305 12.0073H16.711L16.6419 12.0428H16.6334L16.6264 12.0549L16.593 12.07L16.5774 12.0821L16.544 12.1025L16.5285 12.1093H16.516L16.4881 12.1297L16.4671 12.138L16.4477 12.1493C16.4314 12.1576 16.4034 12.1652 16.3824 12.1773L16.363 12.1856L16.342 12.1969L16.3055 12.2127L16.2651 12.2331L16.168 12.2724L16.1485 12.2792L16.1113 12.2996L16.0918 12.3117C14.489 13.0548 11.9275 13.8372 7.07242 14.1756C3.58865 14.4195 1.47229 15.9103 0.104109 17.7002L0 11.6629ZM5.01355 11.6629H13.6849V7.81658C13.6859 7.26299 13.5745 6.71465 13.357 6.20301C13.1396 5.69136 12.8203 5.22649 12.4176 4.83504C12.0149 4.44359 11.5367 4.13327 11.0103 3.92188C10.484 3.71049 9.91989 3.60219 9.35039 3.60318C8.78094 3.60288 8.21701 3.71164 7.69081 3.92324C7.16461 4.13484 6.68645 4.44514 6.28364 4.83641C5.88084 5.22768 5.56128 5.69226 5.34322 6.2036C5.12516 6.71495 5.01287 7.26304 5.01277 7.81658L5.01355 11.6629ZM18.7101 13.1341V24.1672H2.69363C4.46193 23.2156 5.7695 23.3093 7.95424 23.3765C10.9213 23.4709 14.1984 22.2625 15.8083 20.6584C17.4188 19.0574 15.6676 20.2808 13.8418 20.7332C12.016 21.1856 8.48411 21.2369 6.12145 20.6305C13.5513 20.7249 16.4523 18.3973 18.0917 16.2925C19.7302 14.1997 17.3831 15.9262 15.8572 16.6497C14.3367 17.3777 11.6773 17.889 8.74749 17.5114C13.1706 17.4993 16.5378 15.3515 18.7015 13.1334L18.7101 13.1341Z" fill="url(#paint0_linear_1652_1134)"/>
<defs>
<linearGradient id="paint0_linear_1652_1134" x1="0.42913" y1="12.0562" x2="17.9949" y2="12.0562" gradientUnits="userSpaceOnUse">
<stop stopColor="#4279FE"/>
<stop offset="1" stopColor="#65EDFF"/>
</linearGradient>
</defs>
</svg>
