<svg width="140" height="119" viewBox="0 0 140 119" fill="none" xmlns="http://www.w3.org/2000/svg">
<g clip-path="url(#clip0_1708_1095)">
<path fill-rule="evenodd" clip-rule="evenodd" d="M139.88 44.8775H131.051V28.5215H118.438V98.5685H131.051V57.3855H139.88V44.8775Z" fill="#FF6023"/>
<path fill-rule="evenodd" clip-rule="evenodd" d="M90.6282 119.842H78.0156V27.6738C78.0156 12.9627 90.0846 0.992188 104.92 0.992188V13.5006C97.0392 13.5006 90.6282 19.8586 90.6282 27.6738V119.842Z" fill="#FF6023"/>
<path fill-rule="evenodd" clip-rule="evenodd" d="M71.6606 44.8763H112.076L108.5 57.3846H71.6606C68.8384 68.5111 58.6652 76.7726 46.5824 76.7726C32.3251 76.7726 20.7266 65.2699 20.7266 51.1305C20.7266 36.991 32.3251 25.4883 46.5824 25.4883C58.6652 25.4883 68.8384 33.7498 71.6606 44.8763ZM32.0779 51.1305C32.0779 59.062 38.5848 65.5151 46.5824 65.5151C54.5801 65.5151 61.0869 59.062 61.0869 51.1305C61.0869 43.1989 54.5801 36.7458 46.5824 36.7458C38.5848 36.7458 32.0779 43.1989 32.0779 51.1305Z" fill="#FF6023"/>
<path fill-rule="evenodd" clip-rule="evenodd" d="M34.9079 97.7316C15.6598 97.7316 0 82.2012 0 63.1109V28.5215H12.6126V63.1109C12.6126 75.3028 22.6144 85.2232 34.9079 85.2232V97.7316Z" fill="#FF6023"/>
</g>
<defs>
<clipPath id="clip0_1708_1095">
<rect width="140" height="119" fill="white"/>
</clipPath>
</defs>
</svg>
