<svg xmlns="http://www.w3.org/2000/svg" xmlns:xlink="http://www.w3.org/1999/xlink" version="1.1" id="Layer_1" x="0px" y="0px" viewBox="0 0 484 167" style="enable-background:new 0 0 484 167;" xml:space="preserve" width="484"  height="167" >
<style type="text/css">
	.st0{fill:#FFFFFF;}
	.st1{fill:#32373E;}
</style>
<g>
	<path class="st0" d="M401.63,160.15H82.56c-42.23,0-76.77-34.55-76.77-76.77v0C5.79,41.14,40.34,6.6,82.56,6.6h319.07   c42.23,0,76.77,34.55,76.77,76.77v0C478.41,125.6,443.86,160.15,401.63,160.15z"/>
	<g>
		<path class="st1" d="M255.55,63.08h-8.74V55.8h8.74l12.56-14.42h7.54V55.8h8.85v7.28h-8.85v47.33h-20.1V63.08z"/>
		<path class="st1" d="M218.26,112.06c14.47,0,25.59-6.37,25.59-18.53c0-10.42-8.1-14.24-18.76-18.87    c-5.44-2.43-10.77-3.94-10.77-7.76c0-2.78,2.66-5.33,7.99-5.33c5.67,0,12.62,2.89,16.79,7.29V57.75    c-5.21-2.32-11.35-3.59-17.6-3.59c-14.24,0-23.74,6.72-23.74,18.29c0,11.23,8.8,15.17,16.9,18.53c5.79,2.43,13.32,4.75,13.32,8.45    c0,2.89-4.28,5.33-10.65,5.33c-6.83,0-14.13-3.01-18.41-7.64v11.12C204.83,111.01,212.59,112.06,218.26,112.06z"/>
		<path class="st1" d="M378.51,112.06c14.47,0,25.59-6.37,25.59-18.53c0-10.42-8.1-14.24-18.76-18.87    c-5.44-2.43-10.77-3.94-10.77-7.76c0-2.78,2.66-5.33,7.99-5.33c5.67,0,12.62,2.89,16.79,7.29V57.75    c-5.21-2.32-11.35-3.59-17.6-3.59c-14.24,0-23.74,6.72-23.74,18.29c0,11.23,8.8,15.17,16.9,18.53c5.79,2.43,13.32,4.75,13.32,8.45    c0,2.89-4.28,5.33-10.65,5.33c-6.83,0-14.13-3.01-18.41-7.64v11.12C365.08,111.01,372.83,112.06,378.51,112.06z"/>
		<path class="st1" d="M149.19,112.06c10.01,0,17.66-4.61,21.04-12.04l9.9,10.35h7.54V55.8H167.3v33.19c0,5.96-2.7,10.35-8.78,10.35    c-6.19,0-7.88-4.39-7.88-11.14V55.8h-20.03v35.78C130.63,105.64,137.49,112.06,149.19,112.06z"/>
		<path class="st1" d="M80.1,55.8v7.31h18.23v35.44c0,4.39-1.58,6.19-5.63,6.19c-3.49,0-8.1-1.35-12.6-6.19v11.14    c4.28,1.8,9.34,2.36,13.5,2.36c20.59,0,24.41-13.05,24.41-25.2V55.8H80.1z"/>
		<path class="st1" d="M319.06,104.76c-7.76,0-10.42-5.44-10.42-21.65s2.66-21.65,10.42-21.65c7.87,0,10.54,5.44,10.54,21.65    S326.93,104.76,319.06,104.76z M319.06,112.06c18.99,0,32.07-12.16,32.07-28.95c0-17.14-13.08-28.95-32.07-28.95    c-18.87,0-31.96,11.81-31.96,28.95C287.1,100.13,300.18,112.06,319.06,112.06z"/>
	</g>
</g>
</svg>