<svg width="2066" height="791" viewBox="0 0 2066 791" fill="none" xmlns="http://www.w3.org/2000/svg">
<path d="M2059.47 674.273V631.402H1944.67V553.581H2041.66V512.283H1944.67V445.588H2010.73C2062.62 445.588 2065.49 402.697 2065.49 402.697H1895.06V674.273H2059.47Z" fill="#747678"/>
<path d="M1837.51 674.274V631.403H1716.58V402.697H1666.94V674.274H1837.51Z" fill="#747678"/>
<path d="M1608.93 674.274L1500.94 402.697H1453.71L1341.33 674.274H1394.4L1421.54 605.19H1526.35L1553.36 674.274H1608.93ZM1510.07 562.319H1439.02L1474.33 470.606L1474.74 469.014L1510.07 562.319Z" fill="#747678"/>
<path d="M1331.92 402.703H1279.12L1210.41 588.119C1206.45 598.847 1204.08 605.972 1204.08 605.972H1203.27C1203.27 605.972 1149.27 470.194 1121.49 402.703H1065.92L1163.58 641.32C1169.13 655.212 1187.01 678.24 1221.94 678.24L1331.92 402.703Z" fill="#747678"/>
<path d="M572.277 192.405C639.43 249.447 704.155 297.075 773.796 297.075C901.772 297.075 961.621 216.965 961.621 216.965L529.565 790.869L0.18457 83.0973C0.18457 83.0973 86.6234 0.798312 230.622 0.798312C366.201 0.798312 471.946 107.14 572.277 192.405Z" fill="#008F83"/>
<path d="M1070.06 74.6709C1070.06 74.6709 1020.68 33.7104 954.866 33.7104C823.167 33.7104 740.868 165.389 572.27 192.397C639.442 249.439 704.167 297.067 773.808 297.067C901.784 297.067 961.633 216.958 961.633 216.958L1070.06 74.6709Z" fill="#F3C108"/>
</svg>
