<svg id="Group_9451" data-name="Group 9451" xmlns="http://www.w3.org/2000/svg" width="98" height="16" viewBox="0 0 98 16">
  <g id="Group_9450" data-name="Group 9450" transform="translate(0)">
    <path id="Path_40897" data-name="Path 40897" d="M28.984,12.448H27.3V5.328h1.68v.944a2.476,2.476,0,0,1,2.176-1.12c1.744,0,2.752,1.152,2.752,3.008v4.288h-1.68V8.48c0-1.1-.544-1.776-1.584-1.776-1.008,0-1.664.768-1.664,1.984v3.76Zm6.16-3.072V5.328h1.68V9.28c0,1.12.544,1.792,1.488,1.792S39.8,10.4,39.8,9.28V5.328h1.664V9.376A2.929,2.929,0,0,1,38.3,12.608,2.918,2.918,0,0,1,35.144,9.376Zm6.832-4.048h1.792l1.9,4.944,1.92-4.944h1.744l-2.928,7.12H44.92l-2.944-7.12Zm14.144,5.44a3.455,3.455,0,0,1-3.216,1.84,3.562,3.562,0,0,1-3.7-3.728,3.6,3.6,0,0,1,3.616-3.728A3.517,3.517,0,0,1,56.36,8.88c0,.128,0,.3-.016.512H50.872A2.025,2.025,0,0,0,52.92,11.2a1.975,1.975,0,0,0,1.808-1.072ZM54.7,8.176a1.847,1.847,0,0,0-1.9-1.648,1.98,1.98,0,0,0-1.9,1.648Zm4.256,4.272h-1.68V5.328h1.68v.944a2.2,2.2,0,0,1,2.032-1.12,2.247,2.247,0,0,1,2.16,1.328,2.643,2.643,0,0,1,2.368-1.328c1.648,0,2.592,1.136,2.592,2.912v4.368h-1.68V8.4c0-1.04-.48-1.7-1.36-1.7-.912,0-1.5.736-1.52,1.9v3.84h-1.68v-4c0-1.1-.48-1.76-1.36-1.76-.928,0-1.52.752-1.52,1.968v3.792ZM70.136,10.1a1.543,1.543,0,0,0,1.424,1.088c.528,0,.96-.24.96-.736,0-.4-.24-.592-.816-.768l-.864-.272c-1.2-.384-1.808-1.072-1.808-2.064A2.258,2.258,0,0,1,71.48,5.168a2.788,2.788,0,0,1,2.592,1.616l-1.344.72A1.445,1.445,0,0,0,71.5,6.56c-.48,0-.864.24-.864.656,0,.336.256.592.8.768l.848.272c1.328.448,1.872,1.136,1.872,2.08a2.371,2.371,0,0,1-2.608,2.288,2.789,2.789,0,0,1-2.752-1.808Zm6.544,2.352H75V2.672h1.68v3.6a2.476,2.476,0,0,1,2.176-1.12c1.744,0,2.752,1.152,2.752,3.008v4.288h-1.68V8.48c0-1.1-.544-1.776-1.584-1.776-1.008,0-1.664.768-1.664,1.984v3.76ZM90.072,8.88A3.793,3.793,0,1,1,86.28,5.152,3.687,3.687,0,0,1,90.072,8.88Zm-5.9,0a2.113,2.113,0,1,0,4.224,0,2.113,2.113,0,1,0-4.224,0Zm8.544-3.552V6.352a2.95,2.95,0,0,1,2.416-1.184A3.533,3.533,0,0,1,98.6,8.9a3.552,3.552,0,0,1-3.472,3.728,2.881,2.881,0,0,1-2.416-1.152V15.1H91.048V5.328Zm2.064,1.36A2.155,2.155,0,0,0,92.648,8.9a2.129,2.129,0,1,0,4.256,0A2.145,2.145,0,0,0,94.776,6.688ZM14.824,0h-.016A7.936,7.936,0,0,0,9.24,2.272a6.224,6.224,0,1,0,0,11.456A8,8,0,1,0,14.824,0Zm-.016,14.224A6.241,6.241,0,0,1,8.584,8H6.808A7.941,7.941,0,0,0,8.04,12.272a4.584,4.584,0,0,1-1.232.176,4.448,4.448,0,0,1,0-8.9A4.456,4.456,0,0,1,11.256,8h1.776a6.155,6.155,0,0,0-2.224-4.768,6.224,6.224,0,1,1,4,10.992Z" transform="translate(-0.6)" fill="#ffffff"/>
  </g>
</svg>
