<svg xmlns="http://www.w3.org/2000/svg" width="267.19" height="94.754" viewBox="0 0 267.19 94.754">
  <path id="Path_1" data-name="Path 1" d="M495.237,337.065a7.039,7.039,0,1,0,14.076,0v-29.2c0-11.73,6.647-18.117,16.813-18.117,9.124,0,14.337,5.475,14.337,15.119v32.194a7.04,7.04,0,1,0,14.077,0V303.438c0-16.032-9.384-26.719-25.025-26.719-8.863,0-14.858,3.128-18.638,8.341-.652.913-1.564.652-1.564-.521v-27.11a7.039,7.039,0,1,0-14.076,0Zm-58.261-40.4c0,10.167,7.038,15.641,15.9,18.247l11.731,3.389c5.083,1.434,7.689,3.128,7.689,6.647,0,4.823-4.17,7.3-11.6,7.3a15.851,15.851,0,0,1-11.861-4.953,7.152,7.152,0,0,0-9.515-.651,6.676,6.676,0,0,0-.782,9.9c5.214,5.735,13.816,8.472,22.158,8.472,12.512,0,25.415-6,25.415-20.723,0-10.427-6.647-15.51-16.813-18.508l-11.731-3.389c-5.213-1.564-6.777-3.389-6.777-6.386,0-4.041,3.91-6.517,10.036-6.517,5.083,0,8.863,1.955,12.251,4.431s7.69,2.086,9.776-.782a6.745,6.745,0,0,0-1.043-9.514c-4.953-4.3-11.73-6.908-21.114-6.908-12.643,0-23.722,7.168-23.722,19.941m-64,14.207c0-12.382,8.342-21.115,20.463-21.115,11.991,0,20.463,8.863,20.463,21.115,0,12.382-8.342,21.114-20.463,21.114-11.991,0-20.463-8.862-20.463-21.114m-14.337,0c0,19.29,14.076,34.148,32.454,34.148,10.036,0,16.683-3.78,21.114-9.775.782-1.043,1.564-.652,1.564.521v1.3a7.04,7.04,0,1,0,14.077,0v-52.4a7.04,7.04,0,1,0-14.077,0v1.043c0,1.173-.782,1.564-1.564.521-4.431-5.865-11.078-9.514-20.984-9.514-18.247,0-32.584,15.119-32.584,34.148m-23.2,26.2a7.04,7.04,0,1,0,14.077,0V257.429a7.04,7.04,0,1,0-14.077,0Zm-31.15,7.168a6.883,6.883,0,0,0,7.038-7.168V292.881a1.232,1.232,0,0,1,1.3-1.3h7.821a6.652,6.652,0,1,0,0-13.294h-7.821a1.231,1.231,0,0,1-1.3-1.3v-3.258c0-5.995,3.258-9.514,9.124-10.036,4.692-.391,7.3-2.867,7.3-6.908,0-3.649-2.346-6.516-7.559-6.516-13.294,0-22.939,10.166-22.939,23.851v2.867a1.232,1.232,0,0,1-1.3,1.3h-1.694a6.652,6.652,0,1,0,0,13.294h1.694a1.232,1.232,0,0,1,1.3,1.3v44.184a6.883,6.883,0,0,0,7.038,7.168" transform="translate(-287.35 -250.261)" fill="#fe2b8f"/>
</svg>
