<svg id="Hotmart" xmlns="http://www.w3.org/2000/svg" width="49.882" height="16" viewBox="0 0 49.882 16">
  <path id="Path_40891" data-name="Path 40891" d="M111.3,53.672V46.465a.061.061,0,0,1,.065-.065h1.387a.069.069,0,0,1,.065.065V49.07h.026a1.868,1.868,0,0,1,1.53-.674c1.089,0,1.439.713,1.439,1.659v3.63a.069.069,0,0,1-.065.065h-1.387a.061.061,0,0,1-.065-.065v-3.5c0-.415-.428-.531-.7-.531a.743.743,0,0,0-.778.687v3.332a.069.069,0,0,1-.065.065h-1.387A.069.069,0,0,1,111.3,53.672Zm11.058-1.426V49.77h-.635a.061.061,0,0,1-.065-.065v-.894a.11.11,0,0,1,.039-.065c.026-.013.843-.246.843-.246s.441-1.4.454-1.426a.06.06,0,0,1,.065-.039h.752a.061.061,0,0,1,.065.065v1.4h1.115a.069.069,0,0,1,.065.065v1.141a.069.069,0,0,1-.065.065h-1.115V52.1c0,.246.143.389.467.389h.648a.069.069,0,0,1,.065.065v1a.081.081,0,0,1-.039.065,2.6,2.6,0,0,1-1.063.233A1.449,1.449,0,0,1,122.358,52.246Zm21.7,0V49.77h-.635a.061.061,0,0,1-.065-.065v-.894a.11.11,0,0,1,.039-.065c.026-.013.843-.246.843-.246s.441-1.4.454-1.426a.06.06,0,0,1,.065-.039h.752a.061.061,0,0,1,.065.065v1.4h1.115a.069.069,0,0,1,.065.065v1.141a.069.069,0,0,1-.065.065h-1.115V52.1c0,.246.143.389.467.389h.648a.069.069,0,0,1,.065.065v1a.081.081,0,0,1-.039.065,2.6,2.6,0,0,1-1.063.233A1.444,1.444,0,0,1,144.058,52.246Zm-18.084,1.426v-5.12a.061.061,0,0,1,.065-.065H127.3a.086.086,0,0,1,.065.052c0,.026.143.519.143.519h.026a1.842,1.842,0,0,1,1.517-.674,1.256,1.256,0,0,1,1.309.856h.039a1.834,1.834,0,0,1,1.646-.856c1.089,0,1.439.713,1.439,1.659v3.63a.061.061,0,0,1-.065.065h-1.387a.069.069,0,0,1-.065-.065V50.2a.608.608,0,0,0-.661-.57.759.759,0,0,0-.8.661v3.37a.069.069,0,0,1-.065.065h-1.4a.061.061,0,0,1-.065-.065V50.185c0-.415-.415-.57-.713-.57a.747.747,0,0,0-.752.726v3.319a.061.061,0,0,1-.065.065h-1.387a.058.058,0,0,1-.078-.052Zm8.413-4.019v-.946a.059.059,0,0,1,.052-.065,10.6,10.6,0,0,1,2.022-.246c1.348,0,2.126.324,2.126,1.776v3.513a.061.061,0,0,1-.065.065H137.2c-.039,0-.052-.026-.065-.052s-.143-.519-.143-.519h.065a1.676,1.676,0,0,1-1.491.674,1.657,1.657,0,0,1,.22-3.306h1.283V50.2c0-.428-.324-.519-1.543-.519-.519,0-1.063.039-1.089.039A.091.091,0,0,1,134.387,49.654Zm2.7,1.815h-.83c-.441,0-.726.169-.726.635,0,.506.363.622.713.622a.808.808,0,0,0,.843-.843Zm2.4,2.2v-5.12a.061.061,0,0,1,.065-.065h1.244a.059.059,0,0,1,.065.052c0,.026.143.791.143.791h.026a1.815,1.815,0,0,1,1.62-.959.061.061,0,0,1,.065.065v1.426a.069.069,0,0,1-.065.065h-.35c-.959,0-1.283.376-1.283.856v2.878a.069.069,0,0,1-.065.065H139.56A.057.057,0,0,1,139.482,53.672Zm-23.022-2.554c0-1.672.648-2.722,2.5-2.722s2.515,1.063,2.515,2.722-.648,2.722-2.515,2.722S116.459,52.791,116.459,51.119Zm1.633,0c0,.907.13,1.452.856,1.452s.869-.557.869-1.452-.13-1.452-.869-1.452C118.235,49.667,118.093,50.211,118.093,51.119Z" transform="translate(-96.872 -40.395)" fill="#053d4e"/>
  <path id="Path_40892" data-name="Path 40892" d="M11.588,10.28A10.759,10.759,0,0,0,9.98,4.6a.041.041,0,1,0-.078.026c.078.285.1.817-.363.791C8.723,5.367,9.565,3.6,7.764,2.4A.043.043,0,0,0,7.7,2.45c.13.233.194.972-.091,1.219-.233.194-.648.143-1.05-.519A2.858,2.858,0,0,1,6.6.143C6.636.091,6.584.065,6.545.078c-2.476.817-2.969,3.733-3.5,4.8-.091.181-.169.272-.311.259-.454-.026-.13-1,.026-1.322.026-.052-.026-.078-.065-.039A10.485,10.485,0,0,0,.051,9.463c.013-.052-.026.169-.039.337,0,.065-.013.13-.013.194v.233a5.795,5.795,0,0,0,11.589.1Zm-5.82,2.683a2.683,2.683,0,1,1,2.709-2.657A2.681,2.681,0,0,1,5.767,12.963Z" transform="translate(0.002 -0.075)" fill="#f04e23"/>
</svg>
