<?xml version="1.0" standalone="no"?>
<svg version="1.0" xmlns="http://www.w3.org/2000/svg"
  width="118.000000pt" height="82.000000pt" viewBox="0 0 118.000000 82.000000"
  preserveAspectRatio="xMidYMid meet">

  <g transform="translate(0.000000,82.000000) scale(0.100000,-0.100000)"
    fill="#fff" stroke="none">
    <path
      d="M460 763 c-52 -15 -97 -28 -99 -30 -2 -1 4 -12 14 -23 25 -28 60 -25
123 11 54 30 55 30 48 7 -32 -102 -28 -135 14 -158 19 -10 20 -7 20 105 0 86
-3 115 -12 114 -7 0 -56 -12 -108 -26z" />
    <path
      d="M610 675 c0 -112 1 -115 20 -105 41 22 46 79 14 163 -6 16 3 13 48
-12 63 -36 98 -39 123 -11 10 11 16 22 14 23 -5 4 -203 57 -212 57 -4 0 -7
-52 -7 -115z" />
    <path
      d="M90 469 c-13 -5 -33 -17 -43 -27 -17 -16 -17 -17 4 -33 19 -14 25
-14 48 -3 35 19 65 17 89 -3 16 -14 22 -32 24 -78 l2 -60 -38 -19 c-47 -23
-89 -13 -94 22 -4 24 28 42 74 42 19 0 24 5 24 25 0 20 -5 25 -26 25 -86 0
-150 -49 -140 -108 7 -45 21 -60 69 -73 31 -8 49 -7 86 5 29 9 50 11 55 5 6
-5 20 -9 33 -9 23 0 23 2 23 115 0 112 -1 115 -28 146 -24 27 -37 33 -83 35
-30 2 -65 -1 -79 -7z" />
    <path
      d="M453 465 c-19 -8 -35 -10 -38 -4 -4 5 -19 9 -36 9 l-29 0 0 -145 0
-145 40 0 40 0 0 104 0 104 28 10 c15 6 36 12 46 14 11 2 25 17 33 36 l13 32
-32 0 c-18 -1 -48 -7 -65 -15z" />
    <path
      d="M640 458 c-53 -37 -72 -70 -72 -125 0 -83 36 -133 110 -152 49 -14
106 -2 144 28 23 20 23 20 3 35 -11 9 -30 14 -42 11 -13 -3 -34 -8 -48 -11
-49 -12 -104 50 -90 103 13 54 77 80 123 52 25 -16 78 16 62 36 -38 46 -138
58 -190 23z" />
    <path
      d="M950 461 c-42 -22 -80 -83 -80 -129 0 -76 57 -145 130 -157 32 -5 50
-2 87 17 58 29 84 63 90 121 14 118 -120 205 -227 148z m129 -77 c29 -37 27
-89 -4 -119 -49 -50 -125 -13 -125 61 0 77 85 114 129 58z" />
  </g>
</svg>
