<svg xmlns="http://www.w3.org/2000/svg" width="269.252" height="104" viewBox="0 0 269.252 104">
  <g id="logo-bzcp" transform="translate(0 0.1)">
    <path id="Union_2" data-name="Union 2" d="M239.158,96.557a4.594,4.594,0,0,1,2.127-4.042,12.615,12.615,0,0,1,5.529-1.594V90.6a7.627,7.627,0,0,1-4.785-1.914,4.761,4.761,0,0,1-1.594-3.615,4.483,4.483,0,0,1,1.914-3.935,8.88,8.88,0,0,1,4.891-1.488v-.212a9.109,9.109,0,0,1-5.848-8.826,8.74,8.74,0,0,1,2.765-6.593c1.914-1.6,4.892-2.765,9.039-3.509,5.742-.851,11.06-1.808,16.058-2.871v5.1l-10.315-1.488-.106.319a9.229,9.229,0,0,1,7.338,9.252,9.036,9.036,0,0,1-3.3,7.337c-2.233,1.914-5.21,2.765-9.039,2.765a18.456,18.456,0,0,1-5.1-.744,6.165,6.165,0,0,0-2.234,1.17,2.278,2.278,0,0,0-.745,1.914,2.246,2.246,0,0,0,1.171,2.127,4.5,4.5,0,0,0,2.977.851l7.763-.32a14.759,14.759,0,0,1,8.188,2.021c1.914,1.382,2.871,3.509,2.871,6.7a7.759,7.759,0,0,1-3.828,7.018c-2.552,1.6-6.167,2.339-11.059,2.339C244.05,104,239.158,101.555,239.158,96.557Zm6.486-3.935a3.3,3.3,0,0,0-1.063,2.553c0,2.977,3.191,4.467,9.464,4.467,3.3,0,5.636-.319,7.124-1.169a3.725,3.725,0,0,0,2.128-3.4,3.787,3.787,0,0,0-1.277-3.084,6.855,6.855,0,0,0-4.041-.957h-8.826A8.973,8.973,0,0,0,245.644,92.621ZM248.835,67.1a4.582,4.582,0,0,0-1.7,3.722,4.861,4.861,0,0,0,1.7,3.934,6.918,6.918,0,0,0,4.891,1.488,7.46,7.46,0,0,0,4.891-1.488,4.863,4.863,0,0,0,1.7-3.934,4.587,4.587,0,0,0-1.7-3.722,7.262,7.262,0,0,0-4.891-1.489q-.2-.011-.4-.011A7.46,7.46,0,0,0,248.835,67.1ZM169.505,92.941a10.111,10.111,0,0,1-6.912-2.552,12.858,12.858,0,0,1-4.042-7.018h-.212l-.212,8.507h-5.636V51.15h5.849V70.5h.212a12.244,12.244,0,0,1,4.042-7.018,10.109,10.109,0,0,1,6.912-2.552,12.314,12.314,0,0,1,6.912,2.02,14.515,14.515,0,0,1,4.679,5.636,19.128,19.128,0,0,1,1.7,8.4,20.387,20.387,0,0,1-1.7,8.4,14.166,14.166,0,0,1-4.679,5.53,11.989,11.989,0,0,1-6.664,2.023Zm4.785-7.763a12.478,12.478,0,0,0,2.551-8.295,12.369,12.369,0,0,0-2.551-8.189,8.748,8.748,0,0,0-6.806-3.084,9.107,9.107,0,0,0-4.892,1.383A8.485,8.485,0,0,0,159.4,70.5a9.391,9.391,0,0,0-1.169,4.785v3.191a9.524,9.524,0,0,0,1.169,4.892,8.485,8.485,0,0,0,3.191,3.509,9.318,9.318,0,0,0,4.892,1.277A8.36,8.36,0,0,0,174.291,85.179ZM79.436,92.941a10.112,10.112,0,0,1-6.913-2.552,12.849,12.849,0,0,1-4.041-7.018H68.27l-.212,8.507H62.421V51.15H68.27V70.5h.212a12.248,12.248,0,0,1,4.041-7.018,10.111,10.111,0,0,1,6.913-2.552,12.314,12.314,0,0,1,6.912,2.02,12.9,12.9,0,0,1,4.679,5.636,19.143,19.143,0,0,1,1.7,8.4,20.39,20.39,0,0,1-1.7,8.4,14.165,14.165,0,0,1-4.679,5.53,11.989,11.989,0,0,1-6.664,2.023Zm4.892-7.763a12.478,12.478,0,0,0,2.552-8.295A12.37,12.37,0,0,0,84.327,68.7a8.748,8.748,0,0,0-6.806-3.084,9.107,9.107,0,0,0-4.892,1.383A8.485,8.485,0,0,0,69.439,70.5a9.393,9.393,0,0,0-1.169,4.785v3.191a9.524,9.524,0,0,0,1.169,4.892,8.485,8.485,0,0,0,3.191,3.509,9.318,9.318,0,0,0,4.892,1.277A8.36,8.36,0,0,0,84.327,85.179Zm117.08,7.55c-4.679,0-8.295-1.383-11.059-4.148-2.871-2.765-4.148-6.7-4.148-11.91a17.489,17.489,0,0,1,1.808-8.4,12.235,12.235,0,0,1,5.21-5.424,15.694,15.694,0,0,1,7.87-1.914,15.118,15.118,0,0,1,7.55,2.02,12.934,12.934,0,0,1,5.1,5.317,15.726,15.726,0,0,1,1.808,7.444v2.233H191.836a10.24,10.24,0,0,0,2.659,7.444A8.974,8.974,0,0,0,201.3,88.05a8.143,8.143,0,0,0,5.53-1.914A8.26,8.26,0,0,0,209.7,81.35h5.53a11.745,11.745,0,0,1-2.34,6.061,13.088,13.088,0,0,1-5,3.934,14.8,14.8,0,0,1-6.253,1.385ZM194.6,68.058a9.158,9.158,0,0,0-2.765,6.381H209.7a9.247,9.247,0,0,0-2.659-6.275,8.69,8.69,0,0,0-6.167-2.339q-.189-.008-.377-.008A8.884,8.884,0,0,0,194.6,68.058ZM111.444,92.729c-4.679,0-8.295-1.383-11.059-4.148-2.871-2.765-4.148-6.7-4.148-11.91a17.487,17.487,0,0,1,1.808-8.4,12.233,12.233,0,0,1,5.211-5.424,15.689,15.689,0,0,1,7.869-1.914,15.118,15.118,0,0,1,7.55,2.02,12.934,12.934,0,0,1,5.1,5.317,15.727,15.727,0,0,1,1.808,7.444v2.233H101.873a10.24,10.24,0,0,0,2.659,7.444,8.974,8.974,0,0,0,6.806,2.659,8.138,8.138,0,0,0,5.53-1.914,8.261,8.261,0,0,0,2.871-4.785h5.53a11.736,11.736,0,0,1-2.34,6.061,13.088,13.088,0,0,1-5,3.934,14.806,14.806,0,0,1-6.253,1.385Zm-6.806-24.671a9.158,9.158,0,0,0-2.765,6.381h17.865a9.247,9.247,0,0,0-2.659-6.275,8.688,8.688,0,0,0-6.167-2.339q-.189-.008-.377-.008A8.884,8.884,0,0,0,104.638,68.058Zm115.8,23.82V61.889h5.636l.212,11.379h.212a21.221,21.221,0,0,1,2.127-6.912,8.555,8.555,0,0,1,3.934-3.828,15.717,15.717,0,0,1,6.486-1.17v5.1a19.087,19.087,0,0,0-7.443,1.808,9.2,9.2,0,0,0-4.042,4.467,20.276,20.276,0,0,0-1.276,7.869V91.878Zm-89.963,0V61.889h5.636l.212,11.379h.212a21.215,21.215,0,0,1,2.128-6.912,8.559,8.559,0,0,1,3.934-3.828,15.716,15.716,0,0,1,6.486-1.17v5.1a19.086,19.086,0,0,0-7.443,1.808,9.2,9.2,0,0,0-4.042,4.467,20.278,20.278,0,0,0-1.276,7.869V91.878Zm-80.393,0V51.15h5.742V91.878Zm-12.76,0V61.889h5.849V91.878ZM0,91.878V80.606L29.349,57.047v-.368H0V51.362H31.8V62.209L2.445,86.356v.2H31.8v5.318Zm40.2-34.56a3.461,3.461,0,0,1-2.552-1.063A3.762,3.762,0,0,1,40.2,49.874a3.456,3.456,0,0,1,2.552,1.063A3.972,3.972,0,0,1,43.811,53.6a3.527,3.527,0,0,1-1.063,2.659,3.154,3.154,0,0,1-2.367,1.069C40.319,57.323,40.258,57.321,40.2,57.318ZM127.82,40.2a8.993,8.993,0,0,1-3.616-7.55h5.85a5.192,5.192,0,0,0,2.339,4.36c1.382,1.063,3.4,1.489,5.955,1.489a9.09,9.09,0,0,0,5.1-1.17,3.615,3.615,0,0,0,1.807-3.191A3.371,3.371,0,0,0,144.3,31.8a6.38,6.38,0,0,0-3.19-1.383l-8.188-1.807a12.433,12.433,0,0,1-6.062-2.871,7.3,7.3,0,0,1-2.127-5.317,7.505,7.505,0,0,1,3.4-6.593,15.542,15.542,0,0,1,9.145-2.445,15.96,15.96,0,0,1,9.783,2.871,8.921,8.921,0,0,1,3.616,7.657h-5.742a5.36,5.36,0,0,0-2.02-4.361,8.769,8.769,0,0,0-5.53-1.6,9.53,9.53,0,0,0-5.1,1.171,3.36,3.36,0,0,0-1.808,3.084,3.174,3.174,0,0,0,1.063,2.339,5.565,5.565,0,0,0,2.977,1.383l8.189,1.808a12.78,12.78,0,0,1,6.274,2.871,6.278,6.278,0,0,1,2.02,5.1,7.833,7.833,0,0,1-3.509,6.806c-2.234,1.6-5.424,2.446-9.358,2.446C133.668,42.962,130.266,42,127.82,40.2Zm-63.7.745a14.613,14.613,0,0,1-5.742-5.636,16.711,16.711,0,0,1-2.128-8.4,14.948,14.948,0,0,1,2.128-8.189,15.106,15.106,0,0,1,5.742-5.529,16.65,16.65,0,0,1,7.869-2.021,16.977,16.977,0,0,1,7.869,2.021A15.078,15.078,0,0,1,85.6,18.716,15.914,15.914,0,0,1,87.73,26.9a16.7,16.7,0,0,1-2.127,8.4,13.96,13.96,0,0,1-5.742,5.636,16.338,16.338,0,0,1-15.738,0Zm15.1-5.85c1.808-1.914,2.659-4.679,2.765-8.188a11.542,11.542,0,0,0-2.765-7.976A9.3,9.3,0,0,0,72.1,16.057a9.3,9.3,0,0,0-7.124,2.871c-1.808,1.914-2.659,4.573-2.659,7.976,0,3.509.851,6.167,2.659,8.188A9.007,9.007,0,0,0,72.1,38.069,9.007,9.007,0,0,0,79.222,35.092ZM189.39,42.855c-4.678,0-8.294-1.382-11.059-4.147-2.871-2.765-4.147-6.7-4.147-11.91a17.2,17.2,0,0,1,1.808-8.4,12.225,12.225,0,0,1,5.21-5.424,15.69,15.69,0,0,1,7.869-1.914,15.116,15.116,0,0,1,7.55,2.02,12.934,12.934,0,0,1,5.1,5.317,15.729,15.729,0,0,1,1.808,7.444v2.233l-23.714-.106a10.245,10.245,0,0,0,2.659,7.444,8.971,8.971,0,0,0,6.806,2.658,8.068,8.068,0,0,0,5.53-1.807,8.255,8.255,0,0,0,2.871-4.785h5.53a11.742,11.742,0,0,1-2.339,6.061,13.1,13.1,0,0,1-5,3.934,14.8,14.8,0,0,1-6.252,1.384Zm-6.912-24.67a9.834,9.834,0,0,0-2.765,6.274h17.865a9.192,9.192,0,0,0-2.659-6.167,8.689,8.689,0,0,0-6.167-2.34q-.187-.008-.374-.008A8.885,8.885,0,0,0,182.478,18.184ZM161.636,41.579a4.641,4.641,0,0,1-3.085-2.339,10.141,10.141,0,0,1-.957-5V16.057h-5.1V12.016h5.1V4.147h5.636l.212,7.869h8.295v4.041h-8.295V33.391c0,1.594.32,2.658.957,3.084a5.724,5.724,0,0,0,3.51.745c.957,0,2.339-.106,3.828-.213V41.9c-1.6.106-2.977.213-4.147.213q-.51.023-1.019.023A22.2,22.2,0,0,1,161.636,41.579ZM209.063,42V12.123h5.849V42ZM37.325,42V12.123h5.636L43.174,23.5h.213a23.919,23.919,0,0,1,2.127-7.018,8.876,8.876,0,0,1,3.934-3.722,15.724,15.724,0,0,1,6.487-1.17v5.1A19.093,19.093,0,0,0,48.49,18.5a8.531,8.531,0,0,0-4.041,4.361,20.259,20.259,0,0,0-1.276,7.869V42ZM19.035,41.9H.319V1.382H19.672a13.433,13.433,0,0,1,8.613,2.659,8.573,8.573,0,0,1,3.191,6.912,8.067,8.067,0,0,1-2.765,6.275,10.741,10.741,0,0,1-7.232,2.658v.426a11.976,11.976,0,0,1,7.975,2.977,9.3,9.3,0,0,1,2.978,7.018,10.575,10.575,0,0,1-3.616,8.507,14.772,14.772,0,0,1-9.057,3.1Q19.4,41.916,19.035,41.9ZM6.486,36.687H18.715a8.083,8.083,0,0,0,5.424-1.7,5.766,5.766,0,0,0,2.127-4.679,5.614,5.614,0,0,0-2.445-4.679,10.55,10.55,0,0,0-6.381-1.7H6.486Zm0-17.652H16.695a9.9,9.9,0,0,0,6.168-1.808A5.852,5.852,0,0,0,25.2,12.442a5.232,5.232,0,0,0-1.808-4.148A7.315,7.315,0,0,0,18.5,6.7H6.486ZM243.73,41.9V24.033a8.135,8.135,0,0,0-2.127-5.742,7.448,7.448,0,0,0-5.53-2.126,7.773,7.773,0,0,0-6.167,2.871,11.506,11.506,0,0,0-2.234,7.443V41.9h-5.849V12.016h5.636l.32,8.826h.319a11.14,11.14,0,0,1,3.51-7.018,10.351,10.351,0,0,1,7.124-2.659,10.552,10.552,0,0,1,9.464,5.317,11.6,11.6,0,0,1,1.382,5.849V41.9Zm-129.2,0V24.033a8.135,8.135,0,0,0-2.127-5.742,7.448,7.448,0,0,0-5.53-2.126,7.774,7.774,0,0,0-6.167,2.871,11.5,11.5,0,0,0-2.233,7.443V41.9h-5.85V12.016h5.636l.32,8.826H98.9a11.139,11.139,0,0,1,3.51-7.018,10.351,10.351,0,0,1,7.124-2.659,10.552,10.552,0,0,1,9.464,5.317,11.6,11.6,0,0,1,1.382,5.849V41.9Zm97.3-34.454a3.459,3.459,0,0,1-2.553-1.064,4.061,4.061,0,0,1-1.063-2.658,3.528,3.528,0,0,1,1.063-2.659A3.521,3.521,0,0,1,211.828,0a3.457,3.457,0,0,1,2.552,1.063,3.98,3.98,0,0,1,1.063,2.659,3.527,3.527,0,0,1-1.063,2.658,3.158,3.158,0,0,1-2.368,1.07Q211.921,7.45,211.828,7.445Z" transform="translate(0 -0.1)"/>
  </g>
</svg>
