<svg id="svgexport-1" xmlns="http://www.w3.org/2000/svg" width="101.732" height="52" viewBox="0 0 61.732 12">
  <path id="Path_40901" data-name="Path 40901" d="M52.947,5.7a.3.3,0,0,0-.3-.3,2.8,2.8,0,0,0-1.925.853,3.389,3.389,0,0,0-.805,2.4v2.9a.3.3,0,0,0,.3.3h.237a.3.3,0,0,0,.3-.3v-2.9a2.608,2.608,0,0,1,.565-1.806,1.963,1.963,0,0,1,1.324-.609.3.3,0,0,0,.3-.306Z" transform="translate(-24.587 -2.659)" fill="#ffffff" fill-rule="evenodd"/>
  <path id="Path_40902" data-name="Path 40902" d="M57,8.223a2.154,2.154,0,0,1,.714-1.508,3.124,3.124,0,0,1,3.421,0,2.19,2.19,0,0,1,.719,1.508Zm2.377,2.893a2.472,2.472,0,0,1-1.823-.622,2.232,2.232,0,0,1-.6-1.388H62.2A.445.445,0,0,0,62.541,9a.49.49,0,0,0,.123-.338A3.222,3.222,0,0,0,61.8,6.265a3.815,3.815,0,0,0-4.844,0,3.5,3.5,0,0,0-.863,2.426,3.234,3.234,0,0,0,.862,2.4,3.475,3.475,0,0,0,2.418.86,3.3,3.3,0,0,0,2.43-.862,2.078,2.078,0,0,0,.618-.969c.1-.317-.21-.3-.21-.3h-.39c-.176,0-.24.118-.331.292A2.279,2.279,0,0,1,59.379,11.116Z" transform="translate(-27.63 -2.659)" fill="#ffffff" fill-rule="evenodd"/>
  <path id="Path_40903" data-name="Path 40903" d="M75.485,7.974a2.92,2.92,0,0,1-3.611,0,2.474,2.474,0,0,1-.625-1.816,2.374,2.374,0,0,1,.625-1.783,2.943,2.943,0,0,1,3.611,0A2.387,2.387,0,0,1,76.1,6.158,2.488,2.488,0,0,1,75.485,7.974ZM76.712.426h-.237a.3.3,0,0,0-.3.3s0,3.233,0,3.233A2.518,2.518,0,0,0,75.1,3.15a3.821,3.821,0,0,0-1.379-.232,3.286,3.286,0,0,0-2.415.856,3.163,3.163,0,0,0-.865,2.375,3.239,3.239,0,0,0,.865,2.4,3.853,3.853,0,0,0,4.843,0,3.217,3.217,0,0,0,.865-2.376V.751A.307.307,0,0,0,76.712.426Z" transform="translate(-34.698 -0.21)" fill="#ffffff" fill-rule="evenodd"/>
  <path id="Path_40904" data-name="Path 40904" d="M37.756,8.677a3.278,3.278,0,0,0,.857,2.41,3.233,3.233,0,0,0,2.406.87,3.407,3.407,0,0,0,1.881-.475c.241-.147.215-.318.215-.51v-.152c0-.391-.319-.23-.495-.133a2.9,2.9,0,0,1-1.6.431,2.433,2.433,0,0,1-1.81-.628,2.473,2.473,0,0,1-.619-1.812,2.473,2.473,0,0,1,.619-1.812,2.433,2.433,0,0,1,1.81-.628,2.834,2.834,0,0,1,1.375.306c.172.083.495.246.495-.12V6.246c0-.191.027-.342-.216-.481A3.3,3.3,0,0,0,41.019,5.4a3.233,3.233,0,0,0-2.406.87A3.278,3.278,0,0,0,37.756,8.677Z" transform="translate(-18.598 -2.659)" fill="#ffffff" fill-rule="evenodd"/>
  <path id="Path_40905" data-name="Path 40905" d="M93.319,9.264a.305.305,0,0,0-.305-.307,1.966,1.966,0,0,1-1.327-.611,2.62,2.62,0,0,1-.566-1.813V4.157h1.39a.3.3,0,0,0,.3-.3V3.62a.3.3,0,0,0-.3-.3H91.121V1.324a.3.3,0,0,0-.3-.3h-.237a.3.3,0,0,0-.3.3V3.319h-.6a.3.3,0,0,0-.3.3v.236a.3.3,0,0,0,.3.3h.6V6.533a3.405,3.405,0,0,0,.807,2.412,2.8,2.8,0,0,0,1.929.856.3.3,0,0,0,.305-.3Z" transform="translate(-44.025 -0.504)" fill="#ffffff" fill-rule="evenodd"/>
  <path id="Path_40906" data-name="Path 40906" d="M86.305.426h-.227a.3.3,0,0,0-.291.31v.792a.3.3,0,0,0,.291.31h.227a.3.3,0,0,0,.291-.31V.736A.3.3,0,0,0,86.305.426Z" transform="translate(-42.257 -0.21)" fill="#ffffff" fill-rule="evenodd"/>
  <path id="Path_40907" data-name="Path 40907" d="M86.305,5.4h-.227a.3.3,0,0,0-.291.3v5.759a.3.3,0,0,0,.291.3h.227a.3.3,0,0,0,.291-.3V5.7A.3.3,0,0,0,86.305,5.4Z" transform="translate(-42.257 -2.659)" fill="#ffffff" fill-rule="evenodd"/>
  <path id="Path_40908" data-name="Path 40908" d="M102.6,9.673c0,1.028-.643,1.375-2.234,1.375-1.139,0-1.811-.378-1.811-1.188,0-.887.695-1.234,2.246-1.234h1.8Zm-.022-2.432v.674h-1.81c-2.09,0-3.022.6-3.022,1.951,0,1.246.979,1.99,2.62,1.99,2.138,0,3.043-.638,3.043-2.133V7.24a1.619,1.619,0,0,0-.629-1.335,2.417,2.417,0,0,0-1.2-.455,6.31,6.31,0,0,0-.86-.053,6.644,6.644,0,0,0-.827.046,2.462,2.462,0,0,0-1.274.462,1.611,1.611,0,0,0-.628,1.335.274.274,0,0,0,.294.26h.231a.273.273,0,0,0,.295-.268.849.849,0,0,1,.5-.794,3.825,3.825,0,0,1,1.4-.237,3.478,3.478,0,0,1,1.373.237A.84.84,0,0,1,102.577,7.24Z" transform="translate(-48.148 -2.659)" fill="#ffffff" fill-rule="evenodd"/>
  <path id="Path_40909" data-name="Path 40909" d="M113.245,8.94c1.536,0,2.089.093,2.089.975,0,.805-.783,1.144-1.911,1.144a2.909,2.909,0,0,1-1.842-.4.862.862,0,0,1-.26-.63.273.273,0,0,0-.295-.268h-.231a.275.275,0,0,0-.294.26,1.635,1.635,0,0,0,.624,1.35,4.155,4.155,0,0,0,2.3.488c1.642,0,2.741-.708,2.741-1.956,0-1.351-.823-1.765-2.915-1.765a3.053,3.053,0,0,1-1.324-.228.77.77,0,0,1-.493-.715.861.861,0,0,1,.493-.776,3.317,3.317,0,0,1,1.324-.212,3.585,3.585,0,0,1,1.354.222.856.856,0,0,1,.5.65.271.271,0,0,0,.295.25h.231a.259.259,0,0,0,.285-.26,1.523,1.523,0,0,0-.61-1.159,2.5,2.5,0,0,0-1.225-.463,6.143,6.143,0,0,0-.828-.046,5.6,5.6,0,0,0-.811.053,2.551,2.551,0,0,0-1.2.456,1.6,1.6,0,0,0,0,2.543A3.111,3.111,0,0,0,113.245,8.94Z" transform="translate(-54.431 -2.659)" fill="#ffffff" fill-rule="evenodd"/>
  <path id="Path_40910" data-name="Path 40910" d="M16.249,7.782a.818.818,0,0,1-.052.287A5.949,5.949,0,0,1,10.635,12a5.826,5.826,0,0,1-2.359-.5,5.924,5.924,0,0,1-2.353.5A5.962,5.962,0,0,1,0,6,5.962,5.962,0,0,1,5.923,0,5.749,5.749,0,0,1,8.276.5,5.825,5.825,0,0,1,10.635,0,5.949,5.949,0,0,1,16.2,3.93a.817.817,0,0,1,.052.287.638.638,0,0,1-.111.369.824.824,0,0,1-.681.336H11.592c-.643,0-.908-.753-.908-.753A5.142,5.142,0,0,0,8.278,1.433a5.182,5.182,0,0,0,0,9.134,5.142,5.142,0,0,0,2.406-2.738s.265-.752.908-.752h3.865a.824.824,0,0,1,.681.336A.638.638,0,0,1,16.249,7.782ZM11.444,3.675A6.025,6.025,0,0,0,9.285,1.01a5.055,5.055,0,0,1,1.4-.2,5.149,5.149,0,0,1,4.761,3.254H11.874C11.594,4.068,11.444,3.675,11.444,3.675ZM.807,5.949A5.115,5.115,0,0,1,5.888.814a4.994,4.994,0,0,1,1.379.195,6.008,6.008,0,0,0,0,9.882,5,5,0,0,1-1.379.195A5.115,5.115,0,0,1,.807,5.949Zm8.478,5.04a6.025,6.025,0,0,0,2.159-2.665s.15-.392.43-.392h3.568a5.149,5.149,0,0,1-4.761,3.254A5.058,5.058,0,0,1,9.285,10.989Z" transform="translate(0 0)" fill="#ffffff" fill-rule="evenodd"/>
  <path id="Path_40911" data-name="Path 40911" d="M16.249,7.782a.818.818,0,0,1-.052.287A5.949,5.949,0,0,1,10.635,12a5.826,5.826,0,0,1-2.359-.5,5.924,5.924,0,0,1-2.353.5A5.962,5.962,0,0,1,0,6,5.962,5.962,0,0,1,5.923,0,5.749,5.749,0,0,1,8.276.5,5.825,5.825,0,0,1,10.635,0,5.949,5.949,0,0,1,16.2,3.93a.817.817,0,0,1,.052.287.638.638,0,0,1-.111.369.824.824,0,0,1-.681.336H11.592c-.643,0-.908-.753-.908-.753A5.142,5.142,0,0,0,8.278,1.433a5.182,5.182,0,0,0,0,9.134,5.142,5.142,0,0,0,2.406-2.738s.265-.752.908-.752h3.865a.824.824,0,0,1,.681.336A.638.638,0,0,1,16.249,7.782ZM11.444,3.675A6.025,6.025,0,0,0,9.285,1.01a5.055,5.055,0,0,1,1.4-.2,5.149,5.149,0,0,1,4.761,3.254H11.874C11.594,4.068,11.444,3.675,11.444,3.675ZM.807,5.949A5.115,5.115,0,0,1,5.888.814a4.994,4.994,0,0,1,1.379.195,6.008,6.008,0,0,0,0,9.882,5,5,0,0,1-1.379.195A5.115,5.115,0,0,1,.807,5.949Zm8.478,5.04a6.025,6.025,0,0,0,2.159-2.665s.15-.392.43-.392h3.568a5.149,5.149,0,0,1-4.761,3.254A5.058,5.058,0,0,1,9.285,10.989Z" transform="translate(0 0)" fill="#ffffff" fill-rule="evenodd"/>
</svg>
