<svg width="666" height="121" viewBox="0 0 666 121" fill="none" xmlns="http://www.w3.org/2000/svg">
<path d="M606.53 66.91L606.6 66.89C607.26 66.64 608 66.75 608.56 67.17C623.56 78.5 653.58 64.68 662.25 55.82C664.9 53.1 666.04 49.42 665.4 45.7C664.74 41.97 662.4 38.87 658.98 37.18L657.08 36.26L657.15 36.44C652.25 34.91 646.78 36.96 643.09 41.87C642.43 42.73 641.7 43.73 640.91 44.83C635.78 51.88 627.2 63.69 619.33 64.9C617.11 65.24 615.11 64.74 613.21 63.37C612.46 62.82 612.15 61.85 612.45 60.99L612.47 60.92C612.72 60.19 613.28 59.66 613.93 59.49C632.05 54.7 639.73 23.05 638.11 10.97C637.61 7.23002 635.4 4.05002 632.06 2.24002C628.7 0.420025 624.79 0.300013 621.32 1.90001L621.08 2.01001C615.74 4.45001 613.35 10.52 615.1 17.11C615.38 18.16 615.72 19.34 616.09 20.62C619.24 31.62 624.49 50.03 614.04 53.43C613.01 53.76 611.91 53.37 611.32 52.52L611.25 52.42C610.82 51.81 610.75 51.01 611.04 50.32C618.16 33.34 598.02 7.88002 587.62 1.69002C584.36 -0.249979 580.48 -0.539983 576.95 0.920017C573.4 2.37002 570.85 5.33001 569.96 9.01001L569.9 9.26001C568.52 14.91 571.82 20.55 578.13 23.29C579.13 23.73 580.3 24.21 581.55 24.73C592.3 29.2 610.27 36.68 606.12 46.97C605.76 47.86 604.83 48.41 603.78 48.36C602.99 48.31 602.27 47.88 601.92 47.22C593 31.02 560.24 30.71 548.79 34.9C545.22 36.21 542.58 39.04 541.53 42.66C540.48 46.31 541.22 50.1 543.58 53.12L543.73 53.31C547.33 57.9 553.86 58.87 559.96 55.71C560.93 55.21 562.02 54.62 563.22 53.97C573.52 48.42 590.77 39.14 596.22 49C596.66 49.78 596.53 50.78 595.9 51.48L595.83 51.56C595.29 52.13 594.5 52.39 593.74 52.25C575.39 49.01 554.66 74.13 550.84 85.61C549.64 89.19 550.24 93.01 552.46 96.08C554.68 99.16 558.16 100.94 561.99 101H562.23C562.23 101 562.34 101 562.39 101C568.2 101 572.95 96.59 574.25 89.96C574.46 88.89 574.67 87.68 574.92 86.35C576.46 77.69 579.04 63.19 585.74 58.88C587.68 57.63 589.83 57.3 592.29 57.9C592.99 58.07 593.54 58.68 593.65 59.41L593.69 59.6C593.79 60.26 593.52 60.93 592.97 61.38C578.45 73.31 585.4 105.32 592.23 115.63C594.32 118.78 597.69 120.7 601.5 120.9C601.72 120.91 601.94 120.92 602.17 120.92C605.76 120.92 609.07 119.37 611.39 116.57L611.52 116.41C615.25 111.92 614.76 105.42 610.27 100.25C609.56 99.43 608.74 98.51 607.84 97.5C601.94 90.91 592.08 79.86 592.84 72C593.06 69.7 594.14 67.85 596.16 66.32C596.77 65.85 597.65 65.81 598.33 66.21C598.94 66.56 599.32 67.22 599.34 67.96C599.7 86.64 629.37 101.23 641.79 102.39C645.58 102.74 649.21 101.33 651.74 98.53C654.3 95.7 655.3 91.95 654.49 88.24L654.43 87.98C653.2 82.3 647.8 78.65 640.87 78.85C639.78 78.88 638.53 78.95 637.17 79.02C628.3 79.45 613.45 80.19 607.69 74.72C606.01 73.13 605.21 71.15 605.24 68.66C605.24 67.88 605.76 67.18 606.53 66.91Z" fill="#F2496B"/>
<path d="M0.390015 43.72H22.62L33.66 71.46C35.06 75 40.07 75.01 41.49 71.48L52.72 43.72H72.44L84.63 72.05C86.12 75.51 91.06 75.44 92.44 71.92L103.5 43.72H125.01L99.07 102.63H78.99L66.07 72.77C64.59 69.36 59.75 69.38 58.3 72.81L45.77 102.64H26.05L0.390015 43.72Z" fill="#F2496B"/>
<path d="M121.21 73.35C121.21 54.95 137.82 42.04 162.8 42.04C187.77 42.04 202.95 55.54 202.95 73.59V77.05H147.38C145.08 77.05 143.53 79.44 144.49 81.53C147.16 87.37 153.96 90.67 163.74 90.67C171.63 90.67 177.48 88.28 180.83 84.94C181.55 84.22 182.15 83.5 182.62 82.79L202.34 85.89C201.86 86.97 201.15 88.04 200.31 88.99C193.26 98.91 180.48 104.89 163.39 104.89C138.17 104.89 121.21 92.34 121.21 73.34V73.35ZM176.52 66.18C179.29 66.18 180.71 62.9 178.85 60.86C175.71 57.42 170.35 55.31 163.16 55.31C155.97 55.31 150.4 57.33 146.96 60.89C145.05 62.86 146.56 66.19 149.31 66.19H176.52V66.18Z" fill="#F2496B"/>
<path d="M208.92 18.99H230.66V102.63H208.92V18.99Z" fill="#F2496B"/>
<path d="M241.17 18.99H262.91V102.63H241.17V18.99Z" fill="#F2496B"/>
<path d="M273.43 18.99H295.17V46.57C295.17 49.27 298.34 50.73 300.4 48.97C305.63 44.49 312.58 42.06 321.23 42.06C338.32 42.06 348.83 51.86 348.83 69.3V102.64H327.32V72.65C327.32 62.73 321.7 57.35 311.91 57.35C301.4 57.35 295.18 63.8 295.18 74.44V102.64H273.44V18.99H273.43Z" fill="#F2496B"/>
<path d="M356.37 77.06V43.73H378V73.66C378 82.05 384.75 88.92 393.14 89.02C403.71 89.14 410.15 82.67 410.15 71.93V43.72H431.78V102.63H410.5V101.64C410.5 98.09 406.45 96.2 403.63 98.35C398.56 102.21 392.04 104.3 384.09 104.3C366.88 104.3 356.37 94.5 356.37 77.06Z" fill="#F2496B"/>
<path d="M462.51 102.21V102.63H441.24V18.99H462.99V46.72C462.99 49.4 466.11 50.87 468.18 49.15C473.72 44.54 481.62 41.81 490.83 41.81C511.38 41.81 525.49 54.72 525.49 73.48C525.49 92.24 511.15 104.9 490.48 104.9C481.95 104.9 474.66 102.62 469.21 98.68C466.42 96.66 462.52 98.75 462.52 102.2V102.21H462.51ZM482.83 90.21C495.26 90.21 502.79 83.76 502.79 73.48C502.79 63.2 495.5 56.87 483.08 56.87C470.65 56.87 462.64 63.45 462.64 73.6C462.64 83.75 470.64 90.21 482.83 90.21Z" fill="#F2496B"/>
</svg>

