<svg width="284" height="70" viewBox="0 0 284 70" fill="none" xmlns="http://www.w3.org/2000/svg">
<path d="M9.5 55.6L14.2 43L18.6 55.7H9.5V55.6ZM23.2 68.4H27.5L16.3 37.9H12.1L0.5 68.4H4.8L8.2 59H19.8L23.2 68.4ZM43.5 61.9C43.5 64.4 41.5 65.7 38 65.7C35.2 65.7 33.4 64.9 32.3 63.1L28.2 63.8C29.8 67.1 33.1 68.6 37.8 68.6C44.2 68.6 47.5 65.1 47.5 61.3C47.5 56.5 43 55.2 37.9 54.1C35.4 53.6 32.5 52.7 32.5 50.5C32.5 48.9 34 47.1 37.1 47.1C40.2 47.1 42.1 49.2 42.4 50.1L46 48.6C44.3 45.4 41 44.2 37.6 44.2C32.2 44.2 28.7 46.8 28.7 51C28.7 55.8 32.8 56.7 36.8 57.6C40.2 58.5 43.5 59.3 43.5 61.9ZM56.1 37.9L52.1 39.6V45.2H48.4V48.4H52.1V63.3C52 66.3 52 68.5 56.6 68.5C58.1 68.5 59.7 68.2 60.4 68.1V65C59.6 65.2 58.6 65.5 57.9 65.5C56.2 65.5 56.2 64.3 56.2 61.6V48.4H60.4V45.2H56.2V37.9H56.1ZM63.8 45.2V68.4H67.7V57.7C67.7 55.7 67.6 53.4 68.7 51.7C70 49.6 71.8 48.9 75.7 48.8V44.8C74.1 44.9 70 44.9 67.8 49.3V45.2H63.8ZM98.6 37.9V41.7H116L98.7 64.5V68.5H121V64.8H103.3L120.6 41.8V38H98.6V37.9ZM145.4 45.2V68.4H149.3V55.2C149.3 53.5 149.3 51.7 151 50C152.2 48.8 153.7 48.2 155.4 48.2C157.5 48.2 159.7 49.2 160.4 51.4C160.6 52.2 160.6 52.9 160.6 55.2V68.3H164.5V54.7C164.5 52.7 164.5 51.3 164.1 50C163 46.2 159.4 44.7 156.5 44.7C155.1 44.7 151.4 45 149.3 48.8V45.3H145.4V45.2ZM205.8 62.8C205 64.4 203.5 65.8 200.4 65.8C197.8 65.8 193.4 64.2 193.4 56.5C193.4 54.4 193.8 47.2 200.2 47.2C203.4 47.2 204.9 49 205.6 50.5L209.2 49C207 45.3 202.9 44.4 200 44.4C192.6 44.4 189 50.3 189 56.9C189 62.6 192.1 68.9 200.3 68.9C205 68.9 207.7 66.6 209.1 64.3L205.8 62.8ZM126.6 54.4H138.9C138.6 48.3 135.1 47.3 132.7 47.3C129.4 47.3 127.1 49.7 126.6 54.4ZM142.1 64C140.8 66.3 138.2 68.8 133.2 68.8C126.4 68.8 122.4 64.2 122.4 56.4C122.4 47.7 128.1 44.4 133 44.4C137.3 44.4 141.3 46.8 142.7 52.6C143.1 54.6 143.1 56.3 143.1 57.3H126.5C126.4 61.2 128 66.1 133.5 66C135.7 66 137.3 64.9 138.3 63.4L142.1 64ZM170.9 54.4H183.2C182.9 48.3 179.4 47.3 177 47.3C173.6 47.3 171.3 49.7 170.9 54.4ZM186.3 64C185 66.3 182.4 68.8 177.4 68.8C170.6 68.8 166.6 64.2 166.6 56.4C166.6 47.7 172.3 44.4 177.2 44.4C181.5 44.4 185.5 46.8 186.9 52.6C187.3 54.6 187.3 56.3 187.3 57.3H170.6C170.5 61.2 172.1 66.1 177.6 66C179.8 66 181.4 64.9 182.4 63.4L186.3 64ZM230.6 68.4H226.5C226.5 68.4 226.1 66.8 226 65C224.8 66.2 222.6 68.7 218.2 68.7C213.7 68.7 210.4 66 210.4 62.1C210.4 60.9 210.7 59.6 211.4 58.6C212.7 56.6 215.2 55.1 222.1 54.5L225.8 54.2V53.6C225.8 51.2 225.8 47.2 220.6 47.2C217.4 47.2 216.2 48.8 215.9 50.2L212.3 48.7C212.4 48.6 212.4 48.4 212.5 48.3C213.9 45.8 216.6 44.2 220.5 44.2C222.6 44.2 225.4 44.7 227.2 46.2C229.8 48.2 229.7 52 229.7 52L229.9 63.9C229.9 64 230.1 67.4 230.6 68.4ZM225.2 62C225.8 60.7 225.8 60.2 225.8 56.8C224.3 57 222.2 57.3 219.7 57.9C215.4 58.8 214.7 60.5 214.7 62.1C214.7 64 216.2 65.5 219.1 65.5C221.8 65.5 224.1 64.4 225.2 62ZM95.9 68.4H91.9C91.9 68.4 91.5 66.8 91.4 65C90.2 66.2 88 68.7 83.6 68.7C79.1 68.7 75.7 66 75.7 62.1C75.7 60.9 76 59.6 76.7 58.6C78 56.6 80.5 55.1 87.4 54.5L91.1 54.2V53.6C91.1 51.2 91.1 47.2 85.9 47.2C82.6 47.2 81.5 48.8 81.2 50.2L77.6 48.7C77.7 48.6 77.7 48.4 77.8 48.3C79.2 45.8 81.9 44.2 85.8 44.2C87.9 44.2 90.7 44.7 92.5 46.2C95.1 48.2 95 52 95 52L95.1 63.9C95.2 64 95.4 67.4 95.9 68.4ZM90.6 62C91.2 60.7 91.2 60.2 91.2 56.8C89.7 57 87.6 57.3 85.1 57.9C80.8 58.8 80.1 60.5 80.1 62.1C80.1 64 81.6 65.5 84.5 65.5C87.1 65.5 89.4 64.4 90.6 62Z" fill="#860052"/>
<path d="M255.9 48.9C255.3 49.3 254.7 49.7 254.1 50.1C247.1 46.2 232.1 38.7 230.8 38.1C229.4 37.4 227 36.4 227.3 34.1C227.7 30.9 233.4 23.8 235.8 20.8C248.8 5 254.6 0.0999984 258.4 0.599998C262.5 1.1 264.8 5.4 265.1 25.2C262.8 24.5 260.3 23.8 257.6 23.1C257.4 20.2 256.8 15.9 256.6 14.4C256.4 12.7 256 12.1 255.4 12C254.6 11.9 252.7 13.7 251 15.5C250.2 16.3 248 18.5 245.6 21C243.6 20.9 242.2 21.3 241.5 22.3C240.9 23.1 240.8 24.2 241.1 25.6C239.8 26.9 238.7 28 237.9 28.8C235.2 31.5 232.3 33.7 232.2 34.8C232.1 35.7 233.4 36.6 235.4 37.8C240 40.3 251.7 46.7 255.9 48.9ZM274.1 29.1C269.5 27.5 258.2 23.3 246.3 21.7C242.2 21.2 240.6 22.6 242.2 26.5C243.9 30.4 248.2 36.8 252.7 41.7C257.2 46.5 262.1 47.8 263.7 40.4C263.8 40.1 263.8 39.9 263.9 39.6C264.3 37.7 264.6 35.8 264.7 34.2C262.7 33.3 260.4 32.3 258.2 31.4C258.3 33.1 258.5 36.1 258.6 38.3C258.6 38.6 258.6 38.9 258.6 39.1C258.7 42.8 257.5 42.8 255.4 41.3C253 39.6 245.5 29.7 244.6 25.3C244.6 25 244.7 25 244.8 25.1C244.9 25.1 244.9 25.1 245 25.2C246.7 25.9 252.3 28.1 258 30.5C260.3 31.5 262.6 32.4 264.6 33.4C266.6 34.3 268.4 35.2 269.8 35.9C272.3 37.2 273.2 38.1 272.2 39.2C267.1 44.4 249.1 51.8 242.9 61C242.9 61 242.9 61 242.8 61.1C242.7 61.2 242.7 61.3 242.6 61.4C242.6 61.4 242.6 61.5 242.5 61.5C242.2 62.1 241.8 63 241.6 64.2C241.3 66.2 242.4 68 245.3 68.8C246 69 246.8 69.2 247.7 69.3C247.9 69.3 248 69.3 248.2 69.3C253.7 69.6 268.1 66.4 272.4 64.5C276.9 62.5 275.6 60.5 274.3 59.5C273.3 58.7 268.3 55.9 265.9 54.6C265.2 55 264.7 55.3 264.1 55.8C268.2 58.3 269.9 59.6 270.9 60.3C271.3 60.6 271.1 60.9 270.5 61C270.4 61 270.2 61 270.1 61C266.2 61.3 258.7 61.8 255.2 62C254.7 62 254.1 62.1 253.8 62.1C254.7 61.3 255.6 60.6 256.1 60.2C263.6 54.9 276.1 47.5 279.8 44.3C282.6 41.8 290 34.6 274.1 29.1Z" fill="#FCAF17"/>
</svg>

