<svg id="Group_1" data-name="Group 1" xmlns="http://www.w3.org/2000/svg" width="357.587" height="83.237" viewBox="0 0 357.587 83.237">
  <path id="Path_1" data-name="Path 1" d="M200.819,39.332A19.659,19.659,0,0,0,209.1,22.645a21.053,21.053,0,0,0-7-16.11A23.834,23.834,0,0,0,185.163,0H152.709V81.717h59.538V39.332Zm-1.995,29.777H166.136v-56.5h19.027A10.445,10.445,0,0,1,195.67,23.346a10.447,10.447,0,0,1-10.507,10.74h-5.6v12.14h19.262V69.11h0ZM48.447,0H61.874V81.717H48.447V46.347H13.427V81.72H0V0H13.426V33.5H48.448V0ZM76.535,0H89.96V53.817c0,9.923,5.836,16.343,17.511,16.343s17.51-6.42,17.51-16.343V0h13.427V54.635c0,8.756-2.92,15.645-8.638,20.9-5.722,5.137-13.192,7.705-22.3,7.705s-16.578-2.568-22.3-7.705c-5.722-5.252-8.638-12.141-8.638-20.9V0h0ZM239.977,68.877H273.25V81.72h-46.7V0h13.426ZM343.11,81.717l-5.721-16.46H302.6l-5.722,16.46H282.287L311.942,0h16.111l29.534,81.717H343.11ZM307.039,52.649h25.916L320,15.759l-12.96,36.89Z" fill="#3b4d00"/>
</svg>
