<svg xmlns="http://www.w3.org/2000/svg" width="1360.823" height="618.923" viewBox="0 0 1360.823 618.923">
  <path id="logo-alura" d="M221.383,384.07a17.662,17.662,0,0,1-8.758,12.65,59.293,59.293,0,0,1-12.894,6.033c-8.807,3.041-18.076,6.082-27.88,9.609-10.339,3.528-19.608,7.055-27.88,9.609-10.315,3.528-20.119,6.569-29.437,10.1A86.849,86.849,0,0,0,94.951,443.7,83.249,83.249,0,0,0,80.5,460.872c-4.136,7.055-6.739,16.154-6.739,26.761,0,21.238,5.157,37.392,15.5,47.488,10.315,10.631,29.437,15.667,57.779,15.667q43.352,0,58.873-16.665,15.436-16.677,15.448-46.953V384.07ZM147.061,160.254c50.6,0,87.75,9.609,111.47,29.315,23.744,19.219,35.616,43.936,35.616,73.227V512.4c0,10.1-2.044,21.214-5.644,33.329-3.649,12.164-10.85,23.257-22.211,33.329-10.826,10.145-25.787,18.732-44.885,25.3s-43.863,10.1-74.321,10.1c-30.41,0-55.224-3.528-74.3-10.1S38.73,589.2,27.9,579.057A80.915,80.915,0,0,1,5.717,545.728C2.068,533.637,0,522.519,0,512.423v-39.9c0-21.238,5.668-40.944,17.029-58.143,11.361-17.662,27.344-29.777,48-37.367,10.315-3.528,22.187-7.055,35.592-11.6,13.429-4.574,25.787-9.123,38.195-13.137,12.407-4.063,23.233-8.125,32.5-11.677q8.39-3.357,17.029-6.033l9.293-4.549a42.867,42.867,0,0,0,10.85-9.1,64.389,64.389,0,0,0,9.293-13.624,38.924,38.924,0,0,0,4.136-17.662V273.451a41.114,41.114,0,0,0-3.649-17.2c-2.044-6.082-6.179-11.629-11.848-16.665-5.668-5.06-13.429-9.1-22.7-12.164-9.293-2.992-21.652-4.525-35.616-4.525-28.9,0-48,5.6-58.314,17.175a62.436,62.436,0,0,0-14.937,36.881c0,3.041-2.579,5.06-5.693,5.06L6.228,283.036a5.668,5.668,0,0,1-5.693-5.6v-14.6A95.653,95.653,0,0,1,8.807,222.9c5.693-12.65,14.475-23.233,26.323-32.356C47,181.468,62.5,173.9,81.06,168.842c18.076-6.082,40.262-8.588,66.05-8.588ZM1288.035,384.07a17.662,17.662,0,0,1-8.758,12.65,58.26,58.26,0,0,1-12.894,6.033c-8.758,3.041-18.076,6.082-27.88,9.609-10.339,3.528-19.632,7.055-27.88,9.609-10.339,3.528-20.143,6.569-29.437,10.1a86.855,86.855,0,0,0-19.608,11.629,83.251,83.251,0,0,0-14.426,17.175c-4.136,7.055-6.714,16.154-6.714,26.761,0,21.238,5.109,37.392,15.448,47.488,10.315,10.631,29.437,15.667,57.8,15.667q43.425,0,58.873-16.665t15.448-46.953V384.07Zm-74.3-223.816c50.6,0,87.75,9.609,111.494,29.315,23.72,19.219,35.592,43.936,35.592,73.227V512.4c0,10.1-2.044,21.214-5.668,33.329-3.6,12.164-10.826,23.257-22.187,33.329-10.826,10.145-25.787,18.732-44.885,25.3-19.073,6.569-43.863,10.1-74.3,10.1-30.41,0-55.224-3.528-74.3-10.1s-34.059-15.156-44.885-25.3a80.889,80.889,0,0,1-22.139-33.329c-3.649-12.115-5.717-23.233-5.717-33.329V472.5c0-21.238,5.693-40.944,17.029-58.143,11.361-17.662,27.369-29.777,48-37.367,10.315-3.528,22.187-7.055,35.616-11.6,13.38-4.574,25.787-9.123,38.195-13.137,12.407-4.063,23.209-8.125,32.5-11.677q8.39-3.357,17.029-6.033l9.293-4.549a43.212,43.212,0,0,0,10.826-9.1,61.8,61.8,0,0,0,9.293-13.624,38.925,38.925,0,0,0,4.136-17.662V273.427a41.113,41.113,0,0,0-3.649-17.2c-2.043-6.082-6.155-11.629-11.848-16.665-5.668-5.06-13.38-9.1-22.7-12.164-9.293-2.992-21.652-4.525-35.616-4.525-28.9,0-47.974,5.6-58.314,17.175a62.615,62.615,0,0,0-14.962,36.881c0,3.041-2.554,5.06-5.644,5.06h-62.6a5.668,5.668,0,0,1-5.644-5.547v-14.67a95.368,95.368,0,0,1,8.271-39.9c5.668-12.6,14.426-23.233,26.274-32.307,11.921-9.1,27.369-16.689,45.979-21.725,17.516-5.109,39.7-7.615,65.515-7.615Zm-221.383,2.019h41.309a5.477,5.477,0,0,1,5.157,7.055l-13.94,52.548a5.367,5.367,0,0,1-5.158,4.063h-28.9c-15.473,0-27.855,2.019-37.659,6.082-9.318,4.014-17.029,8.563-22.211,14.11-5.158,5.6-8.271,11.118-9.8,16.689a66.657,66.657,0,0,0-2.068,16.665V604.358a5.668,5.668,0,0,1-5.717,5.547h-61.89a5.669,5.669,0,0,1-5.668-5.548V264.815c0-6.033,1.022-15.132,3.6-26.761,2.068-11.6,8.271-22.722,18.076-34.351,9.8-11.118,24.255-21.214,43.863-29.291,19.633-8.125,46.466-12.164,81.012-12.164ZM783.866,501.281v15.156c0,6.569-.973,15.667-3.576,27.3-2.068,11.093-8.271,22.722-18.076,33.816-9.8,11.142-24.255,21.238-43.863,29.315-19.608,8.1-46.466,12.164-81.012,12.164s-61.4-4.063-81.012-12.164c-19.608-8.077-34.059-17.662-43.863-29.291-9.8-11.094-16.008-22.722-18.076-34.3-2.044-11.677-3.576-20.241-3.576-26.809V176.432a5.691,5.691,0,0,1,5.668-5.6h61.4a5.7,5.7,0,0,1,5.693,5.6v318.28a92.791,92.791,0,0,0,3.09,24.255,40.58,40.58,0,0,0,9.318,17.175c4.622,5.547,11.872,10.1,21.652,13.624,9.293,3.552,22.211,5.6,38.195,5.6,16.543,0,29.923-2.044,39.752-5.6,9.8-3.528,17.029-8.077,22.187-13.137,5.109-5.036,8.758-10.583,10.291-16.664,1.557-6.082,3.649-11.093,3.649-25.787V175.945a5.644,5.644,0,0,1,5.644-5.547h61.4a5.67,5.67,0,0,1,5.644,5.6V501.329h-.487ZM361.268.128H422.7a5.645,5.645,0,0,1,5.668,5.522V607.374a5.668,5.668,0,0,1-5.668,5.6H361.268a5.668,5.668,0,0,1-5.668-5.6V5.651C356.086,2.634,358.178.1,361.268.1Z" transform="translate(0 -0.104)" fill="#2a7ae4" fill-rule="evenodd"/>
</svg>
