<?xml version="1.0" encoding="UTF-8"?>
<svg id="Layer_1" data-name="Layer 1" xmlns="http://www.w3.org/2000/svg" viewBox="0 0 46.2 23.69">
  <defs>
    <style>
      .cls-1 {
        fill: #e66425;
        fill-rule: evenodd;
      }
    </style>
  </defs>
  <g id="logo">
    <path d="M46.11,4.75c-.28-1.56-1.16-2.87-2.36-3.71-1.2-.84-2.73-1.23-4.3-.95s-2.87,1.16-3.71,2.37c-.14,.2-.27,.42-.39,.64-2.05-1.07-4.46-1.49-6.92-1.06-2.9,.51-5.32,2.12-6.92,4.32-.09-1.41-.7-2.68-1.64-3.62-1.02-1.02-2.43-1.65-3.99-1.65s-2.97,.63-3.98,1.65c-1.02,1.02-1.65,2.43-1.65,3.99,0,1.09,.31,2.11,.85,2.98-.23,.18-.45,.38-.65,.58-.77,.77-1.38,1.7-1.77,2.74V.6L.26,9.08l-.26,.26v5.7l4.32-4.3v12.3h4.36v-4.61c.39,1.04,1,1.97,1.77,2.74,1.39,1.39,3.31,2.25,5.44,2.25s4.05-.86,5.44-2.25c.33-.33,.64-.7,.9-1.09,.55,.61,1.17,1.16,1.85,1.63,2.29,1.6,5.19,2.33,8.15,1.81,2.97-.52,5.44-2.2,7.04-4.49,1.5-2.14,2.23-4.81,1.89-7.58,.09-.01,.19-.03,.28-.04,1.56-.28,2.87-1.16,3.71-2.36,.84-1.2,1.23-2.73,.95-4.3Zm-19.55,13.42c-1.38-.97-2.39-2.46-2.71-4.25s.12-3.54,1.09-4.92,2.46-2.39,4.25-2.71c1.79-.32,3.54,.12,4.92,1.09,.58,.41,1.09,.91,1.51,1.48-.03-.04-.06-.08-.08-.12,.05,.06,.09,.12,.13,.18-.02-.02-.04-.04-.05-.06,.09,.14,.19,.28,.29,.42,0,0,0-.01-.01-.02,0,0,0,.01,0,.02,0,0,0,.01,.01,.02,0,0,0-.01-.01-.02,.44,.7,.75,1.49,.9,2.35,.32,1.79-.12,3.54-1.09,4.92s-2.46,2.39-4.25,2.71-3.54-.12-4.92-1.09Zm9.87-8.3s-.03-.03-.04-.04c-.01-.01-.03-.03-.04-.04,.03,.03,.06,.06,.08,.08Zm.53,.46s.03,.02,.05,.03c-.01,0-.02-.01-.03-.02h0s-.01,0-.02-.01Zm2.67-3.41c-.3-.21-.52-.53-.58-.92-.07-.39,.03-.76,.23-1.06,.21-.3,.53-.52,.92-.58,.39-.07,.76,.03,1.06,.23,.3,.21,.52,.53,.58,.92s-.03,.76-.23,1.06c-.21,.3-.53,.52-.92,.58-.39,.07-.76-.03-1.06-.23Zm-25.06-.19c0-.36,.15-.69,.38-.93,.24-.24,.56-.38,.93-.38s.69,.15,.93,.38c.24,.24,.38,.56,.38,.93,0,.36-.15,.69-.38,.93-.24,.24-.56,.38-.93,.38s-.69-.15-.93-.38c-.24-.24-.38-.56-.38-.93Zm-1.07,6.62c.61-.61,1.45-.98,2.38-.98s1.77,.38,2.38,.98,.99,1.45,.98,2.38c0,.93-.38,1.77-.98,2.38-.61,.61-1.45,.98-2.38,.98s-1.77-.38-2.38-.98c-.61-.61-.98-1.45-.98-2.38s.38-1.77,.98-2.38ZM35.55,3.19s.01,0,.02,0c0,0,0,0,.01,0-.03-.02-.06-.03-.09-.05,.02,.01,.04,.02,.06,.03Zm-.18-.09s.01,0,.02,0c.03,.01,.05,.03,.08,.04-.02,0-.03-.02-.05-.03-.02,0-.03-.02-.05-.03h0Zm5.6,8.38s-.02,0-.03,0c.02,0,.04,0,.06,0-.01,0-.02,0-.03,0Zm.16-.02s-.03,0-.05,0c.01,0,.02,0,.03,0,.01,0,.02,0,.04,0,0,0-.01,0-.02,0Z"/>
    <path class="cls-1" d="M40.45,4.7c.58,0,1.06,.47,1.06,1.06s-.47,1.06-1.06,1.06-1.06-.47-1.06-1.06,.47-1.06,1.06-1.06Z"/>
  </g>
</svg>