<svg id="svgexport-3" xmlns="http://www.w3.org/2000/svg" width="30.557" height="16" viewBox="0 0 30.557 16">
  <path id="Path_40912" data-name="Path 40912" d="M5.79,23.242c-1.743,0-2.945-1.444-2.945-3.578,0-2.154,1.2-3.6,2.945-3.6s2.945,1.443,2.945,3.577c0,2.154-1.2,3.6-2.945,3.6m0,2.7c3.226,0,5.79-2.683,5.79-6.3,0-3.577-2.424-6.28-5.79-6.28-3.226,0-5.79,2.682-5.79,6.3,0,3.639,2.424,6.281,5.79,6.281" transform="translate(0 -10.03)" fill="#6e0ad6" fill-rule="evenodd"/>
  <path id="Path_40913" data-name="Path 40913" d="M17.907,20.118h5.529a.552.552,0,0,0,.6-.61V17.74a.552.552,0,0,0-.6-.61H19.729V9.61a.552.552,0,0,0-.6-.61H17.305a.553.553,0,0,0-.6.61V18.9a1.087,1.087,0,0,0,1.2,1.219" transform="translate(-3.942 -9)" fill="#8ce563" fill-rule="evenodd"/>
  <path id="Path_40914" data-name="Path 40914" d="M27.343,25.834l3.326-3.883,3.226,3.883a.608.608,0,0,0,.961.061l1.3-1.159a.628.628,0,0,0,.06-.976L32.632,19.7l3.265-3.72a.643.643,0,0,0-.06-.976l-1.222-1.118a.6.6,0,0,0-.962.061L30.669,17.46l-3.045-3.517a.609.609,0,0,0-.962-.061L25.4,15.02a.628.628,0,0,0-.04.976l3.326,3.719L25.059,23.8a.628.628,0,0,0,.06.976L26.381,25.9a.622.622,0,0,0,.962-.061" transform="translate(-5.866 -10.102)" fill="#f28000" fill-rule="evenodd"/>
</svg>
