<svg width="145" height="58" viewBox="0 0 145 58" fill="none" xmlns="http://www.w3.org/2000/svg">
  <g clip-path="url(#clip0_1618_951)">
    <path
      d="M19.4784 30.429H29.3899L13.0288 45.4879H23.9964L34.5435 35.9901V45.4879H42.4725V22.8831H19.4784V30.429Z"
      fill="#fff"></path>
    <path
      d="M7.69732 23.3464C7.69732 12.2105 15.2692 7.02366 22.5239 7.02366C29.7787 7.02366 33.9079 11.1729 35.4976 16.1158L42.7041 13.6375C40.2982 6.24782 33.362 0 22.5239 0C10.9152 0 0 8.60412 0 23.3464C0 25.042 0.142007 26.6526 0.399825 28.1824L7.81038 25.6342C7.73868 24.8994 7.69732 24.1387 7.69732 23.3464Z"
      fill="#fff"></path>
    <path
      d="M75.0954 14.7244H67.7138V32.9456C67.7138 36.9948 65.4872 39.8418 61.2229 39.8418C56.9585 39.8418 54.987 36.6151 54.987 32.8195V14.7244H47.6054V34.1477C47.6054 40.9809 51.9331 46.4213 59.3147 46.4213C62.9421 46.4213 66.5695 44.9025 68.0971 42.1186C68.0971 43.3838 68.2239 44.8395 68.3522 45.5358H75.4153C75.2884 44.3967 75.0968 42.4352 75.0968 39.9048V14.7244H75.0954Z"
      fill="#fff"></path>
    <path
      d="M97.3629 14.0296C92.5899 14.0296 89.0273 16.2433 87.4997 18.9012V14.7259H80.3731V57.5573H87.6913V42.057C89.2823 44.3983 92.6546 46.2953 97.1092 46.2953C106.018 46.2953 111.682 39.3361 111.682 30.0987C111.682 20.8613 106.527 14.0282 97.3643 14.0282L97.3629 14.0296ZM95.9635 39.7802C91.127 39.7802 87.6265 35.9847 87.6265 30.1001C87.6265 24.2155 91.127 20.5461 95.9635 20.5461C100.8 20.5461 104.299 24.3416 104.299 30.1001C104.299 35.8586 100.862 39.7802 95.9635 39.7802Z"
      fill="#fff"></path>
    <path
      d="M137.173 14.7244L128.836 34.2122L119.927 14.7244H111.591L124.827 41.8677L117.382 57.9999H125.272L145 14.7244H137.173Z"
      fill="#fff"></path>
  </g>
  <defs>
    <clipPath id="clip0_1618_951">
      <rect width="145" height="58" fill="#fff"></rect>
    </clipPath>
  </defs>
</svg>
