<svg version="1.0" xmlns="http://www.w3.org/2000/svg"
 width="579.000000pt" height="147.000000pt" viewBox="0 0 579.000000 147.000000"
 preserveAspectRatio="xMidYMid meet">
<g transform="translate(0.000000,147.000000) scale(0.100000,-0.100000)"
fill="#D73739" stroke="none">
<path d="M685 1358 c-93 -33 -269 -94 -390 -135 -121 -42 -229 -84 -240 -95
-17 -16 -20 -34 -23 -129 -5 -134 0 -159 31 -159 12 0 96 20 187 45 456 125
617 166 640 162 14 -2 194 -50 400 -106 206 -56 384 -100 395 -99 19 3 20 12
23 123 1 66 0 130 -3 143 -7 27 -27 37 -220 103 -82 28 -253 86 -378 130 -126
43 -234 78 -240 78 -7 -1 -88 -28 -182 -61z"/>
<path d="M1937 1003 c-9 -8 -9 -136 -1 -157 5 -14 28 -16 150 -16 l144 0 2
-382 3 -383 90 -3 c76 -2 92 0 102 14 10 14 13 104 13 386 l0 367 143 3 142 3
0 85 0 85 -391 3 c-215 1 -393 -1 -397 -5z"/>
<path d="M4707 1003 c-4 -3 -7 -73 -7 -155 0 -81 -4 -148 -9 -148 -5 0 -14 6
-20 14 -7 8 -27 21 -46 30 -132 63 -310 27 -406 -82 -59 -67 -82 -138 -83
-252 0 -86 2 -101 30 -160 49 -103 115 -158 224 -186 109 -28 212 -7 285 57
20 18 37 30 38 28 1 -2 11 -22 22 -44 l20 -40 70 0 70 0 3 473 2 472 -93 0
c-52 0 -97 -3 -100 -7z m-109 -407 c36 -19 78 -65 91 -99 18 -48 13 -136 -10
-185 -31 -62 -83 -94 -156 -95 -62 0 -104 16 -139 55 -86 94 -60 268 48 321
41 20 130 22 166 3z"/>
<path d="M695 901 l-170 -47 -3 -384 c-2 -353 -1 -386 15 -397 13 -10 96 -13
333 -13 269 0 319 2 338 16 l22 15 0 373 c0 287 -3 376 -12 384 -11 8 -340
104 -350 101 -2 0 -79 -22 -173 -48z"/>
<path d="M2859 770 c-102 -17 -213 -100 -257 -192 -70 -144 -42 -328 65 -429
114 -109 302 -127 463 -46 88 44 91 53 44 115 -21 29 -46 52 -55 52 -10 0 -40
-11 -67 -25 -64 -32 -161 -35 -209 -5 -30 18 -71 67 -62 74 2 1 105 26 229 55
124 29 230 58 237 64 17 17 -9 136 -41 191 -66 113 -203 170 -347 146z m132
-173 c31 -21 67 -73 56 -83 -7 -7 -290 -75 -294 -70 -2 2 1 22 7 45 29 109
147 164 231 108z"/>
<path d="M3689 770 c-53 -9 -94 -28 -138 -66 l-31 -26 -15 36 c-8 19 -24 40
-34 46 -27 14 -114 13 -129 -2 -9 -9 -12 -100 -12 -350 l0 -338 23 -5 c12 -3
56 -5 97 -3 l75 3 5 210 c4 163 9 218 21 245 61 132 251 128 288 -6 6 -22 11
-125 11 -240 0 -231 -8 -214 100 -214 109 0 100 -20 100 239 0 255 -8 300 -63
373 -58 77 -182 118 -298 98z"/>
<path d="M5310 773 c-19 -2 -64 -13 -100 -25 -51 -17 -76 -33 -121 -77 -80
-80 -102 -143 -97 -276 4 -123 32 -190 109 -259 63 -57 131 -81 229 -81 83 0
153 25 201 71 l26 25 13 -31 c7 -18 19 -38 27 -46 20 -19 126 -19 143 1 9 10
11 68 8 217 -4 181 -6 209 -26 259 -40 100 -131 183 -227 207 -52 13 -141 20
-185 15z m157 -189 c118 -88 103 -287 -27 -354 -34 -18 -120 -16 -157 4 -18 9
-44 32 -60 52 -22 30 -28 49 -31 106 -9 147 57 223 185 216 43 -3 71 -10 90
-24z"/>
</g>
</svg>
