<?xml version="1.0" encoding="UTF-8"?>
<svg id="Layer_2" data-name="Layer 2" xmlns="http://www.w3.org/2000/svg" viewBox="0 0 524.35 138.22">
  <defs>
    <style>
      .cls-1 {
        fill: #a100ff;
      }
    </style>
  </defs>
  <g id="svg2">
    <g id="g10">
      <g id="g234">
        <path id="path236" class="cls-1" d="m305.61,38.64l30.19-11.22-30.19-11.79V0l51.7,20.82v12.96l-51.7,20.94v-16.08Z"/>
      </g>
      <g id="g246">
        <path id="path248" d="m19.89,138.22c-10.87,0-19.89-5.55-19.89-17.81v-.69c0-14.92,12.95-19.78,28.57-19.78h7.52v-2.89c0-6.02-2.66-9.72-8.9-9.72-5.67,0-8.68,3.24-9.14,7.87H1.85c1.15-13.42,11.79-20.01,26.14-20.01s24.99,6.25,24.99,21.28v40.48h-16.54v-6.94c-2.9,4.4-8.44,8.21-16.54,8.21m16.19-21.4v-5.78h-6.71c-8.33,0-12.61,2.31-12.61,7.75v.58c0,4.17,2.55,7.06,8.21,7.06s11.1-3.24,11.1-9.6m55.18,21.4c-16.77,0-28.91-10.41-28.91-30.88v-.81c0-20.47,12.96-31.34,29.03-31.34,13.76,0,25.1,6.94,26.49,22.78h-16.19c-1.04-5.89-4.05-9.72-9.95-9.72-7.17,0-12.14,5.67-12.14,17.58v1.85c0,12.26,4.39,17.82,12.26,17.82,5.78,0,10.06-4.28,10.98-10.88h15.39c-1.16,13.76-10.53,23.6-26.95,23.6m62.93,0c-16.77,0-28.91-10.41-28.91-30.88v-.81c0-20.47,12.96-31.34,29.03-31.34,13.76,0,25.1,6.94,26.49,22.78h-16.2c-1.04-5.89-4.05-9.72-9.95-9.72-7.17,0-12.14,5.67-12.14,17.58v1.85c0,12.26,4.39,17.82,12.26,17.82,5.78,0,10.06-4.28,10.99-10.88h15.38c-1.16,13.76-10.53,23.6-26.95,23.6m63.39,0c-17.47,0-29.38-10.41-29.38-30.53v-1.16c0-20.24,12.61-31.34,28.8-31.34,15.04,0,27.64,8.44,27.64,28.45v7.29h-39.32c.69,10.87,5.32,15.03,12.61,15.03,6.48,0,9.95-3.47,11.1-7.86h15.61c-1.85,11.45-11.22,20.13-27.06,20.13m-12.03-38.52h22.67c-.35-8.9-4.4-12.72-11.11-12.72-5.32,0-10.17,2.89-11.56,12.72m49.51-23.24h16.89v9.02c3.01-5.67,9.02-10.3,18.27-10.3,10.99,0,18.28,6.59,18.28,21.28v40.48h-16.89v-37.94c0-7.06-2.89-10.18-9.02-10.18s-10.64,3.59-10.64,11.22v36.9h-16.89v-60.49Zm85.02-18.28v18.28h11.57v12.6h-11.57v28.69c0,4.51,2.08,6.59,6.01,6.59,2.43,0,4.28-.34,5.9-1.04v13.19c-1.96.58-5.32,1.27-9.48,1.27-13.19,0-19.43-6.01-19.43-18.27v-30.42h-7.06v-12.6h7.06v-11.34l17-6.94Zm75.19,78.77h-16.89v-8.91c-2.89,5.79-8.56,10.18-17.58,10.18-10.87,0-18.85-6.59-18.85-20.82v-40.94h17v38.4c0,6.94,2.78,10.17,8.79,10.17s10.64-3.7,10.64-11.22v-37.35h16.89v60.49Zm12.27-60.49h16.89v11.1c3.58-8.1,9.25-11.91,18.16-11.91v16.65c-11.45,0-18.16,3.47-18.16,13.54v31.11h-16.89v-60.49Zm69.75,61.76c-17.47,0-29.38-10.41-29.38-30.53v-1.16c0-20.24,12.61-31.34,28.8-31.34,15.03,0,27.64,8.44,27.64,28.45v7.29h-39.32c.69,10.87,5.32,15.03,12.61,15.03,6.48,0,9.95-3.47,11.1-7.86h15.61c-1.85,11.45-11.22,20.13-27.06,20.13m-12.03-38.52h22.67c-.34-8.9-4.39-12.72-11.1-12.72-5.32,0-10.17,2.89-11.57,12.72"/>
      </g>
    </g>
  </g>
</svg>