<svg width="2557" height="726" viewBox="0 0 2557 726" fill="none" xmlns="http://www.w3.org/2000/svg">
<path d="M933.289 164.594C942.406 172.057 949.542 183.43 952 195C953.443 213.621 950.254 226.569 940 242C940.594 242.135 941.188 242.271 941.801 242.41C958.188 246.666 972.103 259.589 981.125 273.625C991.265 291.275 993.74 312.017 989 331.684C987.406 336.969 985.319 341.995 983 347C983.62 347.086 984.24 347.173 984.879 347.262C1014.34 351.935 1040.23 369.393 1058.21 392.895C1066.22 403.999 1072.19 415.704 1076.37 428.75C1076.73 429.865 1076.73 429.865 1077.1 431.003C1085.87 460.008 1081.54 491.98 1067.75 518.625C1059.37 534.224 1046.97 550.131 1032 560C1031.34 560 1030.68 560 1030 560C1030.14 560.776 1030.29 561.552 1030.44 562.352C1034.29 584.788 1030.65 606.212 1017.95 625.336C1014.62 629.879 1010.94 633.988 1007 638C1006.39 638.627 1005.77 639.253 1005.14 639.898C993.106 651.264 974.889 659.187 958.262 659.098C957.195 659.094 956.128 659.091 955.029 659.088C953.926 659.08 952.824 659.071 951.687 659.063C950.565 659.058 949.443 659.054 948.287 659.049C945.525 659.037 942.762 659.021 940 659C939.702 659.77 939.404 660.539 939.097 661.332C934.818 671.737 926.686 680.023 919 688C918.417 688.646 917.835 689.292 917.234 689.957C902.8 705.521 881.196 715.596 861 721C859.74 721.339 858.481 721.678 857.183 722.027C831.121 727.734 802.254 725.036 778 714C776.877 713.499 775.754 712.997 774.597 712.481C743.937 698.014 720.838 671.349 709.159 639.723C703.528 623.297 702.679 607.236 703 590C702.331 589.907 701.662 589.814 700.972 589.719C689.514 586.948 678.929 579.391 670 572C669.189 571.341 668.378 570.683 667.543 570.004C648.733 554.078 636.891 529.304 634 505C632.445 474.471 641.086 447.846 661.644 425.07C673.643 412.251 688.283 403.365 705 398C702.492 396.328 699.96 394.877 697.317 393.438C676.753 382.117 662.144 365.073 655.215 342.437C653.065 334.692 652.455 327.394 652.5 319.375C652.506 318.15 652.513 316.924 652.519 315.661C652.997 291.763 662.941 272.766 679.808 256.25C698.117 239.954 720.045 235.078 743.992 235.799C751.07 236.272 758.628 237.814 765 241C764.977 240.322 764.953 239.644 764.93 238.945C764.625 223.223 769.393 210.444 779 198C779.784 196.948 780.567 195.896 781.375 194.813C793.69 181.618 810.974 174.391 828.863 173.604C838.02 173.417 846.283 175.404 855 178C855.45 177.371 855.9 176.742 856.363 176.094C875.154 151.09 907.89 146.91 933.289 164.594Z" fill="#FE9D17"/>
<path d="M791 410C793.679 412.019 796.253 414.097 798.781 416.301C800.925 418.124 800.925 418.124 803.594 418.918C806.771 420.347 807.346 421.967 809 425C810.23 426.525 811.463 428.049 812.718 429.554C828.988 449.178 836.019 471.179 836.125 496.438C836.13 497.219 836.134 498.001 836.139 498.806C836.129 502.374 835.962 505.569 835 509C835.64 508.867 836.281 508.735 836.941 508.598C841.95 507.575 846.931 506.661 852 506C852.775 507.352 853.545 508.707 854.312 510.063C854.956 511.194 854.956 511.194 855.613 512.348C857 515 857 515 858.383 518.395C860.087 522.195 862.114 525.286 864.562 528.625C867.237 532.289 869.374 535.745 871 540C874.034 543.526 876.548 545.601 881 547C881.232 546.153 881.464 545.306 881.703 544.434C883.207 540.451 885.232 537.461 887.75 534.063C888.202 533.446 888.653 532.829 889.119 532.193C890.402 530.454 891.698 528.726 893 527C893.553 526.256 894.106 525.513 894.676 524.746C898.408 520.047 902.853 517.022 908 514C909.694 513.004 909.694 513.004 911.422 511.988C919.727 507.265 927.663 504.206 937 502C937.622 501.825 938.243 501.65 938.884 501.47C950.124 498.976 964.269 500.175 975 504C976.027 504.329 977.055 504.658 978.113 504.996C998.867 512.179 1014.38 526.793 1024.81 545.875C1034.34 566.029 1033.71 587.718 1026.87 608.426C1022.39 619.867 1015.57 629.276 1007 638C1006.39 638.627 1005.77 639.253 1005.14 639.899C993.106 651.264 974.889 659.187 958.262 659.098C957.195 659.095 956.128 659.091 955.029 659.088C953.926 659.08 952.824 659.071 951.687 659.063C950.565 659.058 949.443 659.054 948.287 659.049C945.525 659.037 942.762 659.021 940 659C939.702 659.77 939.404 660.539 939.097 661.332C934.818 671.737 926.686 680.023 919 688C918.126 688.969 918.126 688.969 917.234 689.957C902.8 705.521 881.196 715.596 861 721C859.74 721.339 858.481 721.678 857.183 722.027C831.121 727.734 802.254 725.036 778 714C776.877 713.499 775.754 712.997 774.597 712.481C743.937 698.014 720.838 671.349 709.159 639.723C703.528 623.297 702.679 607.236 703 590C702.331 589.907 701.662 589.814 700.972 589.719C689.514 586.948 678.929 579.391 670 572C669.189 571.341 668.378 570.683 667.543 570.004C648.733 554.078 636.891 529.304 634 505C632.445 474.471 641.086 447.846 661.644 425.07C695.373 389.034 749.726 384.358 791 410Z" fill="#399BD6"/>
<path d="M441.812 359.562C442.914 359.562 444.016 359.562 445.151 359.562C479.835 359.636 521.443 362.221 553 378C553 401.43 553 424.86 553 449C545.138 449 545.138 449 541.058 447.644C540.157 447.354 539.256 447.064 538.328 446.765C537.374 446.451 536.42 446.136 535.437 445.812C505.724 436.462 474.94 431.833 443.793 431.76C441.334 431.75 438.875 431.719 436.416 431.687C409.081 431.505 382.369 439.067 362 458C353.049 467.283 346.822 477.842 342.687 490C342.323 491.066 342.323 491.066 341.952 492.154C338.523 502.868 337.702 513.498 337.769 524.691C337.77 525.958 337.77 527.224 337.771 528.529C337.774 531.189 337.781 533.849 337.794 536.508C337.811 539.886 337.815 543.263 337.814 546.64C337.814 549.907 337.823 553.174 337.832 556.441C337.833 557.637 337.834 558.834 337.835 560.066C337.895 570.684 338.46 580.638 341.625 590.812C342.025 592.107 342.025 592.107 342.432 593.428C349.56 615.695 363.041 633.048 383.84 643.988C399.447 651.783 415.333 653.342 432.543 653.261C435.231 653.25 437.918 653.261 440.605 653.273C450.085 653.28 459.263 652.829 468.643 651.429C472 651 472 651 478 651C478 632.52 478 614.04 478 595C460.84 595 443.68 595 426 595C426 571.57 426 548.14 426 524C467.91 524 509.82 524 553 524C553 583.73 553 643.46 553 705C526.543 713.819 501.397 720.635 474 724C472.286 724.258 472.286 724.258 470.537 724.521C464.712 725.244 458.87 725.182 453.008 725.203C451.12 725.212 451.12 725.212 449.193 725.22C446.525 725.23 443.858 725.237 441.19 725.24C437.201 725.247 433.212 725.281 429.223 725.312C406.897 725.404 384.549 724.267 363 718C362.301 717.801 361.601 717.601 360.881 717.396C323.956 706.641 290.738 683.981 271.75 650.062C253.597 616.721 250.624 582.951 250.684 545.662C250.689 542.554 250.682 539.446 250.664 536.338C250.414 493.281 256.766 452.633 286 419C286.769 418.098 287.539 417.195 288.332 416.266C294.041 409.756 300.113 404.234 307 399C308.013 398.21 309.026 397.42 310.07 396.605C347.85 367.872 395.503 359.519 441.812 359.562Z" fill="#676767"/>
<path d="M933.289 164.594C942.407 172.057 949.543 183.43 952 195C953.444 213.621 950.255 226.569 940 242C940.595 242.135 941.189 242.271 941.801 242.41C958.188 246.666 972.103 259.589 981.125 273.625C991.315 291.362 993.716 312.082 988.93 331.82C985.521 343.479 985.521 343.479 983 346C980.573 346.076 978.173 346.091 975.746 346.063C975.012 346.059 974.278 346.055 973.521 346.051C970.373 346.035 967.224 346.007 964.075 345.98C961.778 345.961 959.481 345.949 957.184 345.938C956.135 345.925 956.135 345.925 955.065 345.912C951.53 345.895 948.148 346.071 944.645 346.563C941.103 346.988 939.845 347.015 937 345C937 344.34 937 343.68 937 343C936.299 343.062 935.598 343.124 934.875 343.188C932 343 932 343 929.328 341.508C926.007 340.003 923.643 339.779 920.038 339.738C914.374 339.606 909.742 339.197 905.574 335.078C902.977 332.104 900.653 328.93 898.334 325.737C883.224 306.052 855.947 296.083 832.227 292.5C804.225 288.844 775.455 296.856 753.063 313.875C743.372 321.752 734.577 330.309 728 341C727.333 342.07 726.665 343.14 725.977 344.242C721.176 352.152 717.755 360.137 715 369C714.704 369.911 714.407 370.823 714.102 371.762C711.709 379.688 710.875 387.796 710 396C710.66 396.33 711.32 396.66 712 397C708.49 398.222 707.019 398.007 703.469 396.699C702.136 396.048 700.814 395.376 699.5 394.688C698.798 394.326 698.096 393.964 697.373 393.591C676.806 382.632 662.065 364.814 655.216 342.437C653.065 334.692 652.456 327.394 652.5 319.375C652.507 318.15 652.513 316.924 652.52 315.661C652.998 291.763 662.941 272.766 679.809 256.25C698.117 239.954 720.045 235.078 743.992 235.799C751.07 236.272 758.629 237.814 765 241C764.977 240.322 764.954 239.644 764.93 238.945C764.625 223.223 769.394 210.444 779 198C779.784 196.948 780.568 195.896 781.375 194.813C793.69 181.618 810.974 174.391 828.864 173.604C838.021 173.417 846.283 175.404 855 178C855.45 177.371 855.9 176.742 856.364 176.094C875.154 151.09 907.89 146.91 933.289 164.594Z" fill="#E88C22"/>
<path d="M1.00018 363C28.0602 363 55.1202 363 83.0002 363C83.0148 370.748 83.0293 378.495 83.0444 386.477C83.0932 411.298 83.1566 436.119 83.2292 460.939C83.2404 464.798 83.2516 468.657 83.2626 472.515C83.2648 473.284 83.267 474.052 83.2693 474.843C83.3046 487.263 83.3295 499.683 83.3505 512.103C83.3723 524.857 83.4054 537.612 83.4489 550.366C83.4753 558.229 83.4931 566.093 83.4995 573.956C83.5054 579.997 83.5271 586.037 83.5545 592.078C83.5632 594.548 83.567 597.018 83.5652 599.487C82.9587 623.744 82.9587 623.744 94.2502 644.312C101.542 648.787 108.813 649.444 117.211 649.432C118.295 649.443 119.379 649.453 120.496 649.463C124.051 649.493 127.605 649.503 131.16 649.512C133.636 649.529 136.112 649.547 138.588 649.566C145.083 649.614 151.578 649.643 158.074 649.67C165.878 649.705 173.683 649.762 181.487 649.815C193.325 649.893 205.162 649.944 217 650C217 673.43 217 696.86 217 721C182.125 721.081 182.125 721.081 167.465 721.098C157.359 721.11 147.253 721.123 137.147 721.151C129.786 721.171 122.424 721.184 115.063 721.188C111.169 721.191 107.275 721.197 103.382 721.211C99.7077 721.225 96.034 721.229 92.3601 721.226C90.3871 721.227 88.4142 721.238 86.4413 721.249C64.1857 721.198 42.2875 714.76 26.0002 699C8.08931 679.644 0.61418 654.951 0.759672 628.883C0.757963 627.736 0.756254 626.59 0.754494 625.409C0.751227 621.607 0.762157 617.806 0.77313 614.005C0.774812 611.264 0.773465 608.523 0.772245 605.782C0.771201 599.902 0.777426 594.021 0.788721 588.141C0.805041 579.639 0.810191 571.137 0.812697 562.635C0.817064 548.839 0.830346 535.042 0.849302 521.245C0.867687 507.85 0.881831 494.455 0.890318 481.06C0.890843 480.233 0.891369 479.406 0.89191 478.554C0.89452 474.405 0.897048 470.256 0.899534 466.107C0.920236 431.738 0.957088 397.369 1.00018 363Z" fill="#676767"/>
<path d="M791 410C793.679 412.019 796.253 414.097 798.781 416.301C800.925 418.124 800.925 418.124 803.594 418.918C806.771 420.347 807.346 421.967 809 425C810.23 426.525 811.463 428.049 812.718 429.554C826.372 446.023 834.891 465.552 836 487C836.034 487.636 836.068 488.271 836.103 488.926C837.162 511.775 831.865 536.042 817 554C816.577 554.529 816.155 555.058 815.719 555.603C804.349 569.807 791.189 581.827 773.875 588.188C772.95 588.529 772.024 588.87 771.071 589.221C745.873 598.265 717.666 597.795 693 587C684.21 582.717 676.408 577.386 669 571C668.304 570.437 667.608 569.873 666.89 569.293C648.291 553.902 636.816 528.678 634 505C632.445 474.471 641.086 447.846 661.644 425.07C695.373 389.034 749.726 384.358 791 410Z" fill="#3A5EA7"/>
<path d="M892.576 318.923C898.671 324.391 904.297 330.266 909 337C909 337.66 909 338.32 909 339C908.455 339.098 907.909 339.196 907.348 339.297C896.106 341.526 889.18 345.976 881 354C880.3 354.625 879.6 355.25 878.879 355.895C871.91 363.703 871.177 375.119 871.648 385.082C872.469 394.226 875.601 401.556 881 409C881.66 409.33 882.32 409.66 883 410C883.425 410.77 883.851 411.539 884.289 412.332C886.296 415.461 888.216 416.762 891.375 418.687C892.779 419.56 892.779 419.56 894.211 420.449C901.898 424.723 909.316 425.159 917.938 425.062C918.717 425.058 919.496 425.053 920.299 425.049C922.199 425.037 924.1 425.019 926 425C923.362 443.465 913.795 458.929 902 473C901.432 473.727 900.863 474.454 900.277 475.203C889.316 488.598 871.645 500.158 855 505C851.5 505.187 851.5 505.187 849 505C849 505.66 849 506.32 849 507C844.047 508.981 840.239 509.087 835 509C835.008 508.087 835.008 508.087 835.016 507.155C835.253 475.452 829.881 450.251 808.438 425.937C806 423 806 423 806 420C805.14 419.765 804.28 419.531 803.395 419.289C799.629 417.859 796.829 415.816 793.688 413.375C781.3 404.203 768.032 399.065 753 396C752.229 395.823 751.458 395.647 750.664 395.465C747.725 394.952 744.975 394.87 741.992 394.867C740.264 394.865 740.264 394.865 738.5 394.863C736.706 394.869 736.706 394.869 734.875 394.875C733.702 394.871 732.529 394.867 731.32 394.863C724.158 394.871 717.119 395.205 710 396C710.42 367.636 722.399 343.083 742 323C742.581 322.357 743.163 321.713 743.762 321.051C782.531 279.156 851.802 283.2 892.576 318.923Z" fill="#FBD010"/>
<path d="M975 504C976.027 504.329 977.055 504.657 978.113 504.996C998.867 512.179 1014.38 526.793 1024.81 545.875C1034.34 566.029 1033.71 587.718 1026.87 608.426C1022.39 619.867 1015.57 629.276 1007 638C1006.39 638.626 1005.77 639.253 1005.14 639.898C994.917 649.553 982.383 654.516 969 658C967.844 658.305 967.844 658.305 966.664 658.617C945.271 661.691 923.785 657.422 906 645C896.077 637.026 888.555 627.868 882 617C881.605 616.364 881.211 615.729 880.805 615.074C871.623 598.772 870.968 576.754 875.418 559.041C878.881 546.896 885.287 536.859 893 527C893.546 526.269 894.093 525.538 894.656 524.785C898.38 520.058 902.84 517.029 908 514C909.129 513.336 910.258 512.672 911.422 511.988C919.727 507.265 927.663 504.206 937 502C937.622 501.825 938.243 501.65 938.884 501.469C950.124 498.976 964.269 500.175 975 504Z" fill="#0071BA"/>
<path d="M899.312 153.687C900.055 153.693 900.798 153.699 901.563 153.705C914.652 153.992 927.604 158.958 937.195 168.031C950.051 182.055 952.797 196.065 952.17 214.394C951.479 224.965 945.703 233.417 940 242C940.594 242.135 941.188 242.271 941.801 242.41C958.188 246.666 972.103 259.589 981.125 273.625C991.315 291.362 993.716 312.082 988.929 331.82C985.521 343.479 985.521 343.479 983 346C980.572 346.076 978.173 346.091 975.746 346.062C975.012 346.059 974.277 346.055 973.521 346.051C970.372 346.035 967.223 346.007 964.075 345.979C961.778 345.961 959.481 345.949 957.183 345.937C956.134 345.925 956.134 345.925 955.064 345.912C951.529 345.895 948.148 346.071 944.645 346.562C941.103 346.988 939.844 347.015 937 345C937 344.34 937 343.68 937 343C936.299 343.062 935.597 343.124 934.875 343.187C932 343 932 343 929.328 341.508C926.006 340.003 923.642 339.779 920.037 339.738C914.373 339.606 909.741 339.197 905.574 335.078C902.976 332.104 900.653 328.93 898.333 325.737C886.96 310.92 867.607 301.412 849.964 296.546C848.295 296.08 846.645 295.546 845 295C843.539 292.079 844.556 290.562 845.562 287.5C850.222 274.142 858.917 263.688 869 254C870.002 253.002 871.003 252.003 872 251C871.515 250.671 871.03 250.343 870.531 250.004C858.802 241.681 851.221 231.033 848 217C847.592 213.549 847.521 210.16 847.562 206.687C847.572 205.77 847.582 204.853 847.592 203.908C847.983 188.867 853.862 176.554 864.687 166.125C874.624 158.14 886.615 153.585 899.312 153.687Z" fill="#E32825"/>
<path d="M899.313 153.687C900.055 153.693 900.798 153.699 901.563 153.705C914.652 153.992 927.605 158.958 937.195 168.031C950.051 182.055 952.797 196.065 952.171 214.394C951.479 224.965 945.703 233.417 940 242C940.699 242.193 941.397 242.387 942.117 242.586C943.027 242.846 943.937 243.107 944.875 243.375C946.232 243.758 946.232 243.758 947.617 244.148C950 245 950 245 952 247C950.515 247.495 950.515 247.495 949 248C949 247.34 949 246.68 949 246C944.912 245.009 941.197 244.55 937 245C934.354 247.229 934.354 247.229 932 250C919.849 258.965 903.746 261.123 889 259C887.646 258.376 886.309 257.714 885 257C883.614 256.63 882.217 256.295 880.813 256C879.554 255.67 878.296 255.34 877 255C876.505 254.01 876.505 254.01 876 253C874.65 252.226 873.269 251.505 871.875 250.812C867.056 248.215 863.611 245.075 860 241C859.299 240.216 858.598 239.432 857.875 238.625C850.822 228.75 847.417 218.849 847.563 206.687C847.572 205.77 847.582 204.853 847.592 203.908C847.983 188.867 853.863 176.554 864.688 166.125C874.624 158.14 886.615 153.585 899.313 153.687Z" fill="#C54027"/>
<path d="M854 178C854 181.239 853.323 182.924 852.062 185.875C847.315 197.003 847.029 212.217 850.625 223.75C854.988 234.505 862.845 245.161 873 251C872.361 251.639 871.721 252.279 871.062 252.938C870.38 253.628 870.38 253.628 869.684 254.332C868.446 255.558 867.184 256.761 865.91 257.949C860.164 263.42 855.996 269.167 852 276C851.48 276.804 850.961 277.609 850.426 278.438C848.311 282.238 847.335 286.284 846.16 290.453C845 293 845 293 843.238 293.914C839.279 294.066 835.532 293.2 831.652 292.484C828.004 291.885 828.004 291.885 824.316 292.203C820.406 292.388 817.683 292.366 814 291C810.524 287.057 808.844 281.84 806.895 277.031C799.123 259.385 781.675 248.83 765 241C764.433 224.444 768.834 211.169 779 198C780.176 196.422 780.176 196.422 781.375 194.813C800.381 174.449 828.214 169.701 854 178Z" fill="#E46027"/>
<path d="M931 341C932.196 341.392 933.393 341.784 934.625 342.187C935.409 342.456 936.193 342.724 937 343C937 343.66 937 344.32 937 345C938.176 345.371 938.176 345.371 939.375 345.75C942.437 347.208 942.587 348.08 944 351C944.607 351.107 945.215 351.214 945.84 351.324C949.822 352.57 951.258 356.348 953.317 359.766C960.003 372.611 960.49 384.029 956.274 397.695C954.48 402.351 951.996 406.049 949 410C948.361 411.072 947.721 412.145 947.063 413.25C941.662 420.452 933.227 423.838 924.625 425.75C908.935 426.832 896.458 424.897 884.18 414.43C883 413 883 413 883 410C882.405 409.776 881.809 409.551 881.196 409.32C878.334 407.599 877.436 405.809 875.875 402.875C875.378 401.965 874.88 401.055 874.367 400.117C868.712 387.222 869.728 373.472 874.614 360.562C876 358 876 358 879 357C879.708 355.688 880.37 354.351 881 353C887.027 345.538 895.664 340.293 905.063 338.375C914.379 337.488 922.17 337.79 931 341Z" fill="#1487C5"/>
<path d="M852.687 74.6875C862.099 81.3834 868.76 90.614 871 102C871.939 114.552 869.627 124.853 862 135C857.077 140.288 851.744 144.365 845 147C844.109 147.355 843.218 147.709 842.301 148.074C832.486 150.827 820.812 150.166 811.68 145.676C802.083 139.674 793.697 130.849 790.476 119.77C788.295 107.091 789.725 96.5276 796.539 85.5117C809.865 66.7231 833.474 62.8965 852.687 74.6875Z" fill="#953021"/>
<path d="M1227 406C1232.94 406 1238.88 406 1245 406C1245.01 408.492 1245.02 410.984 1245.03 413.552C1245.06 421.815 1245.12 430.077 1245.18 438.339C1245.22 443.345 1245.26 448.351 1245.27 453.357C1245.29 458.194 1245.32 463.031 1245.37 467.868C1245.38 469.707 1245.39 471.547 1245.39 473.386C1245.11 489.163 1245.11 489.163 1252.44 502.625C1258.6 505.003 1265.17 505.249 1271.49 503.188C1277.81 499.948 1282.95 494.911 1288 490C1289.09 489.197 1289.09 489.197 1290.2 488.378C1294.26 485.058 1296.66 482.503 1297.83 477.295C1298.25 472.771 1298.17 468.252 1298.1 463.715C1298.1 462.046 1298.11 460.378 1298.13 458.709C1298.15 454.343 1298.12 449.98 1298.08 445.615C1298.05 441.15 1298.07 436.686 1298.08 432.221C1298.11 423.48 1298.07 414.741 1298 406C1303.94 406 1309.88 406 1316 406C1316 443.62 1316 481.24 1316 520C1310.06 520 1304.12 520 1298 520C1297.67 513.73 1297.34 507.46 1297 501C1295.41 502.671 1293.82 504.341 1292.19 506.062C1282.24 516.169 1271.82 522.193 1257.56 522.5C1249.27 522.456 1243.34 520.792 1236.98 515.238C1228.89 506.855 1226.84 496.643 1226.89 485.354C1226.89 484.495 1226.89 483.636 1226.89 482.751C1226.89 479.921 1226.89 477.092 1226.9 474.262C1226.9 472.296 1226.91 470.33 1226.91 468.364C1226.91 463.197 1226.92 458.03 1226.93 452.863C1226.94 447.588 1226.95 442.312 1226.95 437.037C1226.96 426.691 1226.98 416.346 1227 406Z" fill="#676767"/>
<path d="M2340 408C2342.88 410.437 2342.88 410.437 2345 413C2345.99 414.146 2345.99 414.146 2346.99 415.315C2354.77 425.72 2353.53 439.449 2353.39 451.738C2353.38 453.715 2353.38 455.692 2353.37 457.669C2353.36 462.829 2353.32 467.989 2353.27 473.15C2353.23 478.432 2353.22 483.715 2353.2 488.998C2353.15 499.332 2353.08 509.666 2353 520C2347.06 520 2341.12 520 2335 520C2334.99 517.437 2334.98 514.873 2334.97 512.232C2334.94 503.747 2334.88 495.261 2334.82 486.775C2334.78 481.632 2334.74 476.49 2334.73 471.347C2334.71 466.38 2334.68 461.413 2334.63 456.447C2334.62 454.555 2334.61 452.664 2334.61 450.773C2334.61 448.116 2334.58 445.46 2334.55 442.803C2334.55 442.027 2334.56 441.252 2334.56 440.453C2334.46 434.927 2333.1 430.61 2330 426C2325.32 421.946 2321.07 420.711 2314.91 421.148C2303.1 423.019 2294.29 433.074 2286 441C2285.46 441.395 2284.92 441.789 2284.37 442.196C2282.25 444.99 2282.56 447.949 2282.57 451.317C2282.56 452.059 2282.55 452.801 2282.54 453.565C2282.51 456.016 2282.5 458.467 2282.49 460.918C2282.47 462.618 2282.45 464.317 2282.43 466.017C2282.39 470.49 2282.36 474.963 2282.33 479.437C2282.3 484.001 2282.25 488.566 2282.21 493.131C2282.12 502.087 2282.06 511.043 2282 520C2276.06 520 2270.12 520 2264 520C2264 482.38 2264 444.76 2264 406C2269.94 406 2275.88 406 2282 406C2282.33 412.27 2282.66 418.54 2283 425C2284.59 423.329 2286.18 421.659 2287.81 419.937C2293.01 414.652 2298.46 410.547 2305 407C2305.62 406.64 2306.23 406.281 2306.87 405.91C2316.31 401.347 2331.21 402.563 2340 408Z" fill="#686868"/>
<path d="M1520.02 647.777C1522.98 649.574 1525.09 651.646 1526 655C1525.34 659.573 1523.84 663.924 1522.44 668.313C1522.09 669.423 1522.09 669.423 1521.73 670.557C1521.15 672.372 1520.58 674.186 1520 676C1520.4 675.25 1520.8 674.5 1521.21 673.727C1527.6 662.226 1535.07 652.965 1547 647C1549.1 646.851 1551.21 646.779 1553.31 646.75C1555.01 646.711 1555.01 646.711 1556.74 646.672C1560.34 647.034 1562.13 647.829 1565 650C1567.55 653.824 1567.37 655.429 1567 660C1566.14 663.603 1565.02 667.104 1563.88 670.625C1563.24 672.669 1562.6 674.713 1561.96 676.758C1561.47 678.309 1561.47 678.309 1560.98 679.892C1559.45 684.752 1557.95 689.618 1556.5 694.5C1556.23 695.353 1555.97 696.206 1555.69 697.085C1554.19 702.185 1553.82 705.793 1555 711C1558.37 710.436 1559.76 709.538 1561.88 706.875C1562.38 706.252 1562.89 705.63 1563.42 704.988C1563.94 704.332 1564.46 703.676 1565 703C1566.05 701.681 1567.12 700.368 1568.19 699.063C1568.89 698.183 1568.89 698.183 1569.61 697.285C1571 696 1571 696 1574 696C1572.65 705.353 1566.06 712.505 1559.11 718.441C1553.66 722.463 1548.68 722.95 1542 722C1538.39 719.616 1537.3 718.142 1536.21 713.977C1535.93 708.703 1537.2 704.45 1538.71 699.43C1539.14 697.931 1539.14 697.931 1539.58 696.402C1540.5 693.222 1541.44 690.049 1542.38 686.875C1543.3 683.693 1544.22 680.51 1545.15 677.327C1545.72 675.35 1546.3 673.375 1546.88 671.4C1547.27 670.053 1547.27 670.053 1547.68 668.679C1547.91 667.894 1548.14 667.109 1548.38 666.301C1549.03 663.883 1549.53 661.46 1550 659C1547.89 658.021 1547.89 658.021 1545 658C1530.26 664.322 1522.4 680.525 1516.61 694.57C1513.79 701.912 1512.14 709.638 1510.46 717.304C1510 719 1510 719 1509 720C1506.65 720.073 1504.29 720.084 1501.94 720.063C1500 720.049 1500 720.049 1498.03 720.035C1497.03 720.024 1496.03 720.012 1495 720C1493.86 716.621 1494.15 714.554 1495.15 711.16C1495.43 710.193 1495.71 709.226 1496 708.229C1496.31 707.184 1496.62 706.139 1496.94 705.063C1497.58 702.821 1498.23 700.578 1498.88 698.336C1499.22 697.151 1499.56 695.966 1499.92 694.745C1501.61 688.88 1503.26 683.002 1504.9 677.12C1505.43 675.211 1505.97 673.304 1506.51 671.397C1507 669.644 1507 669.644 1507.5 667.856C1507.79 666.821 1508.08 665.786 1508.38 664.72C1509.15 661.815 1509.15 661.815 1509 658C1500.1 658.712 1494.61 663.429 1489 670C1479.61 682.696 1474.31 696.726 1470.57 711.905C1469.83 714.635 1468.9 717.314 1468 720C1463.38 720 1458.76 720 1454 720C1454 714.846 1454.12 711.651 1455.32 706.887C1455.61 705.733 1455.89 704.579 1456.19 703.39C1456.5 702.168 1456.81 700.946 1457.12 699.688C1457.6 697.758 1458.08 695.828 1458.56 693.898C1458.89 692.578 1459.21 691.259 1459.54 689.94C1461.51 681.997 1463.32 674.018 1465.13 666.038C1465.37 665.023 1465.6 664.007 1465.84 662.961C1466.04 662.072 1466.24 661.183 1466.45 660.267C1467 658 1467 658 1468 655C1464.04 655 1460.08 655 1456 655C1456.33 653.35 1456.66 651.7 1457 650C1460.41 648.015 1463.41 647.759 1467.3 647.805C1468.28 647.811 1469.25 647.818 1470.26 647.824C1471.27 647.841 1472.27 647.858 1473.31 647.875C1474.34 647.884 1475.37 647.893 1476.42 647.902C1478.95 647.926 1481.47 647.959 1484 648C1485.41 651.794 1484.55 654.295 1483.35 658.078C1482.98 659.238 1482.62 660.398 1482.24 661.594C1481.85 662.8 1481.46 664.007 1481.06 665.25C1480.68 666.472 1480.29 667.694 1479.89 668.953C1478.94 671.972 1477.97 674.987 1477 678C1477.42 677.202 1477.85 676.404 1478.28 675.582C1486.03 661.229 1501.29 640.569 1520.02 647.777Z" fill="#6A6A6A"/>
<path d="M2007 647C2010.32 648.218 2012.32 650.086 2014.44 652.938C2015.78 657.85 2012.94 663.597 2011.44 668.312C2011.09 669.423 2011.09 669.423 2010.73 670.557C2010.15 672.372 2009.58 674.186 2009 676C2009.39 675.261 2009.78 674.523 2010.18 673.762C2016.39 662.498 2024.3 651.234 2037 647C2038.95 646.855 2040.92 646.779 2042.88 646.75C2044.42 646.711 2044.42 646.711 2045.99 646.672C2049.44 647.048 2051.24 647.939 2054 650C2056.76 654.137 2055.87 657.34 2055 662C2054.04 666.037 2052.91 670.016 2051.75 674C2051.44 675.094 2051.13 676.188 2050.81 677.316C2049.39 682.289 2047.93 687.251 2046.43 692.199C2046.19 692.967 2045.96 693.734 2045.72 694.525C2045.3 695.919 2044.86 697.309 2044.42 698.697C2043.23 702.575 2042.79 705.949 2043 710C2044.98 710.495 2044.98 710.495 2047 711C2048.04 709.813 2049.08 708.625 2050.12 707.438C2050.76 706.714 2051.4 705.991 2052.05 705.246C2053.29 703.82 2054.51 702.376 2055.7 700.91C2056.21 700.28 2056.72 699.649 2057.25 699C2057.71 698.423 2058.17 697.845 2058.64 697.25C2060 696 2060 696 2063 696C2061.66 705.314 2055.09 712.472 2048.21 718.441C2042.86 722.213 2037.4 723.009 2031 722C2027.45 719.612 2026.29 718.1 2025.21 713.977C2024.93 708.705 2026.2 704.449 2027.71 699.43C2028.14 697.931 2028.14 697.931 2028.58 696.402C2029.5 693.222 2030.44 690.049 2031.38 686.875C2032.3 683.693 2033.22 680.51 2034.15 677.327C2034.72 675.35 2035.3 673.375 2035.88 671.4C2036.27 670.053 2036.27 670.053 2036.68 668.679C2036.91 667.894 2037.14 667.109 2037.38 666.301C2038.03 663.883 2038.53 661.46 2039 659C2036.89 658.021 2036.89 658.021 2034 658C2020.3 663.875 2012.62 678.409 2007.02 691.402C2004.91 696.799 2003.44 702.33 2001.96 707.926C2001.69 708.95 2001.69 708.95 2001.42 709.995C2001.06 711.358 2000.71 712.722 2000.36 714.087C1999.11 718.891 1999.11 718.891 1998 720C1995.65 720.073 1993.29 720.084 1990.94 720.062C1989 720.049 1989 720.049 1987.03 720.035C1986.03 720.024 1985.03 720.012 1984 720C1982.83 716.567 1983.18 714.437 1984.19 710.984C1984.47 709.992 1984.75 708.999 1985.05 707.977C1985.36 706.912 1985.68 705.847 1986 704.75C1986.32 703.649 1986.63 702.548 1986.96 701.414C1988.6 695.708 1990.29 690.017 1991.99 684.328C1992.47 682.733 1992.47 682.733 1992.95 681.106C1993.55 679.088 1994.16 677.071 1994.78 675.058C1996.49 669.337 1997.52 663.956 1998 658C1989.06 658.715 1983.65 663.444 1978 670C1966.48 684.707 1961.74 702.239 1957 720C1952.38 720 1947.76 720 1943 720C1943 714.845 1943.12 711.65 1944.32 706.887C1944.61 705.733 1944.89 704.579 1945.19 703.39C1945.5 702.168 1945.81 700.946 1946.12 699.688C1946.6 697.758 1947.08 695.828 1947.56 693.898C1947.89 692.578 1948.21 691.259 1948.54 689.94C1950.51 681.997 1952.32 674.018 1954.13 666.038C1954.37 665.022 1954.6 664.007 1954.84 662.961C1955.04 662.072 1955.24 661.183 1955.45 660.267C1956 658 1956 658 1957 655C1953.04 655 1949.08 655 1945 655C1946 650 1946 650 1947.89 648.699C1952.5 647.662 1956.98 647.752 1961.69 647.812C1963.13 647.813 1963.13 647.813 1964.6 647.814C1971.72 647.859 1971.72 647.859 1974 649C1972.68 655.698 1970.78 662.106 1968.68 668.59C1967.44 672.221 1967.44 672.221 1967 676C1967.6 674.983 1967.6 674.983 1968.21 673.945C1977.26 659.131 1988.36 645.224 2007 647Z" fill="#6A6A6A"/>
<path fill-rule="evenodd" clip-rule="evenodd" d="M1562 520V406C1558.37 406 1554.87 405.961 1551.48 405.924C1524.33 405.625 1504.59 405.408 1484.19 425.813C1474.37 440.115 1470.32 452.606 1470.64 469.922C1470.67 471.525 1470.69 473.127 1470.7 474.73C1470.71 476.322 1470.72 477.915 1470.74 479.507L1470.76 481.801C1470.88 493.344 1472.33 504.717 1480.5 513.633C1487.26 519.851 1493.48 522.231 1502.69 522.312C1517.4 522.022 1527.95 516.509 1538.19 506.062L1543 501L1544 520H1562ZM1531.46 421.912L1528.77 421.902C1518.04 421.834 1507.58 426.534 1500 434C1490.27 445.121 1488.37 457.033 1488.64 471.267C1488.67 472.813 1488.69 474.36 1488.7 475.906C1488.71 476.707 1488.71 477.507 1488.72 478.307C1488.72 479.039 1488.73 479.771 1488.74 480.504L1488.76 482.691C1488.83 489.041 1489.92 494.362 1493 500C1495.96 503.762 1497.44 504.782 1502.19 505.445C1515.36 505.871 1523.42 500.921 1533.2 492.552L1535 491C1536.58 489.77 1538.13 488.497 1539.66 487.192C1544.49 482.307 1545.02 478.555 1545.02 471.832L1544.88 467.996C1544.84 463.891 1544.8 459.79 1544.68 455.686C1544.58 452.125 1544.51 448.565 1544.47 445.003C1544.37 437.334 1544.21 429.667 1544 422C1541.7 421.979 1539.39 421.963 1537.09 421.951L1534.25 421.937L1531.46 421.912Z" fill="#686868"/>
<path fill-rule="evenodd" clip-rule="evenodd" d="M1824 364H1806V406C1783.06 405.578 1766.98 407.51 1749 423C1736.57 435.749 1732.56 452.197 1732.69 469.482C1732.72 471.659 1732.75 473.835 1732.76 476.011L1732.76 476.921C1732.79 489.579 1732.82 501.795 1741 512.25C1747.57 519.095 1755.11 522.341 1764.56 522.562C1779.34 521.87 1789.87 516.524 1800.19 506.062L1805 501L1806 520H1824V364ZM1799.24 421.927L1796.44 421.906C1782.82 421.715 1772.31 424.481 1762 434C1752.07 444.821 1750.36 457.843 1750.64 471.915C1750.66 472.784 1750.67 473.653 1750.69 474.522C1750.69 475.144 1750.7 475.766 1750.7 476.389C1750.75 484.922 1750.79 492.305 1755 500C1757.96 503.762 1759.44 504.782 1764.19 505.445C1777.37 505.871 1784.6 500.998 1794.47 493.047C1795.23 492.384 1796 491.723 1796.76 491.065C1797.17 490.709 1797.59 490.354 1798 490C1799.42 488.93 1800.81 487.82 1802.17 486.679C1806.7 482.091 1806.91 478.218 1806.91 471.946C1806.84 470.001 1806.78 468.056 1806.76 466.11C1806.74 462.659 1806.69 459.211 1806.6 455.762C1806.51 452.193 1806.46 448.624 1806.41 445.054C1806.33 437.368 1806.19 429.684 1806 422C1803.74 421.969 1801.49 421.944 1799.24 421.927Z" fill="#676767"/>
<path d="M2396 380C2401.94 380 2407.88 380 2414 380C2414 388.58 2414 397.16 2414 406C2424.56 406 2435.12 406 2446 406C2446 411.28 2446 416.56 2446 422C2435.44 422 2424.88 422 2414 422C2414.09 430.052 2414.18 438.103 2414.29 446.154C2414.34 449.904 2414.38 453.654 2414.42 457.405C2414.46 461.023 2414.51 464.641 2414.56 468.259C2414.58 469.633 2414.59 471.007 2414.6 472.381C2414.56 485.387 2414.56 485.387 2419 497.375C2427.36 504.69 2439.47 503.667 2450 504C2450 509.28 2450 514.56 2450 520C2416.91 520.526 2416.91 520.526 2405.18 510.438C2398.07 503.017 2395.87 492.244 2395.89 482.282C2395.89 481.628 2395.89 480.974 2395.89 480.299C2395.89 478.151 2395.89 476.003 2395.9 473.855C2395.9 472.36 2395.91 470.865 2395.91 469.37C2395.91 465.446 2395.92 461.522 2395.93 457.598C2395.94 453.589 2395.95 449.581 2395.95 445.572C2395.96 437.715 2395.98 429.857 2396 422C2390.06 422 2384.12 422 2378 422C2378 416.72 2378 411.44 2378 406C2383.94 406 2389.88 406 2396 406C2396 397.42 2396 388.84 2396 380Z" fill="#676767"/>
<path fill-rule="evenodd" clip-rule="evenodd" d="M1423.95 405.853C1421.88 405.841 1419.81 405.828 1417.75 405.812C1416.36 405.795 1414.97 405.768 1413.59 405.741C1403.2 405.54 1392.93 405.342 1383 409C1367.28 415.369 1357.24 426.7 1350.67 442.125C1345.96 456.511 1344.71 478.102 1351.07 492.113C1355.66 501.395 1361.91 508.717 1371.88 512.351C1388.36 515.778 1402.64 511.117 1417.44 504.207L1420 503C1420.16 508.289 1420.3 513.411 1419.31 518.625L1418 522C1416.67 525.62 1415.22 528.831 1413 532C1402.82 541.081 1388.3 541.445 1375.35 541.654C1373.88 541.677 1372.42 541.705 1370.96 541.738C1368.82 541.789 1366.68 541.84 1364.54 541.887L1358 542V559C1361.45 559.039 1364.89 559.078 1368.34 559.098C1369.77 559.106 1371.2 559.115 1372.62 559.125C1373.34 559.134 1374.06 559.144 1374.78 559.154C1386.24 559.316 1398.44 559.488 1409.08 554.898L1411 554C1416.36 551.733 1420.99 549.343 1425.25 545.312C1438.99 530.407 1439.59 513.302 1439.42 494.042C1439.4 491.641 1439.39 489.239 1439.38 486.837C1439.37 480.515 1439.35 474.193 1439.3 467.871C1439.26 461.331 1439.23 454.79 1439.21 448.249C1439.16 434.166 1439.09 420.083 1439 406C1433.98 405.938 1428.96 405.886 1423.95 405.853ZM1421 488V422C1418.58 422 1416.12 421.864 1413.66 421.728C1407.31 421.376 1400.93 421.023 1395 423C1388.27 425.021 1382.87 427.161 1377.78 432.101L1376 434C1372.92 437.243 1370.72 440.542 1368.74 444.555C1364.15 456.65 1363.5 473.802 1368 486C1370.35 490.833 1373.64 494.191 1378.58 496.344C1382.58 497.427 1385.33 498.174 1388.12 498.332C1394.3 498.682 1400.63 496.147 1421 488Z" fill="#686868"/>
<path fill-rule="evenodd" clip-rule="evenodd" d="M2082.42 405.813L2079.5 405.805C2074.21 405.745 2069.22 405.822 2064.03 406.947C2048.95 410.613 2037.54 419.605 2029.38 432.5C2020.69 448.216 2018.78 469.499 2023 487C2027.49 498.916 2032.79 506.384 2044.4 511.906C2060.57 516.82 2076.91 511.065 2091.47 504.207L2094 503C2094.16 508.289 2094.3 513.411 2093.31 518.625L2092 522C2090.67 525.62 2089.22 528.833 2087 532C2076.76 540.977 2062.97 541.433 2050.05 541.599C2047.78 541.625 2045.51 541.662 2043.23 541.703C2041.79 541.732 2040.34 541.761 2038.89 541.789C2038.34 541.796 2037.74 541.767 2037.12 541.736C2034.92 541.628 2032.49 541.509 2031 543C2030.95 544.925 2030.9 546.85 2030.91 548.775L2030.94 551.062C2030.95 552.697 2030.96 554.331 2030.97 555.966C2030.98 556.977 2030.99 557.988 2031 559C2034.56 559.042 2038.13 559.076 2041.69 559.098C2043.17 559.106 2044.65 559.115 2046.13 559.125L2046.77 559.133C2052.19 559.199 2057.59 559.264 2063 559C2076.49 557.695 2091.07 554.437 2100.48 543.883L2102 542C2113.51 528.265 2113.71 511.77 2113.53 494.751C2113.5 492.331 2113.48 489.91 2113.47 487.49C2113.46 481.116 2113.43 474.742 2113.38 468.369C2113.32 461.775 2113.29 455.182 2113.26 448.589C2113.21 434.392 2113.12 420.196 2113 406C2107.93 405.959 2102.87 405.924 2097.8 405.902L2094.79 405.89L2091.56 405.875C2088.52 405.849 2085.47 405.824 2082.42 405.813ZM2095 487V422C2092.88 422 2090.83 421.974 2088.83 421.949C2074.09 421.765 2062.5 421.62 2051.31 432.125C2041.82 442.161 2039.99 453.226 2039.77 466.633L2039.75 469.312C2039.68 475.247 2039.97 480.335 2042 486C2044.35 490.834 2047.64 494.204 2052.59 496.34C2067.46 500.413 2082.05 493.476 2095 487Z" fill="#686868"/>
<path d="M1786.76 605.805C1788.44 605.814 1788.44 605.814 1790.15 605.824C1791.9 605.849 1791.9 605.849 1793.69 605.875C1795.46 605.889 1795.46 605.889 1797.26 605.902C1800.17 605.926 1803.09 605.959 1806 606C1807.13 609.352 1806.86 611.342 1805.81 614.691C1805.53 615.623 1805.25 616.555 1804.95 617.514C1804.64 618.52 1804.32 619.526 1804 620.563C1800.89 630.805 1798.1 641.093 1795.49 651.473C1793.78 658.192 1791.87 664.808 1789.76 671.411C1788.91 673.87 1788.91 673.87 1789 676C1789.4 675.322 1789.8 674.644 1790.21 673.945C1797.32 662.315 1806.44 650.208 1820 646C1826.84 645.104 1831.47 645.827 1837 650C1839.06 652.063 1839.06 652.063 1840 655C1839.24 662.654 1836.94 670.013 1834.62 677.313C1834 679.329 1833.38 681.346 1832.75 683.363C1832.17 685.242 1831.58 687.121 1831 689C1830.17 691.663 1829.36 694.328 1828.56 697C1828.25 698.011 1827.95 699.021 1827.63 700.063C1826.91 703.438 1826.89 706.558 1827 710C1830.82 710.4 1830.82 710.4 1832.71 708.715C1833.26 708.128 1833.81 707.542 1834.37 706.938C1834.98 706.306 1835.58 705.674 1836.2 705.023C1838.43 702.514 1840.57 699.933 1842.64 697.285C1844 696 1844 696 1847 696C1844.61 706.052 1838.17 714.121 1829.73 720.012C1825.14 722.636 1820.13 722.732 1815 722C1811.88 720.325 1809.61 718.215 1808 715C1808.42 708.047 1810.06 701.918 1812.19 695.313C1812.82 693.291 1813.45 691.269 1814.08 689.246C1814.4 688.219 1814.72 687.191 1815.04 686.132C1816.59 681.068 1818.03 675.978 1819.44 670.875C1819.7 669.958 1819.95 669.04 1820.22 668.095C1820.46 667.236 1820.69 666.377 1820.93 665.492C1821.14 664.743 1821.35 663.994 1821.56 663.222C1822.05 660.768 1822.07 658.496 1822 656C1808.24 660.037 1800.06 668.216 1792.88 680.469C1786.53 692.112 1783.37 704.451 1780.48 717.289C1780 719 1780 719 1779 720C1776.65 720.073 1774.29 720.084 1771.94 720.063C1770 720.049 1770 720.049 1768.03 720.035C1767.03 720.024 1766.03 720.012 1765 720C1763.94 716.757 1764.09 714.758 1765 711.492C1765.37 710.156 1765.37 710.156 1765.74 708.792C1766.01 707.829 1766.28 706.867 1766.56 705.875C1768.92 697.204 1771.08 688.516 1773.06 679.75C1774.77 672.213 1776.55 664.712 1778.56 657.25C1782.59 642.301 1785.8 627.145 1789 612C1785.04 612 1781.08 612 1777 612C1778.52 605.918 1781.04 605.747 1786.76 605.805Z" fill="#6A6A6A"/>
<path d="M1151 364C1163.54 364 1176.08 364 1189 364C1189 415.48 1189 466.96 1189 520C1183.06 520 1177.12 520 1171 520C1171 473.8 1171 427.6 1171 380C1164.4 380 1157.8 380 1151 380C1151 374.72 1151 369.44 1151 364Z" fill="#686868"/>
<path d="M1868.52 647.805C1869.54 647.811 1870.56 647.818 1871.62 647.824C1872.67 647.841 1873.73 647.858 1874.81 647.875C1875.89 647.884 1876.96 647.893 1878.07 647.902C1880.71 647.926 1883.36 647.959 1886 648C1887.6 651.995 1886.3 655.318 1885.09 659.23C1884.87 659.939 1884.66 660.648 1884.45 661.378C1883.76 663.651 1883.07 665.919 1882.38 668.187C1881.93 669.663 1881.49 671.139 1881.04 672.615C1880.15 675.578 1879.26 678.54 1878.36 681.501C1878.03 682.609 1878.03 682.609 1877.69 683.738C1877.22 685.268 1876.76 686.798 1876.29 688.328C1875.6 690.609 1874.91 692.892 1874.23 695.176C1874.02 695.859 1873.81 696.542 1873.59 697.246C1872.32 701.506 1871.53 705.602 1871 710C1877.3 710.688 1880.69 709.652 1885.78 705.871C1899.52 694.305 1904.7 678.239 1909.32 661.438C1910.06 658.773 1910.83 656.115 1911.61 653.461C1911.97 652.216 1911.97 652.216 1912.34 650.947C1913 649 1913 649 1914 648C1916.35 647.927 1918.71 647.916 1921.06 647.937C1923 647.951 1923 647.951 1924.97 647.965C1925.97 647.976 1926.97 647.988 1928 648C1929.53 651.936 1928.4 655.23 1927.31 659.125C1926.93 660.562 1926.55 661.999 1926.18 663.437C1925.98 664.185 1925.78 664.933 1925.58 665.703C1924.62 669.489 1923.82 673.307 1923 677.125C1921.81 682.644 1920.45 688.034 1918.81 693.437C1917.07 699.294 1916.25 704.903 1916 711C1920.17 710.507 1921.87 709.565 1924.5 706.312C1925.09 705.597 1925.68 704.882 1926.29 704.144C1926.85 703.437 1927.42 702.729 1928 702C1928.98 700.832 1929.96 699.665 1930.94 698.5C1931.62 697.675 1932.3 696.85 1933 696C1934.98 696.495 1934.98 696.495 1937 697C1932.38 706.54 1926.36 717.141 1916.11 721.445C1910.72 722.861 1905.93 722.986 1900.94 720.437C1898.34 717.17 1898.21 715.174 1898 711C1898.7 707.748 1899.79 704.682 1900.94 701.562C1901.23 700.736 1901.52 699.909 1901.82 699.057C1902.53 697.033 1903.26 695.016 1904 693C1903.62 693.739 1903.24 694.477 1902.86 695.238C1895.93 707.999 1886.98 717.339 1873 722C1863.01 723.009 1863.01 723.009 1858.91 720.953C1856.8 719.201 1855.23 717.461 1854 715C1853.62 708.905 1854.57 704.285 1856.56 698.562C1859.18 690.701 1861.53 682.794 1863.75 674.812C1864.19 673.237 1864.19 673.237 1864.64 671.629C1866.17 666.104 1867.64 660.57 1869 655C1865.04 655 1861.08 655 1857 655C1857.33 653.35 1857.66 651.7 1858 650C1861.47 647.966 1864.56 647.76 1868.52 647.805Z" fill="#6A6A6A"/>
<path d="M2226.31 647.188C2229.32 649.218 2231.12 650.888 2233 654C2233.52 659.246 2232.1 663.429 2230.44 668.313C2227.83 676.267 2225.41 684.261 2223.13 692.313C2222.82 693.38 2222.51 694.447 2222.19 695.546C2221.9 696.558 2221.61 697.57 2221.32 698.613C2221.07 699.508 2220.81 700.403 2220.55 701.325C2219.94 704.277 2219.91 706.995 2220 710C2221.32 710.33 2222.64 710.66 2224 711C2225.23 709.626 2226.46 708.251 2227.69 706.875C2228.42 706.059 2229.15 705.243 2229.9 704.402C2231.6 702.453 2233.22 700.476 2234.81 698.438C2235.53 697.633 2236.26 696.829 2237 696C2237.99 696 2238.98 696 2240 696C2238.66 705.314 2232.09 712.472 2225.21 718.441C2219.83 722.237 2214.44 722.888 2208 722C2205.07 720.204 2203.53 719.056 2202 716C2201.52 708.648 2202.93 702.734 2205.13 695.75C2205.76 693.634 2206.4 691.518 2207.04 689.402C2207.37 688.34 2207.69 687.278 2208.03 686.183C2209.54 681.238 2211 676.278 2212.44 671.313C2212.7 670.447 2212.95 669.581 2213.22 668.688C2214.38 664.701 2215.35 661.201 2215 657C2206.5 657.362 2200.67 661.974 2194.94 668C2183.36 681.782 2177.73 698.689 2173.76 715.965C2173 719 2173 719 2172 720C2169.65 720.073 2167.29 720.084 2164.94 720.063C2163 720.049 2163 720.049 2161.03 720.035C2160.03 720.024 2159.03 720.012 2158 720C2157.48 712.929 2159.4 706.502 2161.13 699.688C2161.6 697.758 2162.08 695.828 2162.56 693.898C2162.89 692.578 2163.21 691.259 2163.54 689.94C2165.51 681.997 2167.32 674.018 2169.13 666.038C2169.37 665.022 2169.6 664.007 2169.84 662.961C2170.04 662.072 2170.24 661.183 2170.45 660.267C2171 658 2171 658 2172 655C2168.04 655 2164.08 655 2160 655C2160.33 653.35 2160.66 651.7 2161 650C2164.41 648.015 2167.41 647.759 2171.3 647.805C2172.28 647.811 2173.25 647.818 2174.26 647.824C2175.27 647.841 2176.27 647.858 2177.31 647.875C2178.34 647.884 2179.37 647.893 2180.42 647.902C2182.95 647.926 2185.47 647.959 2188 648C2188.98 651.058 2189 652.883 2188.04 655.934C2187.7 657.031 2187.7 657.031 2187.36 658.15C2187.12 658.905 2186.87 659.66 2186.63 660.438C2186.16 661.936 2185.69 663.434 2185.23 664.934C2185.01 665.635 2184.79 666.336 2184.57 667.058C2183.9 669.349 2183.4 671.647 2183 674C2183.61 673.094 2184.21 672.188 2184.84 671.254C2193.99 657.829 2207.98 640.617 2226.31 647.188Z" fill="#6A6A6A"/>
<path d="M1602 406C1607.94 406 1613.88 406 1620 406C1620.33 413.26 1620.66 420.52 1621 428C1622.34 426.309 1623.68 424.618 1625.06 422.875C1631.67 414.826 1638.03 409.323 1648 406C1652.67 405.864 1657.33 405.957 1662 406C1662 412.6 1662 419.2 1662 426C1658.41 426.062 1658.41 426.062 1654.75 426.125C1641.83 426.794 1632.47 432.833 1623.79 442.158C1618.66 448.471 1619.28 455.706 1619.51 463.457C1619.51 465.098 1619.51 466.738 1619.5 468.379C1619.49 472.653 1619.56 476.923 1619.64 481.196C1619.72 485.574 1619.72 489.952 1619.72 494.33C1619.74 502.889 1619.85 511.443 1620 520C1614.06 520 1608.12 520 1602 520C1602 482.38 1602 444.76 1602 406Z" fill="#676767"/>
<path d="M1319.05 648.676C1322.99 651.354 1326.43 654.263 1327.43 659.09C1327.55 662.776 1327.2 665.995 1325 669C1321.01 671.662 1317.7 671.838 1313 671C1310.38 668.75 1310.38 668.75 1309 666C1309 662.981 1309.9 662.108 1312 659.937C1312.66 659.298 1313.32 658.659 1314 658C1314.33 657.01 1314.66 656.02 1315 655C1310.22 652.451 1305.28 652.401 1300 653C1297.07 654.351 1297.07 654.351 1295 656C1294.34 656 1293.68 656 1293 656C1290.96 659.834 1290.88 662.749 1291.22 666.937C1293.27 672.36 1298.59 675.135 1303.38 677.875C1309.81 681.675 1314.84 685.763 1319 692C1320.2 698.167 1318.59 703.253 1315.61 708.641C1310.89 715.577 1304.21 720.215 1296 722C1285.72 723.179 1275.63 722.931 1267.07 716.562C1263.54 713.174 1262.57 710.24 1262.31 705.375C1262.55 701.586 1262.93 700.107 1265 696.812C1268.84 694.49 1271.62 694.044 1276 695C1279.16 696.814 1280.57 698.132 1282.19 701.375C1281.92 705.094 1280.03 706.435 1277.35 708.863C1276.9 709.238 1276.46 709.613 1276 710C1276.68 713.019 1276.68 713.019 1278.66 714.168C1284.58 716.275 1291.78 715.767 1297.62 713.75C1300.06 711.956 1301.41 710.557 1303 708C1303.43 705.551 1303.43 705.551 1303.31 703C1303.31 701.732 1303.31 701.732 1303.3 700.437C1302.97 697.757 1302.57 696.202 1301 694C1298.73 692.938 1298.73 692.938 1296 692C1279.07 682.455 1279.07 682.455 1276 675C1274.89 669.79 1275.37 665.46 1278 660.812C1287.36 647.832 1303.92 640.718 1319.05 648.676Z" fill="#6A6A6A"/>
<path d="M2376.05 648.676C2379.99 651.354 2383.43 654.263 2384.43 659.09C2384.55 662.776 2384.2 665.995 2382 669C2378.01 671.662 2374.7 671.838 2370 671C2367.38 668.75 2367.38 668.75 2366 666C2366 662.981 2366.9 662.108 2369 659.937C2369.66 659.298 2370.32 658.659 2371 658C2371.33 657.01 2371.66 656.02 2372 655C2366.47 652.732 2360.67 651.65 2354.94 653.758C2352.36 655.12 2350.34 656.557 2348.56 658.875C2347.55 662.701 2347.45 665.721 2349.04 669.387C2351.72 672.954 2354.92 674.677 2358.75 676.875C2365.75 681.058 2371.43 685.139 2376 692C2377.2 698.167 2375.59 703.253 2372.61 708.641C2367.89 715.577 2361.21 720.215 2353 722C2343.86 723.048 2333.95 723.205 2326 718C2322.9 715.172 2320.25 712.051 2319.73 707.793C2319.55 703.289 2319.52 700.752 2322 696.875C2325.84 694.476 2328.59 694.037 2333 695C2336.16 696.814 2337.57 698.132 2339.19 701.375C2338.92 705.094 2337.03 706.435 2334.35 708.863C2333.9 709.238 2333.46 709.613 2333 710C2333.67 713.145 2333.67 713.145 2336.19 714.168C2342.21 715.952 2348.66 715.822 2354.56 713.75C2357.9 711.394 2357.9 711.394 2360 708C2360.57 703.139 2360.6 698.283 2358 694C2356.69 693.283 2355.35 692.626 2354 692C2336.04 682.869 2336.04 682.869 2333 675C2332.03 669.366 2332.49 665.121 2335.56 660.25C2345.07 647.686 2361.03 640.774 2376.05 648.676Z" fill="#6A6A6A"/>
<path d="M1718.05 648.676C1721.99 651.354 1725.43 654.263 1726.43 659.09C1726.55 662.776 1726.2 665.995 1724 669C1720.01 671.662 1716.7 671.838 1712 671C1709.38 668.75 1709.38 668.75 1708 666C1708 662.981 1708.9 662.108 1711 659.937C1711.66 659.298 1712.32 658.659 1713 658C1713.33 657.01 1713.66 656.02 1714 655C1708.98 652.942 1704.36 652.318 1699 653C1696.13 654.37 1696.13 654.37 1694 656C1693.34 656 1692.68 656 1692 656C1690.2 659.833 1689.56 662.768 1690 667C1692.27 672.227 1696.02 674.157 1700.75 676.875C1707.75 681.058 1713.43 685.139 1718 692C1719.2 698.167 1717.59 703.253 1714.61 708.641C1709.89 715.577 1703.21 720.215 1695 722C1684.72 723.179 1674.63 722.931 1666.07 716.562C1662.54 713.174 1661.57 710.24 1661.31 705.375C1661.55 701.586 1661.93 700.107 1664 696.812C1667.11 694.932 1669.34 694.284 1673 694.492C1676.52 695.385 1678.46 697.461 1681 700C1680.59 704.832 1678.54 706.827 1675 710C1675.68 713.011 1675.68 713.011 1677.63 714.164C1683.13 716.106 1690.69 716.205 1696.18 714.207C1698.82 712.495 1700.26 710.616 1702 708C1702.32 705.622 1702.32 705.622 1702.25 703.062C1702.26 702.208 1702.26 701.353 1702.27 700.473C1701.98 697.786 1701.52 696.229 1700 694C1698.19 692.851 1698.19 692.851 1696 692C1678.04 682.869 1678.04 682.869 1675 675C1674.03 669.366 1674.48 665.121 1677.56 660.25C1687.07 647.686 1703.03 640.774 1718.05 648.676Z" fill="#6A6A6A"/>
<path d="M1208.05 648.676C1211.99 651.354 1215.43 654.263 1216.43 659.09C1216.55 662.776 1216.2 665.995 1214 669C1210.01 671.662 1206.7 671.838 1202 671C1199.38 668.75 1199.38 668.75 1198 666C1198 662.981 1198.9 662.108 1201 659.937C1201.66 659.298 1202.32 658.659 1203 658C1203.33 657.01 1203.66 656.02 1204 655C1198.47 652.732 1192.67 651.65 1186.94 653.758C1184.36 655.12 1182.34 656.557 1180.56 658.875C1179.55 662.701 1179.45 665.721 1181.04 669.387C1183.72 672.954 1186.92 674.677 1190.75 676.875C1197.75 681.058 1203.43 685.139 1208 692C1209.2 698.167 1207.59 703.253 1204.61 708.641C1199.89 715.577 1193.21 720.215 1185 722C1175.86 723.048 1165.95 723.205 1158 718C1154.9 715.172 1152.25 712.051 1151.73 707.793C1151.55 703.289 1151.52 700.752 1154 696.875C1157.84 694.476 1160.59 694.037 1165 695C1168.16 696.814 1169.57 698.132 1171.19 701.375C1170.92 705.094 1169.03 706.435 1166.35 708.863C1165.9 709.238 1165.46 709.613 1165 710C1165.67 713.145 1165.67 713.145 1168.19 714.168C1174.21 715.952 1180.66 715.822 1186.56 713.75C1189.9 711.394 1189.9 711.394 1192 708C1192.57 703.139 1192.6 698.283 1190 694C1188.69 693.283 1187.35 692.626 1186 692C1168.04 682.869 1168.04 682.869 1165 675C1164.03 669.366 1164.49 665.121 1167.56 660.25C1177.07 647.686 1193.03 640.774 1208.05 648.676Z" fill="#6A6A6A"/>
<path d="M1375 627C1373.65 634.884 1371.46 642.394 1369 650C1370.01 649.754 1370.01 649.754 1371.04 649.504C1374.51 648.912 1377.79 648.905 1381.31 648.938C1382.57 648.947 1383.82 648.956 1385.11 648.965C1386.07 648.976 1387.02 648.988 1388 649C1387.52 653.552 1387.52 653.552 1385.48 655.305C1381.74 656.353 1378.12 656.208 1374.25 656.125C1373.46 656.116 1372.66 656.107 1371.85 656.098C1369.9 656.074 1367.95 656.038 1366 656C1365.89 656.578 1365.79 657.157 1365.68 657.752C1364.35 664.737 1362.56 671.537 1360.63 678.375C1360.33 679.422 1360.04 680.468 1359.74 681.547C1357.96 687.894 1355.98 694.125 1353.75 700.331C1352.63 704.315 1352.69 707.083 1354 711C1356.33 711.345 1356.33 711.345 1359 711C1361.16 709.261 1361.16 709.261 1363 706.875C1363.68 706.059 1364.37 705.243 1365.07 704.402C1366.23 702.962 1367.38 701.518 1368.52 700.066C1369.63 698.669 1370.81 697.328 1372 696C1372.99 696 1373.98 696 1375 696C1373.66 705.314 1367.09 712.472 1360.21 718.441C1354.51 722.458 1348.79 722.816 1342 722C1338.7 720.378 1336.83 719.091 1334.63 716.188C1332.5 708.743 1335.3 702.191 1337.72 695.16C1338.1 694.038 1338.47 692.916 1338.86 691.76C1340.07 688.191 1341.28 684.627 1342.5 681.063C1343.32 678.638 1344.14 676.213 1344.96 673.787C1346.96 667.854 1348.98 661.926 1351 656C1346.71 656 1342.42 656 1338 656C1339 652 1339 652 1342 650C1344.52 649.207 1347.07 648.545 1349.63 647.879C1352.23 646.913 1353.35 646.222 1355 644C1355.62 642.228 1356.18 640.433 1356.69 638.625C1358.44 633.517 1360.24 631.365 1365 628.902C1365.66 628.605 1366.32 628.307 1367 628C1367.66 627.609 1368.32 627.219 1369 626.816C1371.43 625.825 1372.57 626.133 1375 627Z" fill="#696969"/>
<path fill-rule="evenodd" clip-rule="evenodd" d="M2316.44 671.313C2316.25 663.331 2314.85 657.987 2309.31 652.188C2291.24 640.256 2271.1 646.405 2257.78 662.641L2256 665C2248.21 675.333 2245.19 688.343 2245.68 701.16C2246.4 707.631 2248.38 712.32 2253.3 716.68L2255 718C2256.75 719.369 2258.38 720.375 2260.39 721.313C2269.24 723.644 2278.86 722.643 2287.16 719.07L2289.06 718.125C2292.43 716.488 2295.15 714.424 2298 712C2309.85 700.438 2315.92 687.918 2316.44 671.313ZM2300 661C2298.39 657.789 2296.93 655.103 2294 653C2276.73 649.425 2269.61 666.06 2264.66 679.688C2261.76 689.441 2259.18 702.471 2264 712C2266.24 714.509 2267.85 715.836 2271.22 716.316C2277.75 716.476 2281.15 714.407 2286 710C2297.57 696.467 2301.12 678.412 2300 661Z" fill="#696969"/>
<path d="M865.313 2.49993C871.253 5.98455 875.916 11.4345 878 17.9999C878.871 25.3428 878.616 32.0038 874 37.9999C868.012 44.4343 862.923 46.9964 854.125 47.4374C847.116 47.2986 843.132 45.132 838.25 40.2499C832.491 33.8263 831.481 29.1687 831.625 20.4843C832.42 13.0974 836.671 8.85788 842.156 4.22649C848.833 -0.21505 857.975 -0.739019 865.313 2.49993Z" fill="#862B21"/>
<path fill-rule="evenodd" clip-rule="evenodd" d="M2233 428C2231.72 420.9 2227.42 415.789 2221.96 411.336C2203.28 397.938 2173.35 401.587 2157.19 417.457C2146.2 430.233 2144.58 443.783 2144.64 459.998C2144.66 462.919 2144.69 465.839 2144.68 468.759C2144.68 470.692 2144.68 472.624 2144.69 474.556L2144.7 477.332V477.383C2144.69 482.018 2144.69 486.421 2145.94 490.913C2150.25 503.476 2156.19 511.701 2168.08 517.711C2182.8 524.207 2200.82 523.877 2215.93 518.779L2218.37 517.937C2221.25 516.963 2224.13 515.985 2227 515V498C2224.08 498.583 2222.87 498.826 2221.68 499.164C2220.83 499.405 2220 499.695 2218.57 500.191C2211.1 502.799 2204.18 504.317 2196.24 504.447L2193.31 504.437C2186.7 504.42 2180.7 504.352 2174.94 500.687L2173 499C2166.8 494.043 2164.49 487.291 2163.61 479.57L2163.39 476.125C2163.25 474.084 2163.12 472.042 2163 470C2167.81 470.062 2172.63 470.114 2177.44 470.146C2179.42 470.159 2181.4 470.172 2183.37 470.187C2186.27 470.226 2189.16 470.263 2192.05 470.28L2194.84 470.293C2197.39 470.338 2199.93 470.343 2202.49 470.263C2211.73 469.297 2221.25 465.341 2227.37 458.25L2229 455C2233.85 446.304 2233.78 437.683 2233 428ZM2215.2 433.609C2214.86 429.15 2212.33 425.878 2209 423C2197.28 417.182 2182.48 418.752 2172.12 426.625C2166.55 432.025 2163.91 438.079 2163.46 445.821L2163.37 447.848C2163.24 450.232 2163.11 452.615 2163 455C2167.27 455.041 2171.54 455.076 2175.81 455.098C2177.56 455.106 2179.31 455.115 2181.06 455.125C2183.63 455.15 2186.2 455.176 2188.76 455.187L2191.22 455.195C2192.75 455.216 2194.28 455.227 2195.81 455.227C2202.18 455.063 2207.43 453.568 2212 449C2213.21 447.328 2213.99 446.258 2214.48 445.07C2215.34 442.963 2215.31 440.485 2215.2 433.609Z" fill="#696969"/>
<path fill-rule="evenodd" clip-rule="evenodd" d="M2556 428C2554.11 420.837 2550.09 415.479 2544.44 410.75C2525.37 397.653 2496.25 402.199 2480.04 417.68C2468.98 430.283 2467.6 444.093 2467.69 460.144C2467.72 463.092 2467.75 466.038 2467.76 468.986C2467.76 470.936 2467.77 472.886 2467.78 474.836L2467.8 477.625L2467.81 480.299L2467.84 482.789C2467.88 486.727 2468.65 489.975 2469.91 493.699C2474.31 505.098 2480.8 512.854 2492 518C2511.25 525.923 2531.19 522.274 2550 515V498C2547.09 498.581 2545.88 498.825 2544.69 499.161C2543.83 499.403 2542.98 499.692 2541.53 500.191C2534.22 502.725 2527.42 504.313 2519.65 504.447L2516.88 504.437C2510.21 504.418 2503.71 504.29 2497.88 500.687L2496 499C2489.8 494.044 2487.49 487.291 2486.61 479.57L2486.39 476.125C2486.25 474.084 2486.12 472.042 2486 470C2490.77 470.083 2495.53 470.152 2500.3 470.195C2501.18 470.203 2502.06 470.21 2502.94 470.218C2504.02 470.228 2505.11 470.239 2506.19 470.25C2507.02 470.265 2507.85 470.282 2508.68 470.299C2522.77 470.586 2536.69 470.87 2548 461C2554.18 454.994 2556.19 446.821 2556.37 438.45L2556.38 436.187C2556.38 433.411 2556.24 430.78 2556 428ZM2538.2 433.609C2537.86 429.15 2535.33 425.878 2532 423C2520.94 417.51 2507.45 418.9 2497 425C2490.45 430.556 2487.51 436.863 2486.67 445.314L2486.43 448.801C2486.28 450.867 2486.14 452.933 2486 455C2490.27 455.041 2494.54 455.076 2498.81 455.098C2500.56 455.106 2502.31 455.115 2504.06 455.125C2506.63 455.151 2509.2 455.176 2511.76 455.187L2514.22 455.195C2515.75 455.216 2517.28 455.227 2518.81 455.227C2525.18 455.063 2530.43 453.568 2535 449C2536.21 447.328 2536.99 446.258 2537.48 445.071C2538.34 442.964 2538.31 440.485 2538.2 433.609Z" fill="#696969"/>
<path fill-rule="evenodd" clip-rule="evenodd" d="M1944.38 434.065C1944.19 424.785 1940.73 418.694 1934.29 412.297C1915.94 396.936 1884.38 402.076 1868.04 417.68C1857.04 430.217 1855.58 444.018 1855.64 459.998C1855.66 462.919 1855.69 465.839 1855.68 468.759C1855.68 470.692 1855.68 472.624 1855.69 474.556L1855.7 477.332V477.382C1855.69 482.017 1855.69 486.42 1856.94 490.913C1861.25 503.477 1867.19 511.694 1879.07 517.711C1893.75 524.175 1911.95 523.881 1927.01 518.779L1929.44 517.937C1932.29 516.964 1935.15 515.987 1938 515V498C1935.08 498.583 1933.87 498.826 1932.68 499.164C1931.83 499.406 1931 499.695 1929.57 500.191C1922.1 502.799 1915.18 504.317 1907.24 504.447L1904.31 504.437C1897.7 504.42 1891.7 504.352 1885.94 500.687L1884 499C1877.8 494.044 1875.49 487.291 1874.61 479.57L1874.39 476.125C1874.25 474.084 1874.12 472.042 1874 470C1878.77 470.083 1883.53 470.152 1888.29 470.195C1890.26 470.212 1892.22 470.23 1894.19 470.25C1895.02 470.265 1895.86 470.281 1896.7 470.298C1903.13 470.425 1909.58 470.552 1916 470C1924.84 468.493 1932.45 465.359 1938.19 458.312L1940 455C1943.04 449.6 1944.23 444.672 1944.37 438.523L1944.38 436.25L1944.38 434.065ZM1926.25 436.75C1926.16 430.99 1925.15 428.148 1921 424C1908.5 417.365 1895.75 418.834 1884 426C1877.9 431.101 1875.45 437.542 1874.67 445.32L1874.43 448.805C1874.28 450.869 1874.14 452.934 1874 455C1878.27 455.041 1882.54 455.076 1886.81 455.098L1888.67 455.107C1889.8 455.112 1890.93 455.118 1892.06 455.125C1894.63 455.15 1897.2 455.175 1899.76 455.187L1902.22 455.195C1908.95 455.285 1914.89 454.982 1920.75 451.25C1925.27 446.733 1926.18 443.02 1926.25 436.75Z" fill="#696969"/>
<path d="M1238.52 647.805C1239.54 647.811 1240.56 647.818 1241.62 647.824C1242.67 647.841 1243.73 647.858 1244.81 647.875C1245.89 647.884 1246.96 647.893 1248.07 647.902C1250.71 647.926 1253.36 647.959 1256 648C1257.28 652.4 1256.62 655.227 1255.27 659.559C1255.08 660.184 1254.89 660.81 1254.69 661.454C1254.07 663.452 1253.44 665.445 1252.81 667.437C1252.41 668.741 1252 670.045 1251.6 671.35C1251 673.299 1250.39 675.248 1249.79 677.195C1247.74 683.765 1245.87 690.378 1244 697C1243.63 698.217 1243.27 699.435 1242.89 700.689C1242.01 703.957 1241.84 706.635 1242 710C1243.32 710.66 1244.64 711.32 1246 712C1246.22 711.469 1246.44 710.938 1246.66 710.391C1248.49 707.124 1250.92 704.493 1253.44 701.75C1253.93 701.196 1254.42 700.641 1254.92 700.07C1256.22 698.652 1257.6 697.319 1259 696C1259.99 696 1260.98 696 1262 696C1260.66 705.314 1254.09 712.472 1247.21 718.441C1241.83 722.237 1236.44 722.888 1230 722C1227.07 720.203 1225.53 719.056 1224 716C1223.49 709.136 1225.03 703.523 1227.06 697C1227.7 694.879 1228.34 692.758 1228.98 690.637C1229.31 689.549 1229.64 688.462 1229.99 687.341C1231.65 681.843 1233.26 676.328 1234.87 670.812C1235.32 669.299 1235.32 669.299 1235.78 667.756C1236.05 666.812 1236.33 665.867 1236.62 664.894C1236.86 664.068 1237.1 663.241 1237.35 662.39C1238.01 659.953 1238.5 657.475 1239 655C1235.04 655 1231.08 655 1227 655C1227.33 653.35 1227.66 651.7 1228 650C1231.47 647.966 1234.56 647.76 1238.52 647.805Z" fill="#6A6A6A"/>
<path fill-rule="evenodd" clip-rule="evenodd" d="M1647 648C1644.55 650.45 1643.43 650.766 1640 651C1625.18 642.886 1607.11 651.014 1595.69 661.75C1584.92 673.326 1578.03 688.548 1577.7 704.4L1577.69 706.562C1577.67 709.091 1577.77 711.47 1578 714C1579.78 716.675 1581.46 718.954 1583.98 720.976C1588.4 723.213 1593.22 722.629 1598 722C1611.18 719.045 1618.96 708.316 1626.16 697.746L1628 695C1627.69 695.828 1627.38 696.667 1627.05 697.516C1624.7 703.716 1622.15 710.432 1623 717L1623.04 717.052C1625.19 719.958 1625.79 720.776 1629 722C1634.15 722.762 1639.47 722.741 1644 720C1652.16 714.022 1659.02 706.107 1661 696H1658L1655.81 698.437C1654.22 700.476 1652.6 702.453 1650.9 704.402L1648.69 706.875C1647.46 708.251 1646.23 709.626 1645 711L1641 710C1640.82 706.031 1641.19 702.622 1642.27 698.797L1642.88 696.75C1644.28 691.787 1645.74 686.84 1647.23 681.901C1648.15 678.863 1649.07 675.823 1649.98 672.782C1650.67 670.455 1651.37 668.13 1652.09 665.807C1652.54 664.313 1653 662.817 1653.45 661.32L1654.09 659.195C1654.18 658.893 1654.28 658.594 1654.37 658.299C1655.49 654.776 1656.47 651.68 1655 648C1654.52 647.984 1654.03 647.966 1653.56 647.947C1651.36 647.862 1649.21 647.778 1647 648ZM1636 660C1634.65 657.184 1632.64 655.627 1630 654C1621.62 652.178 1614.54 658.663 1609.17 664.332C1599.23 676.549 1594.33 693.286 1595 709C1595.99 709.991 1596.49 710.491 1597.09 710.774C1597.71 711.061 1598.42 711.124 1599.87 711.25C1605.91 710.767 1610.56 706.903 1615 703C1625.46 691.641 1635.28 675.803 1636 660Z" fill="#6A6A6A"/>
<path fill-rule="evenodd" clip-rule="evenodd" d="M2136 648C2133.55 650.45 2132.43 650.766 2129 651C2122.97 647.772 2117.72 646.958 2110.98 648.445L2109 649C2096.69 651.852 2087.56 658.256 2079.45 667.836C2069.29 680.976 2065.31 697.612 2067 714C2068.78 716.675 2070.46 718.954 2072.98 720.976C2077.4 723.213 2082.22 722.629 2087 722C2100.18 719.045 2107.96 708.316 2115.16 697.746L2117 695C2116.4 696.661 2115.81 698.323 2115.22 699.99L2114.5 702.062C2112.65 707.169 2111.47 711.47 2112 717C2114.14 719.649 2115.02 720.685 2118 722C2123.15 722.788 2128.45 722.706 2133 720C2141.49 713.908 2147.47 706.178 2150 696C2148.18 696 2147.47 696 2146.88 696.278C2146.5 696.458 2146.18 696.757 2145.64 697.25L2144.25 699L2142.7 700.91C2141.51 702.376 2140.29 703.819 2139.05 705.246L2137.12 707.437C2136.08 708.625 2135.04 709.813 2134 711L2130 710C2129.82 706.031 2130.19 702.622 2131.27 698.797L2131.87 696.75C2133.28 691.787 2134.74 686.84 2136.23 681.901C2137.15 678.863 2138.07 675.823 2138.98 672.782C2139.67 670.455 2140.37 668.13 2141.09 665.807C2141.54 664.313 2142 662.817 2142.45 661.32L2143.09 659.195C2143.18 658.893 2143.27 658.594 2143.37 658.299C2144.49 654.776 2145.47 651.68 2144 648C2143.52 647.984 2143.03 647.966 2142.56 647.947C2140.36 647.862 2138.21 647.778 2136 648ZM2125 660C2123.42 657.336 2121.63 655.621 2119 654C2110.62 652.178 2103.54 658.663 2098.17 664.332C2087.59 677.336 2083.62 693.518 2085 710C2085.35 710.351 2085.58 710.579 2085.85 710.735C2086.35 711.023 2086.99 711.066 2088.81 711.188C2095.7 710.782 2101.49 705.688 2106.05 700.805C2114.82 690.218 2125.76 674.367 2125 660Z" fill="#6A6A6A"/>
<path fill-rule="evenodd" clip-rule="evenodd" d="M1446 659C1444.36 654.067 1442.09 650.309 1437.56 647.625C1426.97 642.809 1414.04 646.646 1404.63 652.469C1392.75 661.214 1385.49 673.217 1382.5 687.551C1381.25 696.187 1380.4 705.696 1385.52 713.23L1387.25 715.187L1388.95 717.168C1393.41 721.16 1397.49 722.366 1403.33 722.361L1405.56 722.312C1409.52 722.33 1413 722.327 1416.79 721.086L1419 720C1421.02 719.151 1422.95 718.239 1424.9 717.234C1434.73 711.458 1442.87 700.94 1446 690H1443.88C1442.42 690.508 1441.61 690.786 1440.95 691.256C1440.14 691.826 1439.53 692.677 1438.19 694.562C1432.63 702.448 1426.39 708.965 1417 712C1411.93 712.683 1408.32 712.879 1404 710C1400.33 704.704 1399.29 700.398 1399 694C1415.67 691.076 1432.53 683.264 1443.44 670.062C1446.14 666.315 1446.64 663.658 1446 659ZM1432.44 659.125C1431.96 655.696 1431.68 655.021 1429 653C1424.22 651.997 1419.45 652.223 1415.31 654.938C1404.49 664.024 1400.78 675.404 1399 689C1408.03 686.901 1415.85 683.011 1423.18 677.305C1428.64 672.269 1431.6 666.507 1432.44 659.125Z" fill="#6A6A6A"/>
<path d="M1260 614C1263.03 616.062 1264.65 617.533 1265.52 621.156C1265.85 625.663 1265.42 627.482 1262.5 631.063C1258.59 633.716 1255.62 633.733 1251 633C1247.86 630.973 1246.34 629.547 1245.52 625.84C1245.24 621.421 1245.56 619.553 1248.38 616C1252.7 612.704 1254.65 612.73 1260 614Z" fill="#6A6A6A"/>
<path d="M1072 419C1074.23 422.339 1075.32 425.649 1076.5 429.438C1076.82 430.411 1076.82 430.411 1077.14 431.404C1085.16 456.952 1082.05 485.502 1072 510C1070.82 506.559 1071.2 504.491 1072.31 501.062C1072.58 500.228 1072.84 499.394 1073.11 498.535C1074 496 1074 496 1075.04 493.66C1076.49 489.652 1076.81 485.567 1077.3 481.352C1077.65 478.42 1078.06 475.812 1079 473C1080.01 459.188 1079.04 445.929 1074 433C1073.63 430.672 1073.29 428.34 1073 426C1072.67 425.67 1072.34 425.34 1072 425C1071.96 423 1071.96 421 1072 419Z" fill="#F1AE4F"/>
<path d="M768 212C768.66 212 769.32 212 770 212C769.807 212.585 769.613 213.17 769.414 213.773C766.701 222.718 765.866 231.734 765 241C764.002 240.711 763.005 240.423 761.977 240.125C748.321 236.492 735.055 236.575 721 237C722.793 234.677 723.661 234.046 726.62 233.644C727.645 233.653 728.67 233.662 729.727 233.672C730.84 233.677 731.954 233.682 733.102 233.688C734.264 233.708 735.427 233.729 736.625 233.75C738.381 233.758 738.381 233.758 740.172 233.766C748.846 233.846 748.846 233.846 750 235C751.031 235.144 752.062 235.289 753.125 235.438C756.943 235.992 760.322 236.874 764 238C763.977 237.406 763.954 236.811 763.93 236.199C763.746 227.765 764.666 219.802 768 212Z" fill="#FDE9D0"/>
<path d="M951.812 500.688C952.776 500.69 953.74 500.693 954.734 500.696C962.954 500.816 970.983 501.322 978 506C976.334 506.043 974.666 506.041 973 506C972.505 505.505 972.505 505.505 972 505C968.453 504.608 964.877 504.524 961.312 504.375C960.272 504.331 959.232 504.286 958.16 504.241C950.41 503.956 942.694 503.85 935 505C934.67 505.33 934.34 505.66 934 506C932.576 506.422 931.135 506.789 929.688 507.125C928.518 507.407 928.518 507.407 927.324 507.695C924.893 508.014 923.314 507.752 921 507C922.643 506.367 924.29 505.744 925.938 505.125C927.312 504.603 927.312 504.603 928.715 504.07C936.466 501.545 943.666 500.641 951.812 500.688Z" fill="#31718C"/>
<path d="M938.004 241.793C943.135 242.253 947.397 243.747 952 246C951.67 246.66 951.34 247.32 951 248C950.34 248 949.68 248 949 248C949 247.34 949 246.68 949 246C944.912 245.009 941.197 244.55 937 245C934.354 247.229 934.354 247.229 932 250C919.849 258.965 903.746 261.123 889 259C886.724 257.977 886.724 257.977 885 257C885.634 257.016 886.268 257.031 886.921 257.048C908.28 257.936 908.28 257.936 927 249C927.887 248.67 928.774 248.34 929.688 248C932.261 247.14 932.261 247.14 933.75 244.312C936 242 936 242 938.004 241.793Z" fill="#D43326"/>
<path d="M832 465C834 466 834 466 835.117 468.633C836.054 472.205 836.2 475.191 836.125 478.875C836.107 480.027 836.089 481.18 836.07 482.367C836.036 483.67 836.036 483.67 836 485C836.66 485 837.32 485 838 485C838 491.93 838 498.86 838 506C841.63 506 845.26 506 849 506C843.47 508.765 841.112 509.099 835 509C835.005 508.391 835.01 507.782 835.016 507.155C835.123 492.781 834.816 479.137 832 465Z" fill="#DDCB40"/>
<path d="M937 500C947.56 500 958.12 500 969 500C969 500.66 969 501.32 969 502C970.547 501.907 970.547 501.907 972.125 501.812C976.372 502.018 978.301 503.003 982 505C984.973 506.086 987.98 507.054 991 508C991 508.66 991 509.32 991 510C992.32 510 993.64 510 995 510C995 510.99 995 511.98 995 513C991.532 511.959 988.335 510.718 985.125 509.062C973.44 503.109 962.435 501.686 949.375 501.875C948.18 501.884 946.985 501.893 945.754 501.902C942.836 501.926 939.918 501.958 937 502C937 501.34 937 500.68 937 500Z" fill="#CEA04B"/>
<path d="M829 459C837.09 467.09 836.065 485.806 836.188 496.438C836.201 497.22 836.214 498.002 836.228 498.808C836.233 502.803 835.95 505.53 834 509C833.98 508.199 833.96 507.398 833.94 506.573C833.844 502.902 833.735 499.232 833.625 495.562C833.594 494.302 833.563 493.042 833.531 491.744C833.317 484.894 832.774 478.626 831 472C830.67 472 830.34 472 830 472C829.67 467.71 829.34 463.42 829 459Z" fill="#5A696E"/>
<path d="M859 718C861.97 718 864.94 718 868 718C857.145 725.236 840.45 724.39 827.812 724.375C826.501 724.376 825.19 724.378 823.839 724.379C816.671 724.298 809.956 723.771 803 722C803 721.67 803 721.34 803 721C804.102 721.072 805.204 721.144 806.34 721.219C820.945 722.131 835.419 722.577 850 721C850.902 720.905 851.805 720.809 852.734 720.711C854.824 720.484 856.912 720.244 859 720C859 719.34 859 718.68 859 718Z" fill="#539BC7"/>
<path d="M748 394C754.728 393.777 760.54 394.05 767 396C767 396.66 767 397.32 767 398C767.846 398.103 768.691 398.206 769.562 398.313C773 399 773 399 776.438 400.5C780.032 402.014 783.137 402.606 787 403C787.495 404.98 787.495 404.98 788 407C788.66 407 789.32 407 790 407C790.495 408.485 790.495 408.485 791 410C788.032 408.882 785.186 407.62 782.355 406.195C771.09 400.567 760.36 397.43 748 395C748 394.67 748 394.34 748 394Z" fill="#DEC646"/>
<path d="M945 413C945.66 413.33 946.32 413.66 947 414C939.489 422.067 929.051 425.649 918.219 426.121C911.8 426.259 906.201 425.653 900 424C903.001 423.12 905.583 422.914 908.703 423.008C909.602 423.025 910.5 423.041 911.426 423.059C913.293 423.103 915.16 423.154 917.027 423.215C923.125 423.311 927.421 422.478 933 420C933.866 419.691 934.733 419.381 935.625 419.062C938.999 417.553 942.368 415.632 945 413Z" fill="#55937A"/>
<path d="M800 81C800.33 81.66 800.66 82.32 801 83C800.004 85.3828 800.004 85.3828 798.563 88.125C798.089 89.0351 797.616 89.9452 797.129 90.8828C796.756 91.5815 796.384 92.2802 796 93C795.34 93 794.68 93 794 93C793.089 98.6435 792.702 104.23 792.438 109.938C792.394 110.812 792.351 111.687 792.307 112.588C792.202 114.725 792.1 116.863 792 119C788.717 115.717 789.563 111.23 789.562 106.811C789.801 96.7507 793.811 88.78 800 81Z" fill="#8F4239"/>
<path d="M1079 440C1082.7 443.699 1082.18 447.938 1082.2 452.852C1082.21 453.625 1082.21 454.398 1082.22 455.195C1082.23 456.835 1082.24 458.474 1082.24 460.113C1082.25 462.595 1082.28 465.077 1082.31 467.559C1082.37 475.608 1082.32 482.505 1079 490C1077.9 486.658 1078.15 484.441 1078.93 481.035C1080.16 474.791 1080.26 468.785 1080.19 462.438C1080.19 460.849 1080.19 460.849 1080.19 459.229C1080.15 452.764 1079.78 446.418 1079 440Z" fill="#FFFAE0"/>
<path d="M911 458C911.33 458.66 911.66 459.32 912 460C903.874 471.18 895.594 482.154 884 490C883.34 490 882.68 490 882 490C882 489.34 882 488.68 882 488C883.617 486.625 883.617 486.625 885.875 485C895.922 477.359 903.571 468.085 911 458Z" fill="#FEC718"/>
<path d="M653 305C653.33 305 653.66 305 654 305C654.009 305.674 654.019 306.347 654.028 307.041C654.296 322.462 655.16 336.33 660.812 350.812C662 354 662 354 661 357C660.217 355.255 659.45 353.504 658.687 351.75C658.258 350.775 657.829 349.801 657.387 348.797C653.463 338.628 652.592 329.09 652.812 318.25C652.826 316.969 652.839 315.687 652.853 314.367C652.888 311.244 652.937 308.122 653 305Z" fill="#DB9441"/>
<path d="M954 361C954.66 361 955.32 361 956 361C956 362.32 956 363.64 956 365C956.66 365 957.32 365 958 365C958.144 366.134 958.289 367.269 958.438 368.438C958.612 371.808 958.612 371.808 960 373C960.087 374.489 960.107 375.981 960.098 377.473C960.094 378.372 960.091 379.271 960.088 380.197C960.08 381.143 960.071 382.088 960.062 383.062C960.058 384.012 960.053 384.961 960.049 385.939C960.037 388.293 960.021 390.646 960 393C959.34 393 958.68 393 958 393C957.814 394.423 957.814 394.423 957.625 395.875C957 399 957 399 955 401C955.499 397.675 956.13 394.549 957.062 391.312C959.331 382.17 957.891 374.459 954.875 365.652C954 363 954 363 954 361Z" fill="#CEA14B"/>
<path d="M990 304C990.33 304 990.66 304 991 304C991.477 318.585 990.119 331.519 984 345C982.654 341.338 983.384 339.402 984.875 335.875C986.725 331.146 987.545 326.954 987.824 321.898C988 320 988 320 989 319C989.237 316.474 989.422 313.969 989.562 311.438C989.627 310.371 989.627 310.371 989.693 309.283C989.8 307.522 989.9 305.761 990 304Z" fill="#CC3E3B"/>
<path d="M854 271C855 274 855 274 853.75 276.812C852.637 278.84 851.513 280.861 850.375 282.875C848.695 286.694 848.357 289.856 848 294C849.65 294.33 851.3 294.66 853 295C849.344 296.354 847.487 295.515 844 294C846.265 285.501 849.057 278.299 854 271Z" fill="#DD301E"/>
<path d="M949 345C953.104 344.941 957.208 344.906 961.312 344.875C963.034 344.85 963.034 344.85 964.791 344.824C973.377 344.776 982.298 344.771 990 349C987.208 348.86 984.417 348.713 981.625 348.563C980.831 348.523 980.037 348.484 979.219 348.443C973.227 348.113 973.227 348.113 971 347C969.334 346.848 967.663 346.751 965.992 346.684C965.006 346.642 964.02 346.6 963.004 346.557C961.455 346.498 961.455 346.498 959.875 346.438C958.835 346.394 957.794 346.351 956.723 346.307C954.149 346.2 951.574 346.098 949 346C949 345.67 949 345.34 949 345Z" fill="#F68428"/>
<path d="M924 336C924 336.66 924 337.32 924 338C924.959 337.876 924.959 337.876 925.938 337.75C930.403 338.115 934.009 340.052 938 342C938 342.66 938 343.32 938 344C938.99 344 939.98 344 941 344C941 344.66 941 345.32 941 346C939.68 345.67 938.36 345.34 937 345C937 344.34 937 343.68 937 343C936.299 343.062 935.598 343.124 934.875 343.188C932 343 932 343 929.375 341.563C925.255 339.655 921.604 339.226 917.125 338.813C916.341 338.731 915.558 338.649 914.75 338.564C912.834 338.366 910.917 338.181 909 338C909 337.67 909 337.34 909 337C910.562 336.83 912.125 336.664 913.688 336.5C914.558 336.407 915.428 336.314 916.324 336.219C918.897 336.008 921.42 335.963 924 336Z" fill="#B33B46"/>
<path d="M904 470C904 474.315 901.434 476.261 898.625 479.25C897.818 480.119 897.818 480.119 896.995 481.005C892.475 485.749 887.607 489.589 882 493C881.34 492.67 880.68 492.34 880 492C880.478 491.618 880.957 491.236 881.449 490.842C883.66 489.069 885.861 487.284 888.062 485.5C888.815 484.899 889.567 484.299 890.342 483.68C895.45 479.523 899.828 475.095 904 470Z" fill="#F7A70E"/>
<path d="M950 191C952.756 195.759 952.33 200.319 952.312 205.688C952.328 206.643 952.344 207.599 952.361 208.584C952.365 214.926 951.41 220.131 949 226C948.67 226 948.34 226 948 226C947.748 218.581 947.748 218.581 949 215.691C950.069 212.813 950.231 210.754 950.195 207.699C950.185 206.235 950.185 206.235 950.176 204.74C950.159 203.733 950.142 202.725 950.125 201.688C950.111 200.147 950.111 200.147 950.097 198.576C950.074 196.051 950.041 193.525 950 191Z" fill="#B75442"/>
<path d="M873 496C873.66 496.33 874.32 496.66 875 497C861.055 505 861.055 505 856 505C856 507.64 856 510.28 856 513C853.752 510.948 852.998 509.993 852 507C851.01 506.34 850.02 505.68 849 505C850.763 504.722 850.763 504.722 852.562 504.438C858.091 503.254 862.928 500.829 867.946 498.301C869.605 497.48 871.3 496.733 873 496Z" fill="#F7A60E"/>
<path d="M874 364C874.33 364.66 874.66 365.32 875 366C874.536 367.361 874.536 367.361 874.063 368.75C872.224 374.589 872.652 380.952 873 387C873.33 387.33 873.66 387.66 874 388C874.263 389.972 874.522 391.945 874.746 393.922C875.038 396.312 875.486 398.649 876 401C870.887 395.422 870.636 387.702 870.688 380.5C870.689 379.758 870.69 379.016 870.692 378.252C870.785 372.931 871.554 368.791 874 364Z" fill="#468E86"/>
<path d="M869 537C871.938 538.312 871.938 538.312 875 540C875.33 540.99 875.66 541.98 876 543C876.99 543.33 877.98 543.66 879 544C879.33 543.34 879.66 542.68 880 542C880.66 542 881.32 542 882 542C882 540.68 882 539.36 882 538C883.32 537.67 884.64 537.34 886 537C884.35 540.3 882.7 543.6 881 547C875.151 545.83 875.151 545.83 873 543C873 542.34 873 541.68 873 541C871.68 540.34 870.36 539.68 869 539C869 538.34 869 537.68 869 537Z" fill="#B29D63"/>
<path d="M840 6C840 9.46877 839.381 11.8225 838 15C836.68 15.33 835.36 15.66 834 16C833.67 20.95 833.34 25.9 833 31C832.67 31 832.34 31 832 31C831.094 16.671 831.094 16.671 835.613 10.5508C837.023 8.97409 838.482 7.47305 840 6Z" fill="#833E37"/>
<path d="M917 510C916.67 511.32 916.34 512.64 916 514C914.866 514.289 913.731 514.577 912.562 514.875C911.387 515.246 910.211 515.618 909 516C908.67 516.66 908.34 517.32 908 518C907.01 518 906.02 518 905 518C904.67 519.32 904.34 520.64 904 522C902.35 522 900.7 522 899 522C899 521.34 899 520.68 899 520C911.6 510 911.6 510 917 510Z" fill="#357289"/>
<path d="M832 465C834 466 834 466 835.086 468.691C837.85 478.695 837.128 489.692 837 500C836.67 500 836.34 500 836 500C835.95 499.331 835.9 498.661 835.848 497.971C835.613 494.876 835.369 491.782 835.125 488.688C835.046 487.635 834.968 486.582 834.887 485.498C834.332 478.564 833.384 471.817 832 465Z" fill="#DDC750"/>
<path d="M900 424C901.702 424.248 901.702 424.248 903.438 424.5C910.921 425.354 918.48 425.078 926 425C925.01 425.33 924.02 425.66 923 426C923 426.66 923 427.32 923 428C920.688 428.027 918.375 428.046 916.062 428.062C914.775 428.074 913.487 428.086 912.16 428.098C909 428 909 428 908 427C906.653 426.769 905.296 426.588 903.938 426.438C902.638 426.293 901.339 426.149 900 426C900 425.34 900 424.68 900 424Z" fill="#E2D33C"/>
<path d="M874.742 252.316C875.86 252.655 875.86 252.655 877 253C876.103 253.155 876.103 253.155 875.188 253.312C872.701 254.094 871.771 255.149 870 257C869.34 257 868.68 257 868 257C868 257.66 868 258.32 868 259C866.567 260.2 865.13 261.395 863.668 262.559C861.096 264.781 859.106 267.337 857 270C857 264.408 862.332 260.702 866.07 256.887C871.306 251.92 871.306 251.92 874.742 252.316Z" fill="#DD301E"/>
<path d="M872 366C873 369 873 369 872 372C871.902 374.74 871.861 377.448 871.875 380.188C871.871 380.918 871.867 381.648 871.863 382.4C871.872 387.349 872.301 392.101 873 397C872.67 396.34 872.34 395.68 872 395C871.34 395 870.68 395 870 395C869.942 390.729 869.906 386.459 869.875 382.188C869.858 380.973 869.841 379.758 869.824 378.506C869.818 377.342 869.811 376.179 869.805 374.98C869.794 373.907 869.784 372.833 869.773 371.727C870 369 870 369 872 366Z" fill="#D7D14A"/>
<path d="M899 326C902.595 329.492 905.92 333.04 909 337C909 337.66 909 338.32 909 339C899.59 341.112 899.59 341.112 895 342C895 341.34 895 340.68 895 340C896.32 340 897.64 340 899 340C899 339.34 899 338.68 899 338C901.31 338 903.62 338 906 338C904.425 335.244 902.821 332.78 900.812 330.312C899 328 899 328 899 326Z" fill="#EAC03A"/>
<path d="M2237 696C2237.99 696 2238.98 696 2240 696C2239.48 699.767 2238.73 702.274 2236 705C2234.68 705 2233.36 705 2232 705C2232 700.663 2234.08 699.056 2237 696Z" fill="#707070"/>
<path d="M934 343C934.99 343 935.98 343 937 343C937 343.66 937 344.32 937 345C937.784 345.248 938.567 345.495 939.375 345.75C942.436 347.208 942.587 348.08 944 351C946.05 351.805 946.05 351.805 948 352C948 352.99 948 353.98 948 355C944.874 353.87 941.867 352.693 939 351C937.938 348.25 937.938 348.25 938 346C937.34 346 936.68 346 936 346C936 345.34 936 344.68 936 344C935.34 343.67 934.68 343.34 934 343Z" fill="#3B80A3"/>
<path d="M945 413C945.66 413.33 946.32 413.66 947 414C941.829 419.554 935.295 422.96 928 425C925.691 424.609 925.691 424.609 924 424C926.703 421.297 929.338 420.993 933 420C937.399 418.498 941.677 416.323 945 413Z" fill="#8D946C"/>
<path d="M897 341C897.66 341.33 898.32 341.66 899 342C898.381 342.062 897.762 342.124 897.125 342.188C896.073 342.59 896.073 342.59 895 343C894.319 344.661 893.653 346.328 893 348C891.125 349.375 891.125 349.375 889 350C887.657 349.71 886.32 349.381 885 349C886.433 347.849 887.872 346.704 889.312 345.562C890.113 344.924 890.914 344.286 891.738 343.629C894 342 894 342 897 341Z" fill="#428F91"/>
<path d="M1031 587C1031.33 587 1031.66 587 1032 587C1032.55 600.633 1032.55 600.633 1029 607C1028.34 607 1027.68 607 1027 607C1028.32 600.4 1029.64 593.8 1031 587Z" fill="#CCEBF7"/>
<path d="M900 153.875C901.162 153.889 901.162 153.889 902.348 153.902C904.232 153.926 906.116 153.962 908 154C908 154.33 908 154.66 908 155C906.48 155.074 906.48 155.074 904.93 155.149C903.578 155.224 902.227 155.299 900.875 155.375C900.21 155.406 899.545 155.437 898.859 155.469C894.58 155.721 891.025 156.582 887 158C884.668 158.075 882.331 158.093 880 158C886.177 153.882 892.811 153.713 900 153.875Z" fill="#B15240"/>
<path d="M1081 469C1081.33 469 1081.66 469 1082 469C1082.35 476.63 1082 482.924 1079 490C1078.09 487.03 1077.98 484.935 1078.56 481.891C1078.7 481.137 1078.84 480.382 1078.98 479.605C1079.13 478.828 1079.28 478.051 1079.44 477.25C1079.58 476.457 1079.73 475.664 1079.88 474.848C1080.25 472.897 1080.62 470.948 1081 469Z" fill="#FEF3D2"/>
<path d="M889 706C890.65 706 892.3 706 894 706C891.426 708.967 888.483 710.491 885 712.25C883.422 713.062 883.422 713.062 881.812 713.891C879 715 879 715 876 714C879 712 879 712 882 712C882 711.34 882 710.68 882 710C883.454 709.567 883.454 709.567 884.938 709.125C888.107 708.358 888.107 708.358 889 706Z" fill="#4D9AC9"/>
<path d="M755 310C755.66 310.33 756.32 310.66 757 311C755.271 312.417 753.542 313.834 751.812 315.25C750.368 316.433 750.368 316.433 748.895 317.641C746.275 319.776 743.643 321.894 741 324C741.33 322.68 741.66 321.36 742 320C742.66 320 743.32 320 744 320C744 319.34 744 318.68 744 318C747.431 314.973 751.175 312.491 755 310Z" fill="#E49915"/>
<path d="M1026 549C1026.66 549 1027.32 549 1028 549C1029.26 551.906 1030 553.796 1030 557C1031.32 557.33 1032.64 557.66 1034 558C1033.36 558.268 1032.72 558.536 1032.06 558.812C1029.67 559.887 1029.67 559.887 1029 563C1028.01 558.38 1027.02 553.76 1026 549Z" fill="#CEA251"/>
<path d="M817 426C818.108 429.325 817.845 431.622 817 435C814.352 432.422 812.056 430.084 810 427C813 426 813 426 817 426Z" fill="#EBCB2C"/>
<path d="M786 192C786 192.66 786 193.32 786 194C785.423 194.557 784.845 195.114 784.25 195.688C781.458 198.557 779.896 201.48 778 205C777.01 205 776.02 205 775 205C776.242 200.584 780.861 192 786 192Z" fill="#D66F43"/>
<path d="M670 417C670.33 417.66 670.66 418.32 671 419C670.257 419.722 669.515 420.444 668.75 421.188C666.016 423.882 666.016 423.882 663.938 426.625C662.114 428.86 660.375 430.388 658 432C657.34 431.67 656.68 431.34 656 431C660.62 426.38 665.24 421.76 670 417Z" fill="#4A659C"/>
<path d="M954 394C954.66 394.33 955.32 394.66 956 395C954.695 400.694 952.555 405.329 949 410C948.34 410.33 947.68 410.66 947 411C947.99 408.03 948.98 405.06 950 402C950.66 402 951.32 402 952 402C952 401.01 952 400.02 952 399C952.66 399 953.32 399 954 399C954 397.35 954 395.7 954 394Z" fill="#3C8296"/>
<path d="M716 396C716 396.66 716 397.32 716 398C715.169 398.193 714.337 398.387 713.48 398.586C712.394 398.846 711.307 399.107 710.188 399.375C709.109 399.63 708.03 399.885 706.918 400.148C703.845 400.887 703.845 400.887 701 403C700.34 402.67 699.68 402.34 699 402C699 401.34 699 400.68 699 400C701.081 399.326 703.165 398.661 705.25 398C706.41 397.629 707.57 397.257 708.766 396.875C712 396 712 396 716 396Z" fill="#4C6389"/>
<path d="M884 350C884.33 351.32 884.66 352.64 885 354C879.25 359 879.25 359 877 359C876.67 360.32 876.34 361.64 876 363C875.67 362.34 875.34 361.68 875 361C875.938 358.875 875.938 358.875 877 357C877.66 357 878.32 357 879 357C879.268 356.402 879.536 355.804 879.812 355.188C880.985 353.028 882.194 351.642 884 350Z" fill="#519688"/>
<path d="M693 248C692.453 251.375 691.945 253.082 690 256C689.01 255.67 688.02 255.34 687 255C687 254.34 687 253.68 687 253C686.34 252.67 685.68 252.34 685 252C690.75 248 690.75 248 693 248Z" fill="#E29338"/>
<path d="M936 242C941.955 242.392 946.628 243.371 952 246C951.67 246.66 951.34 247.32 951 248C950.34 248 949.68 248 949 248C949 247.34 949 246.68 949 246C944.941 245.016 941.168 244.923 937 245C936.01 245 935.02 245 934 245C934.66 244.01 935.32 243.02 936 242Z" fill="#CF3934"/>
<path d="M1017 533C1017.99 533.33 1018.98 533.66 1020 534C1020 534.99 1020 535.98 1020 537C1020.66 537 1021.32 537 1022 537C1022 537.99 1022 538.98 1022 540C1022.66 540 1023.32 540 1024 540C1024 541.32 1024 542.64 1024 544C1024.66 544 1025.32 544 1026 544C1026 545.65 1026 547.3 1026 549C1023.33 546.631 1021.93 544.196 1020.38 541C1019.74 539.701 1019.74 539.701 1019.09 538.375C1018 536 1018 536 1017 533Z" fill="#D4A047"/>
<path d="M969 260C974.327 263.932 977.548 268.381 981 274C980.67 274.66 980.34 275.32 980 276C978.994 274.713 977.996 273.42 977 272.125C976.443 271.406 975.886 270.686 975.312 269.945C974 268 974 268 974 266C972.68 265.67 971.36 265.34 970 265C969.67 263.35 969.34 261.7 969 260Z" fill="#CD403F"/>
<path d="M997 646C991.458 649.546 986.466 652.594 980 654C982.146 650.781 982.604 650.536 986.062 649.437C988.18 648.794 988.18 648.794 990 648C990.33 647.34 990.66 646.68 991 646C994.509 644.755 994.509 644.755 997 646Z" fill="#1F75AC"/>
<path d="M816 435C818.956 437.752 821.116 440.42 823 444C823 444.66 823 445.32 823 446C821.35 445.67 819.7 445.34 818 445C818 444.01 818 443.02 818 442C817.365 439.658 816.701 437.323 816 435Z" fill="#52687C"/>
<path d="M775 300C775.66 300.33 776.32 300.66 777 301C775.712 301.839 774.419 302.671 773.125 303.5C772.406 303.964 771.686 304.428 770.945 304.906C769 306 769 306 767 306C767 306.66 767 307.32 767 308C766.01 308.33 765.02 308.66 764 309C763.01 308.34 762.02 307.68 761 307C763.287 305.803 765.579 304.617 767.875 303.438C768.851 302.924 768.851 302.924 769.848 302.4C771.535 301.539 773.266 300.763 775 300Z" fill="#FCC61B"/>
<path d="M669 268C669.33 269.32 669.66 270.64 670 272C669.34 272 668.68 272 668 272C667.917 272.743 667.835 273.485 667.75 274.25C666.86 277.512 665.515 278.81 663 281C662.67 280.34 662.34 279.68 662 279C663.434 276.398 663.434 276.398 665.438 273.375C666.096 272.372 666.755 271.369 667.434 270.336C667.951 269.565 668.467 268.794 669 268Z" fill="#DF9846"/>
<path d="M845 509C844 510 844 510 840.437 510.062C839.303 510.042 838.169 510.021 837 510C836.01 513.3 835.02 516.6 834 520C832.862 515.45 833.571 513.369 835 509C842.75 507.875 842.75 507.875 845 509Z" fill="#4893BD"/>
<path d="M738 325C738.66 325.33 739.32 325.66 740 326C738.564 327.605 737.126 329.209 735.688 330.812C734.887 331.706 734.086 332.599 733.262 333.52C731.548 335.399 729.821 337.226 728 339C728.651 337.327 729.32 335.661 730 334C730.248 333.34 730.495 332.68 730.75 332C732.637 328.982 735.204 327.188 738 325Z" fill="#E49614"/>
<path d="M802 569C802 572 802 572 799.953 574.297C799.061 575.106 798.169 575.916 797.25 576.75C796.368 577.57 795.487 578.39 794.578 579.234C792 581 792 581 789.672 580.766C789.12 580.513 788.568 580.26 788 580C788.759 579.457 789.519 578.915 790.301 578.355C791.295 577.64 792.289 576.925 793.312 576.188C794.299 575.48 795.285 574.772 796.301 574.043C798.401 572.454 800.22 570.925 802 569Z" fill="#4090CF"/>
<path d="M643 452C643.33 452 643.66 452 644 452C644.75 454.688 644.75 454.688 645 458C643.125 460.625 643.125 460.625 641 463C640.222 465.182 640.222 465.182 640 467C639.34 467 638.68 467 638 467C641.075 456.442 641.075 456.442 643 452Z" fill="#546EA5"/>
<path d="M926 339C934.571 339.857 934.571 339.857 938 342C938 342.66 938 343.32 938 344C938.99 344 939.98 344 941 344C941 344.66 941 345.32 941 346C939.68 345.67 938.36 345.34 937 345C937 344.34 937 343.68 937 343C936.299 343.062 935.598 343.124 934.875 343.188C931.347 342.957 929.06 341.708 926 340C926 339.67 926 339.34 926 339Z" fill="#A14558"/>
<path d="M664 273C664.66 273.33 665.32 273.66 666 274C663.69 278.29 661.38 282.58 659 287C658.67 287 658.34 287 658 287C657.486 281.006 660.459 277.552 664 273Z" fill="#FEF1D7"/>
<path d="M936 504C933.748 506.252 932.67 506.515 929.625 507.187C928.469 507.456 928.469 507.456 927.289 507.73C924.889 508.013 923.283 507.735 921 507C922.745 506.299 924.496 505.615 926.25 504.937C927.225 504.555 928.199 504.172 929.203 503.777C932.04 502.989 933.294 502.976 936 504Z" fill="#3A727E"/>
<path d="M936 662C936.66 662 937.32 662 938 662C936.549 666.11 934.489 669.433 932 673C931.069 670.394 930.851 669.358 931.937 666.75C932.463 665.884 932.463 665.884 933 665C933.99 665 934.98 665 936 665C936 664.01 936 663.02 936 662Z" fill="#4C9ACA"/>
<path d="M813 558C813.66 558.66 814.32 559.32 815 560C812.03 562.97 809.06 565.94 806 569C805.34 568.67 804.68 568.34 804 568C806.97 564.7 809.94 561.4 813 558Z" fill="#4091CF"/>
<path d="M893 527C893.33 527 893.66 527 894 527C894.25 529.293 894.25 529.293 894 532C892.25 533.801 892.25 533.801 890 535.312C889.257 535.824 888.515 536.336 887.75 536.863C887.173 537.238 886.595 537.614 886 538C887.317 535.232 888.779 532.742 890.562 530.25C890.997 529.636 891.431 529.023 891.879 528.391C892.249 527.932 892.619 527.473 893 527Z" fill="#2B6F8C"/>
<path d="M800 182C800 182.66 800 183.32 800 184C799.01 184 798.02 184 797 184C797 184.66 797 185.32 797 186C796.01 186 795.02 186 794 186C793.67 186.99 793.34 187.98 793 189C791.35 189.33 789.7 189.66 788 190C795.568 182 795.568 182 800 182Z" fill="#D57045"/>
<path d="M1015 628C1015.33 628.99 1015.66 629.98 1016 631C1013.11 635.17 1011.01 637.569 1006 639C1006.4 638.541 1006.8 638.082 1007.21 637.609C1009.91 634.477 1012.58 631.361 1015 628Z" fill="#D4F2FB"/>
<path d="M1072 417C1072.66 417 1073.32 417 1074 417C1077.44 426.41 1077.44 426.41 1077 431C1074.99 427.985 1074.27 425.785 1073.38 422.312C1073.11 421.319 1072.85 420.325 1072.59 419.301C1072.3 418.162 1072.3 418.162 1072 417Z" fill="#FFF7D7"/>
<path d="M786 403C786.66 404.32 787.32 405.64 788 407C788.66 407 789.32 407 790 407C790.33 407.99 790.66 408.98 791 410C787.917 408.801 784.937 407.523 782 406C782 405.34 782 404.68 782 404C783.32 403.67 784.64 403.34 786 403Z" fill="#E6CA39"/>
<path d="M942 347C945.3 347 948.6 347 952 347C950.68 347.33 949.36 347.66 948 348C947.67 349.32 947.34 350.64 947 352C946.01 351.67 945.02 351.34 944 351C943.34 349.68 942.68 348.36 942 347Z" fill="#E09A3D"/>
<path d="M991 650C991 650.66 991 651.32 991 652C989.761 652.728 988.508 653.432 987.25 654.125C986.206 654.717 986.206 654.717 985.141 655.32C983 656 983 656 980.734 655.117C980.162 654.749 979.59 654.38 979 654C980.623 653.329 982.249 652.663 983.875 652C984.78 651.629 985.685 651.257 986.617 650.875C989 650 989 650 991 650Z" fill="#D3EFF9"/>
<path d="M1059 396C1062.83 399.424 1064.72 402.007 1066 407C1063.32 405.994 1062.22 405.458 1060.95 402.836C1060.72 402.024 1060.49 401.212 1060.25 400.375C1060.01 399.558 1059.77 398.74 1059.52 397.898C1059.35 397.272 1059.18 396.645 1059 396Z" fill="#F1A73D"/>
<path d="M965 256C968.815 258.462 968.815 258.462 969.75 261.188C969.833 261.786 969.915 262.384 970 263C968.02 263 966.04 263 964 263C964 262.01 964 261.02 964 260C964.66 260 965.32 260 966 260C965.67 258.68 965.34 257.36 965 256Z" fill="#D92F2E"/>
<path d="M995 513C998.375 513.25 998.375 513.25 1002 514C1003.31 515.875 1003.31 515.875 1004 518C1004.99 519.485 1004.99 519.485 1006 521C1002 519.239 998.397 516.739 995 514C995 513.67 995 513.34 995 513Z" fill="#C49D4E"/>
<path d="M985 506C986.98 506.66 988.96 507.32 991 508C991 508.66 991 509.32 991 510C992.32 510 993.64 510 995 510C995 510.99 995 511.98 995 513C990.043 511.761 987.883 510.214 985 506Z" fill="#D19E43"/>
<path d="M849 505C851.31 505.33 853.62 505.66 856 506C856 508.31 856 510.62 856 513C853.752 510.948 852.998 509.993 852 507C851.01 506.34 850.02 505.68 849 505Z" fill="#DBA83F"/>
<path d="M679 380C680.98 380 682.96 380 685 380C687 383.75 687 383.75 687 386C683.634 384.557 681.49 382.667 679 380Z" fill="#DE9641"/>
<path d="M693 391C697.035 392.59 701.018 394.282 705 396C701.947 396.981 700.053 396.981 697 396C697 395.34 697 394.68 697 394C695.68 393.67 694.36 393.34 693 393C693 392.34 693 391.68 693 391Z" fill="#FEF4D9"/>
<path d="M862 169C862.33 169.66 862.66 170.32 863 171C862.381 171.743 861.762 172.485 861.125 173.25C859.396 175.488 858.139 177.437 857 180C856.34 180 855.68 180 855 180C856.486 175.407 858.85 172.564 862 169Z" fill="#BA5545"/>
<path d="M896 705C896.66 705.33 897.32 705.66 898 706C896.02 706.99 896.02 706.99 894 708C894 708.66 894 709.32 894 710C891.69 710.33 889.38 710.66 887 711C889.879 708.76 892.767 706.701 896 705Z" fill="#DBF4FB"/>
<path d="M1904 692C1905 694 1905 694 1904.44 695.945C1904.15 696.665 1903.86 697.384 1903.56 698.125C1903.28 698.849 1902.99 699.574 1902.69 700.32C1902.46 700.875 1902.24 701.429 1902 702C1901.01 702 1900.02 702 1899 702C1900.33 698.406 1901.96 695.245 1904 692Z" fill="#DDDDDD"/>
<path d="M1629 691C1630 693 1630 693 1629.44 695.164C1629.15 695.976 1628.86 696.788 1628.56 697.625C1628.28 698.442 1627.99 699.26 1627.69 700.102C1627.46 700.728 1627.24 701.355 1627 702C1626.01 701.67 1625.02 701.34 1624 701C1625.33 697.406 1626.96 694.245 1629 691Z" fill="#DADADA"/>
<path d="M1023 546C1025.77 548.346 1026.52 550.148 1027.19 553.688C1027.35 554.496 1027.5 555.304 1027.67 556.137C1027.78 556.752 1027.89 557.366 1028 558C1027.34 557.67 1026.68 557.34 1026 557C1026 555.68 1026 554.36 1026 553C1025.34 553 1024.68 553 1024 553C1023.67 550.69 1023.34 548.38 1023 546Z" fill="#366F82"/>
<path d="M1050 542C1050.33 543.32 1050.66 544.64 1051 546C1049.06 548.25 1049.06 548.25 1047 550C1046.01 549.67 1045.02 549.34 1044 549C1045.98 546.69 1047.96 544.38 1050 542Z" fill="#FEF5DB"/>
<path d="M881 492C878.03 493.65 875.06 495.3 872 497C872 496.34 872 495.68 872 495C872.66 495 873.32 495 874 495C874.33 494.01 874.66 493.02 875 492C877 491 877 491 881 492Z" fill="#FEC518"/>
<path d="M983 345C990.508 345.615 990.508 345.615 993 347.562C993.33 348.037 993.66 348.511 994 349C986.375 348.125 986.375 348.125 983 347C983 346.34 983 345.68 983 345Z" fill="#FEEDCB"/>
<path d="M945 180C947.645 183.125 948.844 186.088 950 190C949.01 190.495 949.01 190.495 948 191C945 184.5 945 184.5 945 180Z" fill="#BA5445"/>
<path d="M802 180C798.876 182.523 795.619 184.272 792 186C792 185.34 792 184.68 792 184C792.66 184 793.32 184 794 184C794 183.34 794 182.68 794 182C797.228 179.848 798.284 179.799 802 180Z" fill="#FDE8DB"/>
<path d="M869 163C869.66 163.33 870.32 163.66 871 164C870.34 164.66 869.68 165.32 869 166C869.33 166.66 869.66 167.32 870 168C867.69 168.33 865.38 168.66 863 169C865 167 867 165 869 163Z" fill="#BC5643"/>
<path d="M819 550C819.66 550.99 820.32 551.98 821 553C819.35 554.65 817.7 556.3 816 558C815.34 557.67 814.68 557.34 814 557C815.65 554.69 817.3 552.38 819 550Z" fill="#4095D2"/>
<path d="M978 506C982.219 506.479 984.797 507.166 988 510C986.02 510 984.04 510 982 510C982 509.34 982 508.68 982 508C980.68 508 979.36 508 978 508C978 507.34 978 506.68 978 506Z" fill="#266D8B"/>
<path d="M910 462C910.33 462.99 910.66 463.98 911 465C909.35 466.65 907.7 468.3 906 470C906 466.092 907.506 464.884 910 462Z" fill="#F8A70E"/>
<path d="M869 250C870.32 250.33 871.64 250.66 873 251C871.35 252.65 869.7 254.3 868 256C867.67 255.01 867.34 254.02 867 253C867.66 252.01 868.32 251.02 869 250Z" fill="#E8582E"/>
<path d="M769 214C769.33 214 769.66 214 770 214C770.25 217.25 770.25 217.25 770 221C768.68 222.32 767.36 223.64 766 225C766.99 221.37 767.98 217.74 769 214Z" fill="#D57448"/>
<path d="M901 698C902.98 698 904.96 698 907 698C902.25 701.875 902.25 701.875 900 703C900.33 701.35 900.66 699.7 901 698Z" fill="#509ECB"/>
<path d="M923 677C924.98 677.495 924.98 677.495 927 678C925.63 681.161 925.011 681.993 922 684C922.33 681.69 922.66 679.38 923 677Z" fill="#51A0CE"/>
<path d="M954 401C955.333 403.667 954.671 405.167 954 408C952.68 408.33 951.36 408.66 950 409C952.875 402.125 952.875 402.125 954 401Z" fill="#CFA049"/>
<path d="M870 388C870.99 388.495 870.99 388.495 872 389C872.594 391.649 872.742 394.292 873 397C872.67 396.34 872.34 395.68 872 395C871.34 395 870.68 395 870 395C870 392.69 870 390.38 870 388Z" fill="#CCC94D"/>
<path d="M845 291C848.96 292.98 848.96 292.98 853 295C848.706 296.073 847.805 295.797 844 294C844.33 293.01 844.66 292.02 845 291Z" fill="#D7460D"/>
<path d="M970 260C971.93 260.344 971.93 260.344 974 261C975.125 263.5 975.125 263.5 976 266C976.66 266.33 977.32 266.66 978 267C977.01 267 976.02 267 975 267C973.613 265.469 973.613 265.469 972.312 263.5C971.876 262.85 971.439 262.201 970.988 261.531C970.499 260.773 970.499 260.773 970 260Z" fill="#FFE5E0"/>
<path d="M792 121C792.66 121 793.32 121 794 121C794.33 121.66 794.66 122.32 795 123C795.99 123.33 796.98 123.66 798 124C797.01 125.485 797.01 125.485 796 127C795.01 126.67 794.02 126.34 793 126C792.67 124.35 792.34 122.7 792 121Z" fill="#8E392D"/>
</svg>
