<svg xmlns:xlink="http://www.w3.org/1999/xlink" class="pfy-fill-current" width="95" height="32" xmlns="http://www.w3.org/2000/svg"><path d="M87.789 20.017L81.18 8.571a.304.304 0 00-.264-.153h-4.328c-.043 0-.077.016-.114.032-.013-.002-.025-.01-.038-.01H74.05c.001-.023.002-.623.004-.645.172-3.062 2.85-3.838 3.763-4.001a.301.301 0 00.248-.3L78.06.304a.304.304 0 00-.322-.303C76.004.112 70 1.466 69.684 7.795l-.004.644h-1.836a.265.265 0 00-.264.266v3.092c0 .147.118.267.264.267h1.55c.145 0 .264.119.264.264v13.445c0 .165.133.298.297.298h3.77a.294.294 0 00.22-.103.297.297 0 00.107-.225V12.339c0-.08.033-.153.085-.207a.29.29 0 01.182-.068l3.639-.049a.304.304 0 01.267.153l4.532 7.85a.307.307 0 01.004.299l-6.01 11.181a.306.306 0 00.268.451h4.336a.304.304 0 00.267-.16l6.17-11.472a.307.307 0 00-.003-.3M94.023 8.84l-4.733 8.808a.305.305 0 01-.53.01l-2.27-3.878a.305.305 0 01-.005-.3l2.653-4.912a.3.3 0 01.262-.16c.699-.008 3.272-.03 4.362-.018a.303.303 0 01.261.45m-31.858 6.49h-8.453a.296.296 0 01-.267-.431c.448-.883 1.74-2.809 4.498-2.809 2.708 0 4.024 1.923 4.487 2.806a.298.298 0 01-.265.434M57.96 7.744c-5.116 0-9.263 4.17-9.263 9.313 0 5.144 4.147 9.313 9.263 9.313 2.762 0 6.33-1.36 8.303-5.209a.3.3 0 00-.268-.433H61.46a.289.289 0 00-.2.082 4.524 4.524 0 01-1.147.797c-.59.286-1.305.472-2.171.472-2.727 0-4.043-1.79-4.413-2.74a.296.296 0 01.28-.398l12.952.002a.307.307 0 00.295-.263c.045-.363.106-.73.126-1.104a9.257 9.257 0 00-9.223-9.832M38.846 22.075a5.093 5.093 0 01-4.76-1.366 5.126 5.126 0 01-1.363-4.773 4.992 4.992 0 013.796-3.806 5.092 5.092 0 014.76 1.366 5.125 5.125 0 011.363 4.773 4.993 4.993 0 01-3.796 3.806m2.843-13.458c-4.153-1.815-7.668-.011-8.786.711-.586.38-.56-.86-1.12-.86h-3.29a.297.297 0 00-.298.297v22.937c0 .164.133.298.297.298h3.736a.297.297 0 00.297-.298v-6.535c0-.23.249-.375.446-.257.824.5 2.718 1.461 5.046 1.461 5.41 0 9.75-4.688 9.194-10.225-.333-3.307-2.485-6.2-5.522-7.529M10.65 22.075a5.093 5.093 0 01-4.76-1.366 5.126 5.126 0 01-1.362-4.773 4.992 4.992 0 013.796-3.806 5.092 5.092 0 014.76 1.366 5.125 5.125 0 011.362 4.773 4.992 4.992 0 01-3.796 3.806m2.844-13.458c-4.153-1.815-7.667-.011-8.787.711-.585.38-.56-.86-1.12-.86H.297A.297.297 0 000 8.765v22.937c0 .164.133.298.297.298h3.735a.297.297 0 00.297-.298v-6.535c0-.23.249-.375.446-.257.825.5 2.719 1.461 5.046 1.461 5.412 0 9.75-4.688 9.194-10.225-.333-3.307-2.484-6.2-5.521-7.529m11.715-.148h-3.743a.295.295 0 00-.297.295v17.101c0 .165.134.298.298.298h3.743a.298.298 0 00.297-.298V8.766a.299.299 0 00-.298-.298" fill-rule="evenodd" fill="#101820"></path></svg>