<?xml version="1.0" standalone="no"?>
<!DOCTYPE svg PUBLIC "-//W3C//DTD SVG 20010904//EN"
 "http://www.w3.org/TR/2001/REC-SVG-20010904/DTD/svg10.dtd">
<svg version="1.0" xmlns="http://www.w3.org/2000/svg"
 width="216.000000pt" height="166.000000pt" viewBox="0 0 216.000000 166.000000"
 preserveAspectRatio="xMidYMid meet">

<g transform="translate(0.000000,166.000000) scale(0.100000,-0.100000)"
fill="#000000" stroke="none">
<path d="M1029 1631 c-14 -5 -46 -20 -70 -34 -73 -42 -120 -50 -215 -36 -119
18 -147 7 -243 -90 -73 -74 -80 -78 -166 -105 -114 -36 -147 -67 -165 -151
-30 -145 -41 -177 -87 -245 -39 -60 -47 -80 -51 -128 -3 -51 0 -62 32 -112 59
-91 84 -151 95 -228 20 -129 49 -164 166 -197 84 -24 133 -54 188 -119 73 -84
86 -89 236 -81 l126 7 82 -41 c105 -53 140 -53 236 -3 l72 37 135 0 c74 1 143
2 153 3 10 1 53 37 95 81 57 58 89 82 125 95 26 9 68 24 95 33 71 25 107 67
121 138 28 146 34 168 68 218 96 140 95 175 -5 333 -23 36 -38 78 -52 147 -11
54 -26 110 -35 126 -19 38 -63 63 -154 90 -68 21 -81 29 -161 106 -100 97
-121 104 -237 85 -92 -14 -128 -8 -215 37 -72 37 -126 48 -169 34z m-202 -484
c25 -8 36 -8 45 1 7 7 23 12 35 12 23 0 24 -2 21 -87 -3 -82 -5 -88 -25 -91
-15 -2 -23 3 -28 20 -23 82 -52 108 -120 108 -82 0 -125 -76 -133 -231 -10
-207 44 -309 156 -296 52 6 76 27 95 82 11 32 19 40 38 40 23 0 24 -3 27 -83
3 -90 -7 -106 -51 -83 -16 8 -32 8 -57 1 -47 -14 -144 -13 -194 2 -61 18 -147
108 -169 177 -36 114 -16 263 47 346 68 88 198 123 313 82z m673 -9 c6 -13 50
-138 99 -278 83 -241 90 -256 120 -270 22 -10 30 -21 29 -35 -3 -19 -12 -20
-140 -23 l-138 -3 0 25 c0 17 7 26 25 30 29 7 30 17 9 79 l-16 47 -103 0 -103
0 -22 -56 c-24 -59 -20 -73 23 -74 11 0 17 -8 17 -25 0 -25 0 -25 -95 -25 -92
0 -95 1 -95 23 0 15 11 27 32 37 29 14 41 39 147 293 l115 277 43 0 c35 0 45
-4 53 -22z m-385 -113 c14 -13 25 -31 25 -40 0 -18 -43 -65 -60 -65 -16 0 -12
-12 14 -45 l25 -30 15 38 c15 34 20 37 56 37 22 0 40 -2 40 -5 0 -2 -20 -26
-45 -52 -25 -25 -45 -51 -45 -56 0 -5 14 -14 30 -20 17 -6 29 -16 27 -22 -5
-13 -62 -19 -83 -7 -10 6 -30 4 -56 -5 -104 -36 -195 61 -123 132 13 14 29 25
34 25 6 0 8 19 4 48 -5 44 -3 51 22 70 38 30 89 29 120 -3z"/>
<path d="M1348 875 l-46 -115 84 0 c46 0 84 3 84 8 0 17 -65 222 -70 222 -4 0
-27 -52 -52 -115z"/>
<path d="M1034 1005 c-8 -20 4 -65 16 -65 15 0 34 46 27 64 -8 20 -36 21 -43
1z"/>
<path d="M984 864 c-25 -37 -9 -78 31 -82 56 -4 62 11 25 62 -19 25 -35 46
-36 46 -2 0 -11 -12 -20 -26z"/>
</g>
</svg>
