<?xml version="1.0" encoding="utf-8"?>
<!-- Generator: Adobe Illustrator 28.0.0, SVG Export Plug-In . SVG Version: 6.00 Build 0)  -->
<svg version="1.1" id="Grupo_22540" xmlns="http://www.w3.org/2000/svg" xmlns:xlink="http://www.w3.org/1999/xlink" x="0px"
	 y="0px" viewBox="0 0 194.7 16" style="enable-background:new 0 0 194.7 16;" xml:space="preserve">
<g id="Grupo_22526">
	<path id="Caminho_7164" d="M33,0v16h4.3v-6h8.3V6.5h-8.3V3.5h8.3V0H33z"/>
	<path id="Caminho_7165" d="M48.3,0v16h4.3v-6h8.3V6.5h-8.3V3.5h8.3V0H48.3z"/>
	<path id="Caminho_7166" d="M63.5,0v16h13.3v-3.5h-9.2V9.7h9.2V6.3h-9.2V3.5h9.2V0H63.5z"/>
	<rect id="Retângulo_4074" x="79.5" width="4.3" height="16"/>
	<g id="Grupo_22525" transform="translate(0 0)">
		<g>
			<g id="Grupo_22524">
				<path id="Caminho_7167" d="M101.5,0h-4.2l0.1,3.3l0.1,3.2l0.1,5.3l-3.4-8.6c-0.3-0.9-0.9-1.7-1.5-2.4c-0.7-0.6-1.6-1-2.5-0.9
					l0,0h-3.7v16h3.7V3.7h0c0.1,0,0.2,0,0.2,0.1c0.1,0.1,0.1,0.2,0.1,0.3L95.1,16h6.4v-4.7l0,0L101.5,0z"/>
				<path id="Caminho_7168" d="M173.4,0L173.4,0c-1-0.1-1.8,0.3-2.5,0.9c-0.7,0.7-1.2,1.5-1.5,2.4l-1.8,4.3l-1.8-4.3
					c-0.3-0.9-0.8-1.7-1.5-2.4c-0.7-0.6-1.6-1-2.5-0.9h-3.7v16h3.7V3.7h0c0.1,0,0.2,0,0.2,0.1c0.1,0.1,0.1,0.2,0.1,0.3l3,7.7
					c0.2,0.6,0.8,1,1.4,1h2.1c0.6,0,1.2-0.4,1.4-1l3-7.7c0-0.1,0.1-0.2,0.1-0.3c0.1-0.1,0.1-0.1,0.2-0.1V16h3.7V0H173.4z"/>
				<path id="Caminho_7169" d="M156.1,6V3.8c0-2.1-1.7-3.8-3.8-3.8h-11.6v16h3.8V3.3h7.3c0.6,0,1,0.4,1,1v1.3c0,0.6-0.4,1-1,1h-4.5
					c-0.9,0-1.6,0.7-1.6,1.6c0,0.4,0.1,0.7,0.4,1l5.5,6.8h4.5l-5-6.2h1.2C154.4,9.8,156.1,8.1,156.1,6"/>
				<path id="Caminho_7170" d="M131.4,0h6.7v16h-4v-3.3h-6.6l-1.4,3.3h-4l5.4-13.4C128.2,1,129.7,0,131.4,0 M128.8,9.3h5.3V3.6h-1.5
					c-0.3,0-0.7,0.1-1,0.2c-0.4,0.2-0.7,0.5-0.9,0.8L128.8,9.3z"/>
				<path id="Caminho_7171" d="M185.8,10.8L178.4,0h4.8l4.2,5.6c0.2,0.2,0.4,0.3,0.5,0l2.2-5.6h4.5l-6.5,16h-4.5L185.8,10.8z"/>
				<path id="Caminho_7172" d="M23.7,0h6.7v16h-4v-3.3h-6.6L18.4,16h-4l5.4-13.4C20.5,1,22,0,23.7,0 M21.1,9.3h5.3V3.6h-1.5
					c-0.3,0-0.7,0.1-1,0.2c-0.4,0.2-0.7,0.5-0.9,0.8L21.1,9.3z"/>
				<path id="Caminho_7173" d="M1.9,14.2c0.7,0.6,1.5,1.1,2.4,1.4C5.4,15.9,6.6,16,7.7,16h4.1l1.4-3.5H8c-1,0.1-2-0.2-2.8-0.8
					C4.7,11,4.4,10.1,4.5,9.1V6.9C4.4,6,4.6,5.1,5.2,4.3C6,3.7,6.9,3.4,7.9,3.5h8.9L18.2,0H7.7C6.6,0,5.4,0.2,4.3,0.5
					C3.5,0.8,2.6,1.2,1.9,1.9C1.3,2.5,0.8,3.2,0.5,4C0.2,4.9,0,5.9,0,6.8v2.3c0,1,0.2,1.9,0.5,2.8C0.8,12.8,1.3,13.6,1.9,14.2"/>
				<path id="Caminho_7174" d="M115.6,12.5h-7.3V9.7h8.4l1.4-3.4h-9.8V3.5h10.9l1.4-3.5h-16.5v16h10L115.6,12.5z"/>
			</g>
		</g>
	</g>
</g>
</svg>
