<svg width="2560" height="641" viewBox="0 0 2560 641" fill="none" xmlns="http://www.w3.org/2000/svg">
<path d="M280 2.80142e-06C284.889 2.30067 287.912 5.98287 291.34 10.043C294.097 13.2935 296.986 16.226 300.375 18.8125C303.381 21.3173 305.781 24.1 308.324 27.0625C310.959 30.1093 313.756 32.9138 316.791 35.5637C326.203 43.8058 334.91 52.7853 343.738 61.6406C345.55 63.4545 347.362 65.2681 349.175 67.0815C353.438 71.3481 357.699 75.6169 361.959 79.8868C366.794 84.7335 371.633 89.5773 376.471 94.4209C384.745 102.703 393.016 110.987 401.285 119.274C404.855 122.851 408.426 126.427 412 130C414.511 132.511 417.02 135.021 419.5 137.562C421.928 140.009 421.928 140.009 424.5 142C427.21 144.168 429.577 146.517 432 149C432.846 149.825 433.691 150.65 434.562 151.5C436.893 153.89 438.933 156.382 441 159C441.557 159.557 442.114 160.114 442.688 160.688C445.042 163.042 445.209 165.034 445.312 168.25C445.268 172.862 444.086 175.474 441 179C440.01 179.33 439.02 179.66 438 180C437.67 180.99 437.34 181.98 437 183C435.379 184.711 433.705 186.373 432 188C431.175 188.846 430.35 189.691 429.5 190.562C427 193 427 193 424.625 194.812C421.626 197.312 419.23 200.085 416.695 203.043C413.122 207.168 409.249 210.601 405 214C403.312 215.645 401.646 217.313 400 219C386 233 372 247 358 261C360.72 265.681 363.781 269.06 367.827 272.597C377.08 280.721 385.694 289.51 394.406 298.203C395.277 299.071 396.148 299.939 397.045 300.834C401.641 305.414 406.234 309.998 410.824 314.584C415.091 318.847 419.365 323.101 423.643 327.353C427.777 331.463 431.902 335.581 436.025 339.702C437.774 341.447 439.525 343.19 441.279 344.931C443.722 347.357 446.156 349.793 448.588 352.231C449.313 352.947 450.038 353.663 450.785 354.401C455.401 359.055 458.196 362.362 458.253 369.128C457.238 376.065 451.763 380.286 446.96 384.948C445.892 386.014 444.826 387.081 443.762 388.15C440.877 391.037 437.967 393.9 435.053 396.758C432.002 399.759 428.974 402.783 425.943 405.804C420.199 411.523 414.435 417.221 408.664 422.912C402.113 429.373 395.585 435.857 389.059 442.343C377.9 453.433 366.724 464.507 355.528 475.561C354.606 476.472 353.683 477.383 352.733 478.321C351.935 479.109 351.137 479.896 350.315 480.708C347.868 483.13 345.433 485.564 343 488C341.333 489.667 339.667 491.333 338 493C337.238 493.772 336.476 494.545 335.69 495.341C333.009 497.991 330.254 500.525 327.456 503.051C321.017 508.912 314.847 515.019 308.701 521.185C307.526 522.361 306.35 523.537 305.174 524.712C302.019 527.867 298.867 531.024 295.716 534.182C292.403 537.502 289.086 540.819 285.77 544.137C279.502 550.408 273.237 556.681 266.973 562.955C259.854 570.085 252.733 577.212 245.611 584.338C233.44 596.518 221.271 608.7 209.104 620.885C208.591 621.399 208.077 621.913 207.548 622.443C206.184 623.809 204.82 625.175 203.456 626.541C202.645 627.353 201.835 628.164 201 629C200.11 629.893 199.22 630.787 198.302 631.707C196.374 633.627 194.429 635.468 192.375 637.25C191.805 637.75 191.235 638.25 190.648 638.766C187.433 641.173 184.127 641.2 180.23 641.426C173.91 640.219 169.13 634.396 164.809 630.004C164.141 629.333 163.473 628.663 162.785 627.972C160.665 625.84 158.551 623.701 156.438 621.562C155.014 620.129 153.59 618.696 152.166 617.264C149.547 614.629 146.931 611.991 144.318 609.35C141.555 606.557 138.781 603.775 136 601C133.489 598.489 130.98 595.979 128.5 593.438C126.072 590.991 126.072 590.991 123.5 589C120.79 586.832 118.423 584.483 116 582C115.175 581.175 114.35 580.35 113.5 579.5C112.675 578.675 111.85 577.85 111 577C110.154 576.175 109.309 575.35 108.438 574.5C106.106 572.108 104.085 569.606 102 567C99.6031 564.48 97.2159 562.173 94.5 560C91.7846 557.828 89.3558 555.558 87 553C87 552.34 87 551.68 87 551C86.4046 550.729 85.8092 550.459 85.1957 550.18C83.0212 549.011 81.6063 547.858 79.8682 546.122C79.2752 545.535 78.6822 544.947 78.0711 544.342C77.4325 543.7 76.7939 543.057 76.136 542.395C75.1134 541.377 75.1134 541.377 74.0701 540.34C71.8191 538.097 69.5753 535.848 67.332 533.598C65.771 532.038 64.2097 530.479 62.6481 528.92C59.3775 525.652 56.1105 522.381 52.8459 519.107C48.656 514.905 44.4571 510.713 40.2555 506.523C37.0306 503.306 33.8105 500.083 30.5919 496.859C29.0451 495.311 27.4969 493.765 25.9472 492.22C23.7852 490.063 21.6297 487.9 19.4758 485.735C18.8312 485.094 18.1865 484.453 17.5223 483.793C16.9377 483.203 16.3531 482.613 15.7508 482.005C15.2407 481.494 14.7306 480.983 14.2051 480.457C11.6983 477.427 11.7929 474.009 11.5742 470.23C12.721 464.223 18.0847 459.632 22.2695 455.5C22.8688 454.901 23.468 454.302 24.0854 453.686C25.3479 452.426 26.6129 451.169 27.8801 449.914C29.8015 448.011 31.7148 446.1 33.627 444.188C34.8615 442.958 36.0965 441.729 37.332 440.5C37.8958 439.937 38.4596 439.375 39.0405 438.795C42.4049 435.47 45.8714 432.341 49.514 429.322C51.1815 427.915 51.1815 427.915 52.9375 425.562C54.7894 423.262 56.5715 421.585 58.8125 419.688C62.364 416.658 65.3879 413.401 68.4102 409.852C71.9322 405.75 75.7926 402.366 80 399C81.6876 397.355 83.354 395.687 85 394C86.2684 392.763 86.2684 392.763 87.5625 391.5C89.8938 389.109 91.924 386.612 94 384C96.125 381.688 96.125 381.688 98 380C98.66 380 99.32 380 100 380C96.2563 375.555 92.6372 371.539 88 368C84.6926 364.854 81.8467 361.558 79 358C77.3546 356.312 75.6871 354.646 74 353C71.4891 350.489 68.9797 347.979 66.5 345.438C64.1061 343.005 64.1061 343.005 61.625 341.188C58.6261 338.688 56.2304 335.915 53.6953 332.957C50.88 329.707 47.9719 326.748 44.5625 324.125C42.4434 322.368 40.9179 320.787 39.1875 318.688C37.1616 316.252 35.105 314.157 32.6719 312.133C26.8036 307.064 21.3861 301.535 15.9158 296.046C14.0459 294.171 12.1707 292.301 10.2949 290.432C9.10385 289.24 7.91308 288.048 6.72266 286.855C5.88215 286.018 5.88214 286.018 5.02466 285.164C0.84656 280.96 -0.17432 279.086 -0.3125 273.188C-0.2373 267.445 -0.2373 267.445 1.5 264.188C2.325 263.466 3.15 262.744 4 262C4.61746 261.45 5.23492 260.899 5.87109 260.332C7.25151 259.108 8.64228 257.896 10.043 256.695C13.2693 253.9 16.2214 251.02 18.8125 247.625C20.6201 245.456 22.2613 243.866 24.3994 242.067C30.1391 237.091 35.4419 231.682 40.7969 226.301C41.9671 225.129 43.1376 223.957 44.3082 222.785C46.8152 220.275 49.3206 217.763 51.8248 215.25C55.7903 211.271 59.7596 207.296 63.7295 203.322C72.156 194.884 80.5782 186.442 89 178C98.0941 168.884 107.189 159.768 116.289 150.658C120.229 146.712 124.168 142.764 128.104 138.814C130.559 136.352 133.016 133.892 135.473 131.432C136.606 130.297 137.738 129.162 138.869 128.025C144.233 122.636 149.59 117.305 155.421 112.413C157.259 110.837 157.259 110.837 159.5 108C161.476 105.629 163.226 103.874 165.553 101.911C170.486 97.6412 175.064 93.0541 179.657 88.4246C181.086 86.9908 182.515 85.5569 183.945 84.1232C185.465 82.5971 186.984 81.0698 188.502 79.5422C191.677 76.3496 194.855 73.1615 198.035 69.9741C207.069 60.9154 216.098 51.8508 225.122 42.782C230.118 37.7612 235.118 32.744 240.122 27.7306C243.283 24.5633 246.439 21.3914 249.592 18.2162C252.011 15.7829 254.436 13.3562 256.86 10.9285C257.731 10.049 258.602 9.1695 259.499 8.26337C260.701 7.06278 260.701 7.06278 261.928 5.83794C262.622 5.14094 263.316 4.44394 264.031 3.72581C268.91 -0.550773 273.732 -0.777235 280 2.80142e-06Z" fill="#2CCC68"/>
<path d="M1761.91 233.848C1772.58 233.348 1784.69 235.762 1794 241C1794.76 241.428 1795.53 241.856 1796.32 242.297C1800.37 244.693 1800.37 244.693 1802 246C1802 246.66 1802 247.32 1802 248C1802.9 248.393 1802.9 248.393 1803.82 248.793C1811.36 252.966 1815.08 263.398 1818 271C1818.89 274.316 1819.55 277.597 1820 281C1820.22 280.129 1820.44 279.257 1820.66 278.359C1825.05 261.868 1831.99 248.345 1847.2 239.402C1862.12 231.933 1879.57 233.095 1895.12 237.688C1907.59 242.087 1916.99 251.011 1923.36 262.418C1929.64 276.14 1931.17 290.393 1931.11 305.325C1931.11 306.409 1931.11 307.493 1931.11 308.61C1931.11 312.159 1931.11 315.709 1931.1 319.258C1931.1 321.732 1931.09 324.207 1931.09 326.681C1931.09 333.168 1931.08 339.655 1931.07 346.142C1931.06 352.772 1931.05 359.402 1931.05 366.031C1931.04 379.021 1931.02 392.01 1931 405C1915.82 405 1900.64 405 1885 405C1884.98 400.08 1884.98 400.08 1884.96 395.061C1884.91 384.204 1884.84 373.348 1884.76 362.491C1884.72 355.911 1884.68 349.332 1884.65 342.751C1884.63 336.397 1884.59 330.043 1884.54 323.689C1884.52 321.269 1884.51 318.849 1884.5 316.429C1884.49 313.03 1884.46 309.632 1884.43 306.233C1884.43 305.24 1884.44 304.248 1884.44 303.225C1884.32 294.461 1883.04 286.662 1877 280C1877 279.34 1877 278.68 1877 278C1862.41 270.552 1851.59 270.15 1836 275C1836 275.66 1836 276.32 1836 277C1835.13 277.619 1834.27 278.238 1833.38 278.875C1825.52 285.204 1823.34 295.507 1822 305C1821.74 308.479 1821.69 311.94 1821.68 315.428C1821.67 316.405 1821.66 317.382 1821.65 318.389C1821.62 321.576 1821.6 324.762 1821.59 327.949C1821.57 330.176 1821.55 332.402 1821.53 334.628C1821.48 340.456 1821.44 346.284 1821.4 352.112C1821.35 359.121 1821.29 366.13 1821.23 373.14C1821.14 383.76 1821.07 394.38 1821 405C1806.15 405 1791.3 405 1776 405C1775.97 400.307 1775.97 400.307 1775.94 395.52C1775.87 385.162 1775.8 374.805 1775.71 364.447C1775.66 358.17 1775.62 351.893 1775.58 345.615C1775.54 339.553 1775.49 333.49 1775.44 327.428C1775.42 325.12 1775.41 322.811 1775.4 320.503C1775.38 317.26 1775.35 314.017 1775.32 310.774C1775.32 309.828 1775.31 308.882 1775.31 307.908C1775.18 297.406 1773.62 286.657 1766.62 278.367C1760.74 273.014 1752.78 271.025 1745 271C1735.68 271.58 1727.93 274.14 1721.19 280.785C1713.33 290.346 1711.87 302.022 1711.79 313.953C1711.78 314.939 1711.77 315.925 1711.76 316.94C1711.73 320.187 1711.71 323.433 1711.68 326.68C1711.66 328.936 1711.64 331.191 1711.62 333.447C1711.57 339.375 1711.52 345.304 1711.47 351.232C1711.41 358.35 1711.34 365.467 1711.28 372.585C1711.18 383.39 1711.09 394.195 1711 405C1696.15 405 1681.3 405 1666 405C1666 349.89 1666 294.78 1666 238C1680.85 238 1695.7 238 1711 238C1711 250.54 1711 263.08 1711 276C1711.66 276 1712.32 276 1713 276C1713.02 274.969 1713.04 273.938 1713.06 272.875C1714.31 262.732 1720.99 252.571 1728.37 245.84C1738.49 238.162 1749.35 234.848 1761.91 233.848Z" fill="#2DCD69"/>
<path d="M2064.1 233.875C2081.78 233.361 2098.94 238.98 2112 251C2127.18 267.632 2134.13 289.626 2134.17 311.98C2134.17 312.715 2134.17 313.45 2134.18 314.207C2134.18 315.752 2134.19 317.298 2134.19 318.843C2134.19 321.164 2134.21 323.485 2134.22 325.807C2134.27 337.977 2133.29 349.549 2129.25 361.125C2128.99 361.89 2128.73 362.655 2128.45 363.443C2124.59 374.356 2118.81 385.231 2110 393C2109.34 393 2108.68 393 2108 393C2107.67 393.99 2107.34 394.98 2107 396C2090.94 407.752 2072.3 409.657 2053.07 407.574C2038.53 404.888 2025.2 397.8 2016.69 385.5C2013.41 380.235 2010.45 375.051 2009 369C2009 369.571 2008.99 370.142 2008.99 370.731C2008.88 384.609 2008.78 398.488 2008.66 412.366C2008.61 419.077 2008.55 425.789 2008.5 432.5C2008.46 438.971 2008.4 445.442 2008.35 451.913C2008.33 454.388 2008.31 456.863 2008.29 459.337C2008.27 462.791 2008.24 466.244 2008.21 469.697C2008.2 470.731 2008.19 471.766 2008.19 472.831C2008.17 474.234 2008.17 474.234 2008.16 475.666C2008.15 476.483 2008.15 477.301 2008.14 478.143C2008 480 2008 480 2007 481C1992.15 481 1977.3 481 1962 481C1962 400.81 1962 320.62 1962 238C1977.18 238 1992.36 238 2008 238C2008.33 249.55 2008.66 261.1 2009 273C2010.98 268.38 2012.96 263.76 2015 259C2023.17 246.004 2035.77 239.23 2050.38 235.559C2054.95 234.585 2059.44 234.152 2064.1 233.875ZM2017 283C2005.96 296.605 2003.67 313.896 2005.27 330.894C2007.04 342.265 2011.12 352.539 2019 361C2019.5 361.563 2020 362.127 2020.51 362.707C2027.22 369.379 2037.31 372.237 2046.56 372.562C2057.7 372.047 2066.92 368.707 2075 361C2075.56 360.477 2076.13 359.953 2076.71 359.414C2087.04 348.685 2088.37 332.936 2088.3 318.788C2087.97 304.771 2084.32 290.084 2074 280C2057.23 266.223 2032.14 267.417 2017 283Z" fill="#2DCD69"/>
<path d="M279 203C250.66 231.34 222.32 259.68 193.98 288.02C193.285 288.715 192.59 289.41 191.875 290.126C190.726 291.274 189.577 292.423 188.427 293.571C186.543 295.452 184.669 297.341 182.812 299.25C180.53 301.482 178.211 303.582 175.815 305.687C168.315 312.425 161.262 319.614 154.148 326.754C152.638 328.266 151.128 329.778 149.618 331.289C145.673 335.237 141.732 339.188 137.791 343.14C133.757 347.185 129.72 351.226 125.684 355.268C117.786 363.176 109.892 371.087 102 379C98.7837 377.474 96.7123 375.902 94.25 373.313C91.5296 370.516 88.7677 367.86 85.8125 365.313C81.967 361.994 78.28 358.677 75.1875 354.625C72.6876 351.625 69.9141 349.229 66.9531 346.695C64.5125 344.577 62.2539 342.315 60 340C59.1544 339.175 58.3087 338.35 57.4375 337.5C55 335 55 335 53.1875 332.625C50.6876 329.625 47.9141 327.229 44.9531 324.695C42.5125 322.577 40.2539 320.315 38 318C34.6346 314.622 31.2494 311.264 27.8595 307.911C25.1712 305.249 22.4882 302.582 19.8054 299.915C18.3863 298.506 16.9654 297.099 15.5427 295.694C13.4861 293.661 11.4358 291.622 9.38672 289.582C8.74619 288.952 8.10568 288.322 7.44574 287.672C5.9254 286.152 4.45704 284.581 3 283C3 282.34 3 281.68 3 281C11.6513 278.322 20.316 275.695 29 273.125C30.1728 272.778 31.3456 272.43 32.554 272.073C40.4327 269.745 48.3225 267.46 56.2256 265.217C62.7436 263.366 69.2478 261.469 75.75 259.563C85.1839 256.799 94.6415 254.128 104.112 251.491C111.509 249.428 118.883 247.293 126.246 245.109C132.152 243.364 138.076 241.685 144 240C147.354 239.043 150.708 238.084 154.062 237.125C155.876 236.607 157.69 236.089 159.504 235.57C160.414 235.31 161.324 235.05 162.262 234.782C170.277 232.492 170.277 232.492 172.89 231.746C174.636 231.247 176.383 230.748 178.13 230.248C182.468 229.009 186.806 227.77 191.145 226.535C192.867 226.044 194.59 225.554 196.312 225.063C197.175 224.817 198.037 224.571 198.925 224.318C203.536 223.001 208.142 221.668 212.742 220.313C224.295 216.91 235.874 213.656 247.516 210.573C255.417 208.467 263.248 206.179 271.036 203.689C276.787 201.894 276.787 201.894 279 203Z" fill="#153E3B"/>
<path d="M2309.36 233.879C2330.14 233.301 2350.18 238.82 2367 251C2367 251.66 2367 252.32 2367 253C2367.58 253.253 2368.17 253.505 2368.77 253.766C2380.66 260.339 2387.26 277.035 2391.04 289.441C2394.52 302.307 2394 312.999 2394 327C2354.07 327 2314.14 327 2273 327C2277.14 349.352 2277.14 349.352 2290.62 366.449C2300.76 373.052 2311.1 373.842 2322.81 371.797C2332.76 369.309 2339.83 364.13 2345.47 355.707C2347.59 351.949 2349.25 347.944 2351 344C2365.19 344 2379.38 344 2394 344C2394 350.645 2393.3 354.078 2391 360C2390.62 360.977 2390.25 361.954 2389.86 362.961C2387.43 369.064 2384.82 374.636 2381 380C2380.34 380 2379.68 380 2379 380C2378.6 380.888 2378.6 380.888 2378.18 381.793C2371.92 393.475 2356.31 400.427 2344.25 404.16C2333.61 407.164 2323.76 408.181 2312.75 408.188C2311.17 408.206 2311.17 408.206 2309.55 408.225C2292.84 408.255 2275.85 404.659 2262 395C2261.29 394.531 2260.57 394.062 2259.84 393.578C2258.18 392.455 2256.58 391.237 2255 390C2255 389.34 2255 388.68 2255 388C2254.38 387.753 2253.76 387.505 2253.13 387.25C2250.65 385.794 2250.05 384.622 2249 382C2248.34 382 2247.68 382 2247 382C2229.33 359.269 2226.29 329.195 2229.69 301.438C2233.14 281.779 2241.75 262.739 2257.69 250.125C2273.33 239.252 2290.51 234.845 2309.36 233.879ZM2284.31 280.848C2277.17 289.826 2274 299.588 2274 311C2299.08 311 2324.16 311 2350 311C2346.24 289.817 2346.24 289.817 2332.58 274.555C2316.6 264.93 2297.17 266.767 2284.31 280.848Z" fill="#2DCD69"/>
<path d="M1484.43 233.875C1501.8 233.407 1521.32 236.404 1536 246C1536.73 246.474 1537.45 246.949 1538.2 247.438C1548.85 254.916 1556.08 265.465 1558.38 278.375C1558.93 282.36 1559 285.919 1559 290C1544.81 290 1530.62 290 1516 290C1515.01 284.06 1515.01 284.06 1514 278C1510.23 271.474 1506 267.835 1499 265C1490.38 262.738 1480.4 263.104 1472 266C1471.31 266.222 1470.63 266.443 1469.92 266.672C1465.38 268.458 1463.28 270.574 1460.94 274.875C1459.15 278.993 1458.33 281.666 1460 286C1462.99 292.367 1467.74 294.487 1474 297C1478.56 298.283 1483.16 299.188 1487.81 300.062C1489.09 300.316 1490.36 300.569 1491.67 300.83C1497.44 301.968 1503.21 303.048 1509 304.059C1527.03 307.227 1545.14 311.88 1557 327C1563.91 339.356 1565.52 354.421 1562.13 368.246C1557.65 381.666 1547.97 392.473 1535.56 399.25C1509.02 411.594 1474.1 411.982 1446.78 402.164C1436.26 397.756 1426.91 392.157 1420 383C1419.56 382.416 1419.11 381.832 1418.66 381.23C1411.86 371.386 1411 361.845 1411 350C1424.86 350 1438.72 350 1453 350C1453.99 353.96 1454.98 357.92 1456 362C1456.64 364.01 1457.28 366.017 1458 368C1458.66 368 1459.32 368 1460 368C1460.54 368.577 1461.07 369.155 1461.62 369.75C1469.53 377.243 1480.19 378.437 1490.65 378.254C1498.97 377.623 1505.98 375.428 1513 371C1513.66 371 1514.32 371 1515 371C1515.46 369.824 1515.46 369.824 1515.94 368.625C1517 366 1517 366 1518 364C1518.15 362.066 1518.22 360.127 1518.25 358.188C1518.28 357.15 1518.3 356.112 1518.33 355.043C1517.83 350.466 1516.17 348.037 1512.76 345.014C1503.96 338.589 1492.96 337.001 1482.44 335.5C1438.78 328.814 1438.78 328.814 1425 315C1424.67 314.01 1424.34 313.02 1424 312C1423.34 312 1422.68 312 1422 312C1421.2 310.506 1420.41 309.004 1419.62 307.5C1419.18 306.665 1418.74 305.829 1418.29 304.969C1415.51 298.562 1414.63 292.53 1414.69 285.625C1414.69 284.883 1414.7 284.14 1414.7 283.375C1414.82 277.516 1415.7 272.424 1418 267C1418.27 266.319 1418.53 265.639 1418.81 264.938C1424.24 252.568 1435.13 245.248 1447.25 240.25C1459.36 235.889 1471.67 234.531 1484.43 233.875Z" fill="#2DCD69"/>
<path d="M2481.44 233.875C2502.14 233.315 2524.28 237.701 2540.38 251.25C2548.64 259.189 2553.93 268.687 2556 280C2556 283.3 2556 286.6 2556 290C2541.81 290 2527.62 290 2513 290C2512.01 284.555 2512.01 284.555 2511 279C2508.77 272.983 2505.25 269.662 2499.66 266.801C2489.81 262.672 2479.2 262.57 2469.12 266.078C2464.87 267.924 2460.97 270.407 2458 274C2456.24 279.279 2456.2 284.105 2458.38 289.25C2467.31 298.609 2481.51 299.462 2493.64 301.66C2533.01 308.801 2533.01 308.801 2547 320C2548.39 320.959 2548.39 320.959 2549.81 321.937C2556.86 328.582 2560.01 337.906 2560.4 347.437C2560.41 349.292 2560.4 351.146 2560.38 353C2560.39 353.92 2560.4 354.841 2560.41 355.789C2560.35 368.965 2555.23 380.563 2546 390C2524.05 408.034 2494.62 410.18 2467.35 407.766C2462.81 407.175 2458.43 406.186 2454 405C2452.86 404.71 2451.72 404.42 2450.54 404.121C2435.48 399.925 2422.3 391.548 2414 378C2408.98 368.703 2408 360.695 2408 350C2421.86 350 2435.72 350 2450 350C2450.99 353.96 2451.98 357.92 2453 362C2454.97 365.455 2454.97 365.455 2457 368C2457.33 368.99 2457.66 369.98 2458 371C2459.64 371.729 2461.31 372.387 2463 373C2463.72 373.495 2464.44 373.99 2465.19 374.5C2474.89 379.672 2488.13 379.193 2498.58 376.754C2504.23 374.994 2510.1 372.905 2513.56 367.875C2515.9 363.206 2516.53 359.172 2516 354C2514.24 349.012 2511.51 345.703 2507 343C2498.03 338.845 2489.17 336.888 2479.44 335.5C2435.06 328.7 2435.06 328.7 2420.62 313.5C2419.82 312.262 2419.82 312.262 2419 311C2418.32 309.989 2417.64 308.979 2416.94 307.937C2410.65 296.425 2410.39 282.386 2413.9 269.984C2419.07 255.983 2427.79 248.242 2441 242C2453.98 236.352 2467.43 234.593 2481.44 233.875Z" fill="#2DCD69"/>
<path d="M1321 246C1321.57 246.4 1322.13 246.799 1322.71 247.211C1330.66 253.235 1335.89 262.68 1339 272C1339.33 260.78 1339.66 249.56 1340 238C1349.57 238 1359.14 238 1369 238C1369 292.45 1369 346.9 1369 403C1359.43 403 1349.86 403 1340 403C1339.67 391.45 1339.34 379.9 1339 368C1337.68 371.3 1336.36 374.6 1335 378C1326.41 392.447 1314.66 400.83 1298.38 405C1277.35 408.673 1256.91 406.079 1238.73 394.563C1226.84 386.199 1219.2 373.511 1214.63 359.938C1214.39 359.231 1214.15 358.524 1213.9 357.795C1210.3 346.36 1209.65 335.058 1209.68 323.166C1209.69 320.767 1209.66 318.371 1209.64 315.973C1209.54 292.984 1215.01 271.916 1230 254C1252.66 231.534 1294.78 226.191 1321 246ZM1251 276C1238.47 293.438 1236.84 315.538 1239.46 336.328C1242.22 351.925 1248.45 365.291 1261.39 374.75C1275.42 383.003 1291.68 383.891 1307.21 379.92C1313.44 378.127 1319.06 375.247 1324 371C1324 370.34 1324 369.68 1324 369C1324.59 368.771 1325.18 368.541 1325.79 368.305C1333.19 363.944 1337.52 351.877 1340 344C1341.85 336.225 1342.35 328.66 1342.31 320.688C1342.31 319.59 1342.3 318.493 1342.3 317.363C1342.04 299.769 1337.68 283.807 1325.05 271.031C1315.79 262.457 1303.15 258.188 1290.56 257.5C1275.01 258.397 1261.06 263.835 1251 276Z" fill="#153D3B"/>
<path d="M885.402 249.617C886.193 250.302 886.193 250.302 887 251C887 251.66 887 252.32 887 253C887.572 253.245 888.145 253.49 888.734 253.742C900.765 260.421 907.439 277.4 911.186 289.971C913.837 299.836 914.357 309.573 914.312 319.75C914.311 320.409 914.309 321.068 914.307 321.748C914.215 341.571 910.23 358.775 900 376C899.34 376 898.68 376 898 376C897.814 376.681 897.629 377.361 897.437 378.063C895.444 382.137 892.502 385.134 889 388C888.34 388 887.68 388 887 388C887 388.66 887 389.32 887 390C868.058 405.28 843.365 407.593 820 406C800.031 403.72 781.69 394.992 768.766 379.379C751.951 356.723 749.327 327.638 752.75 300.313C756.49 278.982 766.111 260.611 784 248C784.768 247.456 785.536 246.912 786.328 246.352C815.173 227.535 857.608 230.907 885.402 249.617ZM802 268C801.01 268.66 800.02 269.32 799 270C799 270.66 799 271.32 799 272C798.411 272.232 797.822 272.464 797.215 272.703C789.058 277.479 785.248 290.405 783 299C781.94 304.631 781.414 310.29 781 316C780.939 316.83 780.879 317.66 780.816 318.516C780.47 329.191 782.135 341.057 786 351C786.303 351.794 786.606 352.588 786.918 353.406C792.076 365.175 801.459 374.269 813.348 378.918C827.487 383.946 842.02 382.906 856 378C869.549 371.489 876.607 360.579 882 347C888.563 327.048 886.578 302.304 877.926 283.367C870.481 270.351 860.156 263.964 846.016 259.797C830.846 255.788 814.732 258.754 802 268Z" fill="#153D3B"/>
<path d="M2159 150C2173.85 150 2188.7 150 2204 150C2204 234.15 2204 318.3 2204 405C2189.15 405 2174.3 405 2159 405C2159 320.85 2159 236.7 2159 150Z" fill="#2DCD69"/>
<path d="M1061.98 246.367C1073.54 255.419 1080.12 270.745 1082.3 284.932C1083.02 291.04 1083.14 297.065 1083.11 303.211C1083.11 304.295 1083.11 305.379 1083.11 306.496C1083.11 310.051 1083.11 313.605 1083.1 317.16C1083.1 319.636 1083.09 322.112 1083.09 324.588C1083.09 331.083 1083.08 337.578 1083.07 344.073C1083.06 350.71 1083.05 357.346 1083.05 363.982C1083.04 376.988 1083.02 389.994 1083 403C1073.43 403 1063.86 403 1054 403C1053.99 399.731 1053.97 396.461 1053.96 393.093C1053.91 382.26 1053.84 371.428 1053.76 360.595C1053.72 354.031 1053.68 347.467 1053.65 340.902C1053.63 334.561 1053.59 328.22 1053.54 321.879C1053.52 319.466 1053.51 317.053 1053.5 314.64C1053.49 311.247 1053.46 307.854 1053.43 304.46C1053.43 303.475 1053.44 302.489 1053.44 301.474C1053.28 289.418 1050.56 277.902 1042.07 268.965C1036.14 263.844 1029.52 261.812 1022 260C1021.21 259.802 1020.42 259.603 1019.61 259.398C1007.54 257.556 994.274 260.97 984.336 267.953C973.273 277.647 969.184 291.862 968 306C967.853 309.309 967.816 312.614 967.795 315.926C967.78 317.347 967.78 317.347 967.765 318.797C967.733 321.897 967.708 324.997 967.684 328.098C967.663 330.26 967.642 332.421 967.621 334.583C967.566 340.25 967.516 345.917 967.468 351.584C967.417 357.375 967.362 363.167 967.307 368.959C967.199 380.306 967.098 391.653 967 403C957.43 403 947.86 403 938 403C938 348.55 938 294.1 938 238C947.57 238 957.14 238 967 238C967.33 249.88 967.66 261.76 968 274C968.99 271.36 969.98 268.72 971 266C973.904 259.158 977.423 253.029 983 248C983.66 248 984.32 248 985 248C985 247.34 985 246.68 985 246C1007.12 229.278 1039.79 231.076 1061.98 246.367Z" fill="#153D3B"/>
<path d="M718 252C718.866 252.619 719.732 253.237 720.625 253.875C723.935 256.837 726.632 260.24 729 264C729 264.66 729 265.32 729 266C729.66 266 730.32 266 731 266C732.122 268.222 733.222 270.451 734.312 272.687C734.621 273.294 734.93 273.901 735.248 274.525C738.41 281.083 739.252 286.427 741 294C731.43 294 721.86 294 712 294C710.845 291.546 709.69 289.091 708.5 286.562C702.891 275.128 695.874 266.683 683.625 262.312C669.026 257.898 654.787 257.633 640.852 264.566C639.183 265.582 637.534 266.632 635.918 267.73C634 269 634 269 631 270C630.281 271.306 629.622 272.645 629 274C627.912 275.512 626.807 277.011 625.687 278.5C616.744 291.188 614.61 304.589 614.687 319.812C614.692 320.957 614.697 322.101 614.702 323.28C614.946 340.846 619.089 356.941 631.723 369.746C641.586 378.756 654.542 381.673 667.68 381.277C680.302 380.223 691.857 376.788 700.812 367.375C706.353 360.422 710.205 352.384 713 344C722.57 344 732.14 344 742 344C739.756 355.221 736.332 364.928 731 375C730.34 375 729.68 375 729 375C728.794 375.681 728.587 376.361 728.375 377.062C725.075 384.113 719.337 388.722 713 393C712.272 393.505 711.543 394.011 710.793 394.531C691.878 406.828 666.2 409.039 644.436 404.82C632.279 402.078 621.916 397.629 612 390C610.989 389.278 609.979 388.556 608.937 387.812C592.522 373.53 585.804 351.066 584.141 330.13C582.276 301.877 588.183 276.522 607 255C609.832 252.36 612.776 250.137 616 248C616.621 247.554 617.243 247.108 617.883 246.648C646.881 226.871 691.31 230.697 718 252Z" fill="#153D3B"/>
<path d="M1123 182C1131.91 182 1140.82 182 1150 182C1150 200.48 1150 218.96 1150 238C1168.48 238 1186.96 238 1206 238C1206 245.26 1206 252.52 1206 260C1187.52 260 1169.04 260 1150 260C1150.09 277.756 1150.09 277.756 1150.21 295.512C1150.26 302.756 1150.31 310 1150.35 317.245C1150.37 323.087 1150.41 328.929 1150.46 334.771C1150.48 336.997 1150.49 339.223 1150.5 341.449C1150.51 344.573 1150.54 347.697 1150.57 350.82C1150.57 351.736 1150.56 352.652 1150.56 353.595C1150.69 362.368 1153.07 368.814 1159.1 375.305C1165.23 380.779 1173.43 381.33 1181.31 381.301C1188.68 380.7 1195.84 378.783 1203 377C1203.15 380.604 1203.23 384.207 1203.31 387.812C1203.35 388.837 1203.4 389.861 1203.44 390.916C1203.48 393.688 1203.46 396.265 1203 399C1200.95 401.062 1200.95 401.062 1198 402C1196.28 402.578 1196.28 402.578 1194.53 403.168C1176.31 408.029 1156.86 408.544 1140.12 398.875C1129.32 391.358 1124.18 381.161 1121.45 368.439C1120.85 363.838 1120.87 359.315 1120.89 354.68C1120.89 353.655 1120.89 352.63 1120.89 351.574C1120.89 348.198 1120.89 344.822 1120.9 341.445C1120.9 339.1 1120.91 336.754 1120.91 334.409C1120.91 328.244 1120.92 322.079 1120.93 315.914C1120.94 309.62 1120.95 303.326 1120.95 297.031C1120.96 284.687 1120.98 272.344 1121 260C1112.09 260 1103.18 260 1094 260C1094 252.74 1094 245.48 1094 238C1103.57 238 1113.14 238 1123 238C1123 219.52 1123 201.04 1123 182Z" fill="#153D3B"/>
<path d="M1587 238C1601.85 238 1616.7 238 1632 238C1632 293.11 1632 348.22 1632 405C1617.15 405 1602.3 405 1587 405C1587 349.89 1587 294.78 1587 238Z" fill="#2DCD69"/>
<path d="M1587 165C1601.85 165 1616.7 165 1632 165C1632 179.19 1632 193.38 1632 208C1617.15 208 1602.3 208 1587 208C1587 193.81 1587 179.62 1587 165Z" fill="#2DCD69"/>
</svg>

