<svg xmlns:xlink="http://www.w3.org/1999/xlink" xmlns="http://www.w3.org/2000/svg" id="Group_1" data-name="Group 1" viewBox="0 0 336.827 50" width="336.827"  height="50" >
    <defs>
        <style>
            .cls-1{fill:#1977fe}.cls-2{fill:#19f7ad}
        </style>
    </defs>
    <path id="Path_1" d="M32.536 0v48.89h-10.2v-3.309a13.054 13.054 0 0 1-9.885 4.4C4.718 49.979 0 43.51 0 35.29c0-11.656 7.408-18.317 17.1-18.317a25.742 25.742 0 0 1 4.974.576V0zM16.225 40.927a8.628 8.628 0 0 0 5.85-2.711V26.3a15.151 15.151 0 0 0-3.544-.384c-5.167 0-8.027 3.117-8.027 8.091-.004 4.4 2.306 6.92 5.721 6.92z" class="cls-1" data-name="Path 1"/>
    <path id="Path_2" d="M211.75 80.784V90.5a17.07 17.07 0 0 0-3.928-.448 14.583 14.583 0 0 0-8.582 2.775v19.3H188.8V81.1h10.269v3.309c2.733-2.263 5.978-4.014 9.33-4.014a12.7 12.7 0 0 1 3.351.389z" class="cls-1" data-name="Path 2" transform="translate(-148.493 -63.235)"/>
    <path id="Path_3" d="M361.1 96.137c0-9.842 6.469-17.037 16.61-17.037a18.192 18.192 0 0 1 8.646 2.007v8.732a15.455 15.455 0 0 0-6.661-1.43c-5.167 0-7.835 2.839-7.835 7.387 0 4.462 2.733 7 7.536 7a16.835 16.835 0 0 0 7.216-1.559v8.476a20.786 20.786 0 0 1-10.632 2.455c-9.521.023-14.88-6.51-14.88-16.031z" class="cls-1" data-name="Path 3" transform="translate(-284.008 -62.213)"/>
    <path id="Path_4" d="M500.7 95.7c0-9.394 6.832-16.5 16.866-16.5 10.568 0 16.909 6.725 16.909 16.5 0 9.33-6.725 16.588-16.909 16.588C507.1 112.27 500.7 105.417 500.7 95.7zm23.249 0c0-4.932-2.242-7.451-6.4-7.451-3.864 0-6.4 2.925-6.4 7.451 0 4.782 2.306 7.451 6.4 7.451 3.924.003 6.4-2.858 6.4-7.451z" class="cls-1" data-name="Path 4" transform="translate(-393.804 -62.291)"/>
    <path id="Path_5" d="M715.14 94.144v17.037h-10.5V95.895c0-4.868-1.495-6.661-5.039-6.661a9.211 9.211 0 0 0-5.593 2.2v19.748H683.5V80.16h10.269v3.245c2.669-2.2 6.213-4.206 10.205-4.206 7.626-.021 11.166 4.911 11.166 14.945z" class="cls-1" data-name="Path 5" transform="translate(-537.578 -62.291)"/>
    <path id="Path_6" d="M858.5 109.195v-7.771a30.6 30.6 0 0 0 12.062 2.455c3.48 0 5.85-.256 5.85-2.071 0-1.623-.939-2.135-5.722-2.583-8.839-.7-11.828-4.014-11.828-10.1 0-6.789 6.6-10.226 14.368-10.226a26.368 26.368 0 0 1 11.315 2.391v7.58c-2.541-1.238-7.9-2.007-10.2-2.007-2.8 0-5.4.128-5.4 1.943 0 1.623 1.174 2.007 5.657 2.519 8.326.9 11.87 4.142 11.87 10.418 0 6.533-4.782 10.29-14.688 10.29a31.363 31.363 0 0 1-13.284-2.838z" class="cls-1" data-name="Path 6" transform="translate(-675.216 -62.055)"/>
    <path id="Path_7" d="M1049.6 83.7v31.02h-10.2v-3.245c-2.6 2.263-6.042 4.334-10.013 4.334-7.643 0-11.187-5-11.187-15.03V83.7h10.5v15.478c0 4.868 1.3 6.533 4.846 6.533a9.042 9.042 0 0 0 5.53-2.2V83.7z" class="cls-1" data-name="Path 7" transform="translate(-800.822 -65.831)"/>
    <path id="Path_8" d="M1198.4 0h10.5v36.123c0 2.583.619 4.782 3.8 4.782a11.216 11.216 0 0 0 3.736-.64v8.348a17.841 17.841 0 0 1-7.835 1.366c-7.216 0-10.2-4.654-10.2-12.041z" class="cls-1" data-name="Path 8" transform="translate(-942.55)"/>
    <path id="Path_9" d="M1325.858 75.582v8.54a19.06 19.06 0 0 1-8.582 1.878c-10.952 0-14.176-6.81-14.176-16.055V45.8h10.5v8.091h11.934v8.348H1313.6v8.155c0 4.142 1.068 6.469 6.277 6.469a13.157 13.157 0 0 0 5.981-1.281z" class="cls-1" data-name="Path 9" transform="translate(-1024.897 -36.022)"/>
    <ellipse id="Ellipse_1" cx="6.469" cy="6.469" class="cls-2" data-name="Ellipse 1" rx="6.469" ry="6.469" transform="translate(59.629 35.888)"/>
    <path id="Path_10" d="M1460.41 99.211V81.235a38.637 38.637 0 0 0-11.785-2.135c-12.319 0-20.025 6.725-20.025 18.318 0 8.284 4.718 14.774 12 14.774a12.834 12.834 0 0 0 9.757-4.4v3.308h10.077V99.211zm-10.354 1.2c-1.793 1.687-3.544 2.647-5.594 2.647-3.352 0-5.359-2.519-5.359-6.939 0-5 2.925-8.091 8.39-8.091.875 0 1.751.064 2.541.128v12.254z" class="cls-1" data-name="Path 10" transform="translate(-1123.604 -62.213)"/>
</svg>