<svg xmlns:xlink="http://www.w3.org/1999/xlink" xmlns="http://www.w3.org/2000/svg" width="173" height="79" viewBox="0 0 173 79" fill="none">
<g clip-path="url(#clip0_1204_6879)">
<path d="M24.0661 78.9946C31.8782 79.1378 38.3857 76.6457 42.0949 70.5586C44.7769 66.1597 43.719 61.0394 45.0963 53.6006C46.5045 45.9846 49.9125 38.6227 47.577 33.3914C46.568 31.1302 45.2324 29.6192 43.601 28.3641C39.1079 24.9106 32.644 25.2633 28.1237 27.1127C22.8031 29.288 20.0175 26.717 17.1286 26.1853C14.657 25.7324 12.6772 25.1899 8.76839 26.1638C7.12792 26.572 3.41147 28.2406 1.2502 32.3834C-1.72768 38.0892 1.27197 42.6295 3.4151 52.5067C5.40217 61.6678 4.7507 67.6869 8.06792 72.0983C11.3851 76.5078 16.2539 78.8514 24.0661 78.9946Z" fill="#FF6338"/>
<path d="M30.8041 18.8557C30.8114 16.1541 28.4904 13.9914 25.6323 14.0344C25.0371 14.0433 24.4782 13.8338 24.0626 13.4471C23.647 13.0586 23.4184 12.5341 23.4202 11.9719C23.422 11.4079 23.6525 10.878 24.0699 10.4788C24.489 10.0777 25.048 9.85394 25.6432 9.84499C28.5013 9.80202 30.8331 7.55158 30.8404 4.82491C30.8477 2.12331 28.5267 -0.0394089 25.6686 0.00355901C22.335 0.0518979 19.1684 1.35168 16.7567 3.6612C14.3741 5.93671 13.0584 8.94446 13.0493 12.1241C13.0421 15.3037 14.3432 18.2721 16.7132 20.4813C19.114 22.721 22.2733 23.9277 25.6069 23.8776C28.4668 23.8346 30.7987 21.5824 30.8041 18.8557Z" fill="#00E984"/>
<path d="M69.9428 58.6529C67.3696 56.1787 66.083 52.7054 66.083 48.2332C66.083 45.3901 66.6728 42.8908 67.8559 40.7353C69.0373 38.5797 70.7122 36.9183 72.8826 35.7528C75.0511 34.5873 77.5771 34.0037 80.4588 34.0037C88.3254 34.0037 92.8421 37.758 94.0072 45.263H86.7231C86.4636 43.5067 85.8321 42.189 84.8286 41.31C83.825 40.4309 82.4005 39.9923 80.555 39.9923C78.3538 39.9923 76.5972 40.7281 75.287 42.1962C73.975 43.6661 73.3199 45.6784 73.3199 48.2332C73.3199 50.7558 73.9678 52.7448 75.2616 54.1986C76.5555 55.6523 78.352 56.3792 80.6512 56.3792C82.5276 56.3792 84.0101 55.9155 85.0953 54.9899C86.1787 54.0643 86.8356 52.7233 87.0624 50.9652H94.3465C94.185 53.1691 93.5698 55.1331 92.501 56.859C91.4321 58.5831 89.886 59.933 87.8627 60.9069C85.8393 61.8809 83.4186 62.3678 80.6022 62.3678C76.0691 62.366 72.5178 61.1289 69.9428 58.6529Z" fill="#E80537"/>
<path d="M127.522 34.7234V61.6481H120.482V53.1673C120.222 56.329 119.275 58.6529 117.642 60.1389C116.007 61.6248 113.796 62.3678 111.013 62.3678C108.454 62.3678 106.222 61.8092 104.311 60.6903C102.4 59.5731 100.919 57.9529 99.8669 55.8278C98.8143 53.7044 98.2881 51.1568 98.2881 48.1866C98.2881 45.2487 98.847 42.71 99.963 40.5688C101.081 38.4294 102.602 36.8002 104.527 35.6812C106.452 34.564 108.614 34.0037 111.009 34.0037C113.729 34.0037 115.914 34.7466 117.565 36.2308C119.217 37.7168 120.188 40.0245 120.48 43.154V34.7216H127.522V34.7234ZM118.805 54.2218C120.084 52.7538 120.723 50.7558 120.723 48.2332C120.723 45.6462 120.084 43.6177 118.805 42.1479C117.525 40.6798 115.752 39.944 113.488 39.944C111.092 39.944 109.158 40.6708 107.684 42.1246C106.211 43.5783 105.474 45.5978 105.474 48.1848C105.474 50.7396 106.218 52.752 107.708 54.2218C109.196 55.6917 111.123 56.4257 113.486 56.4257C115.754 56.4257 117.525 55.6917 118.805 54.2218Z" fill="#E80537"/>
<path d="M125.773 74.2001V67.2536C127.165 67.669 128.557 67.8767 129.949 67.8767C131.696 67.8767 132.943 67.4935 133.689 66.7273C134.433 65.961 134.805 64.6022 134.805 62.6543V34.7234H141.846V62.9891C141.846 65.927 141.448 68.2598 140.655 69.9839C139.862 71.708 138.632 72.9469 136.964 73.697C135.296 74.4472 133.072 74.8232 130.286 74.8232C128.477 74.8232 126.972 74.6137 125.773 74.2001Z" fill="#E80537"/>
<path d="M173 34.7234V61.6481H165.959V52.4978H165.91C165.91 54.7661 165.522 56.6352 164.745 58.1033C163.968 59.5731 162.956 60.6509 161.709 61.3366C160.462 62.0223 159.111 62.3678 157.655 62.3678C154.708 62.3678 152.5 61.5622 151.026 59.9491C149.553 58.336 148.816 55.8206 148.816 52.4029V34.7234H155.857V50.6287C155.857 52.5443 156.252 53.9426 157.047 54.8198C157.84 55.6989 159.045 56.1375 160.666 56.1375C162.09 56.1375 163.328 55.6111 164.38 54.5566C165.433 53.5021 165.959 52.0645 165.959 50.2455V34.7234H173V34.7234Z" fill="#E80537"/>
<path d="M135.412 29.1179C134.587 28.3194 134.175 27.3615 134.175 26.2426C134.175 25.0932 134.587 24.1193 135.412 23.3208C136.238 22.5223 137.216 22.123 138.35 22.123C139.483 22.123 140.454 22.5223 141.265 23.3208C142.074 24.1193 142.479 25.0932 142.479 26.2426C142.479 27.3598 142.074 28.3194 141.265 29.1179C140.455 29.9163 139.485 30.3156 138.35 30.3156C137.218 30.3156 136.238 29.9163 135.412 29.1179Z" fill="#00E984"/>
</g>
<defs>
<clipPath id="clip0_1204_6879">
<rect width="173" height="79" fill="white"/>
</clipPath>
</defs>
</svg>