<svg xmlns="http://www.w3.org/2000/svg" width="124" height="40" viewBox="0 0 124 40">
  <path id="Logo_do_PicPay" data-name="Logo do PicPay" d="M28,34.3h5.8V17.4H28ZM35.8,5.9H31.9V9.8h3.9ZM13.9,7.8H8.3v4.9h5.2c3.3,0,5.2,1.6,5.2,4.6S16.8,22,13.5,22H8.3V12.8H2.5V34.3H8.3V26.9h5.5c6.7,0,10.6-3.6,10.6-9.8C24.4,11.3,20.6,7.8,13.9,7.8ZM39.7,2H28V13.7H39.7Zm-1.9,9.7H30V3.9h7.8Zm34-3.9H66.5v4.9h5c3.3,0,5.2,1.6,5.2,4.6S74.8,22,71.5,22h-5V12.8H60.7V34.3h5.8V26.9h5.3c6.7,0,10.6-3.6,10.6-9.8C82.4,11.3,78.5,7.8,71.8,7.8ZM120.5,14l-5,12.6-5-12.6h-6l8,20.3L109.4,42h6.1l11-28Zm-26-.1a19.309,19.309,0,0,0-9.2,2.3l1.8,4a12.479,12.479,0,0,1,6.1-1.8c2.8,0,4.2,1.2,4.2,3.4v.4H91.8c-5,0-7.7,2.3-7.7,6.1,0,3.7,2.6,6.3,7,6.3a8.277,8.277,0,0,0,6.4-2.7v2.2h5.7V20.9C103,16.6,99.9,13.9,94.5,13.9Zm3.4,13.6a4.816,4.816,0,0,1-4.7,3.1c-2,0-3.2-1-3.2-2.6s1.1-2.3,3.3-2.3h4.6S97.9,27.5,97.9,27.5ZM48.6,29.9c-2.8,0-4.8-2.2-4.8-5.5,0-3.2,2-5.4,4.8-5.4a5.554,5.554,0,0,1,4.6,2.2l3.9-2.8a10.155,10.155,0,0,0-8.8-4.3C42.2,14,38,18.2,38,24.4s4.2,10.3,10.3,10.3c4.2,0,7.3-1.7,9-4.5l-4-2.7A5.178,5.178,0,0,1,48.6,29.9Z" transform="translate(-2.5 -2)" fill="#ffffff"/>
</svg>
