<svg xmlns:xlink="http://www.w3.org/1999/xlink" xmlns="http://www.w3.org/2000/svg" width="93" height="57" viewBox="0 0 93 57" fill="none">
<g clip-path="url(#clip0)">
<path d="M92.6128 18.7882C92.2261 19.1756 91.6461 19.7567 91.2594 20.144C90.2926 20.9188 90.0993 21.1125 89.5193 21.1125C89.5193 20.7251 89.7126 20.5314 89.7126 20.144C90.0993 18.5945 90.486 17.045 90.2926 15.4955C89.906 12.5901 87.0057 10.8469 83.5255 11.2343C81.2053 11.428 79.6586 12.3965 78.3051 13.946C76.565 15.6892 75.5983 17.8198 74.8249 19.9503C74.6315 20.5314 74.4382 21.1125 74.2448 21.4999C73.6648 22.662 73.0847 23.6304 72.3114 24.7926C71.538 26.1484 70.7646 27.5042 69.6045 28.6664C69.2178 29.0538 69.0245 29.2474 68.6378 29.2474C68.0577 29.2474 67.8644 28.8601 67.8644 28.0853C68.0577 26.9232 68.0577 25.761 68.2511 24.5989C69.0245 20.9188 70.1845 17.4324 71.538 13.946C71.9247 12.9775 71.9247 13.1712 72.8914 13.1712C73.4714 13.1712 74.2448 13.3649 74.8249 12.9775C75.5983 12.3965 76.1783 11.8154 76.1783 11.0406C76.1783 10.8469 76.1783 10.4596 75.7916 10.6533C74.8249 11.0406 73.8581 10.8469 72.8914 11.0406V10.8469C74.0515 8.32898 75.2116 6.0047 76.9517 3.87412C77.3384 3.48674 77.7251 3.09936 78.1118 2.71198C78.6918 2.3246 78.6918 2.3246 78.3051 1.93722C77.145 0.968778 75.7916 0.387709 74.2448 0.19402C73.2781 0.000330105 72.6981 0.19402 72.118 0.968778C71.7313 1.16247 71.538 1.54985 71.1513 1.93722C69.4111 4.64888 68.0577 7.55422 66.8976 10.4596C66.7043 10.8469 66.7043 10.8469 66.3176 10.8469C64.9642 10.8469 63.6107 11.0406 62.2573 11.0406C62.064 11.0406 62.064 11.0406 61.8706 11.0406C61.8706 11.0406 61.8706 11.0406 61.8706 10.8469C63.0307 8.32898 64.1908 6.0047 65.7376 3.87412C66.1243 3.29305 66.5109 2.90567 67.091 2.3246C67.4777 1.93723 67.671 1.93722 67.091 1.54985C65.9309 0.581399 64.5775 0.000330105 63.224 -0.193359C63.0307 -0.193359 62.8373 -0.193359 62.8373 -0.193359C62.2573 -0.193359 61.6773 0.19402 61.0972 0.775088C60.7105 1.16247 60.3238 1.74354 60.1305 2.13091C58.3904 4.84257 57.2303 7.74791 56.2635 10.6533C55.8769 11.8154 56.2635 11.6217 54.9101 11.6217C54.1367 11.6217 53.75 12.0091 53.3633 12.5901C52.9766 13.3649 53.17 13.5586 53.75 13.5586C54.3301 13.5586 54.7168 13.5586 55.2968 13.3649C55.2968 13.5586 55.1035 13.7523 55.1035 13.946C54.5234 16.2702 53.75 18.4008 53.17 20.7251C52.7833 22.0809 52.5899 23.4368 52.0099 24.5989C50.8498 26.9232 50.0764 28.4727 48.9163 30.6033C48.5297 31.1843 47.9496 31.9591 47.5629 32.5402C47.1762 32.9275 46.5962 32.9275 46.5962 31.7654C46.5962 30.797 46.5962 30.2159 46.7895 29.2474C47.3696 24.7926 48.9163 20.7251 50.8498 16.6576C51.0432 16.2702 51.2365 15.8829 51.8166 15.3018C52.0099 15.1081 52.0099 14.9144 51.8166 14.9144C51.8166 14.7207 51.6232 14.527 51.2365 14.3334C50.2698 13.7523 49.303 13.3649 48.143 13.3649C47.5629 13.3649 46.7895 13.3649 46.4028 14.1397C46.2095 14.527 46.0161 14.7207 45.8228 15.1081C44.8561 16.8513 44.0827 18.7882 43.5026 20.7251C42.9226 22.4683 42.5359 24.4052 41.5692 26.1484C41.1825 26.7295 40.9891 27.3105 40.6024 27.8916C39.6357 29.8285 38.6689 31.7654 37.1222 33.5086C36.5421 34.0897 35.7687 34.6707 34.9954 35.2518C33.8353 35.8329 32.8685 35.4455 32.4818 34.2834C32.0951 33.1212 32.0951 31.9591 32.0951 30.797C32.0951 30.2159 32.2885 29.6348 32.2885 28.8601C33.6419 29.2474 34.4153 29.0538 35.382 28.6664C38.0889 27.6979 40.0224 25.761 40.9891 23.0494C41.9559 20.3377 41.9558 18.0135 40.4091 15.8829C39.249 14.3334 37.7022 13.7523 35.7687 14.1397C34.0286 14.527 32.6752 15.8829 31.5151 17.2387C29.3883 19.9503 28.0349 23.2431 27.2615 26.7295C27.2615 27.1169 27.0681 27.3105 27.0681 27.6979C26.6814 27.5042 26.4881 27.3105 26.1014 27.3105C25.7147 27.3105 25.5213 27.1169 24.9413 27.3105C24.9413 27.1169 24.9413 26.9232 24.9413 26.9232C25.5213 24.9863 25.908 23.0494 26.4881 21.1125C27.0681 18.2071 27.4548 15.1081 27.2615 12.0091C27.0681 10.2659 26.8748 8.71636 26.1014 7.16684C24.748 4.45519 22.8145 3.09936 19.9143 2.90567C18.1742 2.90567 16.6274 3.48674 15.2739 4.45519C13.1471 6.0047 11.407 7.74791 9.86022 9.87849C8.1201 12.2028 6.76667 14.7207 6.18662 17.6261C5.79993 18.7882 5.79993 19.9503 5.99328 21.3062C6.37997 23.2431 7.15336 24.5989 8.50679 25.761C9.08683 26.3421 9.66687 26.7295 10.2469 26.9232C10.6336 27.1169 10.827 27.1169 11.0203 26.9232C11.2136 26.7295 11.0203 26.3421 10.827 25.9547C10.4403 25.18 10.2469 24.2115 10.2469 23.2431C10.2469 21.4999 10.827 19.9503 11.407 18.4008C12.9538 14.527 15.2739 11.428 17.9808 8.91005C18.7542 8.13529 19.7209 7.55422 20.6877 6.97315C21.4611 6.58577 21.8477 6.77946 22.2344 7.55422C22.4278 7.9416 22.4278 8.32898 22.6211 8.71636C22.8145 10.4596 22.6211 12.2028 22.2344 13.7523C21.2677 18.7882 19.9143 23.8241 18.1741 28.6664C17.9808 29.0538 17.7875 29.2474 17.5941 29.2474C15.0806 30.2159 12.7604 31.5717 10.6336 33.3149C8.50679 35.0581 6.76666 36.995 5.02654 39.1256C3.28642 41.4499 1.73964 44.1615 0.772903 47.0669C0.192861 49.0038 -0.193833 50.9407 -0.000485927 52.1028C0.192861 55.0081 1.54629 56.364 3.67311 56.364C4.0598 56.364 4.4465 56.364 4.83319 56.1703C6.96001 55.5892 8.89348 54.2334 10.4403 52.4902C13.9205 49.1975 16.434 45.13 18.9475 41.0625C20.881 37.5761 22.4278 34.0897 23.7812 30.4096C23.7812 30.2159 23.9746 30.0222 24.1679 30.0222C24.9413 29.8285 25.7147 29.6348 26.4881 29.6348C26.4881 30.797 26.2947 31.9591 26.4881 33.1212C26.6814 36.2203 27.8415 38.5445 30.5484 39.3193C32.8685 39.9004 35.1887 39.513 37.3155 37.3824C38.8623 36.0266 39.829 34.2834 40.7958 32.5402C40.9891 32.3465 40.9891 32.1528 41.1825 31.7654C41.1825 32.1528 41.1825 32.3465 41.1825 32.5402C41.3758 33.896 41.5692 35.2518 42.5359 36.0266C43.696 37.3824 46.2095 37.5761 47.7563 35.6392C48.723 34.6707 49.303 33.7023 50.0764 32.5402C50.6565 31.7654 51.0432 30.797 51.6232 30.0222C51.6232 30.2159 51.6232 30.2159 51.6232 30.4096C51.8166 31.7654 52.0099 33.1212 52.9766 33.896C54.1367 35.2518 56.6502 35.2518 58.3904 33.896C59.3571 32.9275 60.3238 31.9591 61.0972 30.797C61.6773 30.0222 62.2573 29.0538 62.8373 28.0853C62.8373 28.279 62.8373 28.4727 62.8373 28.6664C63.0307 30.2159 63.4174 31.5717 64.5775 32.3465C65.7376 33.1212 67.2843 33.1212 68.6378 32.3465C69.7978 31.7654 70.7646 30.797 71.3446 29.8285C72.118 28.6664 72.8914 27.5042 73.6648 26.3421C73.8581 26.9232 73.8581 27.5042 74.0515 27.8916C74.8249 30.2159 76.7583 31.378 79.6586 30.9906C81.3987 30.797 82.9454 30.0222 84.2989 28.8601C86.039 27.3105 87.0057 25.761 88.1658 24.0178C88.1658 23.8241 88.5525 23.6304 88.5525 23.6304C89.1326 23.2431 89.906 22.8557 90.486 22.4683C91.6461 21.6936 92.4195 20.7251 92.8062 19.3693V19.1756C92.9995 18.9819 92.8062 18.7882 92.6128 18.7882ZM33.8353 23.8241C34.6087 22.0809 35.5754 20.5314 36.7355 19.3693C37.1222 18.9819 37.5089 18.5945 37.8956 18.4008C38.0889 18.2071 38.4756 18.0135 38.6689 18.2071C39.0556 18.4008 39.0556 18.7882 39.0556 19.1756C38.8623 20.5314 38.2823 21.8872 37.3155 23.0494C36.1554 24.5989 34.802 26.1484 33.0619 27.1169C32.8685 27.1169 32.8685 27.3105 32.6752 27.3105C32.6752 27.3105 32.4818 27.3105 32.2885 27.3105C32.8685 26.1484 33.2552 24.9863 33.8353 23.8241ZM16.434 33.5086C15.854 34.4771 15.4673 35.6392 14.8872 36.8013C13.3405 40.0941 11.7937 43.3868 9.66687 46.4858C8.50679 48.229 7.34671 49.7785 5.99328 50.9407C5.41323 51.328 4.83319 51.7154 4.25315 51.7154C3.67311 51.7154 3.47976 51.328 3.47976 50.747C3.47976 49.5848 3.86646 48.6164 4.25315 47.6479C5.21989 45.13 6.57332 42.8057 8.1201 40.6751C9.86022 38.1572 11.987 36.0266 14.5006 34.2834C14.8872 34.0897 15.6606 33.7023 16.434 33.5086C16.434 33.3149 16.434 33.3149 16.434 33.5086ZM64.9642 16.4639C64.3841 18.2071 63.9974 20.144 63.224 21.6936C61.0972 25.9547 60.7105 27.3105 59.1637 29.4411C58.7771 29.8285 58.5837 30.4096 58.197 30.6033C58.0037 30.797 57.2303 31.1843 57.0369 30.4096C56.8436 29.8285 56.8436 28.8601 57.0369 28.0853C57.4236 24.4052 58.5837 20.9188 59.7438 17.4324C59.9371 16.2702 60.5172 14.9144 60.9039 13.5586C61.0972 13.1712 61.2906 13.1712 61.4839 13.1712C63.0307 13.1712 64.3841 13.1712 65.9309 12.9775C65.5442 14.3334 65.1575 15.3018 64.9642 16.4639ZM85.0723 20.5314C84.8789 20.9188 84.6856 21.3062 84.6856 21.6936C84.6856 22.0809 84.2989 22.0809 83.9122 22.0809C82.9455 22.0809 82.3654 22.662 82.1721 23.4368C81.9787 24.0178 82.1721 24.7926 83.3321 24.7926C82.7521 25.9547 82.1721 26.9232 81.012 27.8916C80.6253 28.279 80.2386 28.279 79.8519 28.279C79.4652 28.279 79.0785 27.8916 78.8852 27.5042C78.8852 27.1169 78.6918 26.5358 78.8852 26.1484C79.2719 23.4368 80.2386 20.7251 81.592 18.2071C82.3654 16.6576 83.1388 15.3018 84.4922 14.1397C84.6856 13.946 85.0723 13.5586 85.6523 13.7523C86.2324 13.946 86.2324 14.527 86.2324 14.9144C86.2324 16.6576 85.6523 18.5945 85.0723 20.5314Z" fill="#F58220"/>
<path d="M52.0076 9.10372C52.5877 9.10372 52.9744 8.91003 53.1677 8.32896C53.7478 7.16683 54.3278 6.19838 54.9078 5.22993C55.4879 4.26148 56.0679 3.09935 56.648 2.32459C57.0347 1.74352 57.0347 1.54983 56.4546 1.16245C55.4879 0.581385 54.3278 0.387695 53.1677 0.387695C52.0076 0.387695 52.0076 0.387695 51.4276 1.35614C50.4609 3.09935 49.6875 5.03624 49.3008 6.97314C49.3008 7.5542 49.3008 7.94158 49.6875 8.13527C50.2675 8.91003 51.2343 9.10372 52.0076 9.10372Z" fill="#F58220"/>
<path d="M88.7471 32.3464C87.7803 32.3464 87.007 32.5401 85.8469 32.9275C82.3666 33.8959 54.1379 43.193 46.0174 45.711C40.6036 47.4542 31.7097 49.0037 28.0361 48.0353C26.4893 47.6479 26.4893 46.0984 26.876 45.1299C27.0693 44.7426 26.876 44.5489 26.4893 44.5489C22.6224 44.1615 21.2689 46.0984 21.0756 47.4542C20.8822 50.3596 22.8157 52.8775 28.0361 52.8775C34.0298 52.8775 41.5704 50.1659 47.3708 48.229L48.7242 47.8416C53.9446 46.0984 74.0527 38.1571 85.8469 34.477C85.4602 35.8328 86.6203 37.7697 88.9404 37.576C90.6806 37.3824 91.2606 35.8328 91.0672 34.477C91.2606 33.3149 90.2939 32.3464 88.7471 32.3464Z" fill="#F58220"/>
</g>
<defs>
<clipPath id="clip0">
<rect width="93" height="56.3636" fill="white"/>
</clipPath>
</defs>
</svg>