<?xml version="1.0" encoding="UTF-8"?>
<svg id="Layer_2" data-name="Layer 2" xmlns="http://www.w3.org/2000/svg" viewBox="0 0 43.23 29">
  <g id="Layer_1-2" data-name="Layer 1">
    <path d="M43.02,10.17l-2.46,.48c-.36-1.56-1.04-2.51-2.73-2.51-2.65,0-3.77,2.74-3.77,5.88,.41-.72,1.01-1.3,1.74-1.7,.73-.39,1.55-.58,2.37-.53,.7-.02,1.39,.11,2.03,.38,.64,.27,1.22,.67,1.69,1.18,.47,.51,.84,1.11,1.06,1.77,.22,.66,.31,1.36,.24,2.05,.05,.74-.06,1.48-.32,2.18s-.66,1.33-1.19,1.86c-.52,.53-1.15,.94-1.84,1.21-.69,.27-1.43,.39-2.17,.35-3.82,0-6.03-2.64-6.03-7.96,0-6.01,2.65-8.68,6.21-8.68,1.22-.13,2.43,.22,3.4,.97,.96,.75,1.6,1.85,1.77,3.06Zm-2.28,7.17c.07-.45,.04-.91-.08-1.34-.12-.44-.34-.84-.64-1.18-.3-.34-.67-.61-1.08-.8-.41-.18-.86-.28-1.32-.27-.84,.01-1.65,.32-2.28,.87-.64,.55-1.06,1.3-1.2,2.13,.23,2.35,1.6,4.12,3.59,4.12s3.01-1.4,3.01-3.62v.09Z"/>
    <path d="M28.28,20.53v2.12h-11.03v-1.94c1.97-1.36,3.84-2.86,5.6-4.48,.78-.61,1.42-1.37,1.87-2.25,.46-.88,.72-1.84,.76-2.83,.06-.38,.03-.77-.08-1.13-.11-.37-.31-.7-.57-.98-.26-.28-.58-.5-.94-.64-.36-.14-.74-.2-1.12-.17-.38-.04-.76,0-1.13,.13-.36,.13-.69,.33-.97,.6-.27,.27-.49,.59-.63,.95-.14,.36-.2,.74-.17,1.12,0,.47,.06,.94,.16,1.4l-2.51-.23c-.1-.42-.16-.86-.16-1.29,0-2.53,1.79-4.73,5.38-4.73,3.03,0,5.25,1.54,5.25,4.9-.12,1.25-.49,2.47-1.08,3.57-.6,1.11-1.41,2.08-2.39,2.87-1.19,1.1-2.46,2.11-3.8,3.03h7.55Z"/>
    <path d="M13.4,26.88H0v2.12H13.4v-2.12Z"/>
    <path d="M13.4,0H0V2.12H13.4V0Z"/>
    <path d="M13.25,6.33V22.65h-3.05L3.48,11.32c-.38-.64-.7-1.3-.97-1.99v13.33H.14V6.33H3.21l6.76,11.33c.38,.64,.7,1.3,.97,1.99V6.33h2.31Z"/>
  </g>
</svg>