<svg xmlns="http://www.w3.org/2000/svg" xml:space="preserve" id="svg2" version="1.1"
  viewBox="811.42 434.67 936.28 568.77">  <g transform="matrix(1.3333333,0,0,-1.3333333,0,1440)" id="g10"><g transform="translate(1098.9104,754)" id="g12"><path id="path14" style="fill:#ffffff;fill-opacity:1;fill-rule:nonzero;stroke:none" d="m 0,0 -52.542,-18.213 14.763,-12.186 -150.951,-181.932 -68.921,57.051 h -20.828 v -111.621 h 20.326 v 85.654 l 72.088,-59.671 163.96,197.585 13.703,-11.309 z"></path></g><g transform="translate(685.2028,414.8885)" id="g16"><path id="path18" style="fill:#ffffff;fill-opacity:1;fill-rule:nonzero;stroke:none" d="m 0,0 v -86.233 h -13.182 l -47.553,58.394 v -58.394 h -15.89 V 0 h 13.18 l 47.553,-58.391 V 0 Z"></path></g><g id="g20"><g clip-path="url(#clipPath26)" id="g22"><g transform="translate(825.7624,345.3602)" id="g28"><path id="path30" style="fill:#ffffff;fill-opacity:1;fill-rule:nonzero;stroke:none" d="m 0,0 c 4.549,2.538 8.303,6.291 10.841,10.841 5.256,9.724 5.256,21.442 0,31.166 C 8.304,46.557 4.55,50.311 0,52.848 c -9.701,5.176 -21.343,5.176 -31.044,0 -4.55,-2.536 -8.304,-6.29 -10.841,-10.841 -5.256,-9.724 -5.256,-21.442 0,-31.166 C -39.347,6.291 -35.594,2.537 -31.044,0 -21.342,-5.173 -9.701,-5.173 0,0 m -39.297,-12.196 c -6.902,3.664 -12.657,9.164 -16.63,15.892 -8.05,14.084 -8.05,31.375 0,45.458 3.973,6.729 9.728,12.228 16.63,15.892 14.93,7.636 32.62,7.636 47.55,0 6.89,-3.654 12.643,-9.131 16.633,-15.831 8.047,-14.129 8.047,-31.453 0,-45.581 -3.989,-6.701 -9.743,-12.177 -16.633,-15.83 -14.929,-7.639 -32.62,-7.639 -47.55,0"></path></g><g transform="translate(985.9104,396.9237)" id="g32"><path id="path34" style="fill:#ffffff;fill-opacity:1;fill-rule:nonzero;stroke:none" d="m 0,0 c -3.614,2.956 -8.911,4.434 -15.892,4.434 h -18.725 v -34.379 h 18.725 c 6.981,0 12.278,1.498 15.892,4.495 3.694,3.174 5.697,7.888 5.42,12.75 C 5.707,-7.853 3.7,-3.152 0,-0.008 Z m 5.789,-68.256 -17.616,25.255 c -1.105,-0.098 -2.215,-0.139 -3.325,-0.123 h -19.465 v -25.132 h -16.016 v 86.221 h 35.481 c 6.696,0.151 13.349,-1.108 19.526,-3.697 5.209,-2.183 9.648,-5.871 12.75,-10.592 3.043,-4.913 4.584,-10.609 4.434,-16.386 0.158,-5.937 -1.496,-11.781 -4.743,-16.753 -3.339,-4.82 -8.096,-8.48 -13.611,-10.472 l 19.825,-28.334 z"></path></g><g transform="translate(1120.4348,401.3503)" id="g36"><path id="path38" style="fill:#ffffff;fill-opacity:1;fill-rule:nonzero;stroke:none" d="M 0,0 H -28.582 V 13.551 H 44.595 V 0 H 16.015 V -72.682 H 0 Z"></path></g><g transform="translate(1310.7634,342.0956)" id="g40"><path id="path42" style="fill:#ffffff;fill-opacity:1;fill-rule:nonzero;stroke:none" d="M 0,0 V -13.428 H -64.675 V 72.793 H -1.724 V 59.365 H -48.65 V 36.946 H -7.026 V 23.764 H -48.665 V -0.013 Z"></path></g></g></g></g></svg>
