<svg xmlns="http://www.w3.org/2000/svg" viewBox="0 0 179 31" fill="none">
<path d="M20.039 18.7184C19.6822 18.718 19.3389 18.8491 19.0802 19.0846C18.8215 19.3201 18.6672 19.6419 18.6493 19.9833H21.3802C21.3857 19.8101 21.3531 19.6377 21.2842 19.4774C21.2154 19.317 21.1117 19.1724 20.9806 19.053C20.8494 18.9336 20.6935 18.8421 20.5229 18.7844C20.3522 18.7268 20.1709 18.7043 19.9905 18.7184H20.039ZM28.8985 23.1791L27.6061 24.5106V6.69455L21.3524 5.58268V8.62531H18.1838V7.14731H20.7756L14.9596 0.189941L9.06723 7.24045H11.7425V8.57199H8.5393V5.59601L2.22995 6.66789V24.4107C2.13267 24.2842 1.02086 23.0792 0.972217 23.0393C0.972217 23.0393 0.90288 28.5918 5.98923 30.1031C7.52364 30.5185 9.1375 30.588 10.7046 30.3061C12.2717 30.0243 13.7496 29.3988 15.0224 28.4786C15.9303 29.2313 16.9962 29.7884 18.1482 30.1123C19.3002 30.4362 20.5114 30.5194 21.6998 30.3561C29.246 28.6384 28.947 23.1791 28.947 23.1791H28.8985ZM16.3147 18.1326C16.3147 18.9381 16.3147 23.8914 16.3147 23.8914C16.3147 23.8914 16.3633 25.3562 15.2307 25.2763C14.5099 25.2071 13.819 24.9643 13.2225 24.5705C12.3174 25.3282 11.2522 25.8894 10.0997 26.2158C8.94711 26.5421 7.73448 26.6259 6.54498 26.4614C6.38165 26.4691 6.21885 26.44 6.0693 26.3766C5.91975 26.3132 5.78749 26.2173 5.68353 26.0963C5.57958 25.9754 5.5067 25.8328 5.47046 25.68C5.43422 25.5273 5.43569 25.3684 5.47487 25.2163V19.737L8.30282 19.3642L8.82396 19.3043C8.71983 19.4927 8.65397 19.6982 8.62955 19.9101H11.3465C11.353 19.6024 11.2447 19.3025 11.0409 19.0646L12.4859 18.8316C12.6613 18.8032 12.8205 18.716 12.9351 18.5855C13.0496 18.455 13.1124 18.2897 13.1115 18.1192V17.1471L5.5027 17.54V16.1552C5.5027 16.1552 5.30105 15.3296 6.40587 15.0766C7.76084 14.7703 13.3546 12.6266 23.9581 15.1432C23.9581 15.1432 24.5763 15.2431 24.4304 16.1086L24.3334 16.7744C23.117 16.3076 21.8145 16.0812 20.5045 16.1086C19.2075 16.1632 17.9398 16.4953 16.7941 17.0806C16.7941 17.0806 16.3493 17.3336 16.3632 18.1326H16.3147ZM23.6453 26.3748L19.789 26.1817C19.386 26.1817 19.1705 25.4094 19.1705 25.4094L18.0169 18.6186L20.8591 18.0859C24.389 17.6465 24.4236 20.8954 24.4236 20.8954V25.5559C24.5279 26.5678 23.6942 26.3748 23.6942 26.3748H23.6453Z" fill="#15151F"/>
<path d="M47.43 26.8011L43.0041 20.3231H40.7386V26.8011H36.8823V7.87987H44.3449C45.3915 7.8614 46.4336 8.01911 47.4233 8.34588C48.2438 8.61496 48.9833 9.07206 49.5774 9.67742C50.1274 10.2555 50.5482 10.9352 50.8141 11.6747C51.1018 12.487 51.2428 13.3404 51.2311 14.198C51.2509 15.1088 51.0807 16.0142 50.7306 16.8611C50.4265 17.5898 49.9509 18.2414 49.3409 18.7652C48.7083 19.2855 47.9737 19.6794 47.18 19.9237V19.9703L52.044 26.8411L47.43 26.8011ZM40.7386 17.0209H43.4763C44.4594 17.0779 45.4318 16.7995 46.2212 16.2353C46.5232 15.9634 46.7642 15.6356 46.9303 15.2718C47.0963 14.908 47.1839 14.5157 47.1871 14.1186C47.1904 13.7216 47.1093 13.3279 46.9493 12.9617C46.7892 12.5954 46.5533 12.264 46.2558 11.9876C45.5141 11.4296 44.5844 11.1524 43.6433 11.2087H40.7386V17.0209Z" fill="#15151F"/>
<path d="M64.8293 21.4279H55.31C55.4966 22.1518 55.9354 22.7929 56.5538 23.2455C57.1982 23.6961 57.9796 23.9301 58.7771 23.9112C59.3994 23.9261 60.0166 23.8007 60.5791 23.5451C61.1415 23.2896 61.6335 22.911 62.0153 22.4399L64.3777 24.5504C63.7324 25.3193 62.9059 25.9308 61.9664 26.3347C60.8739 26.7999 59.6873 27.0273 58.4921 27.0004C57.2504 27.0165 56.0246 26.7325 54.9276 26.1749C53.8707 25.6297 53 24.8046 52.4193 23.7981C51.8001 22.7156 51.4863 21.497 51.509 20.2628C51.4977 19.3364 51.6725 18.4165 52.0233 17.5532C52.3315 16.7603 52.8042 16.0355 53.413 15.4227C54.0198 14.827 54.7481 14.3579 55.5529 14.0445C56.3998 13.7137 57.3068 13.5462 58.2214 13.5519C59.4382 13.5331 60.638 13.8273 61.6957 14.404C62.6985 14.9572 63.5138 15.7754 64.0442 16.7609C64.6102 17.8092 64.8944 18.9762 64.871 20.1563C64.9068 20.5803 64.8927 21.0069 64.8293 21.4279ZM56.4493 17.2269C55.8841 17.6514 55.4873 18.2479 55.3239 18.918H61.3133C61.1602 18.2704 60.7981 17.6857 60.2781 17.2469C59.7461 16.8264 59.07 16.6105 58.3812 16.6411C57.6868 16.6224 57.006 16.8288 56.4493 17.2269Z" fill="#15151F"/>
<path d="M67.7201 11.6745C67.3808 11.4904 67.0979 11.224 66.9 10.9022C66.7005 10.5776 66.5974 10.207 66.6014 9.83029C66.5982 9.55055 66.6551 9.27319 66.7687 9.01546C66.8823 8.75774 67.0499 8.52519 67.2614 8.3323C67.4687 8.13043 67.7167 7.97093 67.9901 7.86337C68.2636 7.75581 68.557 7.70246 68.8526 7.70651C69.148 7.70361 69.4411 7.7575 69.7144 7.86499C69.9877 7.97249 70.2358 8.13136 70.4439 8.3323C70.6529 8.52767 70.819 8.7612 70.9324 9.01904C71.0459 9.27688 71.1044 9.55381 71.1044 9.83362C71.1044 10.1134 71.0459 10.3904 70.9324 10.6483C70.819 10.9061 70.6529 11.1396 70.4439 11.3349C70.2367 11.5371 69.9889 11.6969 69.7154 11.8044C69.4419 11.912 69.1483 11.9652 68.8526 11.9608C68.4552 11.9638 68.0642 11.8649 67.7201 11.6745ZM67.0252 13.7917H70.6661V26.8008H67.0252V13.7917Z" fill="#15151F"/>
<path d="M85.3345 12.5797V26.8005H83.764V25.3092C83.5116 25.6409 83.2069 25.9329 82.8608 26.1748C82.5134 26.4189 82.126 26.6057 81.7143 26.7273C81.2801 26.8566 80.8278 26.9217 80.3731 26.9204C79.7254 26.9268 79.0826 26.809 78.483 26.5742C77.9111 26.3599 77.3911 26.036 76.9545 25.6222C76.5096 25.1908 76.1617 24.6764 75.9329 24.1109C75.678 23.4898 75.5506 22.8274 75.5577 22.1601C75.5545 21.5003 75.6796 20.8455 75.9261 20.2294C76.1465 19.6542 76.4841 19.1269 76.9195 18.6782C77.3458 18.2392 77.8648 17.892 78.4416 17.6595C79.0463 17.4072 79.6997 17.2802 80.3592 17.2867C80.7892 17.2841 81.2174 17.3401 81.6309 17.4532C82.4518 17.6817 83.1795 18.1466 83.7154 18.7847H83.75V12.573L85.3345 12.5797ZM81.735 25.2293C82.1243 25.0744 82.4783 24.8482 82.7773 24.5636C83.0794 24.258 83.3156 23.8983 83.4722 23.505C83.6477 23.0813 83.7372 22.6294 83.7361 22.1735C83.7359 21.7189 83.6513 21.268 83.4861 20.8419C83.328 20.4374 83.0923 20.0648 82.7912 19.7434C82.5047 19.434 82.1546 19.1847 81.7628 19.011C81.3627 18.832 80.926 18.741 80.4844 18.7447C80.0407 18.7343 79.5995 18.8137 79.19 18.9778C78.7805 19.1419 78.4116 19.3869 78.1077 19.6968C77.7861 20.0327 77.5374 20.4262 77.3752 20.8547C77.213 21.2832 77.1407 21.7382 77.1628 22.1935C77.1258 23.0719 77.4531 23.9288 78.0731 24.5769C78.542 25.0178 79.1365 25.3163 79.7818 25.4347C80.4271 25.5532 81.0946 25.4863 81.7004 25.2427L81.735 25.2293Z" fill="#15151F"/>
<path d="M90.8444 26.5474C90.2378 26.3211 89.6884 25.974 89.2324 25.5288C88.7901 25.0903 88.4428 24.5721 88.2108 24.0042C87.7198 22.7852 87.7198 21.4349 88.2108 20.216C88.4376 19.6416 88.7854 19.118 89.2324 18.678C89.6884 18.2328 90.2378 17.8856 90.8444 17.6593C91.5941 17.3791 92.3974 17.2543 93.2011 17.2934C94.0048 17.3324 94.7906 17.5343 95.5069 17.8857C96.2647 18.2823 96.8909 18.8752 97.3135 19.5967C97.7551 20.3672 97.9802 21.2345 97.9667 22.1134C97.9801 22.986 97.7549 23.8467 97.3135 24.61C96.8926 25.3311 96.2659 25.9223 95.5069 26.3144C94.7113 26.7255 93.8189 26.9342 92.915 26.9202C92.2061 26.9259 91.5028 26.7992 90.8444 26.5474ZM94.6315 25.0561C95.1461 24.7694 95.5709 24.3556 95.8614 23.8577C96.1578 23.3177 96.3127 22.7168 96.3127 22.1067C96.3127 21.4966 96.1578 20.8957 95.8614 20.3557C95.5758 19.8549 95.1528 19.4382 94.6383 19.1507C94.1122 18.8677 93.5183 18.7208 92.915 18.7245C92.2877 18.7152 91.6699 18.8719 91.1294 19.1773C90.6128 19.4699 90.1933 19.897 89.9202 20.409C89.6413 20.935 89.4961 21.5167 89.4961 22.1067C89.4961 22.6967 89.6413 23.2784 89.9202 23.8044C90.2004 24.3103 90.6212 24.732 91.1362 25.0228C91.6735 25.3296 92.2897 25.4864 92.915 25.4755C93.5123 25.4903 94.1036 25.3573 94.6315 25.0894V25.0561Z" fill="#15151F"/>
<path d="M102.394 7.87929H109.717C110.769 7.85981 111.815 8.01753 112.81 8.3453C113.628 8.61437 114.365 9.07156 114.957 9.67685C115.502 10.2555 115.918 10.9353 116.179 11.6742C116.461 12.4876 116.6 13.3404 116.59 14.1975C116.608 15.1223 116.433 16.0413 116.075 16.9005C115.754 17.6465 115.248 18.3067 114.602 18.8246C113.927 19.3455 113.15 19.7305 112.316 19.9564C111.354 20.2203 110.357 20.3482 109.356 20.3359H106.243V26.8138H102.394V7.87929ZM108.835 17.007C109.816 17.0714 110.787 16.7948 111.573 16.228C111.867 15.9516 112.101 15.6217 112.26 15.2576C112.42 14.8935 112.502 14.5025 112.502 14.1076C112.502 13.7127 112.42 13.3217 112.26 12.9576C112.101 12.5935 111.867 12.2635 111.573 11.9871C110.837 11.4282 109.911 11.1507 108.974 11.2082H106.195V17.007H108.835Z" fill="#15151F"/>
<path d="M119.251 11.6745C118.911 11.4904 118.629 11.224 118.431 10.9022C118.231 10.5776 118.128 10.207 118.132 9.83029C118.13 9.54771 118.192 9.26808 118.312 9.00986C118.431 8.75163 118.607 8.52068 118.827 8.3323C119.034 8.13043 119.282 7.97093 119.555 7.86337C119.829 7.75581 120.122 7.70246 120.418 7.70651C120.713 7.70361 121.006 7.7575 121.28 7.86499C121.553 7.97249 121.801 8.13136 122.009 8.3323C122.218 8.52767 122.384 8.7612 122.498 9.01904C122.611 9.27688 122.67 9.55381 122.67 9.83362C122.67 10.1134 122.611 10.3904 122.498 10.6483C122.384 10.9061 122.218 11.1396 122.009 11.3349C121.802 11.5371 121.554 11.6969 121.281 11.8044C121.007 11.912 120.713 11.9652 120.418 11.9608C120.009 11.9698 119.605 11.8707 119.251 11.6745ZM118.556 13.7917H122.225V26.8008H118.583L118.556 13.7917Z" fill="#15151F"/>
<path d="M127.019 25.9222C126.263 25.0061 125.894 23.8513 125.984 22.6866V16.6946H124.379V13.7719H125.984V9.52423L129.618 9.14478V13.8052H133.342V16.6946H129.653V22.2205C129.623 22.6585 129.719 23.096 129.931 23.4855C130.035 23.6218 130.174 23.7303 130.335 23.8002C130.495 23.8702 130.672 23.8993 130.848 23.8849C131.447 23.8658 132.033 23.7106 132.557 23.4322L133.495 26.2151C133 26.4752 132.476 26.6807 131.932 26.8276C131.265 26.9787 130.581 27.048 129.896 27.0341C129.361 27.0627 128.825 26.9779 128.328 26.7857C127.831 26.5935 127.384 26.2987 127.019 25.9222Z" fill="#15151F"/>
<path d="M148.442 13.7716V26.7808H144.968V25.203H144.898C144.421 25.7917 143.804 26.2621 143.098 26.5749C142.391 26.8877 141.617 27.0336 140.84 27.0005C139.949 27.0083 139.066 26.8453 138.241 26.5212C137.458 26.2196 136.749 25.7663 136.157 25.1896C135.562 24.5792 135.103 23.8588 134.809 23.0724C134.16 21.308 134.16 19.3843 134.809 17.6198C135.104 16.8269 135.557 16.0966 136.143 15.4694C136.726 14.8669 137.434 14.3871 138.221 14.0604C139.008 13.7338 139.857 13.5674 140.715 13.5718C141.472 13.5473 142.225 13.6867 142.918 13.9795C143.611 14.2723 144.226 14.7109 144.718 15.2629H144.773V13.7716H148.442ZM143.96 22.8927C144.294 22.5494 144.554 22.1462 144.724 21.7063C144.895 21.2663 144.973 20.7984 144.954 20.3295C144.985 19.375 144.638 18.4445 143.981 17.7263C143.679 17.3909 143.302 17.1239 142.879 16.9443C142.457 16.7648 141.998 16.6771 141.535 16.6877C141.07 16.6773 140.607 16.7608 140.177 16.9328C139.747 17.1049 139.36 17.3616 139.041 17.6864C138.355 18.4131 137.997 19.3707 138.047 20.3494C138.005 21.2922 138.352 22.2128 139.013 22.9127C139.334 23.2377 139.724 23.4937 140.157 23.6635C140.589 23.8334 141.054 23.9133 141.521 23.898C141.977 23.9072 142.43 23.8242 142.85 23.6544C143.27 23.4846 143.649 23.2319 143.96 22.9127V22.8927Z" fill="#15151F"/>
<path d="M153.806 26.1815C152.757 25.6333 151.894 24.8084 151.318 23.8047C150.723 22.7256 150.411 21.5235 150.411 20.3028C150.411 19.0821 150.723 17.8799 151.318 16.8008C151.909 15.7906 152.789 14.9635 153.855 14.4173C154.996 13.8428 156.269 13.5521 157.558 13.5717C158.667 13.5756 159.763 13.8024 160.775 14.2375C161.774 14.6392 162.651 15.2758 163.325 16.0884L160.873 18.0857C160.489 17.6407 160.005 17.2846 159.458 17.0436C158.91 16.8027 158.313 16.6833 157.711 16.6943C157.204 16.6881 156.701 16.7786 156.231 16.9606C155.8 17.1252 155.409 17.3747 155.084 17.6929C154.764 18.0193 154.516 18.4042 154.355 18.8247C154.183 19.2884 154.095 19.7772 154.098 20.2694C154.079 20.7461 154.158 21.2217 154.332 21.6685C154.506 22.1154 154.772 22.5247 155.112 22.8726C155.453 23.2061 155.862 23.4673 156.315 23.6393C156.767 23.8114 157.252 23.8904 157.739 23.8713C158.363 23.8828 158.981 23.7551 159.545 23.4984C160.054 23.2749 160.51 22.9556 160.887 22.5597L163.381 24.6635C162.695 25.3995 161.845 25.9776 160.893 26.3546C159.784 26.8069 158.59 27.0336 157.384 27.0204C156.136 27.0381 154.905 26.7493 153.806 26.1815Z" fill="#15151F"/>
<path d="M169.079 26.6944C167.67 26.3021 166.434 25.4762 165.563 24.3442C165.134 23.7843 164.807 23.1584 164.597 22.4933C164.372 21.7857 164.259 21.0494 164.264 20.3096C164.259 19.3982 164.436 18.4943 164.785 17.6465C165.113 16.8437 165.61 16.1141 166.244 15.5027C166.901 14.8911 167.681 14.4153 168.537 14.1046C170.425 13.4388 172.499 13.4388 174.388 14.1046C175.241 14.4115 176.021 14.8802 176.681 15.4827C177.327 16.0848 177.834 16.8108 178.168 17.6132C178.53 18.4833 178.712 19.4128 178.703 20.3496C178.727 21.573 178.408 22.7802 177.779 23.8449C177.181 24.8574 176.291 25.6828 175.215 26.2216C174.063 26.7949 172.781 27.0833 171.483 27.0605C170.668 27.0503 169.858 26.927 169.079 26.6944ZM173.992 22.8861C174.646 22.1701 175.006 21.2511 175.006 20.2997C175.006 19.3482 174.646 18.4292 173.992 17.7131C173.659 17.392 173.264 17.1372 172.828 16.9633C172.392 16.7894 171.924 16.6999 171.452 16.6999C170.98 16.6999 170.512 16.7894 170.076 16.9633C169.641 17.1372 169.245 17.392 168.912 17.7131C168.271 18.4281 167.918 19.3399 167.918 20.283C167.918 21.226 168.271 22.1378 168.912 22.8529C169.241 23.1764 169.633 23.4336 170.067 23.6092C170.501 23.7848 170.967 23.8753 171.438 23.8753C171.909 23.8753 172.375 23.7848 172.809 23.6092C173.243 23.4336 173.636 23.1764 173.964 22.8529L173.992 22.8861Z" fill="#15151F"/>
</svg>
